<svg xmlns="http://www.w3.org/2000/svg" xmlns:xlink="http://www.w3.org/1999/xlink" width="577.142" height="661.266" viewBox="0 0 577.142 661.266">
  <defs>
    <linearGradient id="linear-gradient" x1="0.849" y1="-3.15" x2="0.723" y2="-0.46" gradientUnits="objectBoundingBox">
      <stop offset="0" stop-color="#c6e6ff"/>
      <stop offset="1" stop-color="#8d9fff"/>
    </linearGradient>
    <linearGradient id="linear-gradient-2" x1="3.851" y1="1.526" x2="4.26" y2="-0.056" gradientUnits="objectBoundingBox">
      <stop offset="0" stop-color="#1ae5ff"/>
      <stop offset="1" stop-color="#eaeeee"/>
    </linearGradient>
    <linearGradient id="linear-gradient-3" x1="-2.333" y1="2.414" x2="-2.125" y2="-0.334" gradientUnits="objectBoundingBox">
      <stop offset="0" stop-color="#1ae5ff"/>
      <stop offset="0.259" stop-color="#63e8f8"/>
      <stop offset="0.704" stop-color="#eaeeee"/>
    </linearGradient>
    <linearGradient id="linear-gradient-4" x1="-44.413" y1="0.5" x2="-43.413" y2="0.5" gradientUnits="objectBoundingBox">
      <stop offset="0" stop-color="#5155d4"/>
      <stop offset="1" stop-color="#45f7ff"/>
    </linearGradient>
  </defs>
  <g id="Header_Vector" data-name="Header Vector" transform="translate(-76.974 -52.183)">
    <path id="Path_4" data-name="Path 4" d="M600.717,489.431c-23.832-13.56-57.268-18.238-87.663-14.039l107.861-61.768c11.782-6.748,11.72-17.686-.139-24.432L373.887,248.727c-11.859-6.746-31.021-6.746-42.8,0l-84.368,48.313c-36.5-15.882-88.741-14.334-121.929,4.672s-35.764,48.847-7.826,69.634L85.8,389.194c-11.782,6.748-11.718,17.686.14,24.432l246.89,140.465c11.858,6.746,31.021,6.746,42.8,0l69.283-39.676c-7.271,17.37,1.014,36.45,24.849,50.01,36.4,20.707,95.267,20.707,131.427,0S637.113,510.138,600.717,489.431Z" transform="translate(0.021 133.494)" fill="#87aedd" opacity="0.25"/>
    <g id="Group_23" data-name="Group 23" transform="translate(105.059 167.712)">
      <g id="Group_22" data-name="Group 22">
        <g id="Group_10" data-name="Group 10" transform="translate(20.791 250.122)">
          <g id="Group_4" data-name="Group 4" transform="translate(0 19.037)">
            <g id="Group_3" data-name="Group 3" style="isolation: isolate">
              <path id="Path_5" data-name="Path 5" d="M207.865,297.8c-.973,10.66-11.155,17.9-20.34,21.8a79.133,79.133,0,0,1-31.857,5.825c-11.078-.141-22.388-2.228-32.377-7.072-8.716-4.228-17.968-11.894-17.939-22.321-.021,7.593.518,13.867,6.071,19.8,7.149,7.632,17.911,11.741,28.035,13.8,19.753,4.019,46.646,2.077,61.65-12.907,6.037-6.028,6.862-12.384,6.884-20.4Q207.962,297.065,207.865,297.8Z" transform="translate(-105.353 -266.871)" fill="#adcdfc"/>
              <g id="Group_2" data-name="Group 2" transform="translate(0)">
                <path id="Path_6" data-name="Path 6" d="M192.832,287.429c20.106,11.439,20.235,29.989.26,41.427s-52.5,11.439-72.6,0-20.188-29.987-.214-41.426S172.726,275.99,192.832,287.429Z" transform="translate(-105.353 -278.85)" fill="#e2edff"/>
              </g>
            </g>
          </g>
          <g id="Group_9" data-name="Group 9" transform="translate(44.589)">
            <g id="Group_8" data-name="Group 8" style="isolation: isolate">
              <g id="Group_5" data-name="Group 5" transform="translate(7.899 4.494)">
                <path id="Path_7" data-name="Path 7" d="M143.8,270.281l-.127,44.207-7.848,4.494.127-44.207Z" transform="translate(-135.829 -270.281)" fill="#c7d8f2"/>
              </g>
              <g id="Group_6" data-name="Group 6" transform="translate(0 4.494)">
                <path id="Path_8" data-name="Path 8" d="M139.269,274.776l-.127,44.207-7.9-4.494.127-44.207Z" transform="translate(-131.243 -270.281)" fill="#7baeff"/>
              </g>
              <g id="Group_7" data-name="Group 7" transform="translate(0.127)">
                <path id="Path_9" data-name="Path 9" d="M147.064,272.127l-7.848,4.494-7.9-4.494,7.848-4.494Z" transform="translate(-131.317 -267.633)" fill="#4da5dc"/>
              </g>
            </g>
          </g>
        </g>
        <path id="Path_10" data-name="Path 10" d="M115.645,192.176S99.559,196.4,95.27,205.914s-3.217,81.367,19.3,110.956,64.342,33.814,73.993,29.588,65.413-31.7,69.7-45.44-17.157-24.3-28.955-29.588-19.3-12.681-25.736-31.7-9.652-51.778-17.157-57.063S160.683,168.928,115.645,192.176Z" transform="translate(-93.281 -80.893)" fill="#3aaeef"/>
        <g id="Group_21" data-name="Group 21" transform="translate(20.857)">
          <path id="Path_11" data-name="Path 11" d="M182.565,183.635s-26.388-21.525-31.753-22.026c-6.438-.5-14.469,1.66-16.565,10.653a16.494,16.494,0,0,0,7.605,18.453c4.84,2.617,47.3,22.474,54.811,22.435s12.3-6.4,7.43-14.3S182.565,183.635,182.565,183.635Z" transform="translate(-84.912 -91.472)" fill="#e1e8f2"/>
          <g id="Group_20" data-name="Group 20" transform="translate(0 4.235)">
            <g id="Group_17" data-name="Group 17">
              <g id="Group_16" data-name="Group 16" transform="translate(6.771)">
                <g id="Group_15" data-name="Group 15">
                  <g id="Group_14" data-name="Group 14">
                    <g id="Group_13" data-name="Group 13">
                      <path id="Path_12" data-name="Path 12" d="M146.27,163.325a2.623,2.623,0,0,0,.053.855c.393,1.93,1.624,6.857,1.912,8.925.274,1.982-1.846,5.543-7.308,5.7s-14.83-1.643-18.232-7.9c.193-1.151-.791-13-1.855-18.874Z" transform="translate(-101.004 -102.339)" fill="#e16b40"/>
                      <g id="Group_12" data-name="Group 12">
                        <g id="Group_11" data-name="Group 11">
                          <path id="Path_13" data-name="Path 13" d="M166.323,144.6c-3.946-16.293-17.632-24.985-32.413-20.812,0,0-16.129,2.386-22.629,16.766s4.667,25.663,11.813,32.772c3.009,2.916,5.284,5.168,6.72,6.6.522.541,1.035,1.093,1.576,1.583l.153.154.016-.015a34.1,34.1,0,0,0,14.269,7.617c6.617,1.6,14.274.127,18.216-4.45S170.27,160.895,166.323,144.6Z" transform="translate(-109.323 -122.751)" fill="#ff8654"/>
                        </g>
                      </g>
                    </g>
                  </g>
                </g>
              </g>
              <path id="Path_14" data-name="Path 14" d="M135.072,159.733s-25.979,20.267-28.326,26.7-2.039,24.016,4.1,35.447,6.26,54.579,8.68,62.9,25.6,9.86,39.722,6.451,36.56-15.062,32.051-30.863c-6.66-23.334-5.077-46.84-4.542-54.265s-1.376-25.916-5.475-38.174c-.865-2.586-10.118-6.2-10.118-6.2S161.562,157.335,135.072,159.733Z" transform="translate(-105.391 -97.467)" fill="#0046a6"/>
            </g>
            <path id="Path_15" data-name="Path 15" d="M139.783,247.687c-10.723-13.385,5-59.176-13.583-71.857-5.668-3.868-10.533-4.844-14.567-4.343-2.492,2.576-4.338,4.837-4.886,6.339-2.347,6.437-2.039,24.016,4.1,35.447s6.26,54.579,8.68,62.9c2.2,7.576,21.588,9.516,35.706,7.233l20.3-20.928S150.507,261.073,139.783,247.687Z" transform="translate(-105.391 -88.859)" fill="#003783"/>
            <path id="Path_16" data-name="Path 16" d="M126.272,161.7c22.586-2.045,32.981,1.784,35.563,2.96a64.914,64.914,0,0,1-.329,15.807c-1.767,10.519-6.019,39.415-6.019,39.415s-13.935-23.74-23.109-33.512c-6.457-6.875-12.814-13.355-16.02-16.6C121.77,165.223,126.272,161.7,126.272,161.7Z" transform="translate(-97.471 -96.006)" fill="#e1e8f2"/>
            <path id="Path_17" data-name="Path 17" d="M146.27,163.325a2.623,2.623,0,0,0,.053.855c.393,1.93,1.624,6.857,1.912,8.925.274,1.982-1.846,5.543-7.308,5.7s-14.83-1.643-18.232-7.9c.193-1.151-.791-13-1.855-18.874Z" transform="translate(-94.233 -102.339)" fill="#ff8654"/>
            <g id="Group_19" data-name="Group 19" transform="translate(6.771)">
              <g id="Group_18" data-name="Group 18">
                <path id="Path_18" data-name="Path 18" d="M166.323,144.6c-3.946-16.293-17.632-24.985-32.413-20.812,0,0-16.129,2.386-22.629,16.766s4.667,25.663,11.813,32.772c3.009,2.916,5.284,5.168,6.72,6.6.522.541,1.035,1.093,1.576,1.583l.153.154.016-.015a34.1,34.1,0,0,0,14.269,7.617c6.617,1.6,14.274.127,18.216-4.45S170.27,160.895,166.323,144.6Z" transform="translate(-109.323 -122.751)" fill="#ff9f75"/>
              </g>
            </g>
            <path id="Path_19" data-name="Path 19" d="M151.911,179.592l-10.067-8.786-8.053,13.888-8.12-5.052c9.174,9.784,23.089,33.488,23.089,33.488s3.546-24.1,5.508-36.3Z" transform="translate(-90.744 -89.249)" fill="#cfdae4"/>
            <path id="Path_20" data-name="Path 20" d="M146.075,196.611l-4.485-15.6.679-5.344-5.568-4.859-3.908,6.738,4.483,4.032,1.218,23.164c3.057,4.874,5.122,8.389,5.122,8.389S144.742,205.474,146.075,196.611Z" transform="translate(-85.6 -89.249)" fill="#00a5ff"/>
          </g>
          <path id="Path_21" data-name="Path 21" d="M110.4,140.661a23.925,23.925,0,0,0,1.609,23.775c8.043,12.153,16.663,17.56,18.786,17.235s3.2-.855,2.661-2.44-3.217-6.868-3.217-6.868-9.114-1.057-9.114-6.868,3.215-6.868,6.97-5.285,4.288,4.228,6.434,6.341,2.68,7.4,4.288,6.87,2.682-2.115,2.682-4.755,0-5.813-3.217-8.983.536-8.453-2.682-12.681a31.282,31.282,0,0,0-5.361-5.811s2.144,3.17,12.869,1.056,15.549-1.583,19.839-4.226,3.217-8.454.536-10.568-9.114-3.17-16.621-5.811-11.8-1.057-20.912,1.057S108.257,134.321,110.4,140.661Z" transform="translate(-103.533 -120.255)" fill="#e16b40"/>
        </g>
      </g>
      <path id="Path_22" data-name="Path 22" d="M205.476,319.7s-.357,5.285,5.363,9.16,6.791,6.339,11.437,8.1,8.937,7.749,6.793,11.977-12.154,4.932-18.588,3.17-7.507-7.4-13.583-9.511a22.471,22.471,0,0,1-10.008-6.341c-1.788-1.762-1.073-8.807-1.073-8.807l21.805-7.043" transform="translate(-26.549 18.784)" fill="#382747"/>
      <path id="Path_23" data-name="Path 23" d="M221.665,307.657s-.356,5.285,5.361,9.159,6.793,6.341,11.439,8.1,8.937,7.751,6.791,11.977-12.152,4.932-18.587,3.17-7.507-7.4-13.583-9.511a22.461,22.461,0,0,1-10.008-6.341c-1.788-1.76-1.073-8.8-1.073-8.8l21.8-7.045" transform="translate(-14.856 10.392)" fill="#382747"/>
      <path id="Path_24" data-name="Path 24" d="M114.568,236.773a38.078,38.078,0,0,1,1.071,7.926c0,3.7-2.68,14.266,2.682,26.947s41.286,15.322,53.082,20.605,18.766,10.039,20.912,11.624,5.182,23.954,14.476,37.339,25.023,40.155,28.6,51.427c0,0,10.172,2.364,19.3-3.523,4.781-3.082,4.29-4.93,4.29-4.93s-18.588-40.156-22.878-57.065-9.293-36.633-17.157-41.563-32.885-22.543-38.6-26.067-21.13-14.658-24.149-21.42S123.861,220.394,114.568,236.773Z" transform="translate(-77.906 -45.002)" fill="#94a3c0"/>
      <path id="Path_25" data-name="Path 25" d="M131.691,226.5a38.078,38.078,0,0,1,1.071,7.926c0,3.7-2.68,14.266,2.682,26.947s41.286,15.322,53.082,20.605,18.766,10.04,20.912,11.625,5.182,23.952,14.476,37.337,25.023,40.155,28.6,51.427c0,0,10.172,2.364,19.3-3.522,4.781-3.084,4.288-4.932,4.288-4.932s-18.587-40.156-22.877-57.063-9.293-36.633-17.157-41.565-32.886-22.543-38.6-26.067S176.33,234.56,173.313,227.8,140.984,210.12,131.691,226.5Z" transform="translate(-65.539 -52.165)" fill="#94a3c0"/>
    </g>
    <g id="Group_33" data-name="Group 33" transform="translate(76.974 244.022)">
      <g id="Group_29" data-name="Group 29" transform="translate(200.408 220.7)">
        <g id="Group_28" data-name="Group 28" style="isolation: isolate">
          <g id="Group_24" data-name="Group 24" transform="translate(19.202 10.924)">
            <path id="Path_26" data-name="Path 26" d="M223.873,301.7l-.309,107.457-19.077,10.925.309-107.457Z" transform="translate(-204.487 -301.697)" fill="#c7d8f2"/>
          </g>
          <g id="Group_26" data-name="Group 26" transform="translate(0 10.925)">
            <g id="Group_25" data-name="Group 25">
              <path id="Path_27" data-name="Path 27" d="M212.849,312.622l-.309,107.457-19.2-10.924.309-107.457Z" transform="translate(-193.338 -301.697)" fill="#7baeff"/>
            </g>
          </g>
          <g id="Group_27" data-name="Group 27" transform="translate(0.309)">
            <path id="Path_28" data-name="Path 28" d="M231.8,306.185,212.719,317.11l-19.2-10.925,19.077-10.925Z" transform="translate(-193.517 -295.26)" fill="#4da5dc"/>
          </g>
        </g>
      </g>
      <g id="Group_32" data-name="Group 32">
        <path id="Path_29" data-name="Path 29" d="M515.183,258.686c-.027.312-.05.625-.109.937-.048.256-.126.509-.195.765-.079.3-.152.594-.258.888-.088.244-.2.487-.312.728-.138.312-.274.623-.441.928-.122.224-.269.443-.407.664-.219.35-.451.7-.711,1.04s-.51.66-.8.983c-.067.076-.129.154-.2.229-.391.419-.82.83-1.275,1.234-.291.258-.615.507-.932.757-.279.221-.546.445-.846.659-.343.246-.72.48-1.09.716s-.741.494-1.149.728L261.178,410.408a34.5,34.5,0,0,1-6.632,2.873,44.41,44.41,0,0,1-5.73,1.407q-1.9.336-3.86.53c-1.113.109-2.234.182-3.357.221q-1.547.051-3.1.014-1.5-.036-2.981-.158l-.05,17.228q1.485.122,2.981.158,1.55.038,3.1-.014,1.687-.056,3.357-.221c1.3-.127,2.592-.3,3.86-.53a44.343,44.343,0,0,0,5.73-1.407,34.4,34.4,0,0,0,6.632-2.873L506.413,287.169c.126-.071.248-.143.37-.216.276-.163.512-.339.773-.507.372-.239.753-.475,1.1-.721.3-.214.565-.436.842-.657.319-.251.642-.5.933-.759.059-.053.129-.1.186-.153.389-.353.747-.714,1.087-1.079.072-.076.133-.154.2-.233.2-.224.406-.448.589-.677.081-.1.133-.2.208-.3.26-.343.492-.691.711-1.04.093-.148.214-.289.3-.438.041-.073.065-.151.107-.226.167-.305.3-.616.441-.927.081-.182.188-.36.258-.543.022-.061.031-.124.053-.185.107-.3.181-.594.26-.893.053-.2.134-.4.176-.6.01-.053.009-.107.017-.16.059-.314.081-.626.11-.94.017-.2.064-.407.071-.611,0-.088,0-.175,0-.263l.05-17.228C515.259,258.1,515.211,258.394,515.183,258.686Z" transform="translate(37.499 -100.669)" fill="#adcdfc"/>
        <path id="Path_30" data-name="Path 30" d="M347.048,415.039c-1.011-.141-2.013-.312-3-.514q-1.607-.328-3.157-.762c-1.262-.355-2.49-.762-3.675-1.222a33.152,33.152,0,0,1-4.366-2.064L85.959,270.012c-5.968-3.394-8.947-7.851-8.935-12.3l-.05,17.228c-.012,4.45,2.967,8.907,8.935,12.3L332.8,427.7a33.149,33.149,0,0,0,4.366,2.064c1.185.46,2.413.867,3.675,1.222q1.547.435,3.157.764,1.48.3,3,.514c.971.136,1.955.243,2.942.323l.05-17.228Q348.508,415.243,347.048,415.039Z" transform="translate(-76.974 -100.738)" fill="#adcdfc"/>
        <g id="Group_31" data-name="Group 31" transform="translate(0.05)">
          <g id="Group_30" data-name="Group 30">
            <path id="Path_31" data-name="Path 31" d="M620.776,310.741c11.859,6.748,11.922,17.686.139,24.432L375.63,475.64c-11.78,6.746-30.944,6.746-42.8,0L85.938,335.175c-11.858-6.746-11.921-17.684-.14-24.43L331.084,170.278c11.782-6.746,30.944-6.746,42.8,0Z" transform="translate(-77.003 -165.219)" fill="#e2edff"/>
          </g>
        </g>
      </g>
    </g>
    <g id="Group_83" data-name="Group 83" transform="translate(139.3 311.927)">
      <g id="Group_43" data-name="Group 43" transform="translate(216.145 101.446)">
        <g id="Group_34" data-name="Group 34">
          <path id="Path_32" data-name="Path 32" d="M238.664,292.053l67.588,38.705,47.543-27.049L286.207,265Z" transform="translate(-238.664 -265.004)" fill="#fff"/>
        </g>
        <g id="Group_37" data-name="Group 37" transform="translate(28.722 14.893)">
          <g id="Group_35" data-name="Group 35" transform="translate(4.623)">
            <path id="Path_33" data-name="Path 33" d="M282.125,276.3l-10.633,6.089-13.466-3.909c3.76-4.238,12.834-5.923,20.273-3.763A16.819,16.819,0,0,1,282.125,276.3Z" transform="translate(-258.025 -273.779)" fill="#ff5668"/>
          </g>
          <g id="Group_36" data-name="Group 36" transform="translate(0 3.316)">
            <path id="Path_34" data-name="Path 34" d="M286.5,275.733c7.146,4.066,7.182,10.658.083,14.724s-18.65,4.066-25.8,0c-5.718-3.253-7.059-7.99-3.424-12.089l16.28,4.727Z" transform="translate(-255.341 -275.733)" fill="#b391ff"/>
          </g>
        </g>
        <g id="Group_42" data-name="Group 42" transform="translate(49.658 29.73)">
          <g id="Group_39" data-name="Group 39">
            <g id="Group_38" data-name="Group 38">
              <path id="Path_35" data-name="Path 35" d="M267.943,299.94c-.592.338-.594.874-.007,1.212a2.348,2.348,0,0,0,2.122,0l30.172-17.165c.592-.338.6-.874.007-1.212a2.348,2.348,0,0,0-2.122,0Z" transform="translate(-267.497 -282.522)" fill="#adcdfc"/>
            </g>
          </g>
          <g id="Group_40" data-name="Group 40" transform="translate(20.853 1.994)">
            <path id="Path_36" data-name="Path 36" d="M280.044,291.233a.638.638,0,0,0-.007,1.21,2.392,2.392,0,0,0,2.132.007l12.8-7.284c.592-.338.584-.881,0-1.219a2.375,2.375,0,0,0-2.122,0Z" transform="translate(-279.605 -283.697)" fill="#d4d9df"/>
          </g>
          <g id="Group_41" data-name="Group 41" transform="translate(16.869 3.859)">
            <path id="Path_37" data-name="Path 37" d="M277.743,296.446c-.592.338-.606.881-.017,1.217a2.376,2.376,0,0,0,2.132-.005l20.033-11.4c.592-.338.6-.874.007-1.212a2.359,2.359,0,0,0-2.122,0Z" transform="translate(-277.292 -284.795)" fill="#d4d9df"/>
          </g>
        </g>
      </g>
      <g id="Group_47" data-name="Group 47" transform="translate(206.648 163.763)">
        <g id="Group_44" data-name="Group 44" transform="translate(0.012)">
          <path id="Path_38" data-name="Path 38" d="M322.22,321.582c1.643.935,1.65,2.449.019,3.382l-48.244,27.6a6.6,6.6,0,0,1-5.926,0L234.4,333.409c-1.641-.933-1.653-2.447-.019-3.382l48.244-27.6a6.61,6.61,0,0,1,5.926,0Z" transform="translate(-233.157 -301.723)" fill="#f2f8fd"/>
        </g>
        <g id="Group_46" data-name="Group 46" transform="translate(0 2.978)">
          <path id="Path_39" data-name="Path 39" d="M323.451,314.549c0,.042-.007.087-.014.129s-.019.071-.028.105-.022.083-.036.124-.027.066-.043.1a1.28,1.28,0,0,1-.062.129c-.016.031-.036.061-.055.092-.031.049-.062.1-.1.144-.022.029-.045.056-.069.083a2.009,2.009,0,0,1-.177.188c-.022.022-.045.046-.069.068-.041.036-.084.07-.129.1s-.076.061-.117.092-.1.066-.152.1-.1.068-.158.1L274,343.71a4.5,4.5,0,0,1-.586.275l-.164.061c-.128.044-.26.081-.394.119s-.276.073-.418.1c-.167.034-.336.066-.508.087-.041.005-.083.014-.126.017a6.9,6.9,0,0,1-.7.039h-.112c-.233,0-.465-.013-.7-.037l-.1-.012a6.7,6.7,0,0,1-.673-.114c-.04-.008-.079-.02-.121-.029-.2-.049-.394-.109-.58-.175l-.1-.034a4.7,4.7,0,0,1-.639-.3L234.4,324.552a2.4,2.4,0,0,1-1.161-1.244,1.418,1.418,0,0,1-.077-.46l-.012,1.9a1.475,1.475,0,0,0,.019.231,2.22,2.22,0,0,0,1.219,1.473l33.674,19.157a4.5,4.5,0,0,0,.606.287l.033.012.1.034c.122.044.245.088.374.124.069.019.139.034.208.051.04.008.079.019.119.029s.072.019.11.026c.136.029.276.053.415.071.048.007.1.012.148.017s.069.008.1.012l.155.017c.136.01.274.017.412.02.043,0,.086,0,.129,0h.112c.062,0,.124,0,.188,0,.155-.005.31-.015.463-.029l.053-.008.124-.017c.119-.015.239-.029.356-.049.052-.008.1-.027.152-.037.143-.029.282-.065.42-.1.072-.02.15-.032.22-.054s.114-.044.172-.065l.164-.061a4.505,4.505,0,0,0,.586-.275l48.244-27.6.052-.031c.038-.022.072-.047.109-.071s.1-.064.15-.1.079-.061.117-.092.09-.07.129-.1l.026-.022c.017-.015.027-.031.045-.046.064-.061.122-.124.177-.188.01-.014.028-.027.038-.041s.019-.029.029-.042c.036-.047.069-.1.1-.144.012-.02.029-.041.041-.061l.016-.031c.022-.042.041-.085.06-.129.012-.024.026-.049.036-.075l.007-.025a1.125,1.125,0,0,0,.036-.124.661.661,0,0,0,.024-.083l0-.022c.007-.042.01-.087.014-.129a.763.763,0,0,0,.01-.085l0-.037.01-1.9C323.462,314.468,323.455,314.508,323.451,314.549Z" transform="translate(-233.15 -295.844)" fill="url(#linear-gradient)"/>
          <g id="Group_45" data-name="Group 45" transform="translate(5.676)">
            <path id="Path_40" data-name="Path 40" d="M314.871,320.961a.573.573,0,0,1,0,1.088l-45.791,26.223a2.131,2.131,0,0,1-1.9,0l-30.334-17.258c-.529-.3-.532-.787-.007-1.09L282.629,303.7a2.122,2.122,0,0,1,1.908,0Z" transform="translate(-236.446 -303.478)" fill="url(#linear-gradient-2)"/>
          </g>
        </g>
      </g>
      <g id="Group_57" data-name="Group 57" transform="translate(66.015)">
        <g id="Group_48" data-name="Group 48">
          <path id="Path_41" data-name="Path 41" d="M151.493,232.279l67.588,38.705,47.543-27.049L199.036,205.23Z" transform="translate(-151.493 -205.23)" fill="#fff"/>
        </g>
        <g id="Group_51" data-name="Group 51" transform="translate(28.722 14.893)">
          <g id="Group_49" data-name="Group 49" transform="translate(4.623)">
            <path id="Path_42" data-name="Path 42" d="M194.953,216.529l-10.633,6.089-13.465-3.91c3.758-4.236,12.834-5.921,20.271-3.763A16.864,16.864,0,0,1,194.953,216.529Z" transform="translate(-170.855 -214.005)" fill="#b391ff"/>
          </g>
          <g id="Group_50" data-name="Group 50" transform="translate(0 3.316)">
            <path id="Path_43" data-name="Path 43" d="M199.33,215.959c7.147,4.066,7.184,10.658.083,14.724s-18.649,4.066-25.8,0c-5.718-3.253-7.061-7.99-3.424-12.09l16.279,4.728Z" transform="translate(-168.171 -215.959)" fill="#05ccff"/>
          </g>
        </g>
        <g id="Group_56" data-name="Group 56" transform="translate(49.658 29.73)">
          <g id="Group_53" data-name="Group 53">
            <g id="Group_52" data-name="Group 52">
              <path id="Path_44" data-name="Path 44" d="M180.773,240.166c-.592.338-.6.874-.007,1.212a2.355,2.355,0,0,0,2.12,0l30.172-17.167c.592-.336.6-.872.007-1.21a2.348,2.348,0,0,0-2.122,0Z" transform="translate(-180.327 -222.748)" fill="#adcdfc"/>
            </g>
          </g>
          <g id="Group_54" data-name="Group 54" transform="translate(20.853 1.994)">
            <path id="Path_45" data-name="Path 45" d="M192.873,231.457a.64.64,0,0,0-.007,1.212,2.392,2.392,0,0,0,2.132.007l12.8-7.286c.592-.336.586-.879,0-1.217a2.375,2.375,0,0,0-2.122,0Z" transform="translate(-192.435 -223.923)" fill="#d4d9df"/>
          </g>
          <g id="Group_55" data-name="Group 55" transform="translate(16.868 3.858)">
            <path id="Path_46" data-name="Path 46" d="M190.572,236.672c-.592.336-.606.879-.017,1.217a2.37,2.37,0,0,0,2.132-.007l20.033-11.4c.592-.336.6-.872.007-1.21a2.345,2.345,0,0,0-2.12,0Z" transform="translate(-190.121 -225.021)" fill="#05ccff"/>
          </g>
        </g>
      </g>
      <g id="Group_82" data-name="Group 82" transform="translate(0 65.339)">
        <g id="Group_70" data-name="Group 70" transform="translate(49.092 35.71)">
          <g id="Group_61" data-name="Group 61" transform="translate(36.618)" style="isolation: isolate">
            <g id="Group_58" data-name="Group 58" transform="translate(79.625 45.301)">
              <path id="Path_47" data-name="Path 47" d="M218.539,291.463l-.011,4-9.365,5.363.012-4Z" transform="translate(-209.162 -291.463)" fill="#540cc7"/>
            </g>
            <g id="Group_59" data-name="Group 59" transform="translate(0 5.363)">
              <path id="Path_48" data-name="Path 48" d="M242.566,313.232l-.012,4-79.625-45.3.012-4Z" transform="translate(-162.929 -267.93)" fill="#3f0995"/>
            </g>
            <g id="Group_60" data-name="Group 60" transform="translate(0.012)">
              <path id="Path_49" data-name="Path 49" d="M251.926,310.072l-9.365,5.363-79.625-45.3,9.365-5.363Z" transform="translate(-162.936 -264.77)" fill="#7974f5"/>
            </g>
          </g>
          <g id="Group_65" data-name="Group 65" transform="translate(18.312 10.487)" style="isolation: isolate">
            <g id="Group_62" data-name="Group 62" transform="translate(62.547 35.585)">
              <path id="Path_50" data-name="Path 50" d="M197.988,291.917l-.012,4-9.359,5.359.012-4Z" transform="translate(-188.617 -291.917)" fill="#2689fd"/>
            </g>
            <g id="Group_63" data-name="Group 63" transform="translate(0 5.359)">
              <path id="Path_51" data-name="Path 51" d="M214.859,309.693l-.012,4L152.3,278.108l.012-4Z" transform="translate(-152.3 -274.107)" fill="#3548db"/>
            </g>
            <g id="Group_64" data-name="Group 64" transform="translate(0.012)">
              <path id="Path_52" data-name="Path 52" d="M224.213,306.535l-9.359,5.359-62.547-35.585,9.358-5.359Z" transform="translate(-152.307 -270.949)" fill="#58affb"/>
            </g>
          </g>
          <g id="Group_69" data-name="Group 69" transform="translate(0 20.974)" style="isolation: isolate">
            <g id="Group_66" data-name="Group 66" transform="translate(28.621 16.284)">
              <path id="Path_53" data-name="Path 53" d="M167.656,286.723l-.012,4-9.358,5.359.012-4Z" transform="translate(-158.286 -286.723)" fill="#ee2c6a"/>
            </g>
            <g id="Group_67" data-name="Group 67" transform="translate(0 5.359)">
              <path id="Path_54" data-name="Path 54" d="M170.3,296.57l-.012,4-28.621-16.284.011-4Z" transform="translate(-141.667 -280.286)" fill="#ee428c"/>
            </g>
            <g id="Group_68" data-name="Group 68" transform="translate(0.011)">
              <path id="Path_55" data-name="Path 55" d="M179.654,293.412l-9.358,5.359-28.622-16.284,9.359-5.359Z" transform="translate(-141.674 -277.129)" fill="#ff3d9d"/>
            </g>
          </g>
        </g>
        <g id="Group_75" data-name="Group 75" transform="translate(23.21 23.413)">
          <g id="Group_74" data-name="Group 74">
            <g id="Group_71" data-name="Group 71">
              <path id="Path_56" data-name="Path 56" d="M127.343,284.979c-.933.531-.939,1.378-.01,1.909a3.705,3.705,0,0,0,3.343,0l47.557-27.058c.935-.531.939-1.376.012-1.908a3.709,3.709,0,0,0-3.345,0Z" transform="translate(-126.64 -257.524)" fill="#adcdfc"/>
            </g>
            <g id="Group_72" data-name="Group 72" transform="translate(32.868 3.142)">
              <path id="Path_57" data-name="Path 57" d="M146.415,271.253a1.006,1.006,0,0,0-.01,1.908,3.778,3.778,0,0,0,3.362.01l20.181-11.481c.933-.531.921-1.388-.007-1.92a3.741,3.741,0,0,0-3.345,0Z" transform="translate(-145.724 -259.376)" fill="#adcdfc"/>
            </g>
            <g id="Group_73" data-name="Group 73" transform="translate(26.588 6.081)">
              <path id="Path_58" data-name="Path 58" d="M142.79,279.47c-.933.531-.956,1.388-.028,1.919a3.742,3.742,0,0,0,3.36-.01L177.7,263.413c.933-.531.937-1.376.01-1.908a3.709,3.709,0,0,0-3.345,0Z" transform="translate(-142.078 -261.107)" fill="#adcdfc"/>
            </g>
          </g>
        </g>
        <g id="Group_81" data-name="Group 81">
          <g id="Group_79" data-name="Group 79" transform="translate(7.778)" style="isolation: isolate">
            <g id="Group_76" data-name="Group 76">
              <path id="Path_59" data-name="Path 59" d="M157.558,248.24,150,252.568c-6.86-3.69-17.639-3.627-24.313.2-.138.08-.267.161-.4.243l-7.609-4.329c.134-.08.267-.16.4-.239C128.93,242.225,146.5,242.161,157.558,248.24Z" transform="translate(-117.679 -243.729)" fill="#7cccff"/>
            </g>
            <g id="Group_77" data-name="Group 77" transform="translate(33.477 5.188)">
              <path id="Path_60" data-name="Path 60" d="M144.685,246.786c8.978,5.54,9.906,13.793,2.761,19.867l-7.843-4.462c3.147-3.55,2.316-7.958-2.485-11.072Z" transform="translate(-137.117 -246.786)" fill="#7cccff"/>
            </g>
            <g id="Group_78" data-name="Group 78" transform="translate(1.378 21.445)">
              <path id="Path_61" data-name="Path 61" d="M159.929,260.756a24.493,24.493,0,0,1-2.459,1.609c-10.69,6.122-27.906,6.273-38.99.458l7.566-4.331c6.874,3.428,17.305,3.279,23.822-.453a13.62,13.62,0,0,0,2.344-1.673Z" transform="translate(-118.479 -256.365)" fill="#3eabff"/>
            </g>
          </g>
          <g id="Group_80" data-name="Group 80" transform="translate(0 5.65)">
            <path id="Path_62" data-name="Path 62" d="M127.473,251.408c-5.163,3.832-4.753,9.324,1.212,12.914l-7.559,4.328c-10.16-5.984-10.606-15.346-1.3-21.591Z" transform="translate(-113.163 -247.058)" fill="#3eabff"/>
          </g>
        </g>
      </g>
    </g>
    <g id="Group_95" data-name="Group 95" transform="translate(288.172 156.959)">
      <g id="Group_88" data-name="Group 88">
        <g id="Group_84" data-name="Group 84">
          <path id="Path_63" data-name="Path 63" d="M248.1,138.734a13.606,13.606,0,0,1,6.276,10.712l-.069,59.894c-.01,3.931-2.845,5.523-6.317,3.547l-16.949-9.643-.825,1.132-3.307,4.589-3.281-8.336-.815-2.065-16.949-9.643a13.589,13.589,0,0,1-6.266-10.706l.067-59.894c.012-3.932,2.835-5.529,6.307-3.554Z" transform="translate(-199.603 -113.92)" fill="#58affb"/>
        </g>
        <g id="Group_87" data-name="Group 87" transform="translate(8.399 19.548)">
          <g id="Group_85" data-name="Group 85" transform="translate(0.024)">
            <path id="Path_64" data-name="Path 64" d="M215.186,131.348l-.005,1.685a1.311,1.311,0,0,1-1.967,1.113l-8.069-4.613a1.287,1.287,0,0,1-.651-1.12l0-1.685a1.311,1.311,0,0,1,1.969-1.113l8.067,4.613A1.286,1.286,0,0,1,215.186,131.348Z" transform="translate(-204.494 -125.438)" fill="#fff"/>
          </g>
          <g id="Group_86" data-name="Group 86" transform="translate(0 8.386)">
            <path id="Path_65" data-name="Path 65" d="M240.716,150.8l-.005,1.689a1.311,1.311,0,0,1-1.965,1.115l-33.612-19.123a1.289,1.289,0,0,1-.654-1.122l0-1.689a1.311,1.311,0,0,1,1.965-1.115l33.613,19.123A1.285,1.285,0,0,1,240.716,150.8Z" transform="translate(-204.48 -130.379)" fill="#adcdfc"/>
          </g>
        </g>
      </g>
      <g id="Group_94" data-name="Group 94" transform="translate(9.16 43.192)">
        <g id="Group_89" data-name="Group 89">
          <path id="Path_66" data-name="Path 66" d="M212.839,143.871l-.006,1.932-4.551,15.315-1.95-1.109,4.532-15.283-5.943-3.381.006-1.974Z" transform="translate(-204.922 -139.369)" fill="#fff"/>
        </g>
        <g id="Group_90" data-name="Group 90" transform="translate(9.674 5.846)">
          <path id="Path_67" data-name="Path 67" d="M218.026,146.728l-.007,1.974-5.136-2.923-.3,5.933c.567-.762,1.429-.823,2.611-.153,2.249,1.281,3.238,3.715,3.229,6.537l-.01,3.864c-.009,3.036-1.29,4.285-3.951,2.77a7.921,7.921,0,0,1-3.923-7.25l0-1.315,1.838,1.045-.005,1.465a4.3,4.3,0,0,0,2.036,4.027c1.388.789,2.048.08,2.053-1.7l.01-3.842a4.325,4.325,0,0,0-2.036-4.029c-1.068-.608-1.8-.345-1.974,1l0,.446-1.838-1.045.52-10.719Z" transform="translate(-210.539 -142.814)" fill="#fff"/>
        </g>
        <g id="Group_91" data-name="Group 91" transform="translate(27.911 24.224)">
          <path id="Path_68" data-name="Path 68" d="M223.667,154.054a5,5,0,0,1,2.485,4.582l-.017,6.22c-.007,1.931-.778,2.768-2.5,1.787a5.083,5.083,0,0,1-2.5-4.635l.017-6.22C221.152,153.9,221.962,153.083,223.667,154.054Zm1.211,10.215.019-6.432a2.667,2.667,0,0,0-1.233-2.488c-.88-.5-1.257-.014-1.261,1.069l-.019,6.432a2.723,2.723,0,0,0,1.252,2.519c.861.492,1.238-.039,1.242-1.1" transform="translate(-221.128 -153.643)" fill="#fff"/>
        </g>
        <g id="Group_92" data-name="Group 92" transform="translate(19.346 11.93)">
          <path id="Path_69" data-name="Path 69" d="M221.16,157.677c-.005,1.909-.815,2.726-2.521,1.755a5.06,5.06,0,0,1-2.484-4.6l.017-6.262c.005-1.889.815-2.726,2.5-1.765a5.093,5.093,0,0,1,2.5,4.615Zm-1.256-.609.017-6.454a2.725,2.725,0,0,0-1.25-2.519c-.9-.513-1.24.039-1.242,1.1l-.019,6.453a2.617,2.617,0,0,0,1.231,2.488c.882.5,1.259.014,1.262-1.069" transform="translate(-216.155 -146.399)" fill="#fff"/>
        </g>
        <g id="Group_93" data-name="Group 93" transform="translate(22.015 16.48)">
          <path id="Path_70" data-name="Path 70" d="M224.661,149.08l1.162.661-6.938,15.892-1.181-.672Z" transform="translate(-217.705 -149.08)" fill="#fff"/>
        </g>
      </g>
    </g>
    <g id="Group_107" data-name="Group 107" transform="translate(326.024 285.573)">
      <g id="Group_97" data-name="Group 97" transform="translate(0 11.811)">
        <g id="Group_96" data-name="Group 96">
          <path id="Path_71" data-name="Path 71" d="M309.06,205.24c20.106,11.439,20.235,29.989.26,41.427s-52.5,11.439-72.6,0-20.188-29.989-.214-41.427S288.954,193.8,309.06,205.24Z" transform="translate(-221.581 -196.661)" fill="#adcdfc"/>
        </g>
      </g>
      <g id="Group_106" data-name="Group 106" transform="translate(4.979)">
        <g id="Group_98" data-name="Group 98" transform="translate(70.173 8.135)">
          <path id="Path_72" data-name="Path 72" d="M278.016,194.5,278,201.778,265.217,209.1l.021-7.283Z" transform="translate(-265.217 -194.495)" fill="#cc096a"/>
        </g>
        <path id="Path_73" data-name="Path 73" d="M248.443,206.53c.09-.034.174-.071.262-.105.715-.268,1.448-.509,2.192-.74.513-.16,1.042-.3,1.567-.441.4-.107.8-.222,1.2-.319.555-.132,1.119-.243,1.683-.355.413-.081.82-.175,1.237-.248.171-.029.343-.053.513-.08q1.051-.171,2.117-.3c.207-.024.412-.051.618-.073.821-.087,1.648-.156,2.478-.2l.46-.024c.558-.027,1.116-.036,1.674-.046s1.116-.014,1.674-.007c.467.005.933.02,1.4.037q.775.031,1.548.081.705.051,1.409.117.767.071,1.526.168c.456.056.911.121,1.364.19.544.083,1.082.176,1.619.277.561.105,1.125.21,1.677.334.133.031.265.058.4.088.778.183,1.545.389,2.3.609.217.063.429.131.644.2q.94.293,1.853.625c.177.065.358.124.534.192.551.21,1.085.445,1.617.677.263.115.534.219.792.339.77.36,1.519.742,2.239,1.152l.021-8.494c-.72-.411-1.469-.793-2.241-1.152-.255-.12-.524-.224-.785-.338-.456-.2-.906-.407-1.378-.591-.081-.032-.165-.058-.246-.09-.174-.066-.353-.126-.53-.19q-.912-.334-1.855-.625c-.215-.066-.427-.134-.644-.2-.145-.042-.284-.092-.431-.132-.615-.173-1.238-.328-1.869-.477-.131-.031-.265-.058-.4-.088-.3-.068-.61-.141-.918-.2-.25-.051-.508-.083-.759-.131-.537-.1-1.075-.193-1.619-.277-.217-.034-.429-.081-.648-.112-.238-.032-.479-.049-.716-.078-.506-.064-1.014-.119-1.524-.168-.245-.024-.484-.061-.729-.08-.226-.019-.455-.022-.682-.037-.515-.034-1.03-.061-1.548-.081-.258-.01-.517-.034-.777-.041-.207-.005-.413.007-.622,0-.558-.007-1.114,0-1.672.007-.277.005-.555-.005-.832.005s-.563.027-.844.041c-.153.008-.307.014-.46.024-.7.041-1.392.09-2.082.158-.133.012-.263.032-.4.046-.207.022-.412.049-.618.073q-1.064.125-2.113.3c-.172.027-.346.051-.517.081-.083.014-.167.024-.25.039-.332.058-.653.141-.982.205-.567.114-1.133.224-1.688.356-.406.1-.8.21-1.2.317-.529.143-1.057.283-1.574.443-.11.034-.226.059-.336.1-.629.2-1.247.417-1.855.645-.088.034-.172.071-.262.105-.666.256-1.316.533-1.953.821-.188.087-.375.173-.56.261-.706.336-1.4.686-2.06,1.066-.126.071-.25.144-.372.216s-.222.141-.334.209c-.188.115-.375.231-.556.348-.165.105-.326.214-.484.322-.176.119-.35.238-.518.358-.153.112-.3.224-.453.336s-.322.244-.479.368-.282.229-.42.344-.3.253-.441.38c-.059.051-.122.1-.181.154s-.1.1-.152.149c-.241.224-.47.45-.691.679-.076.076-.153.153-.226.229-.279.3-.544.6-.791.91l-.034.039c-.057.071-.1.144-.158.214-.148.193-.294.387-.431.582-.074.107-.143.216-.214.324-.117.176-.229.353-.334.531-.029.049-.064.1-.091.146-.041.073-.076.146-.115.219-.081.151-.162.3-.236.453-.062.126-.122.251-.179.378-.069.151-.134.3-.2.457-.028.068-.06.136-.086.2s-.04.122-.062.183c-.053.146-.1.292-.146.438-.041.131-.081.263-.119.4s-.074.294-.109.44c-.017.08-.041.158-.059.238-.01.053-.015.107-.024.161-.029.149-.052.3-.072.45-.019.132-.038.263-.052.4-.016.151-.024.3-.033.455-.005.088-.016.177-.019.265s0,1.387,0,1.475L235,220.914c0-.176.012-.353.022-.529.009-.153.017-.3.033-.455.014-.132.033-.265.052-.4.021-.151.043-.3.071-.45.026-.134.055-.266.084-.4s.069-.294.109-.44.077-.265.119-.4.093-.29.145-.434.1-.26.15-.39c.062-.151.127-.3.195-.455.059-.127.117-.253.181-.38.074-.151.153-.3.236-.451.067-.122.134-.243.207-.365.105-.178.219-.355.334-.531.071-.109.139-.217.214-.324.136-.2.281-.389.431-.58.064-.085.124-.17.193-.255.246-.305.512-.609.791-.91.072-.076.15-.153.224-.229.222-.229.451-.455.692-.679.108-.1.219-.2.332-.3.143-.127.291-.253.439-.378s.279-.233.424-.346.315-.246.477-.368.3-.224.453-.336.341-.238.517-.356c.16-.109.32-.219.487-.326s.367-.231.555-.346c.232-.143.463-.285.706-.424.661-.38,1.354-.73,2.06-1.066.184-.088.372-.175.558-.26C247.127,207.063,247.777,206.786,248.443,206.53Z" transform="translate(-216.867 -185.942)" fill="#cc096a"/>
        <g id="Group_99" data-name="Group 99" transform="translate(14.365 40.095)">
          <path id="Path_74" data-name="Path 74" d="M245.612,213.326l-.021,7.283-12.779,7.318.021-7.283Z" transform="translate(-232.813 -213.326)" fill="#cc096a"/>
        </g>
        <path id="Path_75" data-name="Path 75" d="M224.472,213.269l.021-7.282c-.021,7.152,4.771,14.315,14.365,19.773l-.021,7.284C229.243,227.585,224.451,220.421,224.472,213.269Z" transform="translate(-224.472 -178.349)" fill="none"/>
        <g id="Group_100" data-name="Group 100" transform="translate(0 27.638)">
          <path id="Path_76" data-name="Path 76" d="M238.858,225.76l-.021,7.284c-9.595-5.46-14.386-12.623-14.365-19.775l.021-7.282c-.021,7.152,4.771,14.315,14.365,19.773" transform="translate(-224.472 -205.987)" fill="#cc096a"/>
        </g>
        <g id="Group_101" data-name="Group 101" transform="translate(0.022)">
          <path id="Path_77" data-name="Path 77" d="M307.434,197.837l-12.777,7.318c-11.959-6.8-31.288-6.8-43.17,0s-11.818,17.837.141,24.643l-12.779,7.316c-19.067-10.848-19.162-28.431-.224-39.275S288.367,186.988,307.434,197.837Z" transform="translate(-224.485 -189.702)" fill="#ff5668"/>
        </g>
        <path id="Path_78" data-name="Path 78" d="M265.238,200.121l-.021,5.054c6.014,3.421,9.018,7.914,9.006,12.4l.021-7.282C274.255,205.806,271.252,203.542,265.238,200.121Z" transform="translate(-195.044 -182.438)" fill="#3278cc"/>
        <g id="Group_102" data-name="Group 102" transform="translate(69.928 42.532)">
          <path id="Path_79" data-name="Path 79" d="M277.958,222.08l-.021,5.053-12.862-7.318.021-5.053Z" transform="translate(-265.075 -214.762)" fill="#3278cc"/>
        </g>
        <path id="Path_80" data-name="Path 80" d="M287.046,206.988c-.012.241-.028.484-.052.725-.022.21-.052.419-.081.628-.034.241-.069.48-.114.72-.04.212-.086.423-.134.633-.053.234-.11.468-.174.7-.057.212-.121.423-.188.633-.072.231-.15.463-.232.694-.076.207-.155.414-.238.619-.1.243-.2.485-.312.726-.091.2-.186.4-.286.606q-.181.361-.377.72c-.107.193-.215.389-.329.58-.167.285-.348.569-.534.852-.112.17-.22.343-.338.513-.217.312-.451.621-.689.928-.1.134-.2.27-.307.4-.393.49-.815.972-1.261,1.451-.115.124-.239.244-.358.367q-.527.545-1.1,1.081c-.174.163-.35.324-.53.485-.229.2-.463.4-.7.6-.22.185-.441.368-.67.55-.248.2-.5.394-.763.589-.238.178-.477.358-.723.533-.267.193-.544.382-.823.572-.255.173-.512.346-.775.516-.288.187-.586.37-.884.552-.372.229-.739.457-1.128.679-.126.073-.253.139-.379.212l-.021,7.282c.126-.073.253-.139.379-.212q.3-.171.594-.345c.183-.109.351-.222.53-.331.3-.185.6-.368.887-.555.264-.17.518-.343.773-.514.279-.19.556-.38.827-.574.245-.176.484-.355.722-.533.258-.2.515-.39.763-.589.227-.182.45-.365.67-.548.238-.2.474-.4.7-.606.093-.083.2-.163.288-.248s.158-.16.243-.238q.576-.535,1.1-1.081c.119-.122.243-.243.357-.365.446-.479.87-.962,1.262-1.453.017-.02.038-.041.055-.061.09-.112.164-.227.251-.341.238-.307.47-.616.687-.928.119-.17.227-.343.339-.514.186-.282.365-.565.534-.849.047-.078.1-.154.146-.233.065-.115.119-.234.183-.35.131-.239.257-.477.375-.718.1-.2.2-.406.288-.608.11-.241.214-.484.31-.726.045-.109.1-.216.14-.326s.064-.2.1-.294c.083-.231.158-.462.233-.692.065-.212.131-.423.188-.635.064-.233.121-.467.172-.7.029-.127.069-.253.095-.378.017-.085.024-.171.04-.256.045-.238.081-.479.115-.718.029-.21.059-.419.081-.63.024-.241.038-.482.052-.723.009-.141.028-.283.031-.424s.007-.28.007-.421l.021-7.283C287.084,206.425,287.062,206.707,287.046,206.988Z" transform="translate(-189.752 -178.239)" fill="#3278cc"/>
        <g id="Group_103" data-name="Group 103" transform="translate(69.949 10.365)">
          <path id="Path_81" data-name="Path 81" d="M278.109,195.809c19.064,10.845,19.158,28.429.219,39.274-.126.073-.251.139-.379.21l-12.862-7.318c.126-.071.253-.137.379-.21,11.882-6.8,11.818-17.837-.134-24.638Z" transform="translate(-265.087 -195.809)" fill="#58affb"/>
        </g>
        <path id="Path_82" data-name="Path 82" d="M273.158,226.041c.532-.2,1.056-.411,1.578-.625.312-.129.623-.256.93-.389.553-.239,1.094-.49,1.631-.743.257-.122.517-.239.77-.363.78-.385,1.548-.784,2.3-1.2l.021-1.624c-.746.417-1.514.816-2.294,1.2-.255.126-.517.241-.775.363-.536.255-1.076.5-1.628.743-.307.132-.618.26-.93.389-.52.214-1.047.424-1.578.625q-.488.186-.983.363-.816.293-1.65.563c-.35.114-.7.231-1.049.341-.265.081-.534.16-.8.239q-.734.216-1.478.417c-.276.075-.551.149-.828.221-.524.134-1.052.261-1.581.385-.245.058-.487.117-.734.171-.773.173-1.572.336-2.356.484v1.624c.785-.148,1.562-.311,2.337-.484.245-.054.486-.114.729-.17q.8-.186,1.584-.387c.277-.071.553-.146.828-.221.5-.134.987-.273,1.476-.417.269-.08.537-.158.8-.239.138-.044.279-.081.415-.126.214-.066.42-.146.634-.216q.832-.272,1.65-.563Q272.668,226.226,273.158,226.041Z" transform="translate(-197.572 -167.816)" fill="#e2a029"/>
        <g id="Group_104" data-name="Group 104" transform="translate(58.219 45.961)">
          <path id="Path_83" data-name="Path 83" d="M282.868,224.1a61.822,61.822,0,0,1-18.645,6.507l-5.947-9.791a39.02,39.02,0,0,0,11.73-4.034Z" transform="translate(-258.276 -216.783)" fill="#ffbe3d"/>
        </g>
        <path id="Path_84" data-name="Path 84" d="M280.516,227.209c-.487.08-.973.161-1.464.231-.572.081-1.147.148-1.722.217-.489.059-.978.122-1.471.173-.908.092-1.82.171-2.737.234-.083.007-.164.015-.246.02-1.013.068-2.031.112-3.048.143-.258.008-.518.01-.777.015q-1.126.023-2.254.019c-.312,0-.622-.005-.933-.01-.83-.014-1.66-.037-2.49-.076-.157-.007-.315-.01-.474-.019-.978-.049-1.955-.119-2.926-.2-.257-.022-.513-.049-.768-.073q-1.132-.109-2.253-.246c-.27-.034-.543-.066-.813-.1-.97-.129-1.934-.27-2.892-.434l-.019,0c-.951-.161-1.891-.348-2.826-.543-.332-.071-.663-.148-.994-.222-.642-.144-1.28-.294-1.91-.455q-.519-.13-1.035-.268c-.546-.148-1.087-.305-1.626-.465-.494-.148-.989-.3-1.476-.453s-.99-.329-1.479-.5-.959-.338-1.431-.514c-.718-.272-1.431-.548-2.129-.842-.069-.029-.141-.056-.21-.085-.816-.35-1.614-.72-2.4-1.1-.189-.092-.379-.185-.567-.28-.787-.394-1.562-.8-2.313-1.225l-.021,3.035c.751.426,1.526.832,2.313,1.224.188.1.375.188.567.282.785.38,1.583.75,2.4,1.1l.208.085c.515.217,1.035.433,1.562.636.186.073.379.134.567.2.474.18.954.35,1.436.518s.977.338,1.473.5.985.307,1.481.453c.3.09.6.19.9.277.238.066.482.122.722.188q.517.138,1.039.27c.63.16,1.266.309,1.907.453.331.075.661.151,1,.222.146.031.288.066.434.1q1.186.242,2.39.446l.029.005q1.186.2,2.384.37c.165.024.334.041.5.063.27.036.541.068.813.1q1.121.137,2.251.246c.257.024.512.051.77.073.131.01.262.027.394.037q1.261.1,2.53.165c.16.008.32.012.482.019.591.027,1.183.054,1.776.07.236.005.472,0,.706.007q.468.008.935.01,1.126.005,2.253-.019c.26-.005.518-.007.778-.015.1,0,.208,0,.312-.005q1.372-.046,2.737-.137c.083-.005.164-.014.246-.02.806-.054,1.61-.117,2.411-.2.11-.01.217-.025.326-.037.492-.051.982-.114,1.471-.173.575-.07,1.15-.136,1.721-.217.491-.07.978-.151,1.466-.229.42-.068.844-.126,1.262-.2.279-.051.556-.1.835-.154l.021-3.033C281.92,226.988,281.217,227.1,280.516,227.209Z" transform="translate(-218.448 -168.48)" fill="#7974f5"/>
        <g id="Group_105" data-name="Group 105" transform="translate(14.386 44.337)">
          <path id="Path_85" data-name="Path 85" d="M276.658,220.067l5.947,9.791c-16.894,3.2-36.281.966-49.78-6.714l12.779-7.318C254.026,220.617,266.1,222.027,276.658,220.067Z" transform="translate(-232.825 -215.826)" fill="#b391ff"/>
        </g>
      </g>
    </g>
    <g id="Group_137" data-name="Group 137" transform="translate(396.017 52.183)">
      <g id="Group_126" data-name="Group 126">
        <g id="Group_110" data-name="Group 110">
          <path id="Path_86" data-name="Path 86" d="M281.255,53.829l-.388-.214c-.167-.088-.334-.173-.5-.255s-.331-.158-.494-.229-.326-.139-.486-.2-.329-.126-.493-.182c-.031-.012-.062-.02-.093-.031l-.036-.012c-.121-.039-.239-.08-.358-.115-.169-.051-.336-.1-.5-.136s-.334-.078-.5-.11q-.269-.051-.532-.087c-.122-.015-.239-.024-.358-.036l-.053-.005c-.043,0-.088-.01-.131-.014-.193-.012-.382-.019-.57-.019-.214,0-.424.012-.632.031a6.246,6.246,0,0,0-.7.1l-.017,0-.022.007a6.4,6.4,0,0,0-.811.219,5.838,5.838,0,0,0-.983.45l-8.064,4.618a6.025,6.025,0,0,1,1.793-.669l.024-.005a7.325,7.325,0,0,1,2.048-.1l.055.005a10.007,10.007,0,0,1,2.248.484l.036.012a14.224,14.224,0,0,1,2.453,1.113L498.461,186.611l8.064-4.618Z" transform="translate(-260.55 -52.183)" fill="url(#linear-gradient-3)"/>
          <path id="Path_87" data-name="Path 87" d="M420.541,148.824c-.007-.193-.016-.387-.027-.58s-.028-.389-.047-.584-.041-.392-.067-.589-.055-.4-.086-.6l0-.017,0-.014c-.031-.192-.065-.384-.1-.577s-.083-.416-.129-.625-.1-.419-.148-.628-.11-.424-.171-.636c-.047-.165-.095-.329-.146-.494l-.01-.039-.031-.1q-.1-.311-.2-.621c-.069-.2-.141-.407-.215-.611s-.146-.39-.224-.584-.155-.389-.238-.582c-.062-.149-.127-.3-.193-.446l-.012-.027-.045-.1q-.129-.293-.269-.58c-.1-.212-.2-.421-.308-.63-.122-.241-.248-.479-.375-.718-.139-.256-.288-.507-.434-.759-.026-.046-.048-.09-.076-.134s-.059-.107-.089-.16c-.288-.48-.589-.954-.9-1.415-.248-.367-.5-.728-.77-1.081-.177-.236-.357-.47-.541-.7-.153-.192-.31-.384-.468-.57s-.312-.365-.47-.541-.313-.348-.472-.518c-.033-.034-.066-.064-.1-.1l-.034-.036c-.122-.127-.243-.255-.367-.378q-.253-.255-.511-.5c-.178-.168-.355-.331-.536-.49s-.358-.314-.541-.465c-.091-.076-.183-.148-.276-.221l-.062-.051c-.067-.054-.136-.112-.2-.165-.176-.137-.355-.272-.534-.4s-.351-.251-.529-.37-.344-.229-.518-.338-.343-.21-.515-.311l-.121-.07-8.064,4.618a18.735,18.735,0,0,1,2.421,1.656l.06.048a23.057,23.057,0,0,1,2.23,2.055l.034.036a28,28,0,0,1,3.811,5.083c.026.044.05.09.076.134a28.569,28.569,0,0,1,1.428,2.785l.016.034a26.142,26.142,0,0,1,1.1,2.941l.012.039a22.537,22.537,0,0,1,.694,2.96l0,.012a18.18,18.18,0,0,1,.239,2.912l-.437,151.674a13.264,13.264,0,0,1-.248,2.583l-.015.073a9.436,9.436,0,0,1-.686,2.111l-.017.041a7.084,7.084,0,0,1-.913,1.392c-.112.137-.219.285-.337.412a5.975,5.975,0,0,1-1.33,1.079l8.064-4.618a5.941,5.941,0,0,0,1.33-1.081c.121-.126.226-.272.338-.411a6.778,6.778,0,0,0,.439-.535,7.694,7.694,0,0,0,.458-.821l.017-.037.015-.037c.091-.2.179-.4.26-.606s.146-.414.212-.631c.059-.2.114-.4.162-.613.019-.085.036-.175.053-.263l.016-.073c.017-.085.036-.166.052-.251.033-.187.06-.378.086-.574s.045-.38.06-.577.028-.375.036-.567.012-.384.014-.579v-.036l.436-151.674C420.55,149.185,420.547,149.005,420.541,148.824Z" transform="translate(-162.449 1.14)" fill="url(#linear-gradient-4)"/>
          <g id="Group_109" data-name="Group 109" transform="translate(0 4.619)">
            <g id="Group_108" data-name="Group 108">
              <path id="Path_88" data-name="Path 88" d="M500.132,184.715c6.72,3.824,12.145,13.083,12.125,20.693l-.437,151.674c-.021,7.612-5.482,10.678-12.2,6.853L274.344,235.773c-6.72-3.824-12.145-13.083-12.123-20.693L262.657,63.4c.022-7.61,5.482-10.677,12.2-6.853Z" transform="translate(-262.221 -54.904)" fill="#343996"/>
            </g>
          </g>
        </g>
        <g id="Group_111" data-name="Group 111" transform="translate(97.852 31.435)">
          <path id="Path_89" data-name="Path 89" d="M393.817,111.508a8.248,8.248,0,0,1,3.811,6.505l-.136,47.675c-.007,2.391-1.724,3.355-3.837,2.154l-70.807-40.285a8.248,8.248,0,0,1-3.811-6.5l.138-47.676c.007-2.391,1.722-3.355,3.835-2.154Z" transform="translate(-319.037 -70.705)" fill="#2689fd"/>
        </g>
        <g id="Group_114" data-name="Group 114" transform="translate(24.826 43.494)">
          <g id="Group_112" data-name="Group 112" transform="translate(0.031)">
            <path id="Path_90" data-name="Path 90" d="M290.384,85.4l-.005,2.164a1.683,1.683,0,0,1-2.526,1.429l-10.359-5.923a1.653,1.653,0,0,1-.839-1.439l.007-2.164a1.683,1.683,0,0,1,2.527-1.429l10.359,5.923A1.651,1.651,0,0,1,290.384,85.4Z" transform="translate(-276.654 -77.811)" fill="#fff"/>
          </g>
          <g id="Group_113" data-name="Group 113" transform="translate(0 10.768)">
            <path id="Path_91" data-name="Path 91" d="M323.168,110.375l-.007,2.169a1.682,1.682,0,0,1-2.523,1.431l-43.16-24.556a1.651,1.651,0,0,1-.842-1.439l.007-2.169a1.682,1.682,0,0,1,2.523-1.431l43.161,24.556A1.655,1.655,0,0,1,323.168,110.375Z" transform="translate(-276.636 -84.156)" fill="#1ae5ff"/>
          </g>
        </g>
        <path id="Path_92" data-name="Path 92" d="M273.1,144.913l17.183-8.636,11.239,17.891,12.536,12.566,12.536-7.454,26.8-8.52,12.1,17.039,12.1,9.8L388.62,193.57l14.913-30.883,18.155,8.519,9.51-7.667,19.668,5.112,29.178-2.556" transform="translate(-254.367 6.443)" fill="none" stroke="#16c5dc" stroke-miterlimit="10" stroke-width="1"/>
        <g id="Group_117" data-name="Group 117" transform="translate(103.925 51.676)">
          <g id="Group_115" data-name="Group 115">
            <path id="Path_93" data-name="Path 93" d="M338.971,84.833c-6.524-3.71-12.7-2.763-15.249,3.085-3.193,7.311.437,19.628,8.122,28.147l1.784-4.09c-5.206-5.986-7.631-14.444-5.423-19.5,1.8-4.122,6.152-4.788,10.75-2.172a18.632,18.632,0,0,1,3.372,2.5l1.783-4.09A26.835,26.835,0,0,0,338.971,84.833Z" transform="translate(-322.563 -82.632)" fill="#f1f1f1"/>
          </g>
          <g id="Group_116" data-name="Group 116" transform="translate(9.281 6.076)">
            <path id="Path_94" data-name="Path 94" d="M340.218,86.212,338.437,90.3c.281.258.561.528.839.811,5.918,6.008,8.808,15.237,6.46,20.622-.088.192-.177.377-.276.56-.033.064-.071.127-.109.192-1.712,2.968-4.991,3.693-8.627,2.257A13.459,13.459,0,0,1,335,113.91c-.155-.088-.31-.182-.467-.277-.284-.175-.5-.319-.713-.462l-.1-.068c-.467-.326-.93-.677-1.4-1.071l-.176-.151c-.172-.148-.343-.3-.515-.458-.064-.058-.127-.114-.191-.177-.224-.207-.448-.424-.668-.647-.358-.365-.7-.738-1.037-1.12l-1.784,4.09c.341.375.684.748,1.039,1.108.317.319.634.628.956.925.09.085.179.17.272.253.243.222.489.44.735.652.083.071.165.144.246.212.661.553,1.328,1.064,1.989,1.521.052.037.1.071.157.105.3.21.6.4.9.592l.105.063c.2.127.412.248.617.365q.734.418,1.462.759c.365.17.71.316,1.054.451,5.546,2.167,10.511.8,12.731-4.292,3.333-7.635-.772-20.736-9.161-29.255Q340.64,86.606,340.218,86.212Z" transform="translate(-327.952 -86.212)" fill="#fdb913"/>
          </g>
        </g>
        <g id="Group_122" data-name="Group 122" transform="translate(142.985 75.908)">
          <g id="Group_118" data-name="Group 118" transform="translate(0.055)">
            <path id="Path_95" data-name="Path 95" d="M353.209,101.294l0,1.251a.972.972,0,0,1-1.46.827l-5.987-3.423a.952.952,0,0,1-.484-.832l0-1.251a.972.972,0,0,1,1.46-.825l5.987,3.421A.955.955,0,0,1,353.209,101.294Z" transform="translate(-345.275 -96.91)" fill="#fff"/>
          </g>
          <g id="Group_119" data-name="Group 119" transform="translate(0.036 6.223)">
            <path id="Path_96" data-name="Path 96" d="M372.159,115.731l0,1.254a.972.972,0,0,1-1.459.827L345.751,103.62a.957.957,0,0,1-.487-.833l0-1.252a.973.973,0,0,1,1.459-.828L371.673,114.9A.953.953,0,0,1,372.159,115.731Z" transform="translate(-345.264 -100.577)" fill="#fff"/>
          </g>
          <g id="Group_120" data-name="Group 120" transform="translate(0 18.678)" opacity="0.53">
            <path id="Path_97" data-name="Path 97" d="M361.852,117.22l0,1.252a.971.971,0,0,1-1.457.827l-14.662-8.34a.957.957,0,0,1-.487-.833l.005-1.253a.972.972,0,0,1,1.457-.828l14.661,8.341A.954.954,0,0,1,361.852,117.22Z" transform="translate(-345.243 -107.916)" fill="#fff"/>
          </g>
          <g id="Group_121" data-name="Group 121" transform="translate(0.019 12.451)">
            <path id="Path_98" data-name="Path 98" d="M368.279,117.2l0,1.254a.971.971,0,0,1-1.457.827L345.74,107.289a.953.953,0,0,1-.486-.832l0-1.254a.972.972,0,0,1,1.459-.827l21.077,11.992A.953.953,0,0,1,368.279,117.2Z" transform="translate(-345.254 -104.246)" fill="#58affb"/>
          </g>
        </g>
        <g id="Group_125" data-name="Group 125" transform="translate(212.518 155.032)">
          <g id="Group_123" data-name="Group 123">
            <path id="Path_99" data-name="Path 99" d="M398.836,145.308c-7.266-4.134-13.2-.8-13.22,7.425s5.868,18.248,13.134,22.382,13.165.821,13.189-7.406S406.1,149.444,398.836,145.308Z" transform="translate(-385.616 -143.531)" fill="#ff4272"/>
          </g>
          <g id="Group_124" data-name="Group 124" transform="translate(7.211 9.14)">
            <path id="Path_100" data-name="Path 100" d="M395.779,149.72c-3.284-1.869-5.966-.363-5.976,3.357a12.846,12.846,0,0,0,5.938,10.118c3.286,1.869,5.952.372,5.962-3.348A12.85,12.85,0,0,0,395.779,149.72Z" transform="translate(-389.803 -148.917)" fill="#212973"/>
          </g>
        </g>
      </g>
      <g id="Group_131" data-name="Group 131" transform="translate(25.321 71.321)">
        <g id="Group_127" data-name="Group 127">
          <path id="Path_101" data-name="Path 101" d="M291.1,102v2.232a1.736,1.736,0,0,1-2.6,1.483l-10.7-6.078a1.7,1.7,0,0,1-.87-1.482V95.919a1.735,1.735,0,0,1,2.6-1.482l10.705,6.076A1.706,1.706,0,0,1,291.1,102Z" transform="translate(-276.923 -94.207)" fill="#1ce5ff"/>
        </g>
        <g id="Group_128" data-name="Group 128" transform="translate(0.002 11.106)">
          <path id="Path_102" data-name="Path 102" d="M324.994,127.658v2.237a1.736,1.736,0,0,1-2.6,1.483l-44.6-25.194a1.709,1.709,0,0,1-.873-1.482v-2.239a1.736,1.736,0,0,1,2.6-1.483l44.6,25.194A1.706,1.706,0,0,1,324.994,127.658Z" transform="translate(-276.924 -100.751)" fill="#1ce5ff"/>
        </g>
        <g id="Group_129" data-name="Group 129" transform="translate(0.009 33.335)" opacity="0.53">
          <path id="Path_103" data-name="Path 103" d="M306.608,130.368l0,2.237a1.736,1.736,0,0,1-2.6,1.483L277.8,119.282a1.707,1.707,0,0,1-.871-1.483v-2.237a1.733,1.733,0,0,1,2.6-1.483l26.211,14.806A1.7,1.7,0,0,1,306.608,130.368Z" transform="translate(-276.928 -113.849)" fill="#1ce5ff"/>
        </g>
        <g id="Group_130" data-name="Group 130" transform="translate(0.005 22.221)">
          <path id="Path_104" data-name="Path 104" d="M318.079,130.3v2.239a1.736,1.736,0,0,1-2.6,1.483L277.8,112.733a1.708,1.708,0,0,1-.872-1.483v-2.237a1.735,1.735,0,0,1,2.6-1.483l37.683,21.287A1.705,1.705,0,0,1,318.079,130.3Z" transform="translate(-276.926 -107.3)" fill="#1ce5ff"/>
        </g>
      </g>
      <g id="Group_136" data-name="Group 136" transform="translate(159.564 228.05)">
        <g id="Group_135" data-name="Group 135">
          <g id="Group_134" data-name="Group 134" style="isolation: isolate">
            <g id="Group_132" data-name="Group 132" transform="translate(33.694 36.682)">
              <path id="Path_105" data-name="Path 105" d="M374.551,211.651l6.081-3.482-.117,40.681-6.081,3.482Z" transform="translate(-374.433 -208.169)" fill="#00a935"/>
            </g>
            <path id="Path_106" data-name="Path 106" d="M392.963,225.634l0-.049,0-.049,0-.049-.005-.049-.009-.051-.009-.053-.01-.053,0-.012v0l-.01-.039-.014-.053-.016-.056-.019-.054-.017-.051-.021-.053-.021-.053-.024-.053-.024-.054-.027-.054v0L373.8,187.609l-.024-.044c-.015-.031-.033-.061-.05-.092-.031-.049-.062-.1-.093-.144l-.062-.085-.045-.058-.041-.049-.04-.048-.022-.024,0,0-.017-.019-.045-.044-.045-.044-.048-.044-.048-.042-.048-.039-.047-.034-.046-.034-.047-.029-.045-.027-.01-.005-.034-.02-.043-.022-.043-.02-.045-.017-.043-.017-.043-.014-.045-.012-.045-.01-.047-.007-.017,0h0l-.028,0c-.017,0-.034,0-.052,0l-.053,0c-.021,0-.041.005-.06.008a.471.471,0,0,0-.074.02.6.6,0,0,0-.09.039l-6.081,3.483a.588.588,0,0,1,.357-.066h0a1.071,1.071,0,0,1,.4.141,1.877,1.877,0,0,1,.446.363l0,0a2.464,2.464,0,0,1,.377.543l18.929,37.135a2.333,2.333,0,0,1,.193.521v0a1.523,1.523,0,0,1,.04.455v0a.905.905,0,0,1-.1.353l0,.007a.564.564,0,0,1-.212.226l6.081-3.483a.54.54,0,0,0,.183-.175c.01-.015.019-.034.029-.051l0-.007.01-.017c.01-.022.019-.042.028-.066l.019-.054.016-.056.01-.051.007-.053.005-.048,0-.008v0l0-.039Z" transform="translate(-346.737 -186.555)" fill="#61e041"/>
            <g id="Group_133" data-name="Group 133" transform="translate(0 3.482)">
              <path id="Path_107" data-name="Path 107" d="M375.024,188.751a2.221,2.221,0,0,1,.825.91L394.779,226.8c.56,1.1.06,2-.832,1.488l-5.267-3-.117,40.681L360.91,250.238l.117-40.682-5.089-2.9c-.9-.514-1.4-1.969-.821-2.429l19.081-15.51A.731.731,0,0,1,375.024,188.751Z" transform="translate(-354.87 -188.607)" fill="#00cc41"/>
            </g>
          </g>
        </g>
      </g>
    </g>
    <g id="Group_165" data-name="Group 165" transform="translate(379.467 334.161)">
      <g id="Group_145" data-name="Group 145" transform="translate(0 22.82)">
        <g id="Group_138" data-name="Group 138">
          <path id="Path_108" data-name="Path 108" d="M252.612,245.389l54.706,55.027L360.449,286.8l-54.706-55.027Z" transform="translate(-252.612 -231.776)" fill="#fff"/>
        </g>
        <g id="Group_144" data-name="Group 144" transform="translate(27.309 11.691)">
          <g id="Group_142" data-name="Group 142" transform="translate(4.602)" style="isolation: isolate">
            <g id="Group_139" data-name="Group 139" transform="translate(1.579)">
              <path id="Path_109" data-name="Path 109" d="M297.305,243.957l-5.237,1.953c-3.942-3.043-10.761-4.121-15.387-2.4-.095.036-.184.073-.277.11l-4.347-3.523c.093-.037.186-.075.283-.109C279.855,237.19,290.966,238.971,297.305,243.957Z" transform="translate(-272.057 -238.665)" fill="#e2edff"/>
            </g>
            <g id="Group_140" data-name="Group 140" transform="translate(22.246 5.842)">
              <path id="Path_110" data-name="Path 110" d="M289.3,242.107c5.082,4.431,4.788,9.743-.377,12.841l-4.48-3.632c2.368-1.918,2.313-4.789-.389-7.255Z" transform="translate(-284.057 -242.107)" fill="#e2edff"/>
            </g>
            <g id="Group_141" data-name="Group 141" transform="translate(0 14.132)">
              <path id="Path_111" data-name="Path 111" d="M297.554,251.934a15.785,15.785,0,0,1-1.726.762c-7.409,2.76-18.306,1.073-24.689-3.751l5.244-1.953c3.977,2.878,10.585,3.866,15.1,2.183a8.78,8.78,0,0,0,1.66-.815Z" transform="translate(-271.14 -246.992)" fill="#3eabff"/>
            </g>
          </g>
          <g id="Group_143" data-name="Group 143" transform="translate(0 1.763)">
            <path id="Path_112" data-name="Path 112" d="M278.238,243.246c-3.672,1.887-4,5.4-.613,8.286l-5.237,1.953c-5.783-4.835-5.065-10.8,1.483-13.781Z" transform="translate(-268.468 -239.704)" fill="#3eabff"/>
          </g>
        </g>
      </g>
      <g id="Group_149" data-name="Group 149" transform="translate(51.32 187.821)">
        <g id="Group_146" data-name="Group 146" transform="translate(0 116.462)">
          <path id="Path_113" data-name="Path 113" d="M284.4,400.173s-4.29,2.906-.269,9.774,7.507,2.642,16.621,9.511,12.331,8.189,17.157,7.661,7.776-2.905,8.58-5.548-1.609-7.133-1.609-7.133Z" transform="translate(-282.41 -395.841)" fill="#94a3c0"/>
          <path id="Path_114" data-name="Path 114" d="M322.5,402.215s1.877,8.983,2.948,15.851c.269,3.17-4.021,7.484-10.187,7.221s-9.652-2.115-11.8-4.755-15.549-7.749-17.961-9.864-2.95-8.454-1.877-10.039a8.165,8.165,0,0,1,9.383-2.378c4.29,1.85,7.774,5.283,16.355,5.813S322.5,402.215,322.5,402.215Z" transform="translate(-281.91 -397.621)" fill="#382747"/>
        </g>
        <g id="Group_148" data-name="Group 148" transform="translate(42.536 1.17)">
          <g id="Group_147" data-name="Group 147" transform="translate(0 92.397)">
            <path id="Path_115" data-name="Path 115" d="M309.1,386.682s-4.29,2.906-.269,9.774,7.507,2.642,16.621,9.511,12.333,8.19,17.159,7.661,7.774-2.906,8.578-5.548-1.609-7.131-1.609-7.131Z" transform="translate(-307.108 -382.352)" fill="#94a3c0"/>
            <path id="Path_116" data-name="Path 116" d="M347.2,388.724s1.877,8.983,2.95,15.851c.267,3.17-4.021,7.486-10.189,7.221s-9.65-2.113-11.8-4.755-15.549-7.749-17.961-9.862-2.949-8.455-1.877-10.039a8.165,8.165,0,0,1,9.385-2.378c4.288,1.848,7.774,5.283,16.353,5.811S347.2,388.724,347.2,388.724Z" transform="translate(-306.607 -384.13)" fill="#382747"/>
          </g>
          <path id="Path_117" data-name="Path 117" d="M311.771,353.589c2.146,16.907,10.724,61.291,12.154,76.789,0,0,3.575,5.636,14.3,4.226l5.089-2.089a4.851,4.851,0,0,0,3.007-5.09c-1.078-8.547-3.5-30.068-2.377-42.839,1.43-16.2-2.861-26.065-2.861-26.065.358-5.283,1.073-23.6-9.65-28.533,0,0-26.273-4.755-19.661,23.6" transform="translate(-304.511 -329.688)" fill="#14347c"/>
        </g>
        <path id="Path_118" data-name="Path 118" d="M351.123,338.218l-2.861,5.636S304.3,345.967,292.5,358.648c0,0-7.864,1.409-5.72,18.317s10.723,61.289,12.154,76.788c0,0,3.574,5.636,14.3,4.228l5.089-2.089a4.851,4.851,0,0,0,3.007-5.09c-1.078-8.547-3.5-30.068-2.378-42.839,1.431-16.2-2.859-26.067-2.859-26.067a227.265,227.265,0,0,1,40.036,11.977c20.731,8.453,38.6-1.409,46.468-5.636s10.723-7.045,10.723-7.045a32.994,32.994,0,0,0,19.3-7.749c9.293-7.749,10.724-28.18.715-40.155S351.123,338.218,351.123,338.218Z" transform="translate(-279.521 -328.999)" fill="#18388f"/>
      </g>
      <g id="Group_151" data-name="Group 151" transform="translate(121.042 61.428)">
        <path id="Path_119" data-name="Path 119" d="M333.117,283.055s7.1-2.595,6.638-11.946c-2.156-9.209-4.764-9.83-4.764-9.83s9.939-9.049,21.928-6.2c0,0,7.4,14.806,15.779,21.147C372.7,276.228,366,293.624,333.117,283.055Z" transform="translate(-315.508 -254.526)" fill="#ce7c56"/>
        <g id="Group_150" data-name="Group 150" transform="translate(0 11.27)">
          <path id="Path_120" data-name="Path 120" d="M351.951,283.6s26.273-21.664,31.636-22.192c6.433-.528,14.476,1.585,16.622,10.568a16.494,16.494,0,0,1-7.507,18.492c-4.826,2.642-47.183,22.72-54.69,22.72s-12.331-6.341-7.507-14.266S351.951,283.6,351.951,283.6Z" transform="translate(-318.794 -261.052)" fill="#e2a029"/>
          <path id="Path_121" data-name="Path 121" d="M364.093,267.524s-27.882,9.158-35.745,21.839-6.434,26.771-.715,46.5-5.72,37.337-2.859,47.9,22.877,20.43,52.188,15.5,31.455-16.2,33.6-22.545-5.72-36.633,1.43-61.289-7.149-41.565-12.869-45.793S381.967,259.774,364.093,267.524Z" transform="translate(-322.893 -259.421)" fill="#ffbe3d"/>
          <path id="Path_122" data-name="Path 122" d="M398.572,269.637c-5.72-4.226-17.157-9.862-35.031-2.113,0,0-27.882,9.158-35.745,21.839a35.312,35.312,0,0,0-4.14,9.53c11.289-14.46,27.311-20.81,37.741,3.856,9.734,23.02-15.03,90.682-36.667,69.408-.911,4.438-1.388,8.358-.508,11.607,2.859,10.568,22.877,20.43,52.188,15.5s31.455-16.2,33.6-22.545-5.72-36.633,1.43-61.289S404.292,273.864,398.572,269.637Z" transform="translate(-322.342 -259.421)" fill="#e2a029"/>
          <path id="Path_123" data-name="Path 123" d="M331.353,281.245s7.506,4.755,26.273,2.113,19.839-15.851,18.23-16.907-4.826-5.285-4.826-5.285-19.839,8.983-26.809,11.625-10.725,4.226-10.725,4.226Z" transform="translate(-316.783 -261.166)" fill="#fff"/>
        </g>
      </g>
      <g id="Group_152" data-name="Group 152" transform="translate(120.379)">
        <path id="Path_124" data-name="Path 124" d="M324.231,250.648s-1.609,19.02,8.58,31.7,20.374,5.283,26.809,2.113,9.114-8.454,11.26-23.775,2.144-30.118-9.116-34.873S338.173,220,331.2,231.627,324.231,250.648,324.231,250.648Z" transform="translate(-321.33 -215.462)" fill="#ffaa83"/>
        <path id="Path_125" data-name="Path 125" d="M332.916,230.8s-9.116,6.868-8.579,16.907-2.682,11.624-1.609,16.907,9.652,6.87,10.187,14.266,11.8,10.039,17.694,12.152,15.548-4.754,18.23-8.453,2.144-13.209,5.361-21.662,1.609-19.022-1.073-26.418-8.043-8.983-8.043-8.983-2.68-5.811-9.114-6.868S329.7,218.644,332.916,230.8Z" transform="translate(-322.508 -218.331)" fill="#4d2c63"/>
      </g>
      <g id="Group_163" data-name="Group 163" transform="translate(81.702 119.716)">
        <g id="Group_162" data-name="Group 162">
          <g id="Group_161" data-name="Group 161" transform="translate(32.499 155.225)">
            <g id="Group_155" data-name="Group 155" transform="translate(0 19.038)">
              <g id="Group_154" data-name="Group 154" style="isolation: isolate">
                <path id="Path_126" data-name="Path 126" d="M421.433,410.5c-.973,10.662-11.155,17.9-20.34,21.8a79.1,79.1,0,0,1-31.857,5.825c-11.078-.141-22.388-2.228-32.377-7.072-8.716-4.226-17.968-11.894-17.939-22.321-.021,7.593.518,13.867,6.071,19.8,7.149,7.632,17.911,11.743,28.035,13.8,19.752,4.019,46.646,2.077,61.65-12.907,6.037-6.028,6.861-12.382,6.884-20.4Q421.53,409.764,421.433,410.5Z" transform="translate(-318.921 -379.571)" fill="#adcdfc"/>
                <g id="Group_153" data-name="Group 153" transform="translate(0.001)">
                  <path id="Path_127" data-name="Path 127" d="M406.4,400.128c20.106,11.439,20.235,29.989.26,41.427s-52.5,11.439-72.6,0-20.188-29.987-.212-41.426S386.294,388.69,406.4,400.128Z" transform="translate(-318.921 -391.55)" fill="#e2edff"/>
                </g>
              </g>
            </g>
            <g id="Group_160" data-name="Group 160" transform="translate(44.59)">
              <g id="Group_159" data-name="Group 159" style="isolation: isolate">
                <g id="Group_156" data-name="Group 156" transform="translate(7.899 4.494)">
                  <path id="Path_128" data-name="Path 128" d="M357.373,382.98l-.127,44.207-7.848,4.494.127-44.207Z" transform="translate(-349.397 -382.98)" fill="#c7d8f2"/>
                </g>
                <g id="Group_157" data-name="Group 157" transform="translate(0 4.494)">
                  <path id="Path_129" data-name="Path 129" d="M352.837,387.475l-.127,44.207-7.9-4.494.127-44.207Z" transform="translate(-344.811 -382.98)" fill="#7baeff"/>
                </g>
                <g id="Group_158" data-name="Group 158" transform="translate(0.127)">
                  <path id="Path_130" data-name="Path 130" d="M360.632,384.827l-7.848,4.494-7.9-4.494,7.848-4.494Z" transform="translate(-344.885 -380.332)" fill="#4da5dc"/>
                </g>
              </g>
            </g>
          </g>
          <path id="Path_131" data-name="Path 131" d="M484.507,297.653a9.213,9.213,0,0,0-12.269-8.263c-25.646,8.866-84.423,29.858-88.2,37.3-3.6,7.092-15.226,46.711-20.951,66.557a9.266,9.266,0,0,1-13.571,5.332l-35.527-20.646c-6.758-3.927-15.094,1.711-13.8,9.338l5.7,33.724a9.109,9.109,0,0,0,4.511,6.4L348.41,448.91a74.041,74.041,0,0,0,69.1,1.967l29.3-14.438a71.886,71.886,0,0,0,40.358-67.058Z" transform="translate(-300.051 -288.87)" fill="#3278cc"/>
        </g>
        <path id="Path_132" data-name="Path 132" d="M384.037,311.827c-3.6,7.092-15.226,46.711-20.951,66.557a9.266,9.266,0,0,1-13.571,5.332l-35.527-20.646c-6.756-3.927-15.094,1.711-13.8,9.338l5.7,33.724a8.918,8.918,0,0,0,.723,2.24q.68,1.054,1.373,2.1a9.117,9.117,0,0,0,2.415,2.055l38.012,21.518a73.725,73.725,0,0,0,25.71,8.788c30.834-23.575,26.946-121.986,15.766-130.25a15.512,15.512,0,0,0-4.4-2.4A5.972,5.972,0,0,0,384.037,311.827Z" transform="translate(-300.051 -274.008)" fill="#3aaeef"/>
      </g>
      <g id="Group_164" data-name="Group 164" transform="translate(26.954 65.186)">
        <path id="Path_133" data-name="Path 133" d="M318.744,302.69s26.271-21.662,31.634-22.19c6.434-.529,14.476,1.585,16.621,10.566a16.492,16.492,0,0,1-7.507,18.492c-4.826,2.643-47.183,22.72-54.69,22.72s-12.331-6.341-7.506-14.265S318.744,302.69,318.744,302.69Z" transform="translate(-248.691 -240.227)" fill="#ffbe3d"/>
        <path id="Path_134" data-name="Path 134" d="M301.319,284.859a18.835,18.835,0,0,1-1.609-4.491c-.267-1.85.8-4.228-.267-8.453s-2.95-7.926-3.755-10.831c-2.144-2.642-4.021,2.113-2.413,6.076s1.073,6.341-.536,6.6-8.31-3.7-10.187-5.811-12.6-12.416-13.673-11.1-1.073,2.642,2.682,6.605,5.093,5.811,5.361,6.868a17.283,17.283,0,0,0,1.34,5.283c1.342,3.17.269,5.283,2.682,8.189s6.97,3.435,9.114,5.285l2.146,1.848Z" transform="translate(-268.263 -256.739)" fill="#ffaa83"/>
        <path id="Path_135" data-name="Path 135" d="M315.608,338.185s-11.26,2.115-17.336-10.215-16.442-45.44-17.872-48.608c0,0,3.574-7.749,12.51-7.4,0,0,10.008,19.373,15.728,28.179S334.732,334.663,315.608,338.185Z" transform="translate(-259.496 -246.134)" fill="#ffbe3d"/>
      </g>
    </g>
    <g id="Group_168" data-name="Group 168" transform="translate(118.409 258.921)">
      <g id="Group_166" data-name="Group 166" transform="translate(109.397 3.958)">
        <path id="Path_136" data-name="Path 136" d="M204.779,194.831s3.494-2.191,5.561-1.565a91.539,91.539,0,0,0,11.436,1.879c2.225.156,6.672-3.758,7.466-4.384s1.271-2.035,2.225-2.973,1.429-.782,1.429-2.505,1.746-3.287,2.542-4.07,3.97-2.661,3.653-4.07-1.907-.626-2.859-.314-4.607,3.6-6.195,4.54a19.981,19.981,0,0,1-7.308,2.349,15.912,15.912,0,0,1-3.655-.47s-.475,0,1.43-.626,3.019-.156,4.607-.47,2.384-1.251,2.225-2.035-2.225-.782-3.019-.782a63.573,63.573,0,0,1-7.466-.156c-1.907-.312-5.082,2.817-5.718,3.444s-3.972,1.565-5.72,1.723S204.779,194.831,204.779,194.831Z" transform="translate(-135.75 -176.33)" fill="#ff9f75"/>
        <path id="Path_137" data-name="Path 137" d="M165.218,191.653s3.324,10.809,17.226,10.393,48.476-6.728,51.99-6.95c0,0,5.308-6.716.846-14.353,0,0-22.06.251-32.63-.657S159.512,173.324,165.218,191.653Z" transform="translate(-164.553 -174.828)" fill="#e1e8f2"/>
      </g>
      <g id="Group_167" data-name="Group 167">
        <path id="Path_138" data-name="Path 138" d="M137.51,216.424s-5.811-33.269-9.552-37.091c-4.559-4.5-12.08-8.021-19.613-2.539s-8.362,13.8-6.417,18.888,21.061,47.4,26.785,52.191,13.566,3.028,15.09-6.093S137.51,216.424,137.51,216.424Z" transform="translate(-101.033 -173.998)" fill="#e1e8f2"/>
        <path id="Path_139" data-name="Path 139" d="M156.57,209.761s4.559.265,6.166.265,13.942-1.057,16.086-1.057,2.144,2.378,2.144,2.378,2.146,3.433,2.146,4.755a12.917,12.917,0,0,0,.536,4.491c.536,1.32-.269,2.378-.8,3.435s-1.877,1.585-3.217,2.378a4.387,4.387,0,0,1-4.021.263c-1.071-.528-1.071-.793.269-1.585a14.226,14.226,0,0,0,2.413-1.848,7.4,7.4,0,0,1-4.021,1.848c-2.413.265-6.166.265-8.312-.793l-5.9-2.906-4.29-.528Z" transform="translate(-61.502 -149.618)" fill="#ff9f75"/>
        <path id="Path_140" data-name="Path 140" d="M116.859,220.295s3.324,10.809,17.226,10.393,48.476-6.728,51.99-6.952c0,0,5.308-6.716.846-14.353,0,0-22.06.251-32.63-.655S111.153,201.966,116.859,220.295Z" transform="translate(-90.083 -150.903)" fill="#e1e8f2"/>
      </g>
    </g>
  </g>
</svg>
