<svg xmlns="http://www.w3.org/2000/svg" width="671.613" height="497.702" viewBox="0 0 671.613 497.702">
  <g id="Holding_the_arrow-pana" data-name="Holding the arrow-pana" transform="translate(-55.93 -29.42)">
    <g id="freepik--background-simple--inject-12" transform="translate(56.208 54.399)">
      <path id="Path_594" data-name="Path 594" d="M56.323,162.914l.328,2.556c2.809,21.582,16,39.951,34.688,47.249a49.114,49.114,0,0,0,7.38,2.232c18.539,3.687,37.544-2.954,50.648-17.7,7.555-8.626,13.182-19.987,23.043-25.02,12.844-6.551,27.677,0,40.449,6.45s27.677,12.978,40.449,6.361c8.026-4.151,13.469-12.822,16.545-21.951C278,138.933,271.2,110.755,256.1,91.282S218.723,60.3,195.864,55.1c-32.033-7.365-67.09-2.678-94.767,16.907S54.5,126.992,56.323,162.914Z" transform="translate(-56.202 -51.804)" fill="#f5f5f5"/>
      <path id="Path_595" data-name="Path 595" d="M664.379,257.224l-.359-2.556c-3.075-21.549-16.4-39.75-35.19-46.758a48.642,48.642,0,0,0-7.4-2.109c-18.563-3.449-37.481,3.432-50.413,18.335-7.462,8.716-12.967,20.143-22.777,25.3-12.772,6.7-27.677.368-40.51-5.937s-27.779-12.621-40.521-5.848c-7.975,4.241-13.326,12.99-16.309,22.152-7.893,24.261-.789,52.36,14.515,71.644s37.7,30.5,60.622,35.409c32.1,6.885,67.09,1.752,94.531-18.179S666.583,293.168,664.379,257.224Z" transform="translate(-46.392 -34.05)" fill="#f5f5f5"/>
      <ellipse id="Ellipse_33" data-name="Ellipse 33" cx="25.729" cy="28.01" rx="25.729" ry="28.01" transform="translate(195.467 246.564)" fill="#f5f5f5"/>
      <path id="Path_779" data-name="Path 779" d="M27.142-.868A24.275,24.275,0,0,1,52.871,24.861a29.8,29.8,0,0,1-28.01,28.01A24.275,24.275,0,0,1-.868,27.142,29.8,29.8,0,0,1,27.142-.868Z" transform="translate(596.528 113.265) rotate(-45)" fill="#f5f5f5"/>
    </g>
    <g id="freepik--speech-bubble-3--inject-12" transform="translate(630.579 176.038)">
      <path id="Path_596" data-name="Path 596" d="M620.639,163.835l5.423.77c9.056-6.443,21.131-4.3,27.837,4.943a24.239,24.239,0,0,1-2.03,30.626,19.666,19.666,0,0,1-28.2.54c-8.112-7.792-9.421-21.036-3.018-30.529h0Z" transform="translate(-616.528 -160.794)" fill="#fff"/>
      <path id="Path_597" data-name="Path 597" d="M620.64,163.846v6.372l-.123-.056h0a.068.068,0,0,1,.1,0,.12.12,0,0,1,0,.1,23.747,23.747,0,0,0-3.752,10.044,25.489,25.489,0,0,0,.113,7.153,23.845,23.845,0,0,0,2.624,7.6,22.568,22.568,0,0,0,5.556,6.606,19.506,19.506,0,0,0,8.118,3.917,19.269,19.269,0,0,0,9.441-.346A19.785,19.785,0,0,0,651.362,200a22.978,22.978,0,0,0,3.29-4.218c.42-.792.861-1.574,1.23-2.388l.5-1.239.246-.625.195-.636a24.907,24.907,0,0,0,.943-10.334,23.12,23.12,0,0,0-3.126-9.14,22.2,22.2,0,0,0-5.792-6.472,19.846,19.846,0,0,0-6.858-3.292l-1.722-.346c-.564-.1-1.128-.123-1.671-.19a17.789,17.789,0,0,0-3.188,0,19.812,19.812,0,0,0-9.4,3.515h0l-4-.614-1.025-.167-.369-.067h.349l1.025.134,4.1.525h-.051a19.594,19.594,0,0,1,9.42-3.538,17.1,17.1,0,0,1,3.219-.056c.554.056,1.128.078,1.7.167l1.743.346a20.347,20.347,0,0,1,6.981,3.348A22.633,22.633,0,0,1,655,171.256a23.564,23.564,0,0,1,3.2,9.3,25.465,25.465,0,0,1-.953,10.523l-.195.647-.246.636c-.174.413-.349.837-.513,1.261-.379.826-.82,1.629-1.261,2.433a22.963,22.963,0,0,1-3.342,4.3,20.1,20.1,0,0,1-8.805,5.323,19.656,19.656,0,0,1-9.6.346,19.873,19.873,0,0,1-8.2-4.017,22.929,22.929,0,0,1-5.628-6.7,24.333,24.333,0,0,1-2.624-7.722,25.3,25.3,0,0,1-.072-7.243,23.79,23.79,0,0,1,3.854-10.122l.113.123h0a.068.068,0,0,1-.1,0h0v-5.97C620.62,164.08,620.64,163.846,620.64,163.846Z" transform="translate(-616.53 -160.805)" fill="#263238"/>
      <path id="Path_598" data-name="Path 598" d="M627.87,183l2.6-3.035,5.361,4.843,9.882-11.081,2.6,2.846-12.69,13.916Z" transform="translate(-616.245 -159.306)" fill="#2bace3"/>
    </g>
    <g id="freepik--speech-bubble-2--inject-12" transform="translate(374.68 88.206)">
      <path id="Path_599" data-name="Path 599" d="M374.677,129.546l5.638-3.08c10.128,4.372,21.647-.39,26.556-10.979s1.588-23.506-7.657-29.78-21.361-3.834-27.932,5.627-5.427,22.817,2.637,30.792h0Z" transform="translate(-366.884 -82.082)" fill="#fff"/>
      <path id="Path_600" data-name="Path 600" d="M374.681,129.561l-.062-.458c0-.335-.092-.8-.164-1.395-.154-1.283-.359-3.147-.636-5.58a.1.1,0,0,1,.015-.078.08.08,0,0,1,.067-.033h.062l-.1.167a23.838,23.838,0,0,1-6.95-15.993,24.2,24.2,0,0,1,5.556-16.626c6.8-8.089,17.9-9.822,26.518-4.14a21.99,21.99,0,0,1,7.227,7.879,24.921,24.921,0,0,1,2.962,10.133c.8,12.3-7.419,23.109-18.666,24.551a19.274,19.274,0,0,1-10.179-1.361h0l-4.244,2.232-1.076.558a1.907,1.907,0,0,1-.359.179l.379-.223,1.076-.614,4.1-2.332a.085.085,0,0,1,.072,0,19.33,19.33,0,0,0,16.141-.391,22.064,22.064,0,0,0,11.064-12.8,24.331,24.331,0,0,0,1.292-9.709,24.606,24.606,0,0,0-2.921-9.921,21.593,21.593,0,0,0-7.073-7.745c-9.18-5.968-21.019-3.408-27.408,5.926s-5.256,22.416,2.622,30.286a.095.095,0,0,1,0,.134.077.077,0,0,1-.1,0h0l.133-.1c.215,2.388.39,4.229.513,5.5.051.614.092,1.116.123,1.428A3.967,3.967,0,0,1,374.681,129.561Z" transform="translate(-366.888 -82.098)" fill="#263238"/>
      <path id="Path_601" data-name="Path 601" d="M381.894,103.041a2.14,2.14,0,1,1-2.132-2.321A2.233,2.233,0,0,1,381.894,103.041Z" transform="translate(-366.618 -79.939)" fill="#263238"/>
      <path id="Path_602" data-name="Path 602" d="M390.224,103.041a2.14,2.14,0,1,1-2.132-2.321A2.233,2.233,0,0,1,390.224,103.041Z" transform="translate(-366.41 -79.939)" fill="#263238"/>
      <path id="Path_603" data-name="Path 603" d="M398.527,101.88a2.437,2.437,0,0,1-.779,3.172,2.04,2.04,0,0,1-2.913-.849,2.437,2.437,0,0,1,.781-3.171A2.049,2.049,0,0,1,398.527,101.88Z" transform="translate(-366.194 -79.938)" fill="#263238"/>
    </g>
    <g id="freepik--speech-bubble-1--inject-12" transform="translate(70.254 207.365)">
      <path id="Path_604" data-name="Path 604" d="M116.124,235.861l-2.05-7.432c6.428-11.381,3.82-26.22-6.012-34.215s-23.642-6.5-31.842,3.435a27.537,27.537,0,0,0,.273,34.834c8.354,9.786,22.186,11.019,31.891,2.842h0Z" transform="translate(-69.898 -188.853)" fill="#fff"/>
      <path id="Path_605" data-name="Path 605" d="M116.13,235.884h-.482l-1.466-.078-5.8-.324a.1.1,0,0,1-.07-.04.119.119,0,0,1-.023-.082.17.17,0,0,1,0-.067h0l.144.167a22.448,22.448,0,0,1-17.713,5.272,23.5,23.5,0,0,1-15.9-10A27.75,27.75,0,0,1,75.845,197.8a23.8,23.8,0,0,1,9.472-7.2,22.057,22.057,0,0,1,20.778,1.953c7.666,4.98,12.147,14.191,11.624,23.892a27.425,27.425,0,0,1-3.547,12.086v-.089q.953,3.627,1.476,5.58l.359,1.417a3.469,3.469,0,0,1,.113.469s-.061-.179-.154-.5-.236-.815-.42-1.428c-.359-1.272-.882-3.1-1.558-5.468a.1.1,0,0,1,0-.089,27.627,27.627,0,0,0,2.783-19.61A25.578,25.578,0,0,0,105.88,192.9a21.72,21.72,0,0,0-20.4-1.886,23.241,23.241,0,0,0-9.226,7.064,27.34,27.34,0,0,0-4.407,25.534c2.907,8.75,9.949,15.092,18.389,16.56a21.306,21.306,0,0,0,7.524,0,22.84,22.84,0,0,0,10.62-4.977.106.106,0,0,1,.154,0,.181.181,0,0,1,0,.145h0l-.082-.179,5.73.458,1.486.123Z" transform="translate(-69.904 -188.876)" fill="#263238"/>
      <path id="Path_606" data-name="Path 606" d="M86.11,208.672l7.647-10.412,7.5,10.4Z" transform="translate(-69.498 -187.788)" fill="#2bace3"/>
      <rect id="Rectangle_415" data-name="Rectangle 415" width="6.899" height="21.147" transform="translate(20.825 19.221)" fill="#2bace3"/>
    </g>
    <g id="freepik--characters-2--inject-12" transform="translate(55.93 29.42)">
      <rect id="Rectangle_416" data-name="Rectangle 416" width="130.839" height="73.943" transform="translate(255.671 423.614)" fill="#e0e0e0"/>
      <path id="Path_607" data-name="Path 607" d="M436.2,483v-5.189c0-3.348,0-8.358-.051-14.753,0-12.789-.061-31.247-.1-54l.195.212-130.839.067h0l.256-.279V483l-.236-.257,94.019.123,27.072.078h.051l-27.031.067-94.172.134h-.246V408.66h.267l130.839.067h.195v.312c-.051,22.8-.082,41.29-.1,54.123,0,6.372,0,11.338-.051,14.719V481.7A10.453,10.453,0,0,1,436.2,483Z" transform="translate(-49.685 14.552)" fill="#263238"/>
      <rect id="Rectangle_417" data-name="Rectangle 417" width="144.554" height="98.114" transform="translate(450.914 399.453)" fill="#e0e0e0"/>
      <path id="Path_608" data-name="Path 608" d="M640.376,485.515v-26.6c0-17.018-.062-41.524-.113-71.5l.2.212-144.534.067h0l.256-.279v98.1l-.236-.257L600,485.381l29.809.078h.082l-29.727.067-104.2.123h-.236V387.01H496l144.534.056h.205v.223c0,30.03-.082,54.581-.113,71.633v24.741A6.038,6.038,0,0,1,640.376,485.515Z" transform="translate(-44.908 12.042)" fill="#263238"/>
      <path id="Path_609" data-name="Path 609" d="M487.572,139.076l-1.763-11.349-3.239-8.849,16.9-7.767.154,5.189-4.151,11.461,3.167,8.693-11.071,2.622" transform="translate(-45.238 -19.948)" fill="#ffbf9d"/>
      <path id="Path_610" data-name="Path 610" d="M413.569,182l-15.878,14.507L365.452,182l-.1,3.917,2.768,17.23,28.948,11.226a2.674,2.674,0,0,0,1.548,0,2.5,2.5,0,0,0,.574,0c4.1-.614,23.136-26.883,23.136-26.883S414.133,182.446,413.569,182Z" transform="translate(-48.176 -11.729)" fill="#455a64"/>
      <path id="Path_611" data-name="Path 611" d="M333.506,116.369a4.451,4.451,0,0,0-3.864-1.573,2.461,2.461,0,0,1-1.7-.089,3.8,3.8,0,0,1-.789-1.027,2.277,2.277,0,0,0-1.661-.863,2.243,2.243,0,0,0-1.722.706,2.8,2.8,0,0,1-.677.7c-1.138.625-2.337-1.685-3.465-1.049a2.744,2.744,0,0,1,1.23,1.116,1.407,1.407,0,0,1-.154,1.618c-1.025.982-2.768-1.283-3.947-.48-.636.446-.738,1.607-1.476,1.8a2.269,2.269,0,0,1-.861-.089,1.971,1.971,0,0,0-2.05,1.774c-.1.9.307,2.02-.328,2.622a1.678,1.678,0,0,1-1.486.2,5.858,5.858,0,0,0,.513,2.41,3.525,3.525,0,0,0-1.025,4.464,6.72,6.72,0,0,0-1.773,1.908,2.641,2.641,0,0,0-.061,2.6,2.252,2.252,0,0,1,.318.513,1.211,1.211,0,0,1,0,.67,12.744,12.744,0,0,0-.513,2.533c0,.859.595,1.819,1.384,1.763.185,0,.39-.078.543,0a.565.565,0,0,1,.184.4,6.276,6.276,0,0,1-.133,1.852,2.66,2.66,0,0,0,.226,1.808,1.014,1.014,0,0,0,.7.452.967.967,0,0,0,.78-.24c-.246.96-.482,1.919-.718,2.89a1.885,1.885,0,0,0,.113,1.685c.379.424,1.415.134,1.8-.513s.5-1.462.9-2.1a4.652,4.652,0,0,0,.492-.781c.092-.234.123-.513.307-.67.359-.312.9.234.841.737a2.61,2.61,0,0,1-.718,1.261,1.35,1.35,0,0,0-.307,1.384c.113.2.318.346.42.558.369.748-.636,1.44-.759,2.232a2.116,2.116,0,0,0,.707,1.618c.482.536,1.435.993,1.753.312a6.383,6.383,0,0,0,.164-.77,2.019,2.019,0,0,1,.553-.681,3.989,3.989,0,0,0,1.107-1.919c-.6.781-1.24,1.819-.83,2.734a4.108,4.108,0,0,0,.759.96c.523.6.841,1.395,1.353,2.009a1.708,1.708,0,0,0,2.05.647,1.959,1.959,0,0,0,.725,2.2,1.619,1.619,0,0,0,2.135-.285,1.426,1.426,0,0,1,.472-.446,1.171,1.171,0,0,1,.677,0,3.584,3.584,0,0,0,3.629-1.518l-.687-.268a8.179,8.179,0,0,0,3.885-1.172,3.386,3.386,0,0,0,1.312-3.805c-.246-.591-.728-1.183-.492-1.774a1.4,1.4,0,0,1,.964-.725l4.818-1.763a4.474,4.474,0,0,0,2.122-1.283,1.774,1.774,0,0,0,.415-1.213,1.752,1.752,0,0,0-.5-1.176,4.7,4.7,0,0,1,1.681-1.931c.81-.513,1.743-.725,2.563-1.194a2.718,2.718,0,0,0,1.538-2.332c0-1.016-1.312-1.819-1.958-1.116.144-1.518,2.634-1.573,2.87-3.08.195-1.216-1.24-1.886-1.968-2.835.154-.424.554-.692.728-1.116.348-.882-.482-1.774-1.271-2.232s-1.743-.859-1.927-1.8.584-2.031.133-2.879a.978.978,0,0,0-1.312-.379c-.615-1.763-3.659-.491-4.521-2.12a.715.715,0,0,1-.1-.435.725.725,0,0,1,.164-.335,6.654,6.654,0,0,1,1.343-1.116,1.536,1.536,0,0,0,.646-1.562c-.195-.58-1.2-.58-1.189,0a1.173,1.173,0,0,0-1.062-.256,1.279,1.279,0,0,0-.844.747,1.262,1.262,0,0,0-1.671-.2,4.2,4.2,0,0,0-1.21,1.473" transform="translate(-49.616 -19.751)" fill="#263238"/>
      <path id="Path_612" data-name="Path 612" d="M325.184,133.979a10.972,10.972,0,0,1,4.3-5.948,5.8,5.8,0,0,1,2.686-1.317,2.448,2.448,0,0,1,2.552,1.25l-.195,1.8c.1,2.868-2.05,5.178-3.075,7.812-.461,1.116-.861,2.522-1.927,2.968a2.21,2.21,0,0,1-1.763-.089C325.563,139.514,324.6,136.467,325.184,133.979Z" transform="translate(-49.186 -18.143)" fill="#2bace3"/>
      <path id="Path_613" data-name="Path 613" d="M324.511,147.371a6.148,6.148,0,0,1,.83-7.332,4.107,4.107,0,0,1,.594-4.642,10.276,10.276,0,0,1,3.977-2.544,7.106,7.106,0,0,1,8.559-5.167c1.989-2.834,5.925-3.069,9.01-1.886a7.845,7.845,0,0,0,2.306.681,11.627,11.627,0,0,0,1.753-.156c3.219-.279,6.263,2.344,7.35,5.658a7.026,7.026,0,0,0,.6,1.54,8.247,8.247,0,0,0,1.517,1.507,5.807,5.807,0,0,1,1.743,4.218c0,1.361-.472,2.768,0,4.029a18.765,18.765,0,0,1,.851,1.8c.5,1.9-1.476,3.683-1.23,5.58.061.4.205.77.287,1.116a3.694,3.694,0,0,1-.318,2.388,5,5,0,0,0-.769,1.674,6.2,6.2,0,0,0,.184,1.428c.164,1.116-2.337,5.457-3.28,6.026l-27.3-1.272a5.5,5.5,0,0,1-3.7-5,2.208,2.208,0,0,0-.205-1.116,2.181,2.181,0,0,0-.718-.569c-1.7-1.116-1.784-3.772-1.5-5.915a2.984,2.984,0,0,0,0-.9,3.282,3.282,0,0,0-.554-1.138Z" transform="translate(-49.22 -18.323)" fill="#263238"/>
      <path id="Path_614" data-name="Path 614" d="M332.1,147.041a15.955,15.955,0,0,1,8.416-13.391,16.555,16.555,0,0,1,7.063-1.428,10.374,10.374,0,0,1,6.355,1.841c1.486.469,6.714,6.272,6.714,12.275,0,6.629-.256,14.731-1.261,19.618-2.05,9.809-9.092,10.59-9.092,10.59l.226,6.919-19.589-1.573Z" transform="translate(-49.038 -17.502)" fill="#ae7461"/>
      <path id="Path_615" data-name="Path 615" d="M345.49,160.416a2.077,2.077,0,0,1,.677-1.283,1.834,1.834,0,0,1,2.378-.123,2.991,2.991,0,0,1,1.025,2.7h0a2.353,2.353,0,0,1-1.722,1.116h-.328a2.073,2.073,0,0,1-1.445-.636A2.208,2.208,0,0,1,345.49,160.416Z" transform="translate(-48.674 -14.438)" fill="#6f4439"/>
      <path id="Path_616" data-name="Path 616" d="M357.587,151.868a1.214,1.214,0,0,1-1.2,1.205,1.071,1.071,0,0,1-.807-.352,1.273,1.273,0,0,1-.331-.875,1.214,1.214,0,0,1,1.2-1.205,1.071,1.071,0,0,1,.807.352A1.274,1.274,0,0,1,357.587,151.868Z" transform="translate(-48.429 -15.365)" fill="#263238"/>
      <path id="Path_617" data-name="Path 617" d="M357.813,148.276c-.154.156-1.025-.625-2.255-.7s-2.214.536-2.347.357.1-.368.523-.658a3.04,3.04,0,0,1,1.9-.491,2.938,2.938,0,0,1,1.784.759C357.772,147.9,357.885,148.2,357.813,148.276Z" transform="translate(-48.481 -15.813)" fill="#263238"/>
      <path id="Path_618" data-name="Path 618" d="M349.91,158.528a7.623,7.623,0,0,1,2.05-.257c.328,0,.636-.067.7-.3a1.89,1.89,0,0,0-.154-1.049c-.246-.87-.513-1.774-.789-2.723a49.04,49.04,0,0,1-1.722-7.109,48.861,48.861,0,0,1,2.245,6.941c.256.949.513,1.864.748,2.734a2.234,2.234,0,0,1,.092,1.384.846.846,0,0,1-.564.48,1.96,1.96,0,0,1-.554,0,7.777,7.777,0,0,1-2.05-.1Z" transform="translate(-48.563 -15.776)" fill="#263238"/>
      <path id="Path_619" data-name="Path 619" d="M350.113,172.363A21.973,21.973,0,0,1,338.13,168s2.891,7.12,12.065,6.83Z" transform="translate(-48.858 -13.352)" fill="#6f4439"/>
      <path id="Path_620" data-name="Path 620" d="M346.246,158c.205,0,.123,1.484,1.23,2.622a6.423,6.423,0,0,0,2.563,1.283c0,.167-.338.257-.953.234a3.249,3.249,0,0,1-2.153-.982,3.38,3.38,0,0,1-.933-2.232C346,158.291,346.154,157.934,346.246,158Z" transform="translate(-48.661 -14.512)" fill="#263238"/>
      <path id="Path_621" data-name="Path 621" d="M357.614,143.63c-.236.324-1.179,0-2.317,0s-2.05.279-2.306,0c-.1-.156,0-.469.451-.781a3.218,3.218,0,0,1,1.866-.569,3.179,3.179,0,0,1,1.855.558C357.573,143.162,357.716,143.474,357.614,143.63Z" transform="translate(-48.486 -16.334)" fill="#263238"/>
      <path id="Path_622" data-name="Path 622" d="M344.29,151.457a1.225,1.225,0,0,0,1.1,1.317,1.057,1.057,0,0,0,.831-.275,1.255,1.255,0,0,0,.4-.841,1.225,1.225,0,0,0-1.1-1.317,1.036,1.036,0,0,0-.837.268A1.233,1.233,0,0,0,344.29,151.457Z" transform="translate(-48.704 -15.401)" fill="#263238"/>
      <path id="Path_623" data-name="Path 623" d="M340.89,147.652c.144.179,1.025-.513,2.306-.48s2.163.759,2.306.591-.072-.379-.472-.7a3,3,0,0,0-1.835-.681,2.956,2.956,0,0,0-1.845.591C341,147.284,340.819,147.574,340.89,147.652Z" transform="translate(-48.789 -15.859)" fill="#263238"/>
      <path id="Path_624" data-name="Path 624" d="M340.811,143.535c.236.312,1.22,0,2.388,0s2.153.268,2.388-.056c.1-.145-.051-.469-.472-.77a3.528,3.528,0,0,0-3.844,0C340.842,143.1,340.7,143.379,340.811,143.535Z" transform="translate(-48.792 -16.35)" fill="#263238"/>
      <path id="Path_625" data-name="Path 625" d="M333.162,154.3c0-.737-.636-2.533-1.3-2.689-1.773-.435-5-.5-5.32,4.464-.441,6.763,5.884,5.848,5.9,5.658S333.019,156.865,333.162,154.3Z" transform="translate(-49.149 -15.274)" fill="#ae7461"/>
      <path id="Path_626" data-name="Path 626" d="M330.843,158.881a2.7,2.7,0,0,1-.3.145.949.949,0,0,1-.81,0,3.051,3.051,0,0,1-1.025-2.712,4.094,4.094,0,0,1,.41-1.663,1.3,1.3,0,0,1,.871-.837.547.547,0,0,1,.615.368c.072.2,0,.335.061.346s.133-.1.1-.391a.723.723,0,0,0-.215-.435.78.78,0,0,0-.584-.223,1.546,1.546,0,0,0-1.2.96,4.463,4.463,0,0,0-.5,1.864,3.169,3.169,0,0,0,1.394,3.035,1.067,1.067,0,0,0,1.025-.1C330.823,159.038,330.864,158.892,330.843,158.881Z" transform="translate(-49.105 -15.036)" fill="#6f4439"/>
      <path id="Path_627" data-name="Path 627" d="M362.119,146.837a4.083,4.083,0,0,1-1.773-3.761c-.841.212-1.62-1.016-2.05-1.83s-1.025-1.261-.923-2.232a1.273,1.273,0,0,0,0-.558c-.113-.268-.41-.368-.656-.469a4.477,4.477,0,0,1-2.563-3.348,8.189,8.189,0,0,1-4.3.469,3.251,3.251,0,0,1-3.009,1.374,3.4,3.4,0,0,1-2.669-2.044,2.975,2.975,0,0,1-2.112,1.484,8.03,8.03,0,0,1-2.583,0,3.89,3.89,0,0,1-2.6,4.229.809.809,0,0,0-.595.335c-.113.223,0,.5.051.759a3.281,3.281,0,0,1-.317,2.362A2.821,2.821,0,0,1,334.237,145a2.414,2.414,0,0,1,.591,1.885,2.312,2.312,0,0,1-.991,1.675c-.236.134-.543.29-.523.58a.651.651,0,0,0,.123.29,4.692,4.692,0,0,1,.851,2.31,1.616,1.616,0,0,1-1.343,1.719,2.307,2.307,0,0,1,.707,1.54c0,.58-.6,1.116-1.1.893a31.729,31.729,0,0,1-3.393-1.183c-1.6-2.723.779-5.435,1.138-8.649a22.175,22.175,0,0,1,3.219-8.928,15.189,15.189,0,0,1,2.388-3.1,18.547,18.547,0,0,1,3.577-2.5,16.109,16.109,0,0,1,5.125-2.232c3.393-.625,6.806.937,9.841,2.723a11.906,11.906,0,0,1,5.853,6.64,19.239,19.239,0,0,1,1.845,7.075" transform="translate(-49.096 -17.856)" fill="#263238"/>
      <path id="Path_628" data-name="Path 628" d="M363.6,145.087a2.515,2.515,0,0,0-.3-.748c-.113-.234-.287-.5-.441-.848a3.438,3.438,0,0,1-.277-1.295,10.921,10.921,0,0,1,.123-1.663,8.157,8.157,0,0,0,.062-2.02,5.917,5.917,0,0,0-.687-2.176,5.117,5.117,0,0,0-.718-1.016,7.951,7.951,0,0,0-.933-.859,4.18,4.18,0,0,1-.892-.949,5.853,5.853,0,0,1-.513-1.317,9.051,9.051,0,0,0-3.649-4.966,6.989,6.989,0,0,0-1.466-.714,5.7,5.7,0,0,0-1.62-.312,7.048,7.048,0,0,0-.841,0l-.841.112a3.777,3.777,0,0,1-1.65-.112c-.554-.156-1.087-.413-1.65-.6a9.372,9.372,0,0,0-1.743-.458,9.875,9.875,0,0,0-1.814-.145,8.635,8.635,0,0,0-1.845.246,6.052,6.052,0,0,0-3.26,2.031l-.246.324h.1a6.464,6.464,0,0,0-5.412.826,7.354,7.354,0,0,0-3.26,4.464l.051-.067a21.711,21.711,0,0,0-2.255,1.116,6.956,6.956,0,0,0-1.876,1.618,4.771,4.771,0,0,0-.933,2.232,3.408,3.408,0,0,0,.461,2.321V140a5.748,5.748,0,0,0-1.63,3.348,6.252,6.252,0,0,0,.461,3.348,7.174,7.174,0,0,0,.369.692c.143.223.287.424.4.636a1.607,1.607,0,0,1,.184.681,5.086,5.086,0,0,1-.061.692,13.109,13.109,0,0,0-.082,2.578,5.776,5.776,0,0,0,.5,2,3.276,3.276,0,0,0,.9,1.116c.307.245.584.357.738.491a.985.985,0,0,1,.215.223.679.679,0,0,0-.195-.245c-.154-.145-.431-.257-.728-.513a3.29,3.29,0,0,1-.871-1.116,5.532,5.532,0,0,1-.472-1.964,12.141,12.141,0,0,1,.1-2.544c0-.234.061-.469.061-.725a1.918,1.918,0,0,0-.195-.737c-.113-.223-.267-.435-.4-.647a4.576,4.576,0,0,1-.359-.681,6.026,6.026,0,0,1-.431-3.348,5.588,5.588,0,0,1,1.589-3.27V139.9a3.315,3.315,0,0,1-.43-2.232,4.8,4.8,0,0,1,.912-2.232,6.632,6.632,0,0,1,1.835-1.562,20.138,20.138,0,0,1,2.224-1.116h0a6.984,6.984,0,0,1,8.457-5.1h.1l.236-.312a5.87,5.87,0,0,1,3.157-1.964,8.268,8.268,0,0,1,1.8-.246,10.508,10.508,0,0,1,1.784.134,9.751,9.751,0,0,1,1.712.458c.554.19,1.1.446,1.661.6a4.658,4.658,0,0,0,.861.156,5.432,5.432,0,0,0,.861,0l.841-.112a6.536,6.536,0,0,1,.81,0,5.8,5.8,0,0,1,3,.993,8.73,8.73,0,0,1,3.6,4.787,6.028,6.028,0,0,0,.543,1.339,4.02,4.02,0,0,0,.923.982,8.022,8.022,0,0,1,.933.848,5.75,5.75,0,0,1,.7.982,5.817,5.817,0,0,1,.687,2.131,7.833,7.833,0,0,1,0,1.975,11.178,11.178,0,0,0-.1,1.7,3.3,3.3,0,0,0,.3,1.306c.164.346.338.625.461.848a2.877,2.877,0,0,1,.256.536A1.69,1.69,0,0,1,363.6,145.087Z" transform="translate(-49.222 -18.338)" fill="#455a64"/>
      <path id="Path_629" data-name="Path 629" d="M341,126.344a3.959,3.959,0,0,1,.482-.234,3.72,3.72,0,0,1,1.374-.346,3.762,3.762,0,0,1,2.05.458,4.315,4.315,0,0,1,1.753,1.964,4.721,4.721,0,0,1,.267.781.925.925,0,0,1-.092.714l-.164.212h.256a2.371,2.371,0,0,1,1.907.379,2.632,2.632,0,0,1,1.025,1.317,3.288,3.288,0,0,1,.185,1.116,2.5,2.5,0,0,0,0,.413v-.1a1.567,1.567,0,0,0,.051-.312,3.119,3.119,0,0,0-.133-1.183,2.787,2.787,0,0,0-1.025-1.417,2.507,2.507,0,0,0-2.05-.424l.092.156a1.067,1.067,0,0,0,.123-.882,3.375,3.375,0,0,0-.277-.826,4.308,4.308,0,0,0-1.845-2.042,3.719,3.719,0,0,0-2.112-.435,3.844,3.844,0,0,0-1.394.413l-.348.212A.416.416,0,0,0,341,126.344Z" transform="translate(-48.786 -18.264)" fill="#455a64"/>
      <path id="Path_630" data-name="Path 630" d="M330.78,132.62a1.892,1.892,0,0,0,.205.257,4.175,4.175,0,0,0,.677.58,2.8,2.8,0,0,0,1.21.48,2.037,2.037,0,0,0,1.568-.4h-.133l.164.29a2.7,2.7,0,0,0,.2.279,3.762,3.762,0,0,0,1.486,1.116,3.807,3.807,0,0,0,1.476.3,3.266,3.266,0,0,0,1.025-.179,1.234,1.234,0,0,0,.338-.167,5.256,5.256,0,0,1-1.322.2,3.771,3.771,0,0,1-2.819-1.451l-.195-.268-.154-.279-.051-.089h-.082a1.924,1.924,0,0,1-1.445.391,2.7,2.7,0,0,1-1.169-.424A6.622,6.622,0,0,1,330.78,132.62Z" transform="translate(-49.042 -17.454)" fill="#455a64"/>
      <path id="Path_631" data-name="Path 631" d="M327.23,138.026a1.324,1.324,0,0,0,0,.134,1.645,1.645,0,0,0,.123.335,1.725,1.725,0,0,0,.964.792,2.923,2.923,0,0,0,1.784-.1,8.954,8.954,0,0,0,1.025-.357,1.676,1.676,0,0,0,.9-.792l.092-.011h-.154a7.189,7.189,0,0,0,1.773,1.328,2.96,2.96,0,0,0,1.732.312,2.179,2.179,0,0,0,1.107-.458,1.337,1.337,0,0,0,.236-.234l.072-.1a3.717,3.717,0,0,1-.349.268,2.276,2.276,0,0,1-1.076.379,2.917,2.917,0,0,1-1.65-.335,7.509,7.509,0,0,1-1.722-1.306l-.092-.1-.051.134V138a1.569,1.569,0,0,1-.81.7,9.484,9.484,0,0,1-1.025.357,2.839,2.839,0,0,1-1.7.134,1.644,1.644,0,0,1-.933-.692A3.085,3.085,0,0,1,327.23,138.026Z" transform="translate(-49.131 -16.856)" fill="#455a64"/>
      <path id="Path_632" data-name="Path 632" d="M322.07,116a.85.85,0,0,1,.3.078,1.427,1.427,0,0,1,.666.524,2.274,2.274,0,0,1,.389,1.328,6.313,6.313,0,0,1-.338,1.83v.1h.113a3.343,3.343,0,0,1,2.1.859,3.107,3.107,0,0,1,1.025,2.444A2.822,2.822,0,0,1,325.3,125.4l-.215.167h.267a3.144,3.144,0,0,1,2.3,1.295,3.54,3.54,0,0,1,.677,2.12,4.044,4.044,0,0,1-.3,1.484c-.133.324-.246.48-.236.491s0,0,.092-.112a1.981,1.981,0,0,0,.195-.346,3.789,3.789,0,0,0,.359-1.518,3.629,3.629,0,0,0-.676-2.232,3.279,3.279,0,0,0-2.4-1.373v.179a3.021,3.021,0,0,0,1.117-2.343,3.263,3.263,0,0,0-.287-1.484,3.31,3.31,0,0,0-.83-1.116,3.533,3.533,0,0,0-2.214-.882l.072.112a6.759,6.759,0,0,0,.318-1.875,2.358,2.358,0,0,0-.451-1.384,1.433,1.433,0,0,0-.728-.524h-.226Z" transform="translate(-49.26 -19.381)" fill="#455a64"/>
      <path id="Path_633" data-name="Path 633" d="M310.45,128.586l.1.078.3.167a4.037,4.037,0,0,0,1.24.4,4.5,4.5,0,0,0,1.958-.134,4.574,4.574,0,0,0,2.183-1.35h-.143a4,4,0,0,0,2.675,2.232,2.912,2.912,0,0,0,3.2-1.585H321.8a2.846,2.846,0,0,0,.687,1.194,3.2,3.2,0,0,0,1.025.692,4.231,4.231,0,0,0,1.876.346,8.175,8.175,0,0,0,1.23-.134,1.7,1.7,0,0,0,.441-.1,2.949,2.949,0,0,0-.441,0c-.287,0-.707.078-1.23.078a4.276,4.276,0,0,1-1.814-.379,2.835,2.835,0,0,1-1.558-1.8l-.062-.234-.1.212a2.75,2.75,0,0,1-3,1.473,3.88,3.88,0,0,1-2.563-2.165l-.051-.112-.082.089a4.669,4.669,0,0,1-2.05,1.339,4.723,4.723,0,0,1-1.917.156A5.506,5.506,0,0,1,310.45,128.586Z" transform="translate(-49.552 -18.051)" fill="#455a64"/>
      <path id="Path_634" data-name="Path 634" d="M316.26,138.288a.363.363,0,0,0,.072.123.6.6,0,0,0,.338.2,2.606,2.606,0,0,0,1.384-.167,3.377,3.377,0,0,0,1.661-1.328,4.006,4.006,0,0,0,.615-2.656h0l-.143.1a3.823,3.823,0,0,0,2.47.547,4.419,4.419,0,0,0,1.937-.759,5.111,5.111,0,0,0,1.025-.982,1.9,1.9,0,0,0,.308-.446,7.827,7.827,0,0,1-1.425,1.306,4.4,4.4,0,0,1-1.886.692,3.682,3.682,0,0,1-2.358-.536l-.164-.1v.212h0a3.925,3.925,0,0,1-.574,2.533,3.339,3.339,0,0,1-1.558,1.295,2.953,2.953,0,0,1-1.333.223.734.734,0,0,1-.369-.257Z" transform="translate(-49.406 -17.419)" fill="#455a64"/>
      <path id="Path_635" data-name="Path 635" d="M335.432,117a6.055,6.055,0,0,1,.164,2.1,5.034,5.034,0,0,1-.718,2.109,4.362,4.362,0,0,1-2,1.674,3.916,3.916,0,0,1-1.435.312h-.123v.123a6.464,6.464,0,0,1,.1,2.232,6.2,6.2,0,0,1-.451,1.685,3.733,3.733,0,0,1-.287.591.5.5,0,0,1-.348.257.3.3,0,0,1-.236-.1s-.051-.1-.061-.089a.169.169,0,0,0,0,.112.378.378,0,0,0,.277.145.518.518,0,0,0,.41-.268,4.688,4.688,0,0,0,.328-.591,6.4,6.4,0,0,0,.41-3.95l-.082.123a3.875,3.875,0,0,0,1.507-.312,4.856,4.856,0,0,0,2.665-5.524,2.371,2.371,0,0,0-.123-.413A.823.823,0,0,0,335.432,117Z" transform="translate(-49.061 -19.265)" fill="#455a64"/>
      <path id="Path_636" data-name="Path 636" d="M350.55,176.36l4.685,4.162,10.589,2.131s5.843,31.57,9.964,41.9,8.652,30.856,8.652,30.856l-6.15,5.1Z" transform="translate(-48.547 -12.383)" fill="#455a64"/>
      <path id="Path_637" data-name="Path 637" d="M365.09,187.21a31.622,31.622,0,0,1,2.614,5.022,31.53,31.53,0,0,1,2.163,5.267,30.54,30.54,0,0,1-2.624-5.022,30.874,30.874,0,0,1-2.153-5.267Z" transform="translate(-48.182 -11.125)" fill="#263238"/>
      <path id="Path_638" data-name="Path 638" d="M380.753,237.84c.092.837,11.276,34.137,8.621,36.045s-16.9,3.169-16.749,2.689-4.1-30.365-3.372-31.034,10.1-7.7,10.794-7.7" transform="translate(-48.08 -5.254)" fill="#455a64"/>
      <path id="Path_639" data-name="Path 639" d="M382.787,275.2l-3.352-7.745-.9-8.682s2.142-5.435,2.122-8.213-2.122-8.392-2.122-8.392l-7.9,2.689s1.271,18.1,1.271,18.413,2.05,10.456,2.05,10.456l4.613,2.444Z" transform="translate(-48.043 -4.752)" opacity="0.3"/>
      <path id="Path_640" data-name="Path 640" d="M330.1,257.44s-4.9,16.248-4.572,28.044,4.859,55.463,4.859,55.463-6.212,34.126-8.682,46.747c-2.809,14.373-4.49,22.073-4.49,22.073l20.224,3.471s15.878-51.59,19.035-66.544,3.249-46.011,3.249-47.26-.42-32.653-.42-32.653Z" transform="translate(-49.382 -2.982)" fill="#263238"/>
      <path id="Path_641" data-name="Path 641" d="M340.809,380.27l-5.423,17.855-.051,2.109s19.753,7.812,19.989,11.807l-38.112.212-.092-10.423,4.654-21.549Z" transform="translate(-49.384 11.26)" fill="#263238"/>
      <path id="Path_642" data-name="Path 642" d="M323.406,396.645a1.708,1.708,0,0,0-1.025,1.931,1.485,1.485,0,0,0,1.753,1.172,1.805,1.805,0,0,0,1.128-2.064,1.535,1.535,0,0,0-1.958-.993" transform="translate(-49.253 13.154)" fill="#e0e0e0"/>
      <path id="Path_643" data-name="Path 643" d="M317.21,409.348,317.3,406l36.513,1.049s1.7.792,1.507,2.1Z" transform="translate(-49.382 14.244)" fill="#455a64"/>
      <path id="Path_644" data-name="Path 644" d="M335.575,398.019c0,.212-.933.3-1.845.96s-1.4,1.518-1.568,1.428.092-1.25,1.21-2.02S335.616,397.829,335.575,398.019Z" transform="translate(-49.009 13.298)" fill="#fff"/>
      <path id="Path_645" data-name="Path 645" d="M339.463,399.6c0,.19-.769.547-1.394,1.406s-.81,1.763-1.025,1.752-.307-1.116.492-2.232S339.453,399.4,339.463,399.6Z" transform="translate(-48.889 13.49)" fill="#fff"/>
      <path id="Path_646" data-name="Path 646" d="M341.646,404.6c-.174,0-.441-.96,0-2.076s1.343-1.562,1.425-1.395-.451.77-.83,1.685S341.83,404.582,341.646,404.6Z" transform="translate(-48.776 13.675)" fill="#fff"/>
      <path id="Path_647" data-name="Path 647" d="M400.679,380.33l-5.412,17.855-.062,2.109s19.753,7.812,20,11.807l-38.122.212-.092-10.423,4.654-21.549Z" transform="translate(-47.884 11.267)" fill="#263238"/>
      <path id="Path_648" data-name="Path 648" d="M383.276,396.7a1.708,1.708,0,0,0-1.025,1.931A1.485,1.485,0,0,0,384,399.807a1.805,1.805,0,0,0,1.128-2.065,1.535,1.535,0,0,0-1.958-.993" transform="translate(-47.753 13.161)" fill="#e0e0e0"/>
      <path id="Path_649" data-name="Path 649" d="M377.08,409.348l.092-3.348,36.513,1.049s1.7.792,1.517,2.1Z" transform="translate(-47.882 14.244)" fill="#455a64"/>
      <path id="Path_650" data-name="Path 650" d="M395.445,398.068c0,.212-.933.3-1.845.96s-1.4,1.518-1.568,1.428.092-1.25,1.21-2.02S395.486,397.889,395.445,398.068Z" transform="translate(-47.508 13.304)" fill="#fff"/>
      <path id="Path_651" data-name="Path 651" d="M399.333,399.66c0,.19-.759.547-1.394,1.406s-.8,1.763-1.025,1.752-.308-1.116.492-2.232S399.323,399.459,399.333,399.66Z" transform="translate(-47.389 13.497)" fill="#fff"/>
      <path id="Path_652" data-name="Path 652" d="M401.516,404.664c-.174,0-.441-.96,0-2.076s1.333-1.562,1.415-1.395-.451.77-.83,1.685S401.7,404.653,401.516,404.664Z" transform="translate(-47.275 13.682)" fill="#fff"/>
      <path id="Path_653" data-name="Path 653" d="M375.145,253.94l1.435,15.01s38.891,60.027,39.67,66.789-17.18,75.181-17.18,75.181l-20.7-4.285,10.907-65.395L355.3,296.792V255.4Z" transform="translate(-48.428 -3.387)" fill="#263238"/>
      <path id="Path_654" data-name="Path 654" d="M357.451,329.567a2.136,2.136,0,0,1,0-.58V327.3c0-1.54.1-3.638.174-6.193.205-5.29.482-12.465.789-20.4v-.9h0a44.742,44.742,0,0,1,1.322-10.88c.748-3.259,1.589-6.138,2.3-8.537s1.251-4.274,1.671-5.691a21.612,21.612,0,0,1,.625-2.076,2.013,2.013,0,0,1-.082.558c-.072.368-.184.9-.348,1.585-.328,1.361-.861,3.348-1.527,5.736s-1.466,5.3-2.183,8.548a46.251,46.251,0,0,0-1.261,10.735h0v.9c-.359,7.934-.7,15.11-.933,20.4-.144,2.544-.256,4.642-.349,6.182-.051.67-.082,1.228-.113,1.674a2.683,2.683,0,0,1-.082.625Z" transform="translate(-48.374 -1.222)" fill="#455a64"/>
      <path id="Path_655" data-name="Path 655" d="M367.992,204.6c-3.68-9.385-17.549-29.015-17.549-29.015l.144,3.5L331,169.38l-3.577,10.546,28.7,68.218,1.322,17.063h18.543c1.025-.212,2.563-5.334,2.306-6.428-1.138-4.787-5.874-17.855-8.2-30.387C368.351,218.671,373.271,218.058,367.992,204.6Z" transform="translate(-49.126 -13.192)" fill="#ebebeb"/>
      <path id="Path_656" data-name="Path 656" d="M371.142,263.212a5.613,5.613,0,0,1-.133-.882c-.072-.636-.164-1.473-.277-2.533-.226-2.232-.554-5.423-.943-9.318s-.83-8.637-1.333-13.827c-.236-2.6-.492-5.334-.759-8.169a84.135,84.135,0,0,0-1.507-8.626c-2.6-11.751-7.514-21.426-10.989-28.345-1.753-3.459-3.137-6.305-3.936-8.347-.195-.5-.379-.949-.533-1.35l-.318-1.027a5.062,5.062,0,0,1-.236-.848,5.3,5.3,0,0,1,.328.8l.369,1,.564,1.328c.861,2.009,2.286,4.8,4.1,8.247,3.557,6.863,8.549,16.561,11.173,28.4a82.533,82.533,0,0,1,1.5,8.693l.738,8.169c.461,5.2.871,9.887,1.22,13.849s.595,7.075.779,9.34q.123,1.6.185,2.544A4.855,4.855,0,0,1,371.142,263.212Z" transform="translate(-48.556 -11.968)" fill="#263238"/>
      <path id="Path_657" data-name="Path 657" d="M319.772,181.607l8.323-5.714,1.558-4.553s16.278,13.514,20.614,21.806c5.125,9.832,13.9,38.612,13.9,38.612s2.481,52.45,1.548,58.1-48.721.324-48.875-.19S329.7,241.678,329.7,241.678Z" transform="translate(-49.391 -12.965)" fill="#455a64"/>
      <path id="Path_658" data-name="Path 658" d="M356.3,218.8a3.924,3.924,0,0,1-.39-.379l-1.025-1.116c-.871-1.038-2.05-2.567-3.5-4.564a78.366,78.366,0,0,1-4.531-7.309c-.769-1.44-1.548-2.968-2.3-4.575-.379-.8-.738-1.64-1.1-2.489a8.756,8.756,0,0,1-.779-2.79,3.6,3.6,0,0,1,.39-1.986l.277.424a3.369,3.369,0,0,1-2.532-.558,8.218,8.218,0,0,1-1.835-1.752c-1.025-1.306-1.866-2.634-2.737-3.872-1.691-2.455-3.208-4.676-4.5-6.562l-2.973-4.464-.789-1.216c-.174-.279-.267-.435-.246-.446a2.3,2.3,0,0,1,.328.379c.226.312.513.692.861,1.116L332,180.954l4.592,6.495c.871,1.216,1.743,2.567,2.737,3.817a7.743,7.743,0,0,0,1.722,1.629,2.872,2.872,0,0,0,2.173.48l.564-.112-.3.536a2.937,2.937,0,0,0-.318,1.663,8.685,8.685,0,0,0,.728,2.6c.359.837.718,1.663,1.087,2.466.738,1.607,1.5,3.125,2.255,4.553q2.034,3.793,4.418,7.343c1.353,2.02,2.532,3.582,3.352,4.653A20.08,20.08,0,0,1,356.3,218.8Z" transform="translate(-49.118 -12.524)" fill="#263238"/>
      <path id="Path_659" data-name="Path 659" d="M357.342,186.165a6.169,6.169,0,0,1-.4,1.384l-.061.167-.123-.134a76.864,76.864,0,0,1-6.489-7.633l.451-.145c-.082.815-.174,1.652-.267,2.5-.256,2.288-.492,4.464-.707,6.361l-.051.391-.307-.212c-1.814-1.272-3.342-2.366-4.408-3.147a11.369,11.369,0,0,1-1.63-1.294,10,10,0,0,1,1.784,1.038c1.1.714,2.655,1.741,4.5,2.98l-.349.19c.195-1.919.42-4.084.656-6.372.092-.848.185-1.685.277-2.489l.072-.658.379.513c2.655,3.582,5.064,6.394,6.243,7.812h-.174A7.313,7.313,0,0,1,357.342,186.165Z" transform="translate(-48.727 -12.066)" fill="#263238"/>
      <path id="Path_660" data-name="Path 660" d="M324.66,251.033l40.346-2.935-.164-4.408L326.1,245.743Z" transform="translate(-49.195 -4.576)" opacity="0.3"/>
      <path id="Path_661" data-name="Path 661" d="M331.23,202.24l6.232,14.641-5.31-.033Z" transform="translate(-49.031 -9.382)" opacity="0.3"/>
      <path id="Path_662" data-name="Path 662" d="M680.141,45.9,479.4,95.917,365.088,228.938,192.53,231.259,55.93,349.092l18.646,27.129L199.131,263.644l185.639-2.076L498.8,125.076,699.535,75.071Z" transform="translate(-55.93 -27.509)" fill="#2bace3"/>
      <path id="Path_663" data-name="Path 663" d="M668.447,106.51,711.13,52.431,650.58,29.42Z" transform="translate(-41.028 -29.42)" fill="#2bace3"/>
      <path id="Path_664" data-name="Path 664" d="M628.138,95.753,622.5,87.328l4.613-1.116s1.025-9.385,2.839-10.97,2.809-.234,2.552,1.808-1.025,2.422-1.025,4.464a17.836,17.836,0,0,0,.164,3.348,20.084,20.084,0,0,1,4,9.039l-.164,2.589Z" transform="translate(-41.731 -24.188)" fill="#ffbf9d"/>
      <path id="Path_665" data-name="Path 665" d="M639.873,82.14l-2.347,4.229a18.4,18.4,0,0,1-.092,9.541c-.636,1.931,2.122,12.275,2.122,12.275l-12.475-.915.636-12.845,3.075-10.311Z" transform="translate(-41.617 -23.307)" fill="#ffbf9d"/>
      <path id="Path_666" data-name="Path 666" d="M432.135,184.557s2.05-2.232,1.712-3.794-6.837-5.58-7.76-4.843a1.5,1.5,0,0,0-.656,1.573s-3.229-2.388-3.331.993a1.2,1.2,0,0,0-1.027.741,1.4,1.4,0,0,0,.114,1.335,20.527,20.527,0,0,0,3.331,4.319s-2.05-.569-1.784,2.232l.215.614-2.05,3.259a3.623,3.623,0,0,0,4.008,1.272c2.347-.915,2.112-2.3,2.112-2.3a3.859,3.859,0,0,0,2.522-2.031S432.135,187.972,432.135,184.557Z" transform="translate(-46.784 -12.444)" fill="#ae7461"/>
      <path id="Path_667" data-name="Path 667" d="M488.308,125.841a13.9,13.9,0,0,1,3.239-12.354,12.847,12.847,0,0,1-2.235-7.2,3.86,3.86,0,0,1,.287-1.674,1.362,1.362,0,0,1,1.281-.826,1.718,1.718,0,0,1,1.169,1.607c.082.725,0,1.473.062,2.232.277,1.8,1.876,2.924,3.249,3.95s2.819,2.556,2.542,4.352l-2.05,9.419Z" transform="translate(-45.103 -20.797)" fill="#ffbf9d"/>
      <path id="Path_668" data-name="Path 668" d="M384.906,230.771s-9.01-3.448-10.128-3.75-12.6,3.6-12.6,3.6l1.476,12.421,2.47-1.116s7.032,6.539,9.5,6.193a3.106,3.106,0,0,0,2.665-2.835s3.147-.257,2.05-3.281a3.543,3.543,0,0,0,.9-3.671s2.655-.837,1.835-2.8a11.17,11.17,0,0,0-1.691-2.946S384.742,233.606,384.906,230.771Z" transform="translate(-48.255 -6.51)" fill="#ae7461"/>
      <path id="Path_669" data-name="Path 669" d="M320.1,180.43s-9.1,6.037-9.1,16.951c0,9.575,2.255,39.6,4.838,47.841s7.842,8.035,18.5,7.756c10.917-.279,32.474-2.087,32.474-2.087l-1.486-17.654-31.705-.324L331.4,202.7" transform="translate(-49.538 -11.911)" fill="#455a64"/>
      <path id="Path_670" data-name="Path 670" d="M331.435,202.707a3.367,3.367,0,0,0,.062.525c.061.346.082.893.144,1.562.113,1.384.277,3.4.492,5.981.4,5.234,1.025,12.778,1.712,22.129l-.174-.179,31.695.246h.215v.234c.461,5.58.943,11.539,1.435,17.654v.279h-.246c-6.642.558-13.592,1.116-20.727,1.529-6.663.391-13.162.781-19.476.591a18.952,18.952,0,0,1-4.674-.737A8.414,8.414,0,0,1,317.9,249.9a12.832,12.832,0,0,1-2.255-4.308,40.279,40.279,0,0,1-1.107-4.653c-1.1-6.2-1.691-12.153-2.235-17.721s-.892-10.769-1.158-15.512c-.133-2.377-.246-4.642-.3-6.785a36.92,36.92,0,0,1,.123-6.071,20.222,20.222,0,0,1,3.516-8.861,24,24,0,0,1,3.957-4.375c.5-.435.912-.737,1.189-.937a4.361,4.361,0,0,1,.431-.268l-.4.324c-.267.212-.656.524-1.158.971a25.567,25.567,0,0,0-3.854,4.408,20.081,20.081,0,0,0-3.393,8.783,37.464,37.464,0,0,0-.092,6.015c.082,2.131.205,4.4.338,6.763.3,4.743.7,9.943,1.23,15.5s1.169,11.505,2.265,17.665c.144.759.318,1.529.482,2.3a18.478,18.478,0,0,0,.625,2.232,12.124,12.124,0,0,0,2.153,4.118,7.872,7.872,0,0,0,3.772,2.466,18.105,18.105,0,0,0,4.551.714c6.263.179,12.783-.212,19.476-.6,7.124-.446,14.074-.971,20.706-1.507l-.236.29c-.482-6.115-.953-12.03-1.4-17.654l.236.234-31.705-.379H333.5v-.179c-.656-9.363-1.189-16.907-1.558-22.14-.164-2.589-.3-4.609-.39-6,0-.658-.072-1.183-.092-1.551q-.021-.234-.021-.469Z" transform="translate(-49.543 -11.913)" fill="#263238"/>
      <path id="Path_671" data-name="Path 671" d="M329.061,192.577a32.325,32.325,0,0,0-3.075-5.256,29.257,29.257,0,0,0-4.346-4.051,13.391,13.391,0,0,1,7.432,9.307Z" transform="translate(-49.271 -11.581)" fill="#263238"/>
      <path id="Path_672" data-name="Path 672" d="M328.74,233.582a8.082,8.082,0,0,1,4.654-6.372,33.122,33.122,0,0,0-2.706,2.857A34.261,34.261,0,0,0,328.74,233.582Z" transform="translate(-49.093 -6.487)" fill="#263238"/>
      <path id="Path_673" data-name="Path 673" d="M615.329,358.67l-5.423,17.855-.062,2.1s19.763,7.812,20,11.807l-38.112.223-.1-10.434,4.664-21.538Z" transform="translate(-42.505 8.756)" fill="#263238"/>
      <path id="Path_674" data-name="Path 674" d="M597.926,375.008a1.721,1.721,0,0,0-1.025,1.942,1.488,1.488,0,0,0,1.753,1.116,1.783,1.783,0,0,0,1.117-2.053,1.516,1.516,0,0,0-1.948-.993" transform="translate(-42.374 10.641)" fill="#e0e0e0"/>
      <path id="Path_675" data-name="Path 675" d="M591.73,387.718l.092-3.348,36.5,1.06s1.7.792,1.517,2.087Z" transform="translate(-42.502 11.736)" fill="#455a64"/>
      <path id="Path_676" data-name="Path 676" d="M610.085,376.419c0,.2-.943.3-1.855.96s-1.394,1.507-1.568,1.428.1-1.25,1.22-2.031S610.085,376.23,610.085,376.419Z" transform="translate(-42.129 10.792)" fill="#fff"/>
      <path id="Path_677" data-name="Path 677" d="M613.973,378.01c.051.2-.759.547-1.384,1.406s-.81,1.774-1.025,1.763-.307-1.116.492-2.232S613.973,377.809,613.973,378.01Z" transform="translate(-42.009 10.987)" fill="#fff"/>
      <path id="Path_678" data-name="Path 678" d="M616.156,383.014c-.164,0-.431-.971,0-2.076s1.343-1.562,1.425-1.395-.461.759-.83,1.685S616.34,382.992,616.156,383.014Z" transform="translate(-41.896 11.172)" fill="#fff"/>
      <path id="Path_679" data-name="Path 679" d="M535.467,361.973l-6.632,14.6v2.1s19.753,7.812,19.989,11.807l-38.112.223-.092-10.434L518.9,358.67Z" transform="translate(-44.535 8.756)" fill="#263238"/>
      <path id="Path_680" data-name="Path 680" d="M516.856,375.008a1.721,1.721,0,0,0-1.025,1.942,1.488,1.488,0,0,0,1.753,1.116,1.793,1.793,0,0,0,1.128-2.053,1.525,1.525,0,0,0-1.958-.993" transform="translate(-44.405 10.641)" fill="#e0e0e0"/>
      <path id="Path_681" data-name="Path 681" d="M510.66,387.718l.092-3.348,36.513,1.06s1.7.792,1.507,2.087Z" transform="translate(-44.534 11.736)" fill="#455a64"/>
      <path id="Path_682" data-name="Path 682" d="M529.025,376.419c0,.2-.933.3-1.845.96s-1.4,1.507-1.568,1.428.092-1.25,1.21-2.031S529.086,376.23,529.025,376.419Z" transform="translate(-44.161 10.792)" fill="#fff"/>
      <path id="Path_683" data-name="Path 683" d="M532.913,378.01c0,.2-.769.547-1.394,1.406s-.81,1.774-1.025,1.763-.307-1.116.492-2.232S532.9,377.809,532.913,378.01Z" transform="translate(-44.041 10.987)" fill="#fff"/>
      <path id="Path_684" data-name="Path 684" d="M535.1,383.014c-.174,0-.441-.971,0-2.076s1.343-1.562,1.425-1.395-.461.759-.83,1.685S535.28,382.992,535.1,383.014Z" transform="translate(-43.928 11.172)" fill="#fff"/>
      <path id="Path_685" data-name="Path 685" d="M575.934,232.37l-35.1-4.62-1.374,5.58A63.152,63.152,0,0,0,536.1,250.3c-1.4,25.254-1.486,64.77-1.486,64.77l-25.1,73.2,23.218,4.6,31.726-76.041,8.323-52.706Z" transform="translate(-44.563 -6.424)" fill="#263238"/>
      <path id="Path_686" data-name="Path 686" d="M595.363,230.4c0,.312.133,5.7.133,5.7,10.486,15.623,36.82,62.248,38.368,69.959C635.782,315.647,615,390.706,615,390.706l-24.191-3.683L608.023,316.1,570.68,266.356l1.661-34.17Z" transform="translate(-43.03 -6.117)" fill="#263238"/>
      <path id="Path_687" data-name="Path 687" d="M539.78,232.85l8.293,1.663.779-4.676-8.129-1.317Z" transform="translate(-43.804 -6.335)" fill="#455a64"/>
      <path id="Path_688" data-name="Path 688" d="M549.93,234.686l12.239,1.852,1.046-4.653L550.873,230.2Z" transform="translate(-43.55 -6.14)" fill="#455a64"/>
      <path id="Path_689" data-name="Path 689" d="M563.61,236.684l.83-4.654a72.817,72.817,0,0,0,10.7,1.116c3.957-.078,12.178-1.116,12.178-1.116V236.9a92.843,92.843,0,0,1-12.362.759C571,237.375,563.61,236.684,563.61,236.684Z" transform="translate(-43.207 -5.928)" fill="#455a64"/>
      <path id="Path_690" data-name="Path 690" d="M588.42,236.783V232.1l6.5-.926.133,4.81Z" transform="translate(-42.585 -6.028)" fill="#455a64"/>
      <path id="Path_691" data-name="Path 691" d="M575.559,255.2a53.411,53.411,0,0,1-3.014,6.941,54.649,54.649,0,0,1-3.485,6.7,55.375,55.375,0,0,1,3.075-6.941,55.6,55.6,0,0,1,3.424-6.7Z" transform="translate(-43.071 -3.241)" fill="#455a64"/>
      <path id="Path_692" data-name="Path 692" d="M553.6,238.27a10.146,10.146,0,0,1-1.261,2.466,24.288,24.288,0,0,1-4.264,5.011,22.311,22.311,0,0,1-5.351,3.571,8.61,8.61,0,0,1-2.47.87,29.928,29.928,0,0,0,13.326-11.918Z" transform="translate(-43.793 -5.204)" fill="#455a64"/>
      <path id="Path_693" data-name="Path 693" d="M613.893,302.61c.072.156-1.753,1.116-3.577,2.857s-2.891,3.616-3.075,3.526a9.394,9.394,0,0,1,2.686-3.951,8.6,8.6,0,0,1,3.967-2.433Z" transform="translate(-42.114 2.256)" fill="#455a64"/>
      <path id="Path_694" data-name="Path 694" d="M483.73,126.485c.195.725,2.634,37.719,7.934,41.569s51.684,12.99,51.684,12.99l-1.4-31.124-12.526,4.988-25.37-3.638-8.5-29.45Z" transform="translate(-45.209 -18.706)" fill="#e0e0e0"/>
      <path id="Path_695" data-name="Path 695" d="M535.9,176.911l2.153,53.844-.307,1.116c-.6,2.076.933,5.424,2.88,5.926,7.77,1.986,25.739,5.3,34.852,5.691a59.912,59.912,0,0,0,20.737-2.734c1.548-1.864,2.573-4.8.923-6.372l1.517-64.29-2.788-19.551-2.235-3.125-13.972.458-4.1-4.81-19.845-1.585-3.69,5.234-11.419.926Z" transform="translate(-43.902 -16.427)" fill="#e0e0e0"/>
      <path id="Path_696" data-name="Path 696" d="M569.215,167.73l-6.325,58.7,10.025,10.423,7.862-10.412Z" transform="translate(-43.225 -13.383)" opacity="0.3"/>
      <path id="Path_697" data-name="Path 697" d="M570.187,157.716,565,226.023l8.477,10.244,7.247-8.615s-4.387-48.934-5.433-57.561c-1.158-9.5-1.65-12.911-1.65-12.911Z" transform="translate(-43.172 -14.607)" fill="#2bace3"/>
      <path id="Path_698" data-name="Path 698" d="M627.2,98.5l-3.075,30.51-18.01,18.034c-5.853,1.317-14.751,5.267-14.751,6L596.7,185.1l8.354-12.008s33.232-27.9,34.6-33.1,1.794-41.536,1.794-41.536Z" transform="translate(-42.512 -21.415)" fill="#e0e0e0"/>
      <path id="Path_699" data-name="Path 699" d="M571.2,151.748a12.623,12.623,0,0,1-.933,1.953l-1.158,2.154-.748,1.306a11.6,11.6,0,0,1-.933,1.428l-.123.134-.164-.123-4.664-3.526c-2.932-2.232-5.566-4.285-7.462-5.792-.943-.748-1.7-1.361-2.224-1.8a3.848,3.848,0,0,1-.779-.725,3.411,3.411,0,0,1,.892.547c.554.379,1.343.949,2.317,1.652,1.948,1.428,4.623,3.426,7.544,5.658,1.671,1.272,3.239,2.489,4.644,3.571h-.277q.884-1.237,1.65-2.567l1.251-2.087A11.072,11.072,0,0,1,571.2,151.748Z" transform="translate(-43.498 -15.815)" fill="#263238"/>
      <path id="Path_700" data-name="Path 700" d="M570.284,159.749,568.07,156.3l2.183-4.051h1.876l2.85,3.18-1.2,3.895Z" transform="translate(-43.095 -15.178)" fill="#2bace3"/>
      <path id="Path_701" data-name="Path 701" d="M577.883,148.16a8.281,8.281,0,0,1-.154,2.388,24.748,24.748,0,0,1-1.486,5.58c-.092.223-.184.435-.266.647l-.144.357-.267-.268c-1.384-1.428-2.6-2.723-3.465-3.683a7.98,7.98,0,0,1-1.312-1.607,8.357,8.357,0,0,1,1.548,1.339c.923.87,2.183,2.12,3.588,3.538l-.41.089c.082-.2.164-.424.256-.636A53.9,53.9,0,0,0,577.883,148.16Z" transform="translate(-43.027 -15.652)" fill="#263238"/>
      <path id="Path_702" data-name="Path 702" d="M630.173,131.717c-.123.112-1.394-1.5-3.352-2.968s-3.762-2.232-3.711-2.388a8.435,8.435,0,0,1,4.008,1.931,9.55,9.55,0,0,1,3.055,3.426Z" transform="translate(-41.716 -18.18)" fill="#263238"/>
      <path id="Path_703" data-name="Path 703" d="M539.749,150.31a3.943,3.943,0,0,1,.195,1.027c.092.658.174,1.618.236,2.812a44.753,44.753,0,0,1-.625,9.318A43.254,43.254,0,0,1,537,172.395a27,27,0,0,1-1.169,2.533,3.627,3.627,0,0,1-.523.87c-.072,0,.543-1.361,1.353-3.56a49.992,49.992,0,0,0,3.188-18.078C539.8,151.794,539.667,150.321,539.749,150.31Z" transform="translate(-43.916 -15.403)" fill="#263238"/>
      <path id="Path_704" data-name="Path 704" d="M596.955,180.542a6.06,6.06,0,0,1-.072-1.25v-3.426c0-2.879-.072-6.863-.389-11.249a63.761,63.761,0,0,0-1.609-11.07c-.707-2.779-1.5-4.341-1.415-4.4a6.38,6.38,0,0,1,.595,1.116,24.045,24.045,0,0,1,1.169,3.2,55.074,55.074,0,0,1,1.773,11.159c.318,4.408.3,8.414.246,11.3,0,1.44-.082,2.611-.123,3.415A5.435,5.435,0,0,1,596.955,180.542Z" transform="translate(-42.459 -15.538)" fill="#263238"/>
      <path id="Path_705" data-name="Path 705" d="M536.051,163.422c-.133.067-1.425-2.924-3.075-6.528S529.8,150.4,529.9,150.31a35.7,35.7,0,0,1,3.485,6.35,35.746,35.746,0,0,1,2.665,6.763Z" transform="translate(-44.052 -15.403)" fill="#263238"/>
      <path id="Path_706" data-name="Path 706" d="M504.126,148.45a20.111,20.111,0,0,1-1.025,10.289c-.143,0,.4-2.232.666-5.122S504.023,148.461,504.126,148.45Z" transform="translate(-44.724 -15.619)" fill="#263238"/>
      <path id="Path_707" data-name="Path 707" d="M557.09,150.31,567.474,160.5l4.931-8.024-1.333-.882-3.926,6.383-10.056-7.164" transform="translate(-43.371 -15.403)" opacity="0.3"/>
      <path id="Path_708" data-name="Path 708" d="M565.561,228.191a3.138,3.138,0,0,1-.943,0c-.595,0-1.466-.089-2.532-.212a63.726,63.726,0,0,1-16.3-4.174c-1.025-.4-1.814-.759-2.358-1.027a3.213,3.213,0,0,1-.83-.469,28.351,28.351,0,0,1,3.311,1.116c2.05.714,4.859,1.64,8.026,2.455s6.079,1.35,8.2,1.685A28.111,28.111,0,0,1,565.561,228.191Z" transform="translate(-43.734 -7.055)" fill="#263238"/>
      <path id="Path_709" data-name="Path 709" d="M562.879,95.561a3.853,3.853,0,0,1,4.1-2.232,5.06,5.06,0,0,1,6.653,0,4.471,4.471,0,0,1,4.729-.193,5.276,5.276,0,0,1,2.59,4.311,3.912,3.912,0,0,1,4.233,2.207,4.664,4.664,0,0,1-.594,5.069,4.241,4.241,0,0,1,2.651,4.813,3.92,3.92,0,0,1-4.117,3.378L563.689,100.46a4.579,4.579,0,0,1-.81-4.9Z" transform="translate(-43.235 -22.154)" fill="#263238"/>
      <path id="Path_710" data-name="Path 710" d="M576.776,150.117v-3.348a11.069,11.069,0,0,0,8.672-11.238c0-4.62-.82-14.117-1.62-22.7-.849-9.236-8.082-16.206-16.606-16h-.841c-9.123.792-13.6,9.653-12.629,19.563l1.517,30.131,15.755,9.9" transform="translate(-43.457 -21.604)" fill="#ffbf9d"/>
      <path id="Path_711" data-name="Path 711" d="M576.511,142A20.047,20.047,0,0,1,565,138.56s2.819,6.83,11.481,5.8Z" transform="translate(-43.172 -16.765)" fill="#ff9a6c"/>
      <path id="Path_712" data-name="Path 712" d="M579.381,119.7A1.322,1.322,0,0,1,578.2,121.1a1.145,1.145,0,0,1-.886-.305,1.358,1.358,0,0,1-.426-.9,1.322,1.322,0,0,1,1.179-1.406,1.125,1.125,0,0,1,.892.3,1.337,1.337,0,0,1,.42.907Z" transform="translate(-42.874 -19.093)" fill="#263238"/>
      <path id="Path_713" data-name="Path 713" d="M581.592,116.024c-.144.179-1.107-.569-2.46-.536s-2.317.792-2.47.614.082-.4.5-.748a3.2,3.2,0,0,1,1.978-.714,3.1,3.1,0,0,1,1.958.636C581.53,115.622,581.674,115.935,581.592,116.024Z" transform="translate(-42.881 -19.539)" fill="#263238"/>
      <path id="Path_714" data-name="Path 714" d="M567.441,119.925a1.333,1.333,0,0,1-1.179,1.406,1.134,1.134,0,0,1-.893-.293,1.333,1.333,0,0,1,.749-2.307,1.134,1.134,0,0,1,.893.293A1.346,1.346,0,0,1,567.441,119.925Z" transform="translate(-43.174 -19.065)" fill="#263238"/>
      <path id="Path_715" data-name="Path 715" d="M569.012,116.143c-.154.179-1.117-.558-2.47-.524s-2.317.792-2.47.614.082-.4.5-.759a3.269,3.269,0,0,1,1.978-.7,3.093,3.093,0,0,1,1.968.636C568.94,115.685,569.125,116.009,569.012,116.143Z" transform="translate(-43.197 -19.524)" fill="#263238"/>
      <path id="Path_716" data-name="Path 716" d="M573.44,126.881a8.753,8.753,0,0,1,2.183-.48c.338,0,.666-.123.718-.379a1.96,1.96,0,0,0-.246-1.116c-.338-.9-.7-1.853-1.025-2.835a53.943,53.943,0,0,1-2.429-7.421,50.888,50.888,0,0,1,2.973,7.187l1.025,2.857a2.407,2.407,0,0,1,.205,1.462.9.9,0,0,1-.564.558,1.98,1.98,0,0,1-.574.1A7.849,7.849,0,0,1,573.44,126.881Z" transform="translate(-42.981 -19.538)" fill="#263238"/>
      <path id="Path_717" data-name="Path 717" d="M568.964,112.334c-.154.391-1.322.078-2.737.134s-2.583.4-2.727,0c-.072-.179.154-.536.646-.87a3.954,3.954,0,0,1,2.05-.647,3.738,3.738,0,0,1,2.05.536C568.8,111.809,569.025,112.122,568.964,112.334Z" transform="translate(-43.21 -19.967)" fill="#263238"/>
      <path id="Path_718" data-name="Path 718" d="M581.213,112.4c-.2.357-1.158.123-2.276.234s-2.05.446-2.276.123,0-.5.39-.859a3.065,3.065,0,0,1,3.67-.29C581.111,111.911,581.306,112.235,581.213,112.4Z" transform="translate(-42.882 -19.946)" fill="#263238"/>
      <path id="Path_719" data-name="Path 719" d="M582.988,108.643s-2.429-5.937-5.125-7.265c-3.239-1.618-4.551,2.232-7.627,1.384s-6.15-2.422-9.225.223c-3.372,2.89-1.732,4.832-1.866,9.073-.523,17.208-3.321,22.129-4.295,14.061-.1-.893-2.378-1.54-2.778-5.278-.533-4.854-.81-10.747.113-14.217.789-2.924,2.276-4.966,4.961-7.243,4.244-3.593,10.158-3.805,14.187-3.448S583.213,101.144,582.988,108.643Z" transform="translate(-43.509 -21.722)" fill="#263238"/>
      <path id="Path_720" data-name="Path 720" d="M555.474,122.975a2.7,2.7,0,0,0-.835-1.829,2.272,2.272,0,0,0-1.789-.615c-1.63.212-3.434,1.261-3.26,4.944.318,6.528,6.273,4.832,6.273,4.642S555.628,125.709,555.474,122.975Z" transform="translate(-43.559 -18.857)" fill="#ffbf9d"/>
      <path id="Path_721" data-name="Path 721" d="M554.388,127.532a1.626,1.626,0,0,1-.266.179.95.95,0,0,1-.789.067,2.853,2.853,0,0,1-1.322-2.477,4.043,4.043,0,0,1,.215-1.64,1.289,1.289,0,0,1,.738-.926.526.526,0,0,1,.636.279c.092.179.051.312.092.324s.123-.123.061-.391a.783.783,0,0,0-.256-.391.748.748,0,0,0-.584-.134,1.547,1.547,0,0,0-1.025,1.116,4.145,4.145,0,0,0-.277,1.841,2.974,2.974,0,0,0,1.661,2.734,1.048,1.048,0,0,0,.943-.223C554.388,127.677,554.409,127.532,554.388,127.532Z" transform="translate(-43.508 -18.638)" fill="#ff9a6c"/>
      <path id="Path_722" data-name="Path 722" d="M555.353,113.411a5.459,5.459,0,0,0,2.563,1.216,1.966,1.966,0,0,0,2.142-1.54,3.678,3.678,0,0,1,.215-1.339c.215-.357.933-.312,1.435-.268a3.87,3.87,0,0,0,3.916-3.08,1.516,1.516,0,0,0,2.163.179,9.811,9.811,0,0,0,1.6-1.942,2.41,2.41,0,0,1,2.05-1.116,5.133,5.133,0,0,0,1.312.29c.789-.1,1.158-1.116,1.261-1.964s.174-1.852.83-2.321a2.843,2.843,0,0,1,2.143-.112c.728.1,1.661-.112,1.835-.882a1.677,1.677,0,0,0-.287-1.183,3.708,3.708,0,0,0-4.623-1.5,5.383,5.383,0,0,0-4.575-3.97,5.193,5.193,0,0,0-5.122,3.077,5.017,5.017,0,0,0-4.8-1.265,5.511,5.511,0,0,0-3.694,3.575,3.715,3.715,0,0,0-4.016,1.584,4.53,4.53,0,0,0-.238,4.643,4.069,4.069,0,0,0-1.968,3.236,2.373,2.373,0,0,0,.746,1.721,1.983,1.983,0,0,0,1.683.511,2.445,2.445,0,0,0,.953,2.97,2.049,2.049,0,0,0,2.809-.739" transform="translate(-43.561 -21.948)" fill="#263238"/>
      <path id="Path_723" data-name="Path 723" d="M570.231,127.778a.515.515,0,0,0-.4-.067.473.473,0,0,0-.226.3,3.514,3.514,0,0,0,.338,3.158h0a1.966,1.966,0,0,0,1.812.759,2.068,2.068,0,0,0,1.581-1.227l.471-1.116Z" transform="translate(-43.063 -18.025)" fill="#ff9a6c"/>
      <path id="Path_724" data-name="Path 724" d="M573.023,131.285a1.9,1.9,0,0,1-1.486.815,1.579,1.579,0,0,1-.882-.156,1.945,1.945,0,0,1-.83-.658,4.178,4.178,0,0,1-.6-2.388,4.877,4.877,0,0,1,0-.658.989.989,0,0,1,.359-.658.648.648,0,0,1,.687,0c.164.078.318.167.472.257l1.579.893a6.67,6.67,0,0,1,1.414.926,6.52,6.52,0,0,1-1.538-.658l-1.62-.815c-.287-.134-.677-.4-.8-.279a1.769,1.769,0,0,0-.205.96,3.93,3.93,0,0,0,.492,2.143,1.8,1.8,0,0,0,.677.569,1.387,1.387,0,0,0,.738.179,3.378,3.378,0,0,0,1.548-.469Z" transform="translate(-43.067 -18.05)" fill="#263238"/>
      <path id="Path_725" data-name="Path 725" d="M551.41,109.19a1.707,1.707,0,0,0,.4,1.25,1.909,1.909,0,0,0,1.23.77,1.944,1.944,0,0,0,1.7-.58h-.256a6.478,6.478,0,0,0,1.23,1.607,3.51,3.51,0,0,0,1.107.714,2.156,2.156,0,0,0,1.21.089,2.364,2.364,0,0,0,1.712-1.116,4.156,4.156,0,0,0,.461-1.373,1.371,1.371,0,0,0,0-.524,4.537,4.537,0,0,0-.164.491,4.441,4.441,0,0,1-.533,1.25,2.375,2.375,0,0,1-1.763.953,2.335,2.335,0,0,1-1.835-.774,6.579,6.579,0,0,1-1.179-1.507l-.1-.19-.143.156a1.735,1.735,0,0,1-1.445.536,1.717,1.717,0,0,1-1.1-.6A3.61,3.61,0,0,1,551.41,109.19Z" transform="translate(-43.513 -20.171)" fill="#455a64"/>
      <path id="Path_726" data-name="Path 726" d="M562.2,95.854a.9.9,0,0,1,.42.167,2.094,2.094,0,0,1,.953.837l.072.123.082-.123a7.7,7.7,0,0,1,2.85-2.622,5.477,5.477,0,0,1,2.358-.614,4.548,4.548,0,0,1,2.552.737,5.1,5.1,0,0,1,1.538,1.518,4.61,4.61,0,0,1,.7,1.964v.2h.174a3.136,3.136,0,0,1,2.5.268,3.5,3.5,0,0,1,1.394,1.562,5.081,5.081,0,0,1,.41,1.931,1.282,1.282,0,0,0,.061-.536,3.916,3.916,0,0,0-.3-1.484,3.691,3.691,0,0,0-1.435-1.73,3.358,3.358,0,0,0-2.716-.346l.195.145a4.91,4.91,0,0,0-.728-2.12,5.1,5.1,0,0,0-4.387-2.422,5.565,5.565,0,0,0-2.47.692,7.421,7.421,0,0,0-2.88,2.8h.154a2.074,2.074,0,0,0-1.025-.826A.958.958,0,0,0,562.2,95.854Z" transform="translate(-43.242 -22.012)" fill="#455a64"/>
      <path id="Path_727" data-name="Path 727" d="M636.119,92.319a6.974,6.974,0,0,1-.246-1.585,11.848,11.848,0,0,0-.953-3.6,6.193,6.193,0,0,0-2.337-2.622c-.769-.446-1.343-.5-1.333-.6a2.076,2.076,0,0,1,1.486.246,5.618,5.618,0,0,1,2.634,2.723,9.9,9.9,0,0,1,.871,3.828A4.178,4.178,0,0,1,636.119,92.319Z" transform="translate(-41.512 -23.108)" fill="#ff9a6c"/>
      <path id="Path_728" data-name="Path 728" d="M488.657,123.668a4.027,4.027,0,0,1-.543-1.674,10.263,10.263,0,0,1,2.05-8.068,3.583,3.583,0,0,1,1.261-1.116c.061.067-.4.525-1.025,1.373a12.107,12.107,0,0,0-1.671,3.683,12.367,12.367,0,0,0-.328,4.084,12.348,12.348,0,0,1,.256,1.719Z" transform="translate(-45.103 -19.751)" fill="#ff9a6c"/>
    </g>
    <g id="freepik--character-1--inject-12" transform="translate(105.84 202.331)">
      <path id="Path_729" data-name="Path 729" d="M128.338,445.68l-5.423,17.855v2.1s19.753,7.812,19.989,11.807l-38.112.223-.092-10.434,4.654-21.538Z" transform="translate(-104.618 -154.067)" fill="#263238"/>
      <path id="Path_730" data-name="Path 730" d="M110.936,462.058A1.721,1.721,0,0,0,109.911,464a1.488,1.488,0,0,0,1.753,1.116,1.8,1.8,0,0,0,1.128-2.053,1.525,1.525,0,0,0-1.958-.993" transform="translate(-104.488 -152.177)" fill="#e0e0e0"/>
      <path id="Path_731" data-name="Path 731" d="M104.74,474.728l.092-3.348,36.513,1.06s1.691.792,1.507,2.087Z" transform="translate(-104.617 -151.087)" fill="#455a64"/>
      <path id="Path_732" data-name="Path 732" d="M123.085,463.429c0,.2-.943.3-1.855.96s-1.394,1.507-1.568,1.428.1-1.25,1.22-2.031S123.146,463.24,123.085,463.429Z" transform="translate(-104.244 -152.03)" fill="#fff"/>
      <path id="Path_733" data-name="Path 733" d="M126.993,465.01c0,.2-.769.547-1.394,1.406s-.81,1.774-1.025,1.763-.308-1.116.492-2.232S126.983,464.82,126.993,465.01Z" transform="translate(-104.124 -151.836)" fill="#fff"/>
      <path id="Path_734" data-name="Path 734" d="M129.166,470.024c-.164,0-.431-.971,0-2.076s1.343-1.562,1.425-1.395-.461.759-.83,1.685S129.35,470,129.166,470.024Z" transform="translate(-104.011 -151.65)" fill="#fff"/>
      <path id="Path_735" data-name="Path 735" d="M199.229,445.68l-5.423,17.855-.062,2.1s19.753,7.812,20,11.807l-38.112.223-.1-10.434,4.664-21.538Z" transform="translate(-102.843 -154.067)" fill="#263238"/>
      <path id="Path_736" data-name="Path 736" d="M182.086,462.058A1.721,1.721,0,0,0,181.061,464a1.488,1.488,0,0,0,1.753,1.116,1.793,1.793,0,0,0,1.128-2.053,1.525,1.525,0,0,0-1.958-.993" transform="translate(-102.705 -152.177)" fill="#e0e0e0"/>
      <path id="Path_737" data-name="Path 737" d="M175.63,474.728V471.38l36.9,1.116s1.7.792,1.507,2.087Z" transform="translate(-102.84 -151.087)" fill="#455a64"/>
      <path id="Path_738" data-name="Path 738" d="M194.255,463.429c0,.2-.933.3-1.855.96s-1.394,1.507-1.558,1.428.092-1.25,1.21-2.031S194.3,463.24,194.255,463.429Z" transform="translate(-102.46 -152.03)" fill="#fff"/>
      <path id="Path_739" data-name="Path 739" d="M198.143,465.01c0,.2-.769.547-1.394,1.406s-.81,1.774-1.025,1.763-.308-1.116.492-2.232S198.133,464.82,198.143,465.01Z" transform="translate(-102.341 -151.836)" fill="#fff"/>
      <path id="Path_740" data-name="Path 740" d="M200.316,470.024c-.164,0-.431-.971,0-2.076s1.343-1.562,1.425-1.395-.461.759-.83,1.685S200.51,470,200.316,470.024Z" transform="translate(-102.228 -151.65)" fill="#fff"/>
      <path id="Path_741" data-name="Path 741" d="M139.042,345.339V356.13l-14.73,44.058A189.283,189.283,0,0,0,104.62,468.06h22.3c-1.025-4.464,21.8-53.275,24.13-55.954s15.868-40.375,15.868-40.375-14.279-26.08-15.314-26.348S139.042,345.339,139.042,345.339Z" transform="translate(-104.62 -165.711)" fill="#263238"/>
      <path id="Path_742" data-name="Path 742" d="M139.72,350.17l20.388,37.072,2.788-7.521Z" transform="translate(-103.74 -165.141)" opacity="0.3"/>
      <path id="Path_743" data-name="Path 743" d="M183.593,337.536v-12l-44.283-4.33c0,1.573-9.41,22.073,3.6,36.536l40.705,51.334-6.97,68.263h23.136v-1.428s4.1-24.015,4.418-26.214,6.232-40.7,6.632-47.26C211.321,394.372,183.593,337.536,183.593,337.536Z" transform="translate(-103.833 -168.499)" fill="#263238"/>
      <path id="Path_744" data-name="Path 744" d="M183.6,337.564l.328.614.912,1.841,3.475,7.176c2.993,6.272,7.36,15.434,12.516,27.117,2.563,5.859,5.392,12.275,8,19.518.636,1.808,1.261,3.66,1.753,5.58a12.213,12.213,0,0,1,.451,3.047c-.082,1.027-.174,2.053-.3,3.08-.472,4.129-1.025,8.358-1.671,12.733-1.23,8.727-2.6,17.944-4.1,27.6-.677,4.832-1.589,9.742-2.409,14.764s-1.7,10.133-2.573,15.344v1.64H176.373V477.3c1.025-10.044,2.1-20.645,3.2-31.4l3.772-36.826v.212L148.4,365.162c-2.686-3.426-5.341-6.7-7.9-10.044a27.238,27.238,0,0,1-4.408-11.528,38.538,38.538,0,0,1,.256-11.818q.469-2.773,1.21-5.479.369-1.339.769-2.611a25.076,25.076,0,0,0,.728-2.5v-.212h.164l44.272,4.464h.072v.067l.072.089-44.283-4.229.195-.19a23.324,23.324,0,0,1-.738,2.622c-.267.859-.523,1.719-.759,2.6a54.071,54.071,0,0,0-1.2,5.446,37.883,37.883,0,0,0-.226,11.662,26.748,26.748,0,0,0,4.357,11.327c2.5,3.236,5.2,6.539,7.883,9.943,10.784,13.6,22.551,28.434,35,44.1l.072.089v.2c-1.22,11.907-2.481,24.25-3.762,36.826-1.1,10.769-2.183,21.326-3.208,31.414l-.256-.312h23.136l-.246.268v-1.473c.871-5.2,1.743-10.311,2.583-15.333s1.743-9.91,2.429-14.753c1.456-9.653,2.839-18.871,4.1-27.6.615-4.363,1.21-8.593,1.691-12.711.133-1.027.226-2.042.308-3.047a12.444,12.444,0,0,0-.431-2.924q-.736-2.836-1.732-5.58c-2.583-7.187-5.382-13.659-7.924-19.518-5.125-11.7-9.441-20.879-12.383-27.184-1.486-3.136-2.624-5.58-3.413-7.209-.379-.815-.666-1.44-.871-1.864Z" transform="translate(-103.84 -168.527)" fill="#455a64"/>
      <path id="Path_745" data-name="Path 745" d="M147.095,191.87c.646-3.471,2.9-5.323,5.9-6.7a9.45,9.45,0,0,1,9.338.971c1.814,1.306,3.29,3.348,5.392,3.928,3.454,1.038,7.247-2,10.589-.58a5.121,5.121,0,0,1,2.867,5.58,4.759,4.759,0,0,1-4.476,4.139c2.255.725,3.147,4.1,1.978,6.327a5.959,5.959,0,0,1-6.089,2.913,12.506,12.506,0,0,1-6.284-3.27c-1.845-1.585-3.526-3.348-5.484-4.821a9.563,9.563,0,0,0-6.632-2.131c-3.157.413-5.73,3.214-6.95,6.406a27.859,27.859,0,0,0-1.312,10.233,47.074,47.074,0,0,1-.564,10.345,1.288,1.288,0,0,1-.574.993c-.513.212-1.025-.357-1.271-.859a53.692,53.692,0,0,1-6.458-18.491c-.584-3.805-.707-7.432,1.025-10.791s6.489-6.082,9-4.218" transform="translate(-103.817 -184.366)" fill="#263238"/>
      <path id="Path_746" data-name="Path 746" d="M141.8,207.843l.636,35.387c.113,6.606,4.808,18.4,14.351,17.721l-.195-.591c8.283-1.272,7.052-11.952,7.011-19.8h0a11.216,11.216,0,0,0,9.554-10.925c.236-4.743,0-14.507-.338-23.435-.351-9.522-7.358-17.155-16.1-17.543h-.871C146.485,188.827,141.37,197.621,141.8,207.843Z" transform="translate(-103.689 -183.868)" fill="#ffbf9d"/>
      <path id="Path_747" data-name="Path 747" d="M163.393,235.616a20.618,20.618,0,0,1-11.583-4.3,11.3,11.3,0,0,0,11.573,7.254Z" transform="translate(-103.437 -178.921)" fill="#ff9a6c"/>
      <path id="Path_748" data-name="Path 748" d="M169.133,212.508a1.346,1.346,0,0,1-1.3,1.35,1.165,1.165,0,0,1-.892-.365,1.386,1.386,0,0,1-.379-.952,1.337,1.337,0,0,1,1.292-1.361,1.185,1.185,0,0,1,.9.372,1.408,1.408,0,0,1,.385.956Z" transform="translate(-103.068 -181.257)" fill="#263238"/>
      <path id="Path_749" data-name="Path 749" d="M170.125,208.8c-.164.179-1.107-.647-2.491-.714s-2.429.658-2.573.469.1-.413.554-.748a3.368,3.368,0,0,1,2.05-.591,3.25,3.25,0,0,1,1.978.792C170.125,208.392,170.238,208.727,170.125,208.8Z" transform="translate(-103.106 -181.716)" fill="#263238"/>
      <path id="Path_750" data-name="Path 750" d="M157.263,212.261a1.337,1.337,0,0,1-1.292,1.361,1.185,1.185,0,0,1-.9-.372,1.408,1.408,0,0,1-.385-.956A1.336,1.336,0,0,1,156.033,211,1.27,1.27,0,0,1,157.263,212.261Z" transform="translate(-103.365 -181.277)" fill="#263238"/>
      <path id="Path_751" data-name="Path 751" d="M156.865,208.515c-.164.179-1.107-.658-2.491-.714s-2.429.658-2.573.458.1-.4.554-.737a3.368,3.368,0,0,1,2.05-.591,3.25,3.25,0,0,1,1.978.792C156.814,208.124,156.947,208.437,156.865,208.515Z" transform="translate(-103.439 -181.75)" fill="#263238"/>
      <path id="Path_752" data-name="Path 752" d="M161.244,219.879a8.186,8.186,0,0,1,2.265-.346c.348,0,.687-.078.759-.346a2.138,2.138,0,0,0-.195-1.116l-.933-2.98c-1.3-4.241-2.224-7.711-2.05-7.812a53.986,53.986,0,0,1,2.624,7.566c.318,1.049.615,2.042.892,3a2.413,2.413,0,0,1,.133,1.518.944.944,0,0,1-.6.536,2.522,2.522,0,0,1-.6.067,8.483,8.483,0,0,1-2.286-.089Z" transform="translate(-103.205 -181.709)" fill="#263238"/>
      <path id="Path_753" data-name="Path 753" d="M157.465,203.2c-.154.4-1.527.145-3.167.29s-2.962.558-3.157.19c-.092-.19.144-.558.7-.937a5.128,5.128,0,0,1,4.818-.357C157.24,202.676,157.527,203.011,157.465,203.2Z" transform="translate(-103.455 -182.327)" fill="#263238"/>
      <path id="Path_754" data-name="Path 754" d="M169.815,204.884c-.256.335-1.2-.067-2.347-.134s-2.132.134-2.337-.234c-.092-.179.072-.513.513-.815a3.009,3.009,0,0,1,1.927-.48,3.13,3.13,0,0,1,1.845.77C169.8,204.36,169.928,204.717,169.815,204.884Z" transform="translate(-103.104 -182.181)" fill="#263238"/>
      <path id="Path_755" data-name="Path 755" d="M142.4,212.431c-.154-.089-6.15-2.232-6.15,4.464s6.15,5.39,6.15,5.2Z" transform="translate(-103.827 -181.157)" fill="#ffbf9d"/>
      <path id="Path_756" data-name="Path 756" d="M140.487,219.285a2.434,2.434,0,0,1-.3.167.949.949,0,0,1-.8,0,2.988,2.988,0,0,1-1.21-2.611,4.119,4.119,0,0,1,.318-1.663,1.291,1.291,0,0,1,.81-.893.54.54,0,0,1,.636.324c.082.19,0,.324.072.335s.133-.112.092-.391a.827.827,0,0,0-.246-.424.763.763,0,0,0-.595-.179,1.581,1.581,0,0,0-1.128,1.038,4.314,4.314,0,0,0-.39,1.864,3.066,3.066,0,0,0,1.548,2.913,1.052,1.052,0,0,0,1.025-.167C140.477,219.452,140.508,219.3,140.487,219.285Z" transform="translate(-103.79 -180.936)" fill="#ff9a6c"/>
      <path id="Path_757" data-name="Path 757" d="M173.337,197.259a12.593,12.593,0,0,0-3.608-4.91,19.2,19.2,0,0,0-11.47-5.055,15.561,15.561,0,0,0-11.645,4.207,19.037,19.037,0,0,0-5.125,9.274,29.8,29.8,0,0,0-.472,10.869,8.788,8.788,0,0,0,1.507,4.464,1.874,1.874,0,0,0,2.429.7,2.713,2.713,0,0,0,.779-1.518c1.384-5.122,2.757-10.635,1.21-15.7a14.62,14.62,0,0,1,4.4-4.062,6.806,6.806,0,0,1,5.628-.58c2.716,1.049,4.295,4.029,6.417,6.149a12.257,12.257,0,0,0,11.45,3.348Z" transform="translate(-103.715 -184.03)" fill="#263238"/>
      <path id="Path_758" data-name="Path 758" d="M179.911,190.585a1.508,1.508,0,0,1,.072.458,4.843,4.843,0,0,1-.133,1.306,6.078,6.078,0,0,1-2.727,3.7,7.765,7.765,0,0,1-6.458.435c-2.409-.748-4.695-2.422-7.114-3.962s-4.951-2.734-7.38-2.634a9.182,9.182,0,0,0-5.833,2.533A13.942,13.942,0,0,0,147.509,196c-.513.971-.728,1.551-.769,1.529a2.052,2.052,0,0,1,.133-.424,11.951,11.951,0,0,1,.5-1.194,13.515,13.515,0,0,1,2.778-3.727,9.437,9.437,0,0,1,6.007-2.689c2.532-.134,5.125,1.116,7.585,2.656s4.695,3.214,7.032,3.95a7.524,7.524,0,0,0,6.212-.312A5.987,5.987,0,0,0,179.7,192.3,7.06,7.06,0,0,0,179.911,190.585Z" transform="translate(-103.564 -183.772)" fill="#455a64"/>
      <path id="Path_759" data-name="Path 759" d="M137.76,203.8a5.1,5.1,0,0,1,.472-1.774,11.641,11.641,0,0,1,2.358-3.694,10.994,10.994,0,0,1,1.8-1.518,3.688,3.688,0,0,1,1.784-.692,1.923,1.923,0,0,1,1.251.346c.246.2.328.368.318.379a2.241,2.241,0,0,0-1.538-.424,6.976,6.976,0,0,0-3.342,2.232,13.841,13.841,0,0,0-2.378,3.5C138.006,203.1,137.822,203.8,137.76,203.8Z" transform="translate(-103.789 -183.003)" fill="#455a64"/>
      <path id="Path_760" data-name="Path 760" d="M138.6,209.138a5.338,5.338,0,0,1,.584-1.763,11.769,11.769,0,0,1,6.068-5.948,4.271,4.271,0,0,1,1.671-.446c0,.067-.615.257-1.558.725a13.55,13.55,0,0,0-5.935,5.814Q139.054,208.352,138.6,209.138Z" transform="translate(-103.768 -182.439)" fill="#455a64"/>
      <path id="Path_761" data-name="Path 761" d="M160.807,222.722c0,.1-.338.29-.943.324a4.148,4.148,0,0,1-2.3-.636,4.551,4.551,0,0,1-1.671-1.83c-.287-.591-.318-1-.225-1.049a11.417,11.417,0,0,0,2.286,2.12C159.382,222.51,160.776,222.465,160.807,222.722Z" transform="translate(-103.342 -180.288)" fill="#263238"/>
      <path id="Path_762" data-name="Path 762" d="M141.591,233.648l-.041-1.908,22.849,8.637,5.392,10.2-4.49,1.875-12.147-4.787Z" transform="translate(-103.694 -178.873)" fill="#fafafa"/>
      <path id="Path_763" data-name="Path 763" d="M140.777,238.733s-11.47,15-7.175,38.779c4.285,23.613,6.417,40.587,6.417,40.587l-7.7,41.1,60.8.123-7.7-89.666-12.424-18.848-5.576-2.131-1.589-2.009a23.072,23.072,0,0,0-9.144-7.019L141.8,233.41Z" transform="translate(-103.926 -178.679)" fill="#263238"/>
      <path id="Path_764" data-name="Path 764" d="M165.722,266.51a3.706,3.706,0,0,1-.615.8c-.42.491-1.025,1.183-1.814,2.02-1.558,1.685-3.762,3.95-6.253,6.372s-4.828,4.542-6.54,6.037c-.861.748-1.558,1.339-2.05,1.741a3.462,3.462,0,0,1-.8.569,24.792,24.792,0,0,1,2.614-2.611l6.427-6.149c2.429-2.388,4.623-4.542,6.345-6.249a26.838,26.838,0,0,1,2.686-2.533Z" transform="translate(-103.542 -174.841)" fill="#455a64"/>
      <path id="Path_765" data-name="Path 765" d="M147.15,251.153c1.189-2.622,3.9-4.4,7.36-5.033a17.75,17.75,0,0,1,7.565.614l32.7,10.189,10.486-24.183,15.14,2.7s-6.284,35.454-12.742,41.792c-4.562,4.464-23.576.056-33.827-1.194a101.341,101.341,0,0,1-19.22-4.8" transform="translate(-103.554 -178.757)" fill="#263238"/>
      <path id="Path_766" data-name="Path 766" d="M154.582,271.267a4.324,4.324,0,0,1,.461.134l1.353.435c1.179.368,2.932.915,5.207,1.529s5.074,1.306,8.354,1.919c1.64.324,3.4.558,5.289.792s3.854.558,5.925.882c4.162.636,8.7,1.384,13.613,1.808a43.022,43.022,0,0,0,7.565.045,11.665,11.665,0,0,0,3.823-.915A6.58,6.58,0,0,0,209,274.972a45.41,45.41,0,0,0,3.557-8.336c1.025-2.968,1.876-6.048,2.706-9.2,1.65-6.316,3.075-12.934,4.418-19.741q.215-1.116.431-2.31l.215.324-15.109-2.656.267-.145c-3.741,8.593-7.268,16.739-10.5,24.171l-.092.19-.184-.056-19.835-6.227-8.313-2.622-3.69-1.116a18.591,18.591,0,0,0-3.4-.848,12.738,12.738,0,0,0-9.871,1.953,8.187,8.187,0,0,0-2.45,2.89,4.451,4.451,0,0,1,.451-.9,7.94,7.94,0,0,1,1.917-2.12,11.394,11.394,0,0,1,4.039-1.919,14.546,14.546,0,0,1,5.956-.19,18.671,18.671,0,0,1,3.444.826l3.7,1.116,8.323,2.555,19.855,6.149-.267.134L205.025,232.7l.082-.19h.195l15.14,2.7h.256l-.051.279-.43,2.321c-1.312,6.83-2.768,13.447-4.428,19.775-.841,3.169-1.732,6.249-2.737,9.229a46.451,46.451,0,0,1-3.618,8.437,11.089,11.089,0,0,1-1.3,1.819,4.722,4.722,0,0,1-1.743,1.295,12.331,12.331,0,0,1-3.967.937,42.663,42.663,0,0,1-7.667-.112c-4.931-.435-9.482-1.216-13.633-1.875-2.05-.335-4.049-.658-5.915-.926s-3.659-.491-5.3-.826c-3.28-.647-6.079-1.373-8.354-2.02s-4.018-1.228-5.187-1.64c-.595-.2-1.025-.368-1.333-.491Z" transform="translate(-103.554 -178.783)" fill="#455a64"/>
      <path id="Path_767" data-name="Path 767" d="M160.311,245.684a2.247,2.247,0,0,1-.83-.067,22.5,22.5,0,0,1-2.214-.491,47.955,47.955,0,0,1-7.073-2.533c-2.7-1.183-5.125-2.41-6.8-3.348a21.882,21.882,0,0,1-2.747-1.5,14.373,14.373,0,0,1,2.9,1.116c1.753.781,4.151,1.953,6.837,3.125a73.47,73.47,0,0,0,6.97,2.678,27.908,27.908,0,0,1,2.952,1.015Z" transform="translate(-103.717 -178.176)" fill="#455a64"/>
      <path id="Path_768" data-name="Path 768" d="M172.2,290.58a5.335,5.335,0,0,1-.82.971c-.543.6-1.353,1.44-2.378,2.455-2.05,2.042-4.931,4.776-8.262,7.611s-6.448,5.256-8.754,6.919c-1.158.837-2.05,1.5-2.768,1.931a5.378,5.378,0,0,1-1.025.636,5.216,5.216,0,0,1,.953-.815l2.665-2.076c2.245-1.741,5.33-4.2,8.641-7.03s6.243-5.5,8.344-7.466l2.481-2.321a6.808,6.808,0,0,1,.923-.815Z" transform="translate(-103.528 -172.05)" fill="#455a64"/>
      <path id="Path_769" data-name="Path 769" d="M207.032,233.826s-5.669-2.522-7.022-4.006-2.839-2.143-1.6-2.946,2.737-.4,4.1.67a2,2,0,0,0,2.573,0,67.232,67.232,0,0,0-2.573-7.923c-1.128-2.41-3.957-7.109-3.834-8.849s1.23-2.556,2.05-.8,4.1,7.243,4.685,7.109-1.6-10.869-.861-11.405,2.337-1.205,2.46,1.473a64.114,64.114,0,0,0,1.486,8.325s-.246-9.53,1.107-9.262,1.353,1.205,1.476,2.812,1.476,8.057,1.476,8.057.379-7.923,1.732-7.812,1.6.279,1.476,1.886,1.353,16.739,1.353,17.308v7.053l-9.533-1.707" transform="translate(-102.281 -181.952)" fill="#ffbf9d"/>
      <path id="Path_770" data-name="Path 770" d="M193.136,346.277c0,.156-13.613.257-30.393.223s-30.4-.2-30.4-.346,13.613-.257,30.4-.223S193.136,346.12,193.136,346.277Z" transform="translate(-103.925 -165.633)" fill="#455a64"/>
      <path id="Path_771" data-name="Path 771" d="M204.51,233.14l1.169-2.79,12.885,2-.318,3.247Z" transform="translate(-102.117 -179.034)" fill="#e0e0e0"/>
      <path id="Path_772" data-name="Path 772" d="M198.118,262.164c-.143,0-.851-1.931-2.183-4.084s-2.727-3.627-2.624-3.75a13.5,13.5,0,0,1,4.808,7.812Z" transform="translate(-102.397 -176.253)" fill="#455a64"/>
      <path id="Path_773" data-name="Path 773" d="M138.428,348.049l52.053,1.116-1.435-3.035-51.335.123Z" transform="translate(-103.791 -165.609)" opacity="0.3"/>
      <path id="Path_774" data-name="Path 774" d="M151.881,328.632l-.861,3.348h22.644l-.615-3.348a81.454,81.454,0,0,0-21.167,0Z" transform="translate(-103.457 -167.718)" opacity="0.3"/>
      <path id="Path_775" data-name="Path 775" d="M152.53,321.77c-.923,3.236-1.527,5.323-2.45,8.559,6.3-.692,18.205-.413,24.243-.279.154-2.489,0-7.733,0-7.733" transform="translate(-103.481 -168.434)" fill="#263238"/>
      <path id="Path_776" data-name="Path 776" d="M174.361,322.319a15.771,15.771,0,0,1,.144,2.087c0,1.339.113,3.27,0,5.658v.2h-.195c-3.383,0-7.821-.112-12.68-.1-4.326,0-8.334.078-11.532.391h-.318l.1-.324c.759-2.511,1.384-4.609,1.866-6.182.215-.681.4-1.239.543-1.707a2.643,2.643,0,0,1,.236-.591,2.612,2.612,0,0,1-.113.636c-.123.469-.267,1.049-.441,1.73l-1.691,6.26-.226-.3a110.33,110.33,0,0,1,11.573-.491c4.859,0,9.308.112,12.69.234l-.195.2c.133-2.355.123-4.3.144-5.636A15.5,15.5,0,0,1,174.361,322.319Z" transform="translate(-103.488 -168.436)" fill="#455a64"/>
      <path id="Path_777" data-name="Path 777" d="M172.693,321.072a17.237,17.237,0,0,1-2.778,0c-1.722-.078-4.1-.156-6.7-.134s-4.982.145-6.694.257a15.873,15.873,0,0,1-2.778.1,11.953,11.953,0,0,1,2.747-.491,60.606,60.606,0,0,1,6.724-.424c2.634,0,5.013.112,6.724.29a12.418,12.418,0,0,1,2.757.4Z" transform="translate(-103.389 -168.595)" fill="#455a64"/>
      <path id="Path_778" data-name="Path 778" d="M159.89,268.86s1.169,3.6,7.022,5.334,18.953,4.375,18.953,4.375l-.42-4.91S162.729,270.367,159.89,268.86Z" transform="translate(-103.235 -174.569)" opacity="0.3"/>
    </g>
  </g>
</svg>
