<svg width="500" height="500" viewBox="0 0 500 500" fill="none" xmlns="http://www.w3.org/2000/svg">
<path d="M112.06 391.309C130.981 391.309 146.32 385.256 146.32 377.789C146.32 370.322 130.981 364.269 112.06 364.269C93.1386 364.269 77.7999 370.322 77.7999 377.789C77.7999 385.256 93.1386 391.309 112.06 391.309Z" fill="#2AACE3"/>
<path opacity="0.5" d="M112.06 391.309C130.981 391.309 146.32 385.256 146.32 377.789C146.32 370.322 130.981 364.269 112.06 364.269C93.1386 364.269 77.7999 370.322 77.7999 377.789C77.7999 385.256 93.1386 391.309 112.06 391.309Z" fill="white"/>
<path d="M87.5469 159.181C85.9465 160.16 84.6031 161.508 83.6288 163.111C82.3227 165.53 74.6919 187.503 72.2975 192.51C69.903 197.516 68.8146 199.258 71.8621 200.975C74.9096 202.692 78.8399 200.104 81.452 195.315C84.0641 190.527 88.853 177.236 89.7237 174.189C90.5944 171.141 93.6419 159.617 87.5469 159.181Z" fill="#2AACE3" stroke="#263238" stroke-linecap="round" stroke-linejoin="round"/>
<path d="M134.698 356.844L136.5 369.747L135.291 370.34L131.699 363.446L134.698 356.844Z" fill="#263238" stroke="#263238" stroke-linecap="round" stroke-linejoin="round"/>
<path d="M97.4996 278.867C97.4996 278.867 101.406 297.454 105.3 309.45C109.194 321.447 121.795 349.358 122.702 354.195C123.609 359.032 122.399 359.032 122.399 362.89C122.399 366.748 117.006 370.993 116.704 373.085C116.401 375.177 120.598 375.503 124.504 374.294C128.41 373.085 131.094 369.795 131.094 367.038C131.094 364.281 134.722 359.54 134.722 356.844C134.722 354.147 130.224 353.844 129.885 348.741C129.546 343.638 127.781 325.353 124.782 314.554C121.783 303.755 118.735 298.059 116.389 295.06C114.043 292.061 110.996 285.155 111.552 282.761C112.108 280.366 97.4996 278.867 97.4996 278.867Z" fill="white" stroke="#263238" stroke-linecap="round" stroke-linejoin="round"/>
<path d="M131.094 367.038C131.094 364.341 134.722 359.54 134.722 356.844C134.722 355.707 133.924 354.993 132.969 354.171C131.639 357.739 128.93 363.918 124.818 367.34C122.266 369.481 120.585 369.445 119.521 368.828C118.191 370.533 116.873 372.033 116.728 373.036C116.425 375.141 120.622 375.455 124.528 374.246C128.434 373.036 131.094 369.747 131.094 367.038Z" fill="#263238" stroke="#263238" stroke-linecap="round" stroke-linejoin="round"/>
<path d="M104.405 283.063C104.405 283.063 103.195 292.955 103.195 299.256C103.195 305.556 99.5675 347.096 98.3582 355.042C97.2335 362.757 95.0567 366.143 93.8595 370.339C92.6623 374.536 91.4409 379.047 89.3609 380.244C87.2808 381.441 89.3609 382.662 92.9888 382.336C96.6167 382.009 100.245 380.244 100.487 376.942C100.728 373.641 103.643 370.739 105.59 369.445C109.218 367.026 104.695 359.843 109.786 344.242C112.036 337.398 117.586 328.352 118.783 317.855C119.981 307.358 117.889 297.756 117.889 295.362C117.889 292.968 119.993 283.958 119.993 283.958L104.405 283.063Z" fill="white" stroke="#263238" stroke-linecap="round" stroke-linejoin="round"/>
<path d="M106.521 369.953C110.415 368.465 107.585 365.115 107.259 361.487C104.127 364.523 99.9424 372.371 97.4996 374.79C96.8071 375.461 95.9389 375.923 94.9953 376.122C94.0517 376.321 93.0711 376.249 92.1665 375.914C91.4168 377.922 90.5461 379.542 89.4093 380.195C87.3051 381.405 89.4093 382.614 93.0372 382.288C96.6652 381.961 100.293 380.195 100.535 376.894C100.777 373.593 104.332 370.787 106.521 369.953Z" fill="#263238" stroke="#263238" stroke-linecap="round" stroke-linejoin="round"/>
<path d="M107.102 367.038L108.033 380.244H105.614L103.51 371.247C103.51 371.247 105.614 366.748 107.102 367.038Z" fill="#263238" stroke="#263238" stroke-linecap="round" stroke-linejoin="round"/>
<path d="M101.696 157.004L92.5535 160.487C92.5535 160.487 87.547 172.471 85.8056 181.179C84.0641 189.886 86.4586 198.822 88.2242 204.264C89.9898 209.706 92.1424 241.076 93.0615 253.048C93.9805 265.02 95.601 282.289 95.601 282.289C95.601 282.289 99.5192 285.349 107.368 286.873C115.216 288.396 126.318 286.002 126.318 286.002C126.318 286.002 132.848 267.052 134.154 255.938C135.46 244.825 124.564 226.758 121.081 218.921C117.598 211.085 116.244 198.448 116.945 194.735C117.647 191.022 125.87 162.942 122.992 161.624C120.114 160.306 109.98 156.521 101.696 157.004Z" fill="#263238" stroke="#263238" stroke-linecap="round" stroke-linejoin="round"/>
<path d="M101.696 149.386C101.696 149.386 100.825 155.432 100.172 158.093C99.5192 160.753 94.5126 169.859 96.4717 173.814C98.4308 177.768 104.937 177.732 107.803 170.984C109.565 166.326 110.387 161.365 110.222 156.388L111.31 149.857C111.31 149.857 104.32 152.216 101.696 149.386Z" fill="white" stroke="#263238" stroke-linecap="round" stroke-linejoin="round"/>
<path d="M128.277 139.808C127.762 138.936 126.97 138.262 126.027 137.894C125.085 137.526 124.046 137.484 123.077 137.776C127.019 134.523 129.51 129.251 125.652 121.729C120.815 112.356 109.544 114.545 109.544 114.545C107.421 114.449 105.311 114.923 103.433 115.919C101.555 116.914 99.9783 118.394 98.866 120.205C94.9478 126.517 97.1246 135.225 100.39 137.631C103.413 139.832 112.894 142.214 118.626 140.352C115.276 143.823 113.112 148.817 116.208 153.171C116.818 154.132 117.647 154.936 118.626 155.517C119.605 156.099 120.707 156.441 121.844 156.518C122.98 156.595 124.118 156.403 125.166 155.958C126.214 155.513 127.143 154.827 127.877 153.957C131.759 149.386 130.671 143.944 128.277 139.808Z" fill="#263238" stroke="#263238" stroke-linecap="round" stroke-linejoin="round"/>
<path d="M101.164 138.115C101.164 138.115 98.5396 133.786 97.8745 136.773C97.2094 139.76 98.4671 142.009 99.3378 142.565C99.8462 142.893 100.459 143.018 101.055 142.916" fill="white"/>
<path d="M101.164 138.115C101.164 138.115 98.5396 133.786 97.8745 136.773C97.2094 139.76 98.4671 142.009 99.3378 142.565C99.8462 142.893 100.459 143.018 101.055 142.916" stroke="#263238" stroke-linecap="round" stroke-linejoin="round"/>
<path d="M101.031 130.411C101.031 130.411 97.1005 146.532 102.554 152.179C108.008 157.827 114.091 148.696 119.098 141.731L120.622 137.159C119.388 134.89 118.006 132.705 116.486 130.617C114.915 128.57 113.667 126.294 112.785 123.869C112.785 123.869 107.126 131.125 101.031 130.411Z" fill="white" stroke="#263238" stroke-linecap="round" stroke-linejoin="round"/>
<path d="M117.78 141.827C117.78 141.827 122.315 139.566 121.275 142.444C120.235 145.322 117.985 146.568 116.958 146.568C116.349 146.57 115.76 146.35 115.301 145.951" fill="white"/>
<path d="M117.78 141.827C117.78 141.827 122.315 139.566 121.275 142.444C120.235 145.322 117.985 146.568 116.958 146.568C116.349 146.57 115.76 146.35 115.301 145.951" stroke="#263238" stroke-linecap="round" stroke-linejoin="round"/>
<path d="M110.161 136.265C111.004 135.596 112.039 135.215 113.114 135.178C114.19 135.141 115.248 135.45 116.135 136.059" stroke="#263238" stroke-width="0.5" stroke-miterlimit="10"/>
<path d="M107.065 134.003C107.065 134.003 104.804 131.585 102.337 132.564" stroke="#263238" stroke-width="0.5" stroke-miterlimit="10"/>
<path d="M106.243 144.294L107.682 144.923" stroke="#263238" stroke-width="0.5" stroke-miterlimit="10"/>
<path d="M103.981 146.568C104.775 147.053 105.658 147.376 106.577 147.517C107.497 147.659 108.436 147.615 109.339 147.39" stroke="#263238" stroke-width="0.5" stroke-miterlimit="10"/>
<path d="M107.211 138.659C106.997 139.359 106.577 139.979 106.005 140.435C105.433 140.892 104.736 141.166 104.006 141.219C103.276 141.273 102.547 141.104 101.914 140.736C101.282 140.368 100.775 139.816 100.462 139.155C100.148 138.493 100.042 137.753 100.158 137.03C100.273 136.307 100.604 135.636 101.108 135.105C101.612 134.573 102.264 134.207 102.98 134.054C103.696 133.9 104.441 133.967 105.118 134.245C105.98 134.554 106.685 135.192 107.077 136.02C107.469 136.847 107.517 137.796 107.211 138.659V138.659Z" stroke="#263238" stroke-width="0.5" stroke-miterlimit="10"/>
<path d="M115.651 140.932C115.437 141.633 115.015 142.252 114.443 142.708C113.87 143.164 113.172 143.436 112.442 143.489C111.711 143.541 110.982 143.371 110.35 143.001C109.718 142.631 109.213 142.079 108.901 141.417C108.588 140.754 108.484 140.013 108.601 139.29C108.718 138.567 109.051 137.896 109.557 137.366C110.062 136.836 110.716 136.472 111.433 136.32C112.149 136.169 112.895 136.238 113.571 136.518C114.431 136.83 115.133 137.469 115.522 138.296C115.912 139.123 115.959 140.071 115.651 140.932V140.932Z" stroke="#263238" stroke-width="0.5" stroke-miterlimit="10"/>
<path d="M107.271 137.704L108.988 138.199" stroke="#263238" stroke-width="0.5" stroke-miterlimit="10"/>
<path d="M115.724 140.183L119.219 140.594" stroke="#263238" stroke-width="0.5" stroke-miterlimit="10"/>
<path d="M100.172 158.093C96.7182 165.176 94.081 172.629 92.3116 180.308C90.1349 191.192 90.3526 211.46 90.7879 219.296C91.2233 227.132 90.7879 249.529 90.7879 249.529L80.7748 245.175C80.7748 245.175 81.2101 231.014 82.9516 221.872C84.3792 213.384 84.9625 204.776 84.693 196.174C84.4753 191.167 82.2743 183.972 83.6046 177.224C84.9348 170.476 86.8697 159.798 87.5228 159.084C88.1758 158.371 100.172 158.093 100.172 158.093Z" fill="#2AACE3" stroke="#263238" stroke-linecap="round" stroke-linejoin="round"/>
<path d="M110.197 157.657C110.197 157.657 106.279 173.124 103.885 187.286C101.49 201.447 107.368 248.961 107.368 248.961C111.604 248.722 115.821 248.213 119.993 247.437C129.583 245.913 134.154 243.083 134.154 243.083C134.154 243.083 128.494 228.705 124.782 221.316C121.069 213.927 118.251 208.013 118.251 208.013C117.539 202.352 117.908 196.606 119.34 191.083C121.758 182.146 128.277 163.861 125.652 161.672C123.028 159.483 110.197 157.657 110.197 157.657Z" fill="#2AACE3" stroke="#263238" stroke-linecap="round" stroke-linejoin="round"/>
<path d="M119.34 168.771C119.34 168.771 116.921 179.655 116.075 184.661C115.228 189.668 113.463 197.081 113.463 197.081C113.463 197.081 98.2131 197.734 94.5126 197.516C90.8121 197.299 86.8939 197.299 86.8939 197.299L88.2 204.264C88.2 204.264 100.39 208.618 108.021 209.924C115.651 211.23 119.775 213.201 121.081 210.807C122.387 208.412 126.753 183.791 128.337 174.431C129.921 165.07 130.949 162.894 124.407 161.128" stroke="#263238" stroke-linecap="round" stroke-linejoin="round"/>
<path d="M104.32 191.422C104.32 191.422 112.592 190.333 113.245 190.115C113.898 189.898 122.387 193.598 122.387 193.598C122.387 193.598 121.952 194.687 121.299 194.904C120.646 195.122 115.422 192.486 115.422 192.486L114.551 192.703L121.081 197.057C121.081 197.057 121.952 198.145 121.081 198.581C120.211 199.016 113.245 194.445 113.245 194.445L119.291 200.322C118.935 200.566 118.514 200.696 118.082 200.696C117.651 200.696 117.229 200.566 116.873 200.322C115.784 199.451 113.39 197.057 113.39 197.057C113.39 197.057 116.002 200.104 114.696 200.322C113.39 200.54 110.996 196.839 110.996 196.839L107.077 196.186L102.942 195.751L104.32 191.422Z" fill="white" stroke="#263238" stroke-linecap="round" stroke-linejoin="round"/>
<path d="M91.6949 191.591C91.6949 191.591 86.2046 185.302 85.866 184.71C85.5274 184.117 76.6994 181.275 76.6994 181.275C76.5029 181.827 76.5029 182.429 76.6994 182.98C77.0501 183.573 82.746 185.073 82.746 185.073L83.2539 185.81L75.4659 184.758C75.4659 184.758 74.0994 185 74.4622 185.895C74.825 186.79 83.0846 187.975 83.0846 187.975L74.6194 188.362C74.7271 188.776 74.9563 189.148 75.2775 189.43C75.5987 189.712 75.997 189.892 76.4213 189.946C77.812 190.007 81.186 189.801 81.186 189.801C81.186 189.801 77.2073 190.357 78.0538 191.385C78.9003 192.413 83.133 191.216 83.133 191.216L86.5069 193.32L89.893 195.739L91.6949 191.591Z" fill="white" stroke="#263238" stroke-linecap="round" stroke-linejoin="round"/>
<path d="M76.2156 190.551C76.2156 190.551 97.56 191.204 100.402 191.204C101.716 191.165 103.031 191.238 104.332 191.421L102.808 202.088C97.4533 202.632 92.0699 202.85 86.6882 202.741C75.1393 202.741 69.915 203.394 70.3504 199.04C70.7857 194.687 76.2156 190.551 76.2156 190.551Z" fill="#2AACE3" stroke="#263238" stroke-linecap="round" stroke-linejoin="round"/>
<path d="M173.36 400.318C192.281 400.318 207.62 394.265 207.62 386.798C207.62 379.331 192.281 373.278 173.36 373.278C154.439 373.278 139.1 379.331 139.1 386.798C139.1 394.265 154.439 400.318 173.36 400.318Z" fill="#2AACE3"/>
<path opacity="0.5" d="M173.36 400.318C192.281 400.318 207.62 394.265 207.62 386.798C207.62 379.331 192.281 373.278 173.36 373.278C154.439 373.278 139.1 379.331 139.1 386.798C139.1 394.265 154.439 400.318 173.36 400.318Z" fill="white"/>
<path d="M165.415 110.567C165.415 110.567 158.304 111.014 153.733 119.636C149.162 128.259 151.314 143.823 152.959 148.66C154.604 153.497 162.114 176.414 166.431 192.437C170.748 208.461 178.524 222.731 192.443 222.223C206.362 221.715 225.095 215.245 219.048 191.784C213.002 168.323 199.868 158.673 197.28 152.687C194.693 146.701 194.136 140.509 192.987 127.485C191.839 114.461 182.926 107.265 174.001 104.665C165.076 102.065 165.415 110.567 165.415 110.567Z" fill="#263238" stroke="#263238" stroke-linecap="round" stroke-linejoin="round"/>
<path d="M191.609 148.188C193.882 150.292 194.777 150.353 194.777 150.353" stroke="white" stroke-width="0.5" stroke-linecap="round" stroke-linejoin="round"/>
<path d="M171.498 112.199C171.498 112.199 171.691 121.547 181.608 135.853C184.094 139.539 186.829 143.05 189.795 146.362" stroke="white" stroke-width="0.5" stroke-linecap="round" stroke-linejoin="round"/>
<path d="M173.783 118.488C173.783 118.488 182.757 139.469 193.06 145.383" stroke="white" stroke-width="0.5" stroke-linecap="round" stroke-linejoin="round"/>
<path d="M200.497 171.71C200.497 171.71 215.178 188.64 215.372 200.733C215.565 212.826 207.934 217.905 207.172 217.905" stroke="white" stroke-width="0.5" stroke-linecap="round" stroke-linejoin="round"/>
<path d="M207.874 174.225C211.949 182.11 216.46 192.969 215.372 200.709" stroke="white" stroke-width="0.5" stroke-linecap="round" stroke-linejoin="round"/>
<path d="M202.021 164.079C202.021 164.079 203.472 166.28 205.431 169.714" stroke="white" stroke-width="0.5" stroke-linecap="round" stroke-linejoin="round"/>
<path d="M157.953 129.178C157.953 129.178 152.354 140.582 152.959 148.612" stroke="white" stroke-width="0.5" stroke-linecap="round" stroke-linejoin="round"/>
<path d="M155.281 135.853C155.281 135.853 155.1 142.904 157.192 146.737" stroke="white" stroke-width="0.5" stroke-linecap="round" stroke-linejoin="round"/>
<path d="M205.818 243.797C205.818 243.797 203.109 249.843 203.109 251.573C203.109 253.302 203.448 260.703 204.464 259.349C205.48 257.994 204.464 252.927 205.818 252.589C207.173 252.25 208.237 253.266 206.834 257.317C205.431 261.368 204.415 265.431 207.173 263.364C209.93 261.296 209.869 258.623 210.885 252.54C211.503 248.946 211.388 245.265 210.547 241.717L205.818 243.797Z" fill="white" stroke="#263238" stroke-linecap="round" stroke-linejoin="round"/>
<path d="M197.026 154.549L202.432 204.24L212.24 242.104L203.774 245.828C203.774 245.828 192.624 214.725 189.916 208.981C187.207 203.236 186.191 198.496 186.191 196.126C186.191 193.755 197.026 154.549 197.026 154.549Z" fill="#2AACE3" stroke="#263238" stroke-linecap="round" stroke-linejoin="round"/>
<path d="M148.013 293.173C148.013 293.173 149.355 299.933 149.694 303.307C150.032 306.681 149.017 318.859 150.71 330.359C152.403 341.86 161.243 375.648 161.243 375.648C161.243 375.648 152.451 383.412 152.451 387.137C152.451 390.861 155.16 390.184 159.55 387.475C163.94 384.767 168.342 378.684 168.68 374.632C169.019 370.581 165.294 346.903 166.648 336.43C168.003 325.957 165.971 307.697 165.971 300.26V292.822L148.013 293.173Z" fill="white" stroke="#263238" stroke-linecap="round" stroke-linejoin="round"/>
<path d="M157.808 383.412C156.599 382.832 157.288 380.51 158.038 378.684C155.523 381.272 152.403 384.924 152.403 387.149C152.403 390.862 155.111 390.196 159.501 387.488C163.122 385.069 165.991 381.684 167.785 377.716C164 381.84 159.356 384.186 157.808 383.412Z" fill="#263238" stroke="#263238" stroke-linecap="round" stroke-linejoin="round"/>
<path d="M164.568 295.519C164.568 295.519 164.23 307.697 165.584 312.764C166.939 317.831 175.392 343.868 176.746 351.643C178.188 359.798 179.089 368.04 179.443 376.313C179.443 381.731 184.522 393.897 187.908 394.574C191.294 395.251 193.326 395.251 192.31 389.846C191.294 384.44 184.873 375.975 184.873 375.975C184.873 375.975 188.235 341.546 186.88 330.662C185.526 319.778 181.801 309.039 181.801 308.036C181.801 307.032 183.494 294.503 183.494 294.503L164.568 295.519Z" fill="white" stroke="#263238" stroke-linecap="round" stroke-linejoin="round"/>
<path d="M189.795 383.63C189.384 385.335 188.585 386.798 187.219 386.798C183.845 386.798 180.459 381.054 180.459 381.054L180.29 381.344C181.874 387.089 185.357 394.066 187.896 394.574C191.282 395.251 193.314 395.251 192.298 389.846C191.771 387.663 190.927 385.569 189.795 383.63V383.63Z" fill="#263238" stroke="#263238" stroke-linecap="round" stroke-linejoin="round"/>
<path d="M162.888 148.466C162.888 148.466 138.883 153.533 138.544 154.888C138.205 156.242 146.32 198.496 146.32 200.189C146.32 201.882 136.851 223.855 136.174 237.375C135.497 250.895 140.576 295.858 140.576 295.858C140.576 295.858 150.71 300.26 160.517 300.26C170.325 300.26 186.88 297.841 186.88 297.841C186.88 297.841 194.995 271.804 195.672 249.831C196.349 227.858 186.542 200.479 186.542 200.479C186.542 200.479 197.026 156.194 197.026 154.525C197.026 152.856 174.715 147.112 162.888 148.466Z" fill="#263238" stroke="#263238" stroke-linecap="round" stroke-linejoin="round"/>
<path d="M186.542 200.528C186.542 200.528 197.026 156.242 197.026 154.574C197.026 152.905 174.714 147.136 162.887 148.527C162.887 148.527 138.882 153.594 138.544 154.948C138.205 156.303 146.32 198.556 146.32 200.249C146.32 201.459 141.482 212.959 138.508 224.363C142.939 226.703 147.594 228.591 152.403 229.999C162.887 233.046 166.914 228.644 166.914 228.644C166.914 228.644 165.899 231.063 171.981 231.692C177.375 232.284 186.493 232.079 193.652 227.798C191.948 218.547 189.571 209.433 186.542 200.528V200.528Z" fill="#2AACE3" stroke="#263238" stroke-linecap="round" stroke-linejoin="round"/>
<path d="M167.495 218.099C167.011 221.412 166.648 223.613 166.648 223.613" stroke="#263238" stroke-linecap="round" stroke-linejoin="round"/>
<path d="M169.357 173.451C170.196 181.484 170.414 189.57 170.01 197.637C169.684 201.701 169.103 206.526 168.511 210.94" stroke="#263238" stroke-linecap="round" stroke-linejoin="round"/>
<path d="M165.729 145.854C165.729 145.854 159.211 148.031 156.309 150.571C153.406 153.11 148.702 157.452 148.702 157.452L160.662 158.177L169.357 173.451L175.513 158.601H182.769C184.79 158.622 186.779 159.119 188.573 160.052C188.573 160.052 180.241 148.817 175.525 146.64C172.427 145.338 168.995 145.063 165.729 145.854Z" fill="white" stroke="#263238" stroke-linecap="round" stroke-linejoin="round"/>
<path d="M161.751 141.513C161.751 141.513 162.839 156.726 165.729 160.717C168.62 164.708 172.61 154.199 172.61 149.482C172.61 144.766 172.973 138.248 172.973 138.248L161.751 141.513Z" fill="white" stroke="#263238" stroke-linecap="round" stroke-linejoin="round"/>
<path d="M138.544 154.888C138.544 154.888 124.032 203.261 124.032 206.61C124.032 209.96 128.083 213.709 132.146 211.339C136.21 208.969 144.312 186.33 144.312 186.33L138.544 154.888Z" fill="#2AACE3" stroke="#263238" stroke-linecap="round" stroke-linejoin="round"/>
<path d="M119.606 185.653L135.835 217.095L158.147 219.453L144.965 181.263L119.606 185.653Z" fill="white" stroke="#263238" stroke-linecap="round" stroke-linejoin="round"/>
<path d="M139.221 205.595L145.268 194.445L152.366 192.026L153.382 193.38L149.319 195.799C149.319 195.799 154.398 196.126 155.753 196.126C157.107 196.126 156.756 198.157 156.756 198.157L156.091 199.512C156.091 199.512 156.756 203.901 156.756 205.256C156.756 206.61 141.882 211 141.882 211L139.221 205.595Z" fill="white" stroke="#263238" stroke-linecap="round" stroke-linejoin="round"/>
<path d="M139.826 202.257L144.409 214.64C144.409 214.64 135.799 218.667 129.607 218.667C123.415 218.667 120.198 210.601 122.617 206.574C125.036 202.547 139.826 202.257 139.826 202.257Z" fill="#2AACE3" stroke="#263238" stroke-linecap="round" stroke-linejoin="round"/>
<path d="M167.87 114.315L156.587 127.932C156.587 127.932 156.2 138.344 161.352 146.35C168.426 157.379 177.641 135.466 177.641 135.466L167.87 114.315Z" fill="white" stroke="#263238" stroke-linecap="round" stroke-linejoin="round"/>
<path d="M163.274 131.246C163.395 132.225 163.093 133.072 162.609 133.132C162.126 133.193 161.63 132.443 161.509 131.476C161.388 130.508 161.678 129.649 162.174 129.589C162.67 129.529 163.153 130.278 163.274 131.246Z" fill="#263238"/>
<path d="M169.708 131.766C169.708 132.745 169.297 133.544 168.801 133.544C168.305 133.544 167.93 132.733 167.93 131.754C167.93 130.774 168.341 129.976 168.825 129.976C169.309 129.976 169.708 130.786 169.708 131.766Z" fill="#263238"/>
<path d="M162.875 140.388C164.674 140.96 166.612 140.909 168.378 140.243" stroke="#263238" stroke-width="0.5" stroke-linecap="round" stroke-linejoin="round"/>
<path d="M166.83 127.497C167.475 126.996 168.279 126.742 169.095 126.782C169.911 126.822 170.686 127.153 171.28 127.715" stroke="#263238" stroke-width="0.5" stroke-linecap="round" stroke-linejoin="round"/>
<path d="M163.492 127.993C163.283 127.696 163.01 127.45 162.693 127.273C162.376 127.096 162.023 126.992 161.661 126.97C161.298 126.948 160.936 127.008 160.599 127.145C160.263 127.282 159.962 127.493 159.719 127.763" stroke="#263238" stroke-width="0.5" stroke-linecap="round" stroke-linejoin="round"/>
<path d="M164.605 130.23C164.88 131.265 164.803 132.363 164.387 133.35C163.722 135.37 162.827 136.482 163.492 136.978C164.118 137.278 164.805 137.431 165.5 137.425" stroke="#263238" stroke-width="0.5" stroke-linecap="round" stroke-linejoin="round"/>
<path d="M381.604 389.495C407.491 389.495 428.477 383.442 428.477 375.975C428.477 368.508 407.491 362.455 381.604 362.455C355.717 362.455 334.731 368.508 334.731 375.975C334.731 383.442 355.717 389.495 381.604 389.495Z" fill="#2AACE3"/>
<path opacity="0.5" d="M381.604 389.495C407.491 389.495 428.477 383.442 428.477 375.975C428.477 368.508 407.491 362.455 381.604 362.455C355.717 362.455 334.731 368.508 334.731 375.975C334.731 383.442 355.717 389.495 381.604 389.495Z" fill="white"/>
<path d="M375.993 133.144C375.993 133.144 373.671 130.157 372.558 131.439C371.446 132.721 374.977 140.654 376.489 139.977C378 139.3 375.993 133.144 375.993 133.144Z" fill="white" stroke="#263238" stroke-linecap="round" stroke-linejoin="round"/>
<path d="M394.556 133.543C394.556 133.543 396.757 130.641 397.918 131.971C399.078 133.302 395.922 141.102 394.35 140.364C392.778 139.626 394.556 133.543 394.556 133.543Z" fill="white" stroke="#263238" stroke-linecap="round" stroke-linejoin="round"/>
<path d="M378.702 152.542C378.702 152.542 374.747 154.259 374.3 157.282C373.852 160.306 375.509 225.004 375.509 225.004L402.634 226.467L401.425 156.448C398.176 154.153 394.459 152.608 390.541 151.925C386.591 151.376 382.573 151.585 378.702 152.542V152.542Z" fill="white" stroke="#263238" stroke-linecap="round" stroke-linejoin="round"/>
<path d="M365 222.452L406.54 223.94C406.54 223.94 410.301 254.765 412.091 274.924C413.881 295.084 416.565 313.719 416.287 327.735C416.009 341.751 416.348 362.733 416.42 363.471C416.493 364.208 420.822 367.268 423.567 369.626C426.313 371.984 432.117 374.221 430.194 375.564C428.272 376.906 425.78 377.269 421.391 376.483C417.001 375.697 411.91 372.698 410.579 372.008L409.237 371.319L409.164 373.326L404.158 371.319C404.158 371.319 403.311 370.364 402.634 365.635C401.957 360.907 400.905 346.226 400.361 339.998C399.816 333.77 394.048 289.049 391.895 278.661C389.743 268.273 385.305 250.218 385.305 250.218C385.305 250.218 368.374 308.797 366.27 316.15C364.166 323.503 355.217 363.18 355.072 364.438C354.927 365.696 352.653 368.562 352.714 369.275C352.774 369.989 350.464 372.637 348.638 374.971C346.812 377.305 339.133 379.433 337.101 379.53C335.07 379.627 334.199 375.419 338.238 372.274C340.965 370.061 343.554 367.682 345.99 365.151C345.99 365.151 347.901 335.306 347.816 325.812C347.731 316.319 353.342 285.046 354.382 282.495C355.422 279.943 361.203 244.909 361.203 244.909L365 222.452Z" fill="#263238" stroke="#263238" stroke-linecap="round" stroke-linejoin="round"/>
<path d="M378.448 159.919C378.448 159.919 382.85 186.79 383.358 189.631C383.866 192.473 377.045 248.682 377.045 248.682C373.536 249.192 369.955 248.809 366.633 247.57C360.586 245.502 355.12 243.24 355.12 243.24L366.657 207.638L356.233 159.967C358.97 158.412 361.886 157.194 364.916 156.339C369.385 155.046 373.945 154.088 378.557 153.473L378.448 159.919Z" fill="#2AACE3" stroke="#263238" stroke-linecap="round" stroke-linejoin="round"/>
<path d="M382.85 165.276L385.812 169.508L381.906 220.457L388.037 227.447L391.037 220.687L388.134 170.258L391.182 164.756L386.852 158.274L382.85 165.276Z" fill="#263238" stroke="#263238" stroke-linecap="round" stroke-linejoin="round"/>
<path d="M394.254 152.699C394.254 152.699 391.339 174.285 391.412 175.978C391.484 177.671 390.747 191.881 390.807 193.211C390.867 194.541 396.854 248.646 396.854 248.646C400.658 249.35 404.555 249.408 408.378 248.815C415.054 247.848 422.165 243.482 422.165 243.482L408.741 207.928L413.881 158.02C413.881 158.02 398.135 153.449 394.254 152.699Z" fill="#2AACE3" stroke="#263238" stroke-linecap="round" stroke-linejoin="round"/>
<path d="M386.61 162.361L381.072 167.682C381.072 167.682 377.444 155.384 377.444 153.485C377.38 152.399 377.61 151.316 378.11 150.349C378.61 149.383 379.362 148.57 380.286 147.995C382.354 146.858 390.637 147.789 392.609 148.732C394.58 149.676 396.104 154.211 396.104 154.211L391.677 168.614L386.61 162.361Z" fill="white" stroke="#263238" stroke-linecap="round" stroke-linejoin="round"/>
<path d="M379.681 143.835C379.681 143.835 380.346 150.643 382.027 154.053C383.708 157.464 386.054 162.748 386.611 162.361C387.167 161.974 391.665 154.791 391.786 153.267C391.907 151.744 392.234 145.697 392.234 145.697L379.681 143.835Z" fill="white" stroke="#263238" stroke-linecap="round" stroke-linejoin="round"/>
<path d="M380.044 121.148C380.044 121.148 376.283 123.385 375.751 125.489C375.219 127.594 375.582 138.393 377.843 143.085C380.104 147.777 384.313 151.635 386.381 151.659C388.449 151.683 393.225 148.454 393.891 143.69C394.637 139.397 394.989 135.046 394.943 130.69C394.701 127.497 397.301 128.924 393.346 124.74C389.392 120.555 382.354 119.104 380.044 121.148Z" fill="white" stroke="#263238" stroke-linecap="round" stroke-linejoin="round"/>
<path d="M382.922 136.035C382.922 136.785 382.608 137.401 382.233 137.401C381.858 137.401 381.556 136.785 381.556 136.035C381.556 135.285 381.858 134.68 382.233 134.68C382.608 134.68 382.922 135.285 382.922 136.035Z" fill="#263238"/>
<path d="M389.368 136.035C389.368 136.785 389.066 137.401 388.691 137.401C388.316 137.401 388.013 136.785 388.013 136.035C388.013 135.285 388.316 134.68 388.691 134.68C389.066 134.68 389.368 135.285 389.368 136.035Z" fill="#263238"/>
<path d="M379.863 133.834C380.022 133.589 380.23 133.381 380.474 133.221C380.719 133.062 380.993 132.955 381.281 132.907C381.569 132.859 381.863 132.872 382.146 132.944C382.428 133.016 382.693 133.146 382.922 133.326" stroke="#263238" stroke-width="0.5" stroke-linecap="round" stroke-linejoin="round"/>
<path d="M387.167 133.543C387.167 133.543 388.521 131.33 390.904 133.882" stroke="#263238" stroke-width="0.5" stroke-linecap="round" stroke-linejoin="round"/>
<path d="M386.659 135.865L386.998 141.815L384.277 141.477" stroke="#263238" stroke-width="0.5" stroke-linecap="round" stroke-linejoin="round"/>
<path d="M383.43 143.69C385.397 144.394 387.556 144.329 389.477 143.508" stroke="#263238" stroke-width="0.5" stroke-linecap="round" stroke-linejoin="round"/>
<path d="M377.359 120.942C377.359 120.942 373.659 119.624 373.042 123.361C372.426 127.098 375.606 133.955 375.606 133.955C375.606 133.955 376.114 132.25 376.985 130.17C377.855 128.09 379.73 126.941 379.016 123.917C378.303 120.894 377.359 120.942 377.359 120.942Z" fill="#263238" stroke="#263238" stroke-linecap="round" stroke-linejoin="round"/>
<path d="M378.024 123.204C378.024 123.204 379.887 126.239 385.099 126.977C390.311 127.715 392.972 126.977 393.564 127.908C394.157 128.839 394.217 134.148 394.217 134.148C394.217 134.148 395.959 134.717 396.067 132.636C396.264 130.989 397.009 129.455 398.184 128.283C398.74 127.715 401.546 125.997 398.462 121.269C395.378 116.541 391.484 115.041 384.76 115.053C378.037 115.065 373.985 118.487 378.024 123.204Z" fill="#263238" stroke="#263238" stroke-linecap="round" stroke-linejoin="round"/>
<path d="M413.844 158.02C413.844 158.02 423.519 191.409 424.136 194.904C424.752 198.399 420.822 200.407 416.71 198.919C412.599 197.432 409.902 175.942 409.902 175.942L413.844 158.02Z" fill="#2AACE3" stroke="#263238" stroke-linecap="round" stroke-linejoin="round"/>
<path d="M420.036 187.672C420.036 187.672 404.472 184.951 400.421 184.964C396.37 184.976 376.924 186.753 376.924 186.753L376.198 193.501C376.198 193.501 405.875 200.189 411.728 200.926C417.581 201.664 423.398 201.398 424.003 197.649C424.607 193.9 423.253 192.159 423.253 192.159" fill="#2AACE3"/>
<path d="M420.036 187.672C420.036 187.672 404.472 184.951 400.421 184.964C396.37 184.976 376.924 186.753 376.924 186.753L376.198 193.501C376.198 193.501 405.875 200.189 411.728 200.926C417.581 201.664 423.398 201.398 424.003 197.649C424.607 193.9 423.253 192.159 423.253 192.159" stroke="#263238" stroke-linecap="round" stroke-linejoin="round"/>
<path d="M356.233 159.967C356.233 159.967 356.632 179.316 357.079 189.752C357.527 200.189 360.441 204.022 365.762 204.01C371.083 203.998 366.766 174.019 366.766 174.019" fill="#2AACE3"/>
<path d="M356.233 159.967C356.233 159.967 356.632 179.316 357.079 189.752C357.527 200.189 360.441 204.022 365.762 204.01C371.083 203.998 366.766 174.019 366.766 174.019" stroke="#263238" stroke-linecap="round" stroke-linejoin="round"/>
<path d="M376.924 186.753C376.924 186.753 373.042 184.77 370.768 184.77C368.495 184.77 361.832 189.039 361.856 189.789C361.88 190.538 365.484 191.53 370.019 190.998C372.455 190.684 374.922 190.684 377.359 190.998L376.924 186.753Z" fill="white" stroke="#263238" stroke-linecap="round" stroke-linejoin="round"/>
<path d="M403.106 181.71C405.008 181.274 406.948 181.019 408.898 180.948C411.426 180.948 414.425 185.931 414.425 185.931L404.581 186.705L403.106 181.71Z" fill="white" stroke="#263238" stroke-linecap="round" stroke-linejoin="round"/>
<path d="M362.702 191.784L400.989 180.707C400.989 180.707 401.715 179.957 403.057 181.698C403.958 183.214 404.465 184.931 404.533 186.693C404.533 186.693 381.93 197.226 374.965 200.237C367.999 203.248 365.677 208.001 361.94 203.514C358.204 199.028 360.574 195.267 360.574 195.267" fill="#2AACE3"/>
<path d="M362.702 191.784L400.989 180.707C400.989 180.707 401.715 179.957 403.057 181.698C403.958 183.214 404.465 184.931 404.533 186.693C404.533 186.693 381.93 197.226 374.965 200.237C367.999 203.248 365.677 208.001 361.94 203.514C358.204 199.028 360.574 195.267 360.574 195.267" stroke="#263238" stroke-linecap="round" stroke-linejoin="round"/>
<path d="M332.929 401.225C351.851 401.225 367.189 395.172 367.189 387.705C367.189 380.238 351.851 374.185 332.929 374.185C314.008 374.185 298.669 380.238 298.669 387.705C298.669 395.172 314.008 401.225 332.929 401.225Z" fill="#2AACE3"/>
<path opacity="0.5" d="M332.929 401.225C351.851 401.225 367.189 395.172 367.189 387.705C367.189 380.238 351.851 374.185 332.929 374.185C314.008 374.185 298.669 380.238 298.669 387.705C298.669 395.172 314.008 401.225 332.929 401.225Z" fill="white"/>
<path d="M346.328 125.901C348.979 123.096 350.695 119.539 351.238 115.718C351.782 109.889 345.059 106.806 340.512 106.987C337.673 107.156 334.949 108.166 332.687 109.889C332.687 109.889 322.082 109.357 314.136 115.404C306.191 121.45 307.219 139.421 307.763 146.145C308.035 151.302 307.914 156.473 307.401 161.612C313.018 163.861 318.878 165.448 324.863 166.34C334.138 167.61 346.691 165.433 347.961 165.131C349.231 164.828 344.333 163.668 343.595 156.581C342.858 149.494 344.684 141.295 345.421 137.474C346.159 133.652 344.877 126.203 344.877 126.203L346.328 125.901Z" fill="#263238" stroke="#263238" stroke-linecap="round" stroke-linejoin="round"/>
<path d="M345.361 109.901C345.361 109.901 343.511 116.287 342.483 118.766" stroke="white" stroke-width="0.5" stroke-linecap="round" stroke-linejoin="round"/>
<path d="M337.803 112.586C337.803 112.586 339.447 117.931 333.679 127.207C327.911 136.482 316.18 146.362 315.769 153.159" stroke="white" stroke-width="0.5" stroke-linecap="round" stroke-linejoin="round"/>
<path d="M318.381 137.703C318.381 137.703 311.125 149.857 314.27 157.27" stroke="white" stroke-width="0.5" stroke-linecap="round" stroke-linejoin="round"/>
<path d="M336.327 158.637C336.327 158.637 346.147 163.728 347.598 164.272C349.049 164.816 350.331 166.098 351.42 169.363C352.508 172.629 358.518 196.283 359.063 198.834C359.607 201.386 354.515 203.926 351.238 204.107C347.961 204.288 343.777 201.386 343.777 199.197C343.777 197.008 336.327 158.637 336.327 158.637Z" fill="#2AACE3" stroke="#263238" stroke-linecap="round" stroke-linejoin="round"/>
<path d="M340.33 197.202C342.331 194.563 344.518 192.069 346.873 189.74C349.049 187.926 353.597 186.463 356.33 187.926C359.063 189.39 358.518 191.917 357.418 192.292C356.317 192.667 353.597 192.655 351.783 193.743C349.969 194.832 347.054 196.839 345.059 197.371C343.489 197.659 341.875 197.601 340.33 197.202V197.202Z" fill="white" stroke="#263238" stroke-linecap="round" stroke-linejoin="round"/>
<path d="M310.775 376.168L310.605 385.964H311.754L313.218 379.264L310.775 376.168Z" fill="#263238" stroke="#263238" stroke-linecap="round" stroke-linejoin="round"/>
<path d="M348.251 293.04C348.251 293.04 346.45 317.384 341.721 333.165C336.993 348.947 327.524 373.496 327.294 377.329C327.294 377.329 333.159 382.965 335.179 384.089C337.198 385.214 338.807 384.996 337.44 386.121C336.074 387.246 332.252 387.923 329.326 386.798C326.399 385.674 324.138 382.288 322.566 381.393C320.994 380.498 318.938 379.361 318.732 377.329C318.527 375.298 321.659 372.371 321.659 372.371C321.659 372.371 329.096 355.695 328.201 345.101C327.306 334.508 329.543 322.572 331.829 318.279C333.283 315.459 334.496 312.522 335.457 309.499L329.096 294.382C329.096 294.382 341.939 290.561 348.251 293.04Z" fill="white" stroke="#263238" stroke-linecap="round" stroke-linejoin="round"/>
<path d="M335.179 384.089C334.853 383.897 334.538 383.687 334.236 383.461C333.026 384.017 330.051 385.154 327.742 383.195C325.154 380.994 322.384 377.039 319.748 374.596C319.11 375.366 318.752 376.33 318.732 377.329C318.95 379.361 320.981 380.486 322.566 381.393C324.15 382.3 326.387 385.674 329.326 386.798C332.264 387.923 336.086 387.246 337.44 386.121C338.795 384.996 337.21 385.226 335.179 384.089Z" fill="#263238" stroke="#263238" stroke-linecap="round" stroke-linejoin="round"/>
<path d="M345.059 290.754C345.059 290.754 349.461 303.936 349.461 307.322C349.461 310.708 328.165 358.706 326.133 363.434C324.101 368.163 321.054 376.954 321.054 376.954C321.706 379.552 323.268 381.831 325.456 383.376C329.168 386.085 330.523 388.455 328.83 389.132C327.137 389.809 319.373 390.487 317.341 387.778C315.31 385.069 313.29 379.313 311.295 377.632C309.299 375.951 311.295 372.226 312.649 371.21C314.002 369.97 315.244 368.615 316.362 367.159C316.362 367.159 321.429 356.336 321.429 346.867C321.429 337.398 323.122 328.279 328.201 320.504C330.992 316.407 333.263 311.979 334.961 307.322L329.543 296.16C329.543 296.16 338.335 290.113 345.059 290.754Z" fill="white" stroke="#263238" stroke-linecap="round" stroke-linejoin="round"/>
<path d="M325.709 383.581C323.738 384.537 322.348 385.25 318.055 380.377C315.778 377.809 313.646 375.116 311.669 372.311C310.581 373.859 309.722 376.362 311.294 377.668C313.326 379.361 315.346 385.105 317.341 387.814C319.336 390.523 327.149 389.846 328.829 389.169C330.51 388.491 329.253 386.218 325.709 383.581Z" fill="#263238" stroke="#263238" stroke-linecap="round" stroke-linejoin="round"/>
<path d="M326.919 156.521C326.919 156.521 304.547 159.967 303.809 161.249C303.071 162.531 310.726 204.53 311.452 207.808C312.177 211.085 307.086 219.635 304.196 236.178C301.306 252.722 304.764 256.736 309.674 268.539C314.584 280.342 328.322 298.01 328.322 298.01L349.787 294.189C349.787 294.189 354.697 255.817 352.327 237.266C350.97 226.262 347.773 215.563 342.87 205.619L343.414 195.787C343.414 195.787 349.461 192.062 349.69 187.322C349.92 182.581 346.51 175.773 343.414 169.593C340.318 163.414 331.756 156.521 326.919 156.521Z" fill="#2AACE3" stroke="#263238" stroke-linecap="round" stroke-linejoin="round"/>
<path d="M328.503 153.727C328.503 153.727 323.775 154.271 323.049 155.178C322.324 156.085 320.135 168.614 320.135 168.614C320.135 168.614 328.685 166.074 329.592 166.074C330.499 166.074 337.96 174.805 337.96 174.805V167.162L344.502 172.072C343.236 168.426 341.654 164.898 339.774 161.527C336.872 156.52 332.506 153.908 328.503 153.727Z" fill="white" stroke="#263238" stroke-linecap="round" stroke-linejoin="round"/>
<path d="M328.866 142.819C328.866 142.819 327.415 156.823 328.322 158.455C329.229 160.088 335.408 169.557 335.408 169.557C335.408 169.557 334.683 162.301 334.683 157.73C334.937 153.788 335.61 149.884 336.69 146.084L328.866 142.819Z" fill="white" stroke="#263238" stroke-linecap="round" stroke-linejoin="round"/>
<path d="M341.6 119.709C341.6 119.709 338.141 128.259 334.683 131.355C332.753 133.121 330.618 134.648 328.322 135.902C328.322 135.902 327.959 141.948 328.866 142.819C329.773 143.69 337.234 151.357 339.75 150.268C342.265 149.18 346.123 142.081 346.486 136.446C346.54 132.146 345.99 127.859 344.853 123.712L341.6 119.709Z" fill="white" stroke="#263238" stroke-linecap="round" stroke-linejoin="round"/>
<path d="M344.128 130.29C343.655 130.496 343.26 130.848 343.001 131.294C342.742 131.74 342.633 132.257 342.689 132.77C342.689 134.825 344.539 136.47 344.539 137.498C344.539 138.526 342.277 139.155 342.277 139.155" stroke="#263238" stroke-width="0.5" stroke-linecap="round" stroke-linejoin="round"/>
<path d="M340.838 131.318C340.838 131.318 339.798 128.9 336.509 129.674" stroke="#263238" stroke-width="0.5" stroke-linecap="round" stroke-linejoin="round"/>
<path d="M341.66 142.444C340.94 142.606 340.193 142.597 339.477 142.418C338.761 142.24 338.097 141.897 337.537 141.416" stroke="#263238" stroke-width="0.5" stroke-linecap="round" stroke-linejoin="round"/>
<path d="M338.77 132.866C338.77 133.725 338.541 134.414 338.262 134.414C337.984 134.414 337.742 133.725 337.742 132.866C337.742 132.008 337.972 131.318 338.262 131.318C338.553 131.318 338.77 132.02 338.77 132.866Z" fill="#263238"/>
<path d="M344.128 133.544C344.128 134.39 343.898 135.091 343.608 135.091C343.317 135.091 343.1 134.39 343.1 133.544C343.1 132.697 343.329 131.996 343.608 131.996C343.886 131.996 344.128 132.733 344.128 133.544Z" fill="#263238"/>
<path d="M307.945 160.826C305.811 160.754 303.705 161.323 301.898 162.458C299.346 164.272 299.903 171.371 301.173 179.014C302.442 186.657 309.36 207.928 310.992 211.568C311.772 213.303 313.018 214.787 314.592 215.854C316.166 216.922 318.005 217.531 319.905 217.615C323.363 217.615 346.099 205.425 346.099 205.425L344.091 199.79C344.091 199.79 324.682 204.651 323.291 204.893C321.9 205.135 315.467 172.52 315.467 172.52" fill="#2AACE3"/>
<path d="M307.945 160.826C305.811 160.754 303.705 161.323 301.898 162.458C299.346 164.272 299.903 171.371 301.173 179.014C302.442 186.657 309.36 207.928 310.992 211.568C311.772 213.303 313.018 214.787 314.592 215.854C316.166 216.922 318.005 217.531 319.905 217.615C323.363 217.615 346.099 205.425 346.099 205.425L344.091 199.79C344.091 199.79 324.682 204.651 323.291 204.893C321.9 205.135 315.467 172.52 315.467 172.52" stroke="#263238" stroke-linecap="round" stroke-linejoin="round"/>
<path d="M328.684 201.023C328.684 201.023 321.223 200.83 320.135 200.83C319.046 200.83 313.955 206.659 312.673 208.086C311.391 209.513 312.854 209.9 313.411 210.093C313.967 210.287 317.402 208.811 317.402 208.811C317.402 208.811 314.318 214.858 315.043 215.91C315.769 216.962 317.583 217.724 318.321 216.998C319.309 216.166 320.497 215.603 321.767 215.366C322.459 215.397 323.148 215.264 323.778 214.979C324.409 214.693 324.963 214.262 325.395 213.721C326.858 212.088 329.217 205.546 329.217 205.546L332.844 204.446V201.749L328.684 201.023Z" fill="white" stroke="#263238" stroke-linecap="round" stroke-linejoin="round"/>
<path d="M327.959 200.83L329.954 213.02C329.954 213.02 354.878 206.114 357.962 204.651C361.046 203.188 359.244 195.376 356.874 193.38C354.503 191.385 327.959 200.83 327.959 200.83Z" fill="#2AACE3" stroke="#263238" stroke-linecap="round" stroke-linejoin="round"/>
<path d="M328.322 298.01L349.787 294.189C349.787 294.189 354.697 255.817 352.327 237.266C351.834 233.461 351.128 229.686 350.21 225.959C344.904 228.111 339.309 229.468 333.606 229.986C319.518 231.546 310.097 227.495 306.506 225.548C305.659 228.656 304.837 232.175 304.087 236.166C301.185 252.722 304.655 256.724 309.565 268.527C314.475 280.33 328.322 298.01 328.322 298.01Z" fill="#263238" stroke="#263238" stroke-linecap="round" stroke-linejoin="round"/>
<path d="M332.083 253.084C335.724 259.291 338.437 265.997 340.137 272.99" stroke="white" stroke-width="0.75" stroke-linecap="round" stroke-linejoin="round"/>
<path d="M325.492 243.906C327.01 245.589 328.401 247.384 329.652 249.275" stroke="white" stroke-width="0.75" stroke-linecap="round" stroke-linejoin="round"/>
<path d="M256.524 407.526C287.02 407.526 311.742 401.473 311.742 394.006C311.742 386.539 287.02 380.486 256.524 380.486C226.029 380.486 201.307 386.539 201.307 394.006C201.307 401.473 226.029 407.526 256.524 407.526Z" fill="#2AACE3"/>
<path opacity="0.5" d="M256.524 407.526C287.02 407.526 311.742 401.473 311.742 394.006C311.742 386.539 287.02 380.486 256.524 380.486C226.029 380.486 201.307 386.539 201.307 394.006C201.307 401.473 226.029 407.526 256.524 407.526Z" fill="white"/>
<path d="M252.34 117.641C252.34 117.641 250.309 113.928 248.821 115.222C247.334 116.516 249.752 125.985 251.603 125.429C253.453 124.873 252.34 117.641 252.34 117.641Z" fill="white" stroke="#263238" stroke-linecap="round" stroke-linejoin="round"/>
<path d="M214.707 246.167C226.054 250.938 238.035 254.038 250.272 255.37C269.924 257.353 292.816 243.18 292.816 243.18C292.816 243.18 269.924 207.856 269.682 207.106C269.44 206.356 242.073 205.365 242.073 205.365L214.707 246.167Z" fill="#263238" stroke="#263238" stroke-linecap="round" stroke-linejoin="round"/>
<path d="M231.383 216.757C231.383 216.757 222.252 255.636 222.252 269.495C222.252 283.354 222.252 294.503 221.575 305.665C220.898 316.827 217.185 338.45 218.54 349.612C219.894 360.774 221.575 382.747 221.575 382.747C221.575 382.747 209.748 392.204 209.748 395.59C209.748 398.976 216.847 398.009 222.93 394.236C229.012 390.463 230.705 387.814 230.705 387.814L232.06 389.169L234.092 387.137L234.769 379.7L241.529 318.847L250.998 258.381L267.553 331.061L282.065 381.441L285.451 382.796L286.128 385.831L289.502 387.863L292.888 388.201L296.262 391.237C296.262 391.237 307.086 394.623 309.117 393.945C311.149 393.268 311.137 390.571 305.731 386.508C300.326 382.445 291.22 380.087 291.22 380.087C291.22 380.087 290.204 345.936 287.846 325.994C285.487 306.052 282.428 289.146 282.428 274.949C282.428 260.751 277.712 219.405 277.712 219.405L231.383 216.757Z" fill="#263238" stroke="#263238" stroke-linecap="round" stroke-linejoin="round"/>
<path d="M254.723 140.691L229.484 150.365L231.504 219.78C231.504 219.78 240.078 224.061 255.17 223.843C270.262 223.625 280.566 222.997 280.566 222.997L286.552 147.209L262.208 141.573C262.208 141.573 257.649 140.013 254.723 140.691Z" fill="white" stroke="#263238" stroke-linecap="round" stroke-linejoin="round"/>
<path d="M254.952 152.856L257.649 159.846L249.994 214.156L254.045 223.178L260.805 212.814L259.911 160.294L263.067 153.304L259.451 146.096L254.952 152.856Z" fill="#263238" stroke="#263238" stroke-linecap="round" stroke-linejoin="round"/>
<path d="M254.759 137.51L250.671 142.347L251.421 157.391L259.959 150.522L266.828 160.548C266.828 160.548 269.609 147.366 268.497 143.278C267.384 139.191 263.49 136.591 261.446 136.966C259.403 137.341 254.759 137.51 254.759 137.51Z" fill="white" stroke="#263238" stroke-linecap="round" stroke-linejoin="round"/>
<path d="M253.646 130.46C253.646 130.46 253.646 130.75 253.719 131.246C253.949 133.725 254.662 141.344 255.134 143.823C255.69 146.798 259.584 150.135 261.071 149.579C262.559 149.023 266.09 144.56 266.453 143.085C266.816 141.61 268.315 134.729 268.315 134.729C268.315 134.729 263.478 136.954 261.446 136.954C259.415 136.954 253.646 130.46 253.646 130.46Z" fill="white" stroke="#263238" stroke-linecap="round" stroke-linejoin="round"/>
<path d="M273.08 120.761C273.08 120.761 276.103 117.786 277.143 119.455C278.183 121.124 273.177 129.504 271.556 128.44C269.936 127.376 273.08 120.761 273.08 120.761Z" fill="white" stroke="#263238" stroke-linecap="round" stroke-linejoin="round"/>
<path d="M259.197 104.653C259.197 104.653 254.565 106.636 253.562 108.958C252.558 111.28 250.913 123.47 252.57 129.154C254.227 134.837 258.205 139.747 260.515 140.037C262.825 140.328 268.799 137.389 270.456 132.092C272.113 126.795 273.757 121.208 274.084 117.58C274.41 113.953 277.059 115.924 273.419 110.627C269.779 105.33 262.136 102.67 259.197 104.653Z" fill="white" stroke="#263238" stroke-linecap="round" stroke-linejoin="round"/>
<path d="M260.648 120.241C260.648 121.148 260.322 121.886 259.874 121.898C259.427 121.91 259.028 121.184 259.004 120.277C258.979 119.37 259.33 118.633 259.79 118.621C260.249 118.609 260.624 119.298 260.648 120.241Z" fill="#263238"/>
<path d="M267.094 120.64C267.094 121.547 266.767 122.297 266.32 122.309C265.872 122.321 265.473 121.595 265.449 120.688C265.425 119.781 265.776 119.032 266.223 119.02C266.671 119.007 267.07 119.733 267.094 120.64Z" fill="#263238"/>
<path d="M257.335 116.105C257.76 115.477 258.394 115.02 259.125 114.814C259.855 114.608 260.634 114.667 261.325 114.981" stroke="#263238" stroke-width="0.5" stroke-linecap="round" stroke-linejoin="round"/>
<path d="M264.881 115.622C264.881 115.622 266.985 114.606 269.331 117.339" stroke="#263238" stroke-width="0.5" stroke-linecap="round" stroke-linejoin="round"/>
<path d="M259.354 129.166C260.932 129.916 262.716 130.116 264.421 129.734" stroke="#263238" stroke-width="0.5" stroke-linecap="round" stroke-linejoin="round"/>
<path d="M264.143 117.907C264.143 117.907 265.268 125.756 264.421 126.179C263.575 126.602 261.761 125.61 261.761 125.61" stroke="#263238" stroke-width="0.5" stroke-linecap="round" stroke-linejoin="round"/>
<path d="M254.202 100.892C254.202 100.892 247.89 102.186 248.071 105.524C248.253 108.861 250.49 114.811 250.49 114.811C250.49 114.811 252.715 116.105 252.34 117.593C251.965 119.08 252.159 122.236 253.465 121.124C254.771 120.011 254.021 115.924 254.577 115.368C255.215 114.968 255.749 114.424 256.136 113.778C256.523 113.133 256.751 112.405 256.802 111.655C256.802 109.43 255.496 107.386 255.871 106.818C256.246 106.249 262.74 106.999 265.897 108.487C269.053 109.974 273.322 112.381 272.209 114.799C271.857 115.374 271.704 116.048 271.771 116.719C271.839 117.389 272.124 118.019 272.584 118.512C272.584 118.512 271.278 122.043 272.209 122.974C273.14 123.905 274.253 119.818 274.253 119.818C274.877 119.692 275.446 119.373 275.88 118.906C276.314 118.44 276.591 117.85 276.672 117.218C277.491 114.256 277.741 111.166 277.409 108.112C276.853 105.149 270.722 100.13 264.046 99.9488C257.371 99.7674 254.202 100.892 254.202 100.892Z" fill="#263238" stroke="#263238" stroke-linecap="round" stroke-linejoin="round"/>
<path d="M254.94 104.097C254.94 104.097 262.559 110.772 269.053 113.372C275.547 115.972 283.903 111.147 284.278 107.434C284.653 103.722 278.341 98.3403 276.672 98.1469C275.003 97.9534 277.591 95.7282 271.472 93.878C265.353 92.0277 251.784 93.1403 251.046 96.8529C250.309 100.565 254.94 104.097 254.94 104.097Z" fill="#263238" stroke="#263238" stroke-linecap="round" stroke-linejoin="round"/>
<path d="M251.566 141.815C251.566 141.815 250.672 184.637 245.52 199.282C240.368 213.927 233.802 228.584 228.166 233.772C222.531 238.96 212.614 255.406 212.614 255.406C212.614 255.406 209.228 248.864 209.228 246.844C209.228 244.825 224.949 230.386 226.364 229.031C227.779 227.677 228.396 220.699 228.396 210.335C228.396 199.971 225.917 151.284 225.917 150.377C225.917 149.47 247.285 140.691 251.566 141.815Z" fill="#2AACE3" stroke="#263238" stroke-linecap="round" stroke-linejoin="round"/>
<path d="M225.881 150.377L225.385 151.127C222.303 156.83 219.569 162.714 217.198 168.747C213.013 178.929 201.984 195.799 204.355 199.173C206.725 202.547 212.82 204.579 216.52 200.527C220.221 196.476 229.363 179.231 229.363 179.231C229.363 179.231 228.13 153.981 225.881 150.377Z" fill="#2AACE3" stroke="#263238" stroke-linecap="round" stroke-linejoin="round"/>
<path d="M268.025 142.263C268.025 142.263 268.472 171.794 269.367 192.074C270.262 212.354 272.995 220.022 275.232 223.855C277.47 227.689 293.941 253.157 293.941 253.157C293.941 253.157 297.774 245.26 297.315 242.104C296.855 238.947 284.919 218.897 284.919 217.772C284.919 216.648 290.107 150.159 289.2 148.358C288.293 146.556 268.025 142.263 268.025 142.263Z" fill="#2AACE3" stroke="#263238" stroke-linecap="round" stroke-linejoin="round"/>
<path d="M246.838 144.524L240.296 160.753L245.484 165.929L239.848 172.242L243.004 196.355" stroke="#263238" stroke-linecap="round" stroke-linejoin="round"/>
<path d="M271.169 144.742L277.264 159.169L270.504 163.22L277.264 173.826L270.722 190.95" stroke="#263238" stroke-linecap="round" stroke-linejoin="round"/>
<path d="M231.395 230.615L232.532 233.566L224.502 239.758L221.974 234.026L231.395 230.615Z" fill="white" stroke="#263238" stroke-linecap="round" stroke-linejoin="round"/>
<path d="M215.505 194.445L231.383 230.615L219.556 239.746C219.556 239.746 202.359 203.563 202.359 200.528C202.359 197.492 206.084 191.397 207.765 190.381" fill="#2AACE3"/>
<path d="M215.505 194.445L231.383 230.615L219.556 239.746C219.556 239.746 202.359 203.563 202.359 200.528C202.359 197.492 206.084 191.397 207.765 190.381" stroke="#263238" stroke-linecap="round" stroke-linejoin="round"/>
<path d="M232.532 233.566L235.289 234.945L227.706 245.272L224.502 239.758L232.532 233.566Z" fill="white" stroke="#263238" stroke-linecap="round" stroke-linejoin="round"/>
<path d="M274.604 231.135L273.177 233.965L280.554 240.931L283.637 235.477L274.604 231.135Z" fill="white" stroke="#263238" stroke-linecap="round" stroke-linejoin="round"/>
<path d="M289.2 148.358C289.2 148.358 292.683 152.07 293.142 155.505C293.602 158.939 305.768 199.354 306.227 201.193C306.687 203.031 302.091 206.03 297.496 206.707C292.901 207.384 287.168 189.486 287.168 189.486L289.2 148.358Z" fill="#2AACE3" stroke="#263238" stroke-linecap="round" stroke-linejoin="round"/>
<path d="M294.025 196.73L274.604 231.135L285.487 241.402C285.487 241.402 306.251 207.13 306.554 204.107C306.856 201.084 303.772 194.65 302.188 193.477" fill="#2AACE3"/>
<path d="M294.025 196.73L274.604 231.135L285.487 241.402C285.487 241.402 306.251 207.13 306.554 204.107C306.856 201.084 303.772 194.65 302.188 193.477" stroke="#263238" stroke-linecap="round" stroke-linejoin="round"/>
<path d="M273.177 233.965L270.299 235.053L276.805 246.095L280.554 240.931L273.177 233.965Z" fill="white" stroke="#263238" stroke-linecap="round" stroke-linejoin="round"/>
</svg>
