<svg xmlns="http://www.w3.org/2000/svg" width="345.306" height="285.508" viewBox="0 0 345.306 285.508">
  <g id="Working_remotely-bro" data-name="Working remotely-bro" transform="translate(-11.53 -31.24)">
    <g id="freepik--background-simple--inject-78" transform="translate(35.369 208.608)">
      <path id="Path_523" data-name="Path 523" d="M51.813,325.945Z" transform="translate(-44.272 -309.222)" fill="#2bace3"/>
    </g>
    <g id="freepik--Files--inject-78" transform="translate(28.126 31.764)">
      <line id="Line_14" data-name="Line 14" x2="264.94" y2="217.981" transform="translate(51.203 58.151)" fill="none" stroke="#263238" stroke-linecap="round" stroke-miterlimit="10" stroke-width="1"/>
      <path id="Path_525" data-name="Path 525" d="M120.483,61.234c1.331-6.286-1.745-12.662-7.807-16.183a20.119,20.119,0,0,0-19.968.051C88.3,35.6,76.87,30.185,65.438,32.173S45.775,43,45.8,53.26c0,.261,0,.523,0,.79-7.222,1.8-12.021,7.814-11.5,14.407s6.23,11.958,13.667,12.853v.147h71.736c6.343.188,11.658-4.186,11.872-9.771S126.825,61.422,120.483,61.234Z" transform="translate(-34.265 -31.764)" fill="none" stroke="#263238" stroke-miterlimit="10" stroke-width="1"/>
      <line id="Line_15" data-name="Line 15" y1="0.956" transform="translate(140.791 92.135)" fill="none" stroke="#263238" stroke-linecap="round" stroke-linejoin="round" stroke-width="1"/>
      <line id="Line_16" data-name="Line 16" y1="67.134" transform="translate(140.791 23.115)" fill="none" stroke="#263238" stroke-linecap="round" stroke-linejoin="round" stroke-width="1" stroke-dasharray="2.967 2.967"/>
      <path id="Path_526" data-name="Path 526" d="M228.346,66.006V65.05H227.26" transform="translate(-87.555 -43.835)" fill="none" stroke="#263238" stroke-linecap="round" stroke-linejoin="round" stroke-width="1"/>
      <line id="Line_17" data-name="Line 17" x1="42.702" transform="translate(94.817 21.215)" fill="none" stroke="#263238" stroke-linecap="round" stroke-linejoin="round" stroke-width="1" stroke-dasharray="3.025 3.025"/>
      <line id="Line_18" data-name="Line 18" x1="1.086" transform="translate(92.638 21.215)" fill="none" stroke="#263238" stroke-linecap="round" stroke-linejoin="round" stroke-width="1"/>
      <path id="Path_527" data-name="Path 527" d="M231,176.37l-3.612,5.5-3.6-5.5Z" transform="translate(-86.594 -84.203)" fill="#263238"/>
      <path id="Path_528" data-name="Path 528" d="M236.479,119.695h-26.9V86.8h19.067l7.832,6.839Z" transform="translate(-82.673 -51.722)" fill="#fff" stroke="#263238" stroke-linecap="round" stroke-linejoin="round" stroke-width="1"/>
      <path id="Path_529" data-name="Path 529" d="M235.92,86.8v6.718h7.832Z" transform="translate(-89.946 -51.722)" fill="#fff" stroke="#263238" stroke-linecap="round" stroke-linejoin="round" stroke-width="1"/>
      <line id="Line_19" data-name="Line 19" x2="18.582" transform="translate(131.062 46.149)" fill="none" stroke="#263238" stroke-linecap="round" stroke-linejoin="round" stroke-width="1"/>
      <line id="Line_20" data-name="Line 20" x2="18.582" transform="translate(131.062 50.611)" fill="none" stroke="#263238" stroke-linecap="round" stroke-linejoin="round" stroke-width="1"/>
      <line id="Line_21" data-name="Line 21" x2="18.582" transform="translate(131.062 55.072)" fill="none" stroke="#263238" stroke-linecap="round" stroke-linejoin="round" stroke-width="1"/>
      <line id="Line_22" data-name="Line 22" x2="18.582" transform="translate(131.062 59.534)" fill="none" stroke="#263238" stroke-linecap="round" stroke-linejoin="round" stroke-width="1"/>
      <path id="Path_530" data-name="Path 530" d="M164.719,69.745h-26.9V36.85h19.067l7.832,6.839Z" transform="translate(-62.859 -33.609)" fill="#fff" stroke="#263238" stroke-linecap="round" stroke-linejoin="round" stroke-width="1"/>
      <path id="Path_531" data-name="Path 531" d="M164.16,36.85v6.718h7.832Z" transform="translate(-70.132 -33.609)" fill="#fff" stroke="#263238" stroke-linecap="round" stroke-linejoin="round" stroke-width="1"/>
      <line id="Line_23" data-name="Line 23" x2="18.582" transform="translate(79.116 14.313)" fill="none" stroke="#263238" stroke-linecap="round" stroke-linejoin="round" stroke-width="1"/>
      <line id="Line_24" data-name="Line 24" x2="18.582" transform="translate(79.116 18.774)" fill="none" stroke="#263238" stroke-linecap="round" stroke-linejoin="round" stroke-width="1"/>
      <line id="Line_25" data-name="Line 25" x2="18.582" transform="translate(79.116 23.236)" fill="none" stroke="#263238" stroke-linecap="round" stroke-linejoin="round" stroke-width="1"/>
      <line id="Line_26" data-name="Line 26" x2="18.582" transform="translate(79.116 27.697)" fill="none" stroke="#263238" stroke-linecap="round" stroke-linejoin="round" stroke-width="1"/>
      <line id="Line_27" data-name="Line 27" y1="181.561" transform="translate(34.844 63.339)" fill="none" stroke="#263238" stroke-linecap="round" stroke-linejoin="round" stroke-width="1" stroke-dasharray="3 3"/>
      <path id="Path_532" data-name="Path 532" d="M84.627,129.467l-3.6-5.507-3.612,5.507Z" transform="translate(-46.178 -65.197)" fill="#263238"/>
      <path id="Path_533" data-name="Path 533" d="M91.262,349.865H64.37V316.97H83.43l7.832,6.839Z" transform="translate(-42.578 -135.188)" fill="#fff" stroke="#263238" stroke-linecap="round" stroke-linejoin="round" stroke-width="1"/>
      <path id="Path_534" data-name="Path 534" d="M90.7,316.97v6.718h7.832Z" transform="translate(-49.848 -135.188)" fill="#fff" stroke="#263238" stroke-linecap="round" stroke-linejoin="round" stroke-width="1"/>
      <line id="Line_28" data-name="Line 28" x2="18.582" transform="translate(25.947 192.853)" fill="none" stroke="#263238" stroke-linecap="round" stroke-linejoin="round" stroke-width="1"/>
      <line id="Line_29" data-name="Line 29" x2="18.582" transform="translate(25.947 197.314)" fill="none" stroke="#263238" stroke-linecap="round" stroke-linejoin="round" stroke-width="1"/>
      <line id="Line_30" data-name="Line 30" x2="18.582" transform="translate(25.947 201.776)" fill="none" stroke="#263238" stroke-linecap="round" stroke-linejoin="round" stroke-width="1"/>
      <line id="Line_31" data-name="Line 31" x2="18.582" transform="translate(25.947 206.237)" fill="none" stroke="#263238" stroke-linecap="round" stroke-linejoin="round" stroke-width="1"/>
      <path id="Path_535" data-name="Path 535" d="M91.262,212.865H64.37V179.97H83.43l7.832,6.839Z" transform="translate(-42.578 -85.508)" fill="#fff" stroke="#263238" stroke-linecap="round" stroke-linejoin="round" stroke-width="1"/>
      <path id="Path_536" data-name="Path 536" d="M90.7,179.97v6.718h7.832Z" transform="translate(-49.848 -85.508)" fill="#fff" stroke="#263238" stroke-linecap="round" stroke-linejoin="round" stroke-width="1"/>
      <line id="Line_32" data-name="Line 32" x2="18.582" transform="translate(25.947 105.533)" fill="none" stroke="#263238" stroke-linecap="round" stroke-linejoin="round" stroke-width="1"/>
      <line id="Line_33" data-name="Line 33" x2="18.582" transform="translate(25.947 109.995)" fill="none" stroke="#263238" stroke-linecap="round" stroke-linejoin="round" stroke-width="1"/>
      <line id="Line_34" data-name="Line 34" x2="18.582" transform="translate(25.947 114.456)" fill="none" stroke="#263238" stroke-linecap="round" stroke-linejoin="round" stroke-width="1"/>
      <line id="Line_35" data-name="Line 35" x2="18.582" transform="translate(25.947 118.918)" fill="none" stroke="#263238" stroke-linecap="round" stroke-linejoin="round" stroke-width="1"/>
    </g>
    <g id="freepik--character-2--inject-78" transform="translate(128.003 53.99)">
      <path id="Path_537" data-name="Path 537" d="M276.671,157.09s-19.371,6.476-22.339,8.866-20.1,50.958-20.1,50.958H353.67s-8.853-32.621-11.025-43.634S330.875,159.894,326,159.028,276.671,157.09,276.671,157.09Z" transform="translate(-189.357 -99.437)" fill="#263238" stroke="#263238" stroke-linecap="round" stroke-linejoin="round" stroke-width="1"/>
      <path id="Path_538" data-name="Path 538" d="M336.943,169.02l-2.563,50.594h20.71l-8.325-55.024Z" transform="translate(-217.01 -102.156)" fill="#2bace3" stroke="#263238" stroke-linecap="round" stroke-linejoin="round" stroke-width="1"/>
      <path id="Path_539" data-name="Path 539" d="M294.131,146.554s-3.2,4.137-2.563,5.456,7.9,11.281,15.165,12.41,16.439-2.447,21.354-5.1,11.314-4.7,12.378-5.265-2.772-5.1-4.481-5.826-3.844-1.912-3.844-1.912-2.345-2.632-2.772-3.187-.644-1.5-1.281-2.256a2.935,2.935,0,0,0-2.135-1.128c-1.071-.185-2.563,4.513-8.969,5.456s-22,1.5-22,1.5Z" transform="translate(-205.166 -93.146)" fill="#2bace3" stroke="#263238" stroke-linecap="round" stroke-linejoin="round" stroke-width="1"/>
      <path id="Path_540" data-name="Path 540" d="M322.58,166.37s12.386-5.456,13.877-9.777,1.5-11.473,1.5-11.473" transform="translate(-213.752 -95.096)" fill="none" stroke="#263238" stroke-linecap="round" stroke-linejoin="round" stroke-width="1"/>
      <path id="Path_541" data-name="Path 541" d="M335.56,163.487s5.335-2.065,7.043-4.889,1.708-8.458,1.708-8.458" transform="translate(-217.336 -96.916)" fill="none" stroke="#263238" stroke-linecap="round" stroke-linejoin="round" stroke-width="1"/>
      <path id="Path_542" data-name="Path 542" d="M285.647,106.5c-.232.765,4.77,22.6,8.354,28.121s11.039,8.668,15.52,6.833c5.183-2.135,10.894-6.323,13.37-10.969.456-.86,2.982-10.16,2.447-10.319,0,0,3.583,1.052,5.067-4.729s2.686-9.2.9-12.352-11.93-10.51-21.188-9.178S287.138,101.513,285.647,106.5Z" transform="translate(-203.552 -76.467)" fill="#fff" stroke="#263238" stroke-linecap="round" stroke-linejoin="round" stroke-width="1"/>
      <path id="Path_543" data-name="Path 543" d="M304.015,89.813s-13.131,8.923-22.086,9.726-8.947-2.868-8.947-2.868-11.64,2.894-10.446-4.991,19.132-14.194,19.132-14.194-6.269-1.574-3.286-4.462,14.326-6.049,21.789-5.258,10.742,2.365,10.742,2.365-2.092-4.729,2.389-3.187,8.317,9.229,8.317,9.229,7.76.529,8.361,2.365S325.5,80.89,325.5,80.89s4.778,7.884,2.389,12.352-7.463,5.781-7.76,6.571.9,3.678-1.491,2.626-3.286-5.52-3.286-5.52-3.576-3.149-3.88-4.462-.594-2.887-.594-2.887-2.092,5.52-6.862,6.3S304.015,89.813,304.015,89.813Z" transform="translate(-197.149 -66.635)" fill="#263238" stroke="#263238" stroke-linecap="round" stroke-linejoin="round" stroke-width="1"/>
      <path id="Path_544" data-name="Path 544" d="M303.6,132.73s-5.965,11.562-2.686,11.823,6.269-2.894,6.269-2.894" transform="translate(-207.498 -90.603)" fill="#fff" stroke="#263238" stroke-linecap="round" stroke-linejoin="round" stroke-width="1"/>
      <path id="Path_545" data-name="Path 545" d="M305.44,153.419s3.88,3.678,11.039-1.319" transform="translate(-209.019 -97.627)" fill="none" stroke="#263238" stroke-linecap="round" stroke-linejoin="round" stroke-width="1"/>
      <path id="Path_546" data-name="Path 546" d="M316.24,136.35s.724,2.377,6.131,1.944" transform="translate(-212.001 -91.916)" fill="none" stroke="#263238" stroke-linecap="round" stroke-linejoin="round" stroke-width="1"/>
      <path id="Path_547" data-name="Path 547" d="M299.247,135.67s-1.716,1.944-3.677,1.944" transform="translate(-206.294 -91.669)" fill="none" stroke="#263238" stroke-linecap="round" stroke-linejoin="round" stroke-width="1"/>
      <path id="Path_548" data-name="Path 548" d="M326,126.963s-13.833-.261-15.325.268-1.788,3.678-.9,5.781S312.769,138,318.14,138s8.057-2.365,9.845-6.833S326,126.963,326,126.963Z" transform="translate(-210.079 -88.488)" fill="none" stroke="#263238" stroke-linecap="round" stroke-linejoin="round" stroke-width="1"/>
      <path id="Path_549" data-name="Path 549" d="M284.509,126.963s10.648-.261,11.8.268,1.375,3.678.724,5.781S294.73,138,290.6,138s-6.2-2.365-7.579-6.833S284.509,126.963,284.509,126.963Z" transform="translate(-202.725 -88.488)" fill="none" stroke="#263238" stroke-linecap="round" stroke-linejoin="round" stroke-width="1"/>
      <line id="Line_36" data-name="Line 36" y1="5.29" x2="4.546" transform="translate(118.557 34.67)" fill="none" stroke="#263238" stroke-linecap="round" stroke-linejoin="round" stroke-width="1"/>
      <line id="Line_37" data-name="Line 37" x1="7.087" transform="translate(93.511 38.711)" fill="none" stroke="#263238" stroke-linecap="round" stroke-linejoin="round" stroke-width="1"/>
      <line id="Line_38" data-name="Line 38" x1="4.394" transform="translate(94.387 41.248)" fill="none" stroke="#263238" stroke-linecap="round" stroke-linejoin="round" stroke-width="1"/>
      <line id="Line_39" data-name="Line 39" y1="1.931" x2="3.373" transform="translate(80.177 37.767)" fill="none" stroke="#263238" stroke-linecap="round" stroke-linejoin="round" stroke-width="1"/>
      <path id="Path_550" data-name="Path 550" d="M319.913,133.345c0,.982-.528,1.785-1.18,1.785s-1.173-.8-1.173-1.785.528-1.785,1.173-1.785S319.913,132.357,319.913,133.345Z" transform="translate(-212.366 -90.179)" fill="#263238"/>
      <path id="Path_551" data-name="Path 551" d="M298.375,132.165c0,.988-.521,1.785-1.173,1.785s-1.173-.8-1.173-1.785.528-1.785,1.173-1.785S298.375,131.177,298.375,132.165Z" transform="translate(-206.421 -89.751)" fill="#263238"/>
      <path id="Path_552" data-name="Path 552" d="M291.6,123.137s4.271-1.5,6.406-.376" transform="translate(-205.198 -86.836)" fill="none" stroke="#263238" stroke-linecap="round" stroke-linejoin="round" stroke-width="2"/>
      <path id="Path_553" data-name="Path 553" d="M314,123.064a13.326,13.326,0,0,1,8.759.752" transform="translate(-211.383 -86.947)" fill="none" stroke="#263238" stroke-linecap="round" stroke-linejoin="round" stroke-width="2"/>
      <path id="Path_554" data-name="Path 554" d="M212.267,240.049a14.86,14.86,0,0,0-10.793-1.275c-5.885,1.511-8.824,6.049-8.824,7.559h24.764a9.626,9.626,0,0,0-5.147-6.284Z" transform="translate(-177.876 -128.882)" fill="gray" stroke="#263238" stroke-linecap="round" stroke-linejoin="round" stroke-width="1"/>
      <path id="Path_555" data-name="Path 555" d="M197.3,232.92s-3.185,4.1-3.185,5.615-1.716,3.021.724,3.671,3.923-6.909,3.923-7.77S197.3,232.92,197.3,232.92Z" transform="translate(-178.119 -126.935)" fill="#fff" stroke="#263238" stroke-linecap="round" stroke-linejoin="round" stroke-width="1"/>
      <path id="Path_556" data-name="Path 556" d="M202.213,232.45s-3.431-.637-4.416.217-2.693,8.426-2.447,9.286,2.693,1.077,3.431.217S202.213,232.45,202.213,232.45Z" transform="translate(-178.615 -126.681)" fill="#fff" stroke="#263238" stroke-linecap="round" stroke-linejoin="round" stroke-width="1"/>
      <path id="Path_557" data-name="Path 557" d="M217.872,235.217s-10.3-3.244-12.509-4.538-3.431,1.275-4.17,2.811-2.454,6.909-2.454,8.42,2.7,2.154,3.192.427S206.348,235,206.348,235l5.147,1.727s.492.637-1.716,1.944-5.393,4.1-4.416,4.532,3.923.217,4.908-.637,6.124-1.944,6.124-1.944a53.5,53.5,0,0,0,5.646,2.811c.984.217,7.108-.867,7.108-.867s-6.87-5.182-7.847-5.826A22.315,22.315,0,0,0,217.872,235.217Z" transform="translate(-179.557 -125.994)" fill="#fff" stroke="#263238" stroke-linecap="round" stroke-linejoin="round" stroke-width="1"/>
      <path id="Path_558" data-name="Path 558" d="M348.913,232.525h-5.147c-2.208,0-6.624-1.275-6.87.86s4.908,3.455,7.355,3.455,3.923-.86,6.87.433,4.662,2.161,4.662,2.161l-3.438-4.755Z" transform="translate(-217.703 -126.655)" fill="#fff" stroke="#263238" stroke-linecap="round" stroke-linejoin="round" stroke-width="1"/>
      <path id="Path_559" data-name="Path 559" d="M370.854,240.893s-4.662-8.853-6.87-11.658-15.2-4.965-16.649-4.965-5.154,7.126-4.662,8.853,1.448-.217,2.172-1.275,3.431-4.1,3.431-4.1,4.17,6.042,5.885,9.28,5.154,3.671,7.116,4.1S370.854,240.893,370.854,240.893Z" transform="translate(-219.288 -123.798)" fill="#fff" stroke="#263238" stroke-linecap="round" stroke-linejoin="round" stroke-width="1"/>
      <path id="Path_560" data-name="Path 560" d="M359.647,227.365s-4.662-5.4-7.116-4.538-6.37,11.23-6.862,12.524,2.454.433,2.939-.637,4.908-6.692,4.908-6.692l3.923,2.161" transform="translate(-220.112 -123.241)" fill="#fff" stroke="#263238" stroke-linecap="round" stroke-linejoin="round" stroke-width="1"/>
      <path id="Path_561" data-name="Path 561" d="M364.575,228.135s-4.9-3.671-6.624-3.244-7.847,11.014-6.862,11.473,2.939-.433,3.923-1.727,2.939-4.321,2.939-4.321l3.685,2.377" transform="translate(-221.595 -124.01)" fill="#fff" stroke="#263238" stroke-linecap="round" stroke-linejoin="round" stroke-width="1"/>
      <path id="Path_562" data-name="Path 562" d="M369.138,232.573s-2.4-4.251-4.112-3.6-7.6,8.636-5.885,8.636,6.87-4.748,6.87-4.748a19.979,19.979,0,0,0,0,5.609" transform="translate(-223.762 -125.478)" fill="#fff" stroke="#263238" stroke-linecap="round" stroke-linejoin="round" stroke-width="1"/>
      <rect id="Rectangle_413" data-name="Rectangle 413" width="64.346" height="1.753" transform="translate(138.5 117.458) rotate(180)" fill="gray" stroke="#263238" stroke-linecap="round" stroke-linejoin="round" stroke-width="1"/>
      <path id="Path_563" data-name="Path 563" d="M209.79,190.35h64.628l13.095,38.605H222.885Z" transform="translate(-182.608 -111.498)" fill="gray" stroke="#263238" stroke-linecap="round" stroke-linejoin="round" stroke-width="1"/>
      <line id="Line_40" data-name="Line 40" x2="228.333" transform="translate(0 117.458)" fill="none" stroke="#263238" stroke-linecap="round" stroke-linejoin="round" stroke-width="1"/>
    </g>
    <g id="freepik--Clock--inject-78" transform="translate(72.785 159.07)">
      <ellipse id="Ellipse_29" data-name="Ellipse 29" cx="26.422" cy="23.264" rx="26.422" ry="23.264" transform="translate(0 0)" fill="none" stroke="#b2b2b2" stroke-miterlimit="10" stroke-width="1"/>
      <ellipse id="Ellipse_30" data-name="Ellipse 30" cx="21.137" cy="18.611" rx="21.137" ry="18.611" transform="translate(5.284 4.653)" fill="none" stroke="#b2b2b2" stroke-miterlimit="10" stroke-width="1"/>
      <path id="Path_564" data-name="Path 564" d="M127.91,266.354a3.321,3.321,0,1,0,3.294-2.894A3.114,3.114,0,0,0,127.91,266.354Z" transform="translate(-104.782 -243.09)" fill="none" stroke="#b2b2b2" stroke-miterlimit="10" stroke-width="1"/>
      <line id="Line_41" data-name="Line 41" y2="10.969" transform="translate(26.422 26.158)" fill="none" stroke="#b2b2b2" stroke-miterlimit="10" stroke-width="1"/>
      <line id="Line_42" data-name="Line 42" x2="7.738" transform="translate(29.708 23.264)" fill="none" stroke="#b2b2b2" stroke-miterlimit="10" stroke-width="1"/>
    </g>
    <g id="freepik--character-1--inject-78" transform="translate(12.03 176.196)">
      <line id="Line_43" data-name="Line 43" x1="307.627" transform="translate(0 139.935)" fill="none" stroke="#263238" stroke-linecap="round" stroke-linejoin="round" stroke-width="1"/>
      <path id="Path_565" data-name="Path 565" d="M184.486,349s-1.933,11.664,0,13.856,6.348,3.888,12.7,5.59,10.489-1.95,16.555,4.13,11.046,21.626,14.355,26.489,7.181,12.4,8.042,18.012-1.933,8.745-7.456,9.478-15.2-11.179-16.28-12.881-6.385-7.311-6.385-7.311-3.04,19.688-3.04,20.657.275,4.13.275,4.13H123.76s6.073-29.16,7.724-39.37.832-17.011,7.456-20.657,12.7-2.671,17.113-3.888,7.174-2.186,7.456-4.372.275-12.4.275-12.4Z" transform="translate(-42.881 -291.235)" fill="#2bace3" stroke="#263238" stroke-linecap="round" stroke-linejoin="round" stroke-width="1"/>
      <path id="Path_566" data-name="Path 566" d="M113.853,459.88,77.5,468.306l2.874,3.085H121.83" transform="translate(-30.108 -331.443)" fill="#2bace3" stroke="#263238" stroke-linecap="round" stroke-linejoin="round" stroke-width="1"/>
      <path id="Path_567" data-name="Path 567" d="M63.617,467.049a14.844,14.844,0,0,0-10.786-1.275C46.946,467.285,44,471.823,44,473.334H68.771a9.622,9.622,0,0,0-5.154-6.284Z" transform="translate(-20.858 -333.405)" fill="gray" stroke="#263238" stroke-linecap="round" stroke-linejoin="round" stroke-width="1"/>
      <path id="Path_568" data-name="Path 568" d="M48.659,459.92s-3.192,4.1-3.192,5.615-1.716,3.021.724,3.671,3.923-6.909,3.923-7.77S48.659,459.92,48.659,459.92Z" transform="translate(-21.101 -331.458)" fill="#fff" stroke="#263238" stroke-linecap="round" stroke-linejoin="round" stroke-width="1"/>
      <path id="Path_569" data-name="Path 569" d="M53.571,459.459s-3.438-.637-4.416.21-2.7,8.426-2.454,9.286,2.7,1.077,3.431.217S53.571,459.459,53.571,459.459Z" transform="translate(-21.597 -331.207)" fill="#fff" stroke="#263238" stroke-linecap="round" stroke-linejoin="round" stroke-width="1"/>
      <path id="Path_570" data-name="Path 570" d="M79.533,465.277l-5.791-.58a9.069,9.069,0,0,0-1.071-.962,22.028,22.028,0,0,0-3.446-1.517s-10.3-3.244-12.509-4.538-3.431,1.275-4.162,2.811S50.1,467.4,50.1,468.91s2.693,2.154,3.185.427S57.7,462,57.7,462l5.147,1.727s.492.637-1.716,1.944-5.393,4.1-4.416,4.532,3.923.217,4.908-.637,6.131-1.912,6.131-1.912a54,54,0,0,0,5.639,2.811,12.827,12.827,0,0,0,1.911.1h5.979A5.132,5.132,0,0,0,79.533,465.277Z" transform="translate(-22.542 -330.517)" fill="#fff" stroke="#263238" stroke-linecap="round" stroke-linejoin="round" stroke-width="1"/>
      <path id="Path_571" data-name="Path 571" d="M66.21,468.411s2.172-2.18,3.931-2.441" transform="translate(-26.99 -333.652)" fill="none" stroke="#263238" stroke-linecap="round" stroke-linejoin="round" stroke-width="1"/>
      <path id="Path_572" data-name="Path 572" d="M260.751,442.11a76.939,76.939,0,0,1,7.695,2.645c3.569,1.485,4.886,5.1,4.343,9.592s-4.133,7.942-9.41,6.616-8.078-5.1-8.267-8.107S253.4,443.1,260.751,442.11Z" transform="translate(-79.079 -324.999)" fill="#fff" stroke="#263238" stroke-linecap="round" stroke-linejoin="round" stroke-width="1"/>
      <path id="Path_573" data-name="Path 573" d="M176.262,382.578c-12.422-.389-20.479-7.126-25.292-13.3,4.843-1.428,9.208-1.084,12.6-2.014,4.416-1.217,7.174-2.186,7.456-4.372s.275-12.4.275-12.4l20.7-1.46s-1.933,11.664,0,13.856,6.348,3.888,12.7,5.59c2.78.739,5.132.459,7.42.421A50.449,50.449,0,0,1,176.262,382.578Z" transform="translate(-50.394 -291.249)" fill="#fff" stroke="#263238" stroke-linecap="round" stroke-linejoin="round" stroke-width="1"/>
      <path id="Path_574" data-name="Path 574" d="M179,357.8a28.432,28.432,0,0,0,5.14,3.474c3.315,1.644,8.991.185,10.648-1.638.811-.892,2.483-2.651,4.271-4.768.253-3.078.724-5.832.724-5.832l-20.7,1.46S179.036,354.33,179,357.8Z" transform="translate(-58.134 -291.249)" fill="#263238" stroke="#263238" stroke-linecap="round" stroke-linejoin="round" stroke-width="1"/>
      <path id="Path_575" data-name="Path 575" d="M245.775,407.314s-11.271,13.066-12.4,18.528-4.7,18.675-4.7,18.675-10.894,4.137-17.844,4.3-18.973-.829-18.973-.829,7.7-17.5,10.706-26.285a89.188,89.188,0,0,0,3.757-13.729s17.1,1.982,26.863,0L247.838,405Z" transform="translate(-61.685 -311.542)" fill="#fff" stroke="#263238" stroke-linecap="round" stroke-linejoin="round" stroke-width="1"/>
      <path id="Path_576" data-name="Path 576" d="M256.939,441.867s-1.375-15.3-3.033-15.794-11.582-1.7-14.355-1.217-3.619,1.46-1.375,1.944,6.066.975,7.724,1.217a54.77,54.77,0,0,1,5.523,1.46s-6.073.727-8.556.727-8.281,2.186-8.556,3.187a2.053,2.053,0,0,0,.275,1.7,2.478,2.478,0,0,0,.043,1.523c.275.975,6.855.491,8.513.733s4.966.943,4.966.943-9.657-.484-9.657,1.217,4.133,1.453,5.791,1.453a12.022,12.022,0,0,1,5.523,1.944c.825.733.55,4.544,3.033,5.277a14.639,14.639,0,0,0,3.315.727" transform="translate(-73.385 -318.702)" fill="#fff" stroke="#263238" stroke-linecap="round" stroke-linejoin="round" stroke-width="1"/>
      <path id="Path_577" data-name="Path 577" d="M234.72,440.424s11.039-2.193,16.562.242" transform="translate(-73.519 -324.059)" fill="none" stroke="#263238" stroke-linecap="round" stroke-linejoin="round" stroke-width="1"/>
      <path id="Path_578" data-name="Path 578" d="M150.593,420.35s-4.416,13.608-3.583,18.484a58.444,58.444,0,0,0,3.583,11.179c.275.733-.97,6.495-.97,6.495" transform="translate(-49.272 -317.108)" fill="none" stroke="#263238" stroke-linecap="round" stroke-linejoin="round" stroke-width="1"/>
      <path id="Path_579" data-name="Path 579" d="M138.047,286.268c2.483-2.186,0-3.4.275-5.832s3.033-3.646,4.416-4.13.825-1.7,1.108-4.379,3.583-3.646,5.791-4.372.832-1.912,1.933-3.888,7.181-1.46,7.181-1.46,1.375-2.186,3.033-2.186,2.758,1.944,4.966.242,4.141-2.428,7.181-1.46a24.162,24.162,0,0,0,3.019.841,23.91,23.91,0,0,0,3.026-.841c3.033-.969,4.966-.242,7.174,1.46s3.315-.242,4.973-.242,3.033,2.186,3.033,2.186,6.073-.484,7.181,1.46-.282,3.155,1.926,3.888,5.523,1.7,5.791,4.372-.275,3.888,1.108,4.379,4.141,1.7,4.416,4.13-2.172,3.646.275,5.832,4.966,3.888,2.758,5.348-4.416,1.944-4.141,4.13,3.04,4.863.832,6.074-4.416,1.217-4.416,3.4.825,5.348-1.658,5.832-6.073,0-6.073,1.46-.275,4.13-4.141,3.646-5.241-1.46-6.073.484a4.736,4.736,0,0,1-4.966,2.919c-2.208-.268-5.248-.484-7.181.969a7.21,7.21,0,0,1-3.286,1.2v.083h-1.129v-.083a7.272,7.272,0,0,1-3.286-1.2c-1.933-1.453-4.966-1.211-7.174-.969a4.762,4.762,0,0,1-4.966-2.919c-.825-1.944-2.208-.969-6.073-.484s-4.141-2.186-4.141-3.646-3.619-.969-6.073-1.46-1.658-3.646-1.658-5.832-2.172-2.186-4.416-3.4.55-3.888.825-6.074-1.933-2.671-4.141-4.13S135.564,288.454,138.047,286.268Z" transform="translate(-45.825 -258.37)" fill="#263238" stroke="#263238" stroke-linecap="round" stroke-linejoin="round" stroke-width="1"/>
      <path id="Path_580" data-name="Path 580" d="M167.663,321.658s-3.142-4.149-5.031-2.212-1.252,6.915,1.26,9.408a5.664,5.664,0,0,0,5.335,1.657" transform="translate(-53.311 -280.331)" fill="#fff" stroke="#263238" stroke-linecap="round" stroke-linejoin="round" stroke-width="1"/>
      <path id="Path_581" data-name="Path 581" d="M215.366,321.552s3.67-3.824,5.284-1.683.326,7.011-2.5,9.21a5.823,5.823,0,0,1-5.523,1.1" transform="translate(-67.42 -280.435)" fill="#fff" stroke="#263238" stroke-linecap="round" stroke-linejoin="round" stroke-width="1"/>
      <path id="Path_582" data-name="Path 582" d="M201.62,307.273a5.471,5.471,0,0,1-4.141,1.09,14.149,14.149,0,0,1-3.931-1.09s-2.483,1.46-4.343.911-3.938-1.1-3.938-1.1a7.145,7.145,0,0,1-4.553.733,10.261,10.261,0,0,1-3.728-.911,6.447,6.447,0,0,1-3.308,1.275,27.588,27.588,0,0,1-3.105-.185,4.568,4.568,0,0,1-1.448.363h-1.448s-.615,10.937,1.448,18.777,10.134,13.672,13.457,15.3,9,.185,10.656-1.638,6.942-7.292,9.41-12.034,3.315-18.592,3.315-19.5S202.633,309.46,201.62,307.273Z" transform="translate(-54.984 -275.972)" fill="#fff" stroke="#263238" stroke-linecap="round" stroke-linejoin="round" stroke-width="1"/>
      <path id="Path_583" data-name="Path 583" d="M198.109,316.6a1.333,1.333,0,0,0-.919,1.275c.072,2.065.42,6.973,2.049,7.833,2.07,1.09,11.734,1.912,14.079.542,1.238-.727,3.931-7.107,2.9-8.923S206.39,313.6,198.109,316.6Z" transform="translate(-63.156 -278.918)" fill="none" stroke="#263238" stroke-linecap="round" stroke-linejoin="round" stroke-width="1"/>
      <path id="Path_584" data-name="Path 584" d="M182.636,316.6a1.333,1.333,0,0,1,.919,1.275c-.072,2.065-.42,6.973-2.049,7.833-2.07,1.09-11.734,1.912-14.079.542-1.238-.727-3.931-7.107-2.9-8.923S174.355,313.6,182.636,316.6Z" transform="translate(-54.075 -278.918)" fill="none" stroke="#263238" stroke-linecap="round" stroke-linejoin="round" stroke-width="1"/>
      <path id="Path_585" data-name="Path 585" d="M196.047,317.353s-3.837-.733-6.327.363" transform="translate(-61.094 -279.672)" fill="none" stroke="#263238" stroke-linecap="round" stroke-linejoin="round" stroke-width="1"/>
      <line id="Line_44" data-name="Line 44" x1="3.938" transform="translate(129.661 39.868)" fill="none" stroke="#263238" stroke-linecap="round" stroke-linejoin="round" stroke-width="1"/>
      <ellipse id="Ellipse_31" data-name="Ellipse 31" cx="1.245" cy="2.008" rx="1.245" ry="2.008" transform="translate(138.565 40.594)" fill="#263238"/>
      <ellipse id="Ellipse_32" data-name="Ellipse 32" cx="1.245" cy="2.008" rx="1.245" ry="2.008" transform="translate(124.486 40.594)" fill="#263238"/>
      <path id="Path_586" data-name="Path 586" d="M194.815,327.21s-.21,2.549.825,3.461,2.273,1.644.825,2.549-2.686,1.638-4.756,0" transform="translate(-61.643 -283.333)" fill="none" stroke="#263238" stroke-linecap="round" stroke-linejoin="round" stroke-width="1"/>
      <path id="Path_587" data-name="Path 587" d="M197.449,342.237s-5.176,2.193-9.729-.727" transform="translate(-60.542 -288.519)" fill="none" stroke="#263238" stroke-linecap="round" stroke-linejoin="round" stroke-width="1"/>
      <path id="Path_588" data-name="Path 588" d="M208.391,318.31a6.8,6.8,0,0,0-5.791-.733" transform="translate(-64.65 -279.717)" fill="none" stroke="#263238" stroke-linecap="round" stroke-linejoin="round" stroke-width="1"/>
      <path id="Path_589" data-name="Path 589" d="M184.306,318.242s-4.763-2.186-7.456,1.275" transform="translate(-57.54 -279.834)" fill="none" stroke="#263238" stroke-linecap="round" stroke-linejoin="round" stroke-width="1"/>
      <path id="Path_590" data-name="Path 590" d="M201.1,373.25l-16.15,35L175.42,374.71" transform="translate(-57.145 -300.029)" fill="none" stroke="#263238" stroke-linecap="round" stroke-linejoin="round" stroke-width="1"/>
      <path id="Path_591" data-name="Path 591" d="M185.72,429.6A2.3,2.3,0,1,0,188,427.59a2.157,2.157,0,0,0-2.28,2.008Z" transform="translate(-59.989 -319.734)" fill="#263238" stroke="#263238" stroke-linecap="round" stroke-linejoin="round" stroke-width="1"/>
      <rect id="Rectangle_414" data-name="Rectangle 414" width="62.384" height="1.702" transform="translate(138.941 139.941) rotate(180)" fill="gray" stroke="#263238" stroke-linecap="round" stroke-linejoin="round" stroke-width="1"/>
      <path id="Path_592" data-name="Path 592" d="M54.88,419.2h62.652l12.7,37.426H67.577Z" transform="translate(-23.862 -316.691)" fill="gray" stroke="#263238" stroke-linecap="round" stroke-linejoin="round" stroke-width="1"/>
    </g>
  </g>
</svg>
