<svg xmlns="http://www.w3.org/2000/svg" width="441.856" height="272.085" viewBox="0 0 441.856 272.085">
  <g id="Manage_money-pana" data-name="Manage money-pana" transform="translate(-19.63 -20.17)">
    <g id="freepik--background-complete--inject-4" transform="translate(19.63 20.17)">
      <path id="Path_312" data-name="Path 312" d="M113.29,54.136c1.871,12.007-6.877,23.178-19.532,24.943s-24.42-6.545-26.27-18.555,6.918-23.167,19.576-24.912c12.631-1.751,24.369,6.54,26.226,18.524Z" transform="translate(-37.326 -26.311)" fill="#f5f5f5"/>
      <path id="Path_313" data-name="Path 313" d="M111.094,58.427c1.423,9.149-5.244,17.659-14.886,19S77.6,72.439,76.194,63.288s5.274-17.651,14.919-18.979a18.313,18.313,0,0,1,13.077,3.125,16.564,16.564,0,0,1,6.9,10.993Z" transform="translate(-40.585 -29.845)" fill="#ebebeb"/>
      <path id="Path_314" data-name="Path 314" d="M110.819,57.479a10.483,10.483,0,0,1-.767-1.932,17.5,17.5,0,0,0-2.79-4.77,17.362,17.362,0,0,0-6.629-4.949,18.124,18.124,0,0,0-4.794-1.312,18.269,18.269,0,0,0-7.98.757,16.9,16.9,0,0,0-2.425,1,17.127,17.127,0,0,0-2.161,1.288,16.276,16.276,0,0,0-1.885,1.508,17.137,17.137,0,0,0-2.8,3.38A16.465,16.465,0,0,0,76.079,61.3a13.547,13.547,0,0,1,0,2.063,4.632,4.632,0,0,1-.5-2.033,14.739,14.739,0,0,1,.484-5.7,16.688,16.688,0,0,1,1.571-3.7,16.932,16.932,0,0,1,2.89-3.685,16.345,16.345,0,0,1,1.973-1.657,17.462,17.462,0,0,1,2.312-1.413,18.24,18.24,0,0,1,2.607-1.1,20.671,20.671,0,0,1,2.846-.739,20.232,20.232,0,0,1,2.922-.262,19,19,0,0,1,5.529.751,18.121,18.121,0,0,1,9.318,6.391,15.075,15.075,0,0,1,2.513,5.193A4.648,4.648,0,0,1,110.819,57.479Z" transform="translate(-40.391 -29.416)" fill="#e0e0e0"/>
      <path id="Path_315" data-name="Path 315" d="M102.924,73.839l.49,2.88-2.708.411-.471-2.8A13.567,13.567,0,0,1,93.141,73.3l.961-3.363a11.638,11.638,0,0,0,5.561,1.031l-.723-4.293c-3.142-.238-6.641-.68-7.263-4.352-.459-2.725,1.257-5.366,5.435-6.493l-.484-2.856,2.708-.411.471,2.8a12.992,12.992,0,0,1,5.762.733l-.817,3.369a11.719,11.719,0,0,0-4.4-.709l.741,4.37c3.142.209,6.585.662,7.194,4.281C108.767,70.112,107.1,72.706,102.924,73.839ZM98.3,62.892l-.628-3.649c-1.382.525-1.822,1.359-1.684,2.206S97.049,62.713,98.3,62.892ZM104,68.377c-.151-.9-1.018-1.264-2.249-1.479l.6,3.577c1.307-.519,1.791-1.276,1.652-2.1Z" transform="translate(-46.382 -33.249)" fill="#e0e0e0"/>
      <path id="Path_318" data-name="Path 318" d="M707.031,372.974a7.188,7.188,0,0,1-.578-1.461,13.277,13.277,0,0,0-2.111-3.631,13.637,13.637,0,0,0-2.1-2.039,13.817,13.817,0,0,0-2.922-1.711,14.45,14.45,0,0,0-3.625-.978,13.828,13.828,0,0,0-2-.107,15.138,15.138,0,0,0-2.055.185,14.429,14.429,0,0,0-1.992.495,13.383,13.383,0,0,0-3.468,1.729,11.866,11.866,0,0,0-1.414,1.145,12.482,12.482,0,0,0-3.349,5.157,12.833,12.833,0,0,0-.666,4.1,7.08,7.08,0,0,1,0,1.562,3.5,3.5,0,0,1-.383-1.538,11.157,11.157,0,0,1,.371-4.3,12.927,12.927,0,0,1,4.869-6.844,13.845,13.845,0,0,1,3.726-1.9,14.23,14.23,0,0,1,4.361-.733,15.037,15.037,0,0,1,2.155.131,14.457,14.457,0,0,1,2.03.435,12.852,12.852,0,0,1,1.885.692,13.58,13.58,0,0,1,3.066,1.908,12.682,12.682,0,0,1,2.13,2.242,11.309,11.309,0,0,1,1.885,3.929A3.485,3.485,0,0,1,707.031,372.974Z" transform="translate(-265.194 -158.238)" fill="#e0e0e0"/>
      <path id="Path_320" data-name="Path 320" d="M78.227,355.853c1.87,12.016-6.885,23.194-19.55,24.96s-24.438-6.55-26.29-18.569,6.921-23.185,19.589-24.933c12.645-1.758,24.4,6.543,26.251,18.542Z" transform="translate(-24.28 -148.134)" fill="#f5f5f5"/>
      <path id="Path_321" data-name="Path 321" d="M76.03,360.139a16.469,16.469,0,0,1-8.41,16.824,18.437,18.437,0,0,1-19.6-.95,16.3,16.3,0,0,1-6.56-17.549A17.347,17.347,0,0,1,56.05,346.009a18.312,18.312,0,0,1,13.081,3.13A16.563,16.563,0,0,1,76.03,360.139Z" transform="translate(-27.543 -151.669)" fill="#ebebeb"/>
      <path id="Path_322" data-name="Path 322" d="M75.745,359.215a10.251,10.251,0,0,1-.767-1.932,17.407,17.407,0,0,0-2.8-4.823,17.382,17.382,0,0,0-6.635-4.954,16.442,16.442,0,0,0-2.293-.811,16.872,16.872,0,0,0-2.513-.5,17.612,17.612,0,0,0-2.645-.149,18.234,18.234,0,0,0-5.347.9,17.628,17.628,0,0,0-2.425,1,16.489,16.489,0,0,0-2.161,1.288,15.745,15.745,0,0,0-1.885,1.508,16.543,16.543,0,0,0-5.309,12.24,12.583,12.583,0,0,1,0,2.063,4.583,4.583,0,0,1-.509-2.039,14.881,14.881,0,0,1,.49-5.7,16.614,16.614,0,0,1,4.461-7.393,16.843,16.843,0,0,1,1.973-1.658,17.907,17.907,0,0,1,2.312-1.419,18.628,18.628,0,0,1,2.614-1.1,18.891,18.891,0,0,1,5.768-.972,19.444,19.444,0,0,1,2.846.179,19.022,19.022,0,0,1,5.14,1.484,18.344,18.344,0,0,1,4.059,2.522,17.432,17.432,0,0,1,2.815,2.981,15.1,15.1,0,0,1,2.513,5.2A4.423,4.423,0,0,1,75.745,359.215Z" transform="translate(-27.34 -151.24)" fill="#e0e0e0"/>
      <path id="Path_323" data-name="Path 323" d="M67.857,375.589l.484,2.886-2.708.411-.471-2.808a13.581,13.581,0,0,1-7.1-1.031l.961-3.363a11.592,11.592,0,0,0,5.567,1.025l-.723-4.275c-3.142-.238-6.648-.68-7.27-4.358-.459-2.725,1.257-5.366,5.435-6.5l-.478-2.856,2.708-.411.471,2.8a13.1,13.1,0,0,1,5.768.733l-.823,3.375a11.72,11.72,0,0,0-4.4-.71l.767,4.346c3.142.215,6.591.662,7.2,4.287C73.7,371.821,72.029,374.45,67.857,375.589ZM63.226,364.63l-.628-3.649c-1.382.525-1.828,1.359-1.684,2.206s1.062,1.264,2.312,1.437Zm5.711,5.491c-.151-.9-1.024-1.264-2.256-1.479l.628,3.577c1.282-.519,1.766-1.276,1.627-2.1Z" transform="translate(-33.343 -155.093)" fill="#e0e0e0"/>
      <path id="Path_324" data-name="Path 324" d="M385.938,44.644a15.182,15.182,0,0,1,3.594-1.479l.741-3.375,6.007-.1.867,3.351a15.038,15.038,0,0,1,3.644,1.359l3.041-1.89,4.323,3.959-1.885,2.945a13.9,13.9,0,0,1,1.564,3.41l3.556.7.1,5.706-3.525.817a13.775,13.775,0,0,1-1.433,3.458l2.023,2.9-4.172,4.1-3.1-1.789a15.347,15.347,0,0,1-3.594,1.485l-.741,3.375-6.007.1-.867-3.345a15.135,15.135,0,0,1-3.644-1.359l-3.066,1.9L379.026,66.9l1.885-2.945a13.55,13.55,0,0,1-1.558-3.41l-3.556-.7-.107-5.7,3.531-.823a13.5,13.5,0,0,1,1.433-3.458l-1.992-2.88,4.178-4.126Zm3.2,7.6a5.9,5.9,0,0,0,.152,8.66,6.7,6.7,0,0,0,9.127-.149,5.9,5.9,0,0,0-.162-8.66,6.694,6.694,0,0,0-9.111.167Z" transform="translate(-151.973 -28.052)" fill="#f5f5f5"/>
      <path id="Path_325" data-name="Path 325" d="M438.455,23.3a9.694,9.694,0,0,1,2.268-.936l.465-2.128,3.77-.066.547,2.117a9.614,9.614,0,0,1,2.3.859l1.916-1.192,2.727,2.5-1.188,1.86a8.6,8.6,0,0,1,.986,2.152l2.243.441.063,3.577L452.328,33a8.381,8.381,0,0,1-.854,2.2l1.257,1.789L450.1,39.583l-1.96-1.127a9.408,9.408,0,0,1-2.318.96l-.44,2.117-3.77.06-.547-2.111a9.614,9.614,0,0,1-2.3-.859l-1.916,1.192-2.752-2.456,1.188-1.854a8.715,8.715,0,0,1-.986-2.152l-2.243-.447-.063-3.577,2.224-.519a8.487,8.487,0,0,1,.924-2.23l-1.257-1.818,2.633-2.588,1.96,1.127Zm2.023,4.77a3.72,3.72,0,0,0,.1,5.454,4.221,4.221,0,0,0,5.748-.1,3.72,3.72,0,0,0-.1-5.454,4.221,4.221,0,0,0-5.749.119Z" transform="translate(-172.899 -20.17)" fill="#f5f5f5"/>
      <path id="Path_326" data-name="Path 326" d="M517.051,114.183a15.754,15.754,0,0,1,3.77-1.544l.766-3.512,6.283-.107.9,3.488a15.687,15.687,0,0,1,3.77,1.419l3.142-1.967,4.505,4.126-1.967,3.059a13.988,13.988,0,0,1,1.627,3.577l3.707.733.107,5.962-3.669.859a14.312,14.312,0,0,1-1.5,3.577l2.073,2.981-4.348,4.269-3.236-1.86a15.753,15.753,0,0,1-3.77,1.544l-.773,3.518-6.283.1-.9-3.488a15.813,15.813,0,0,1-3.77-1.413l-3.142,1.967-4.505-4.126,1.96-3.07a14.251,14.251,0,0,1-1.627-3.577l-3.7-.733L506.37,124l3.676-.853a14.357,14.357,0,0,1,1.5-3.577l-2.073-2.981,4.348-4.275,3.236,1.86Zm3.336,7.941a6.146,6.146,0,0,0,.161,9.013,6.975,6.975,0,0,0,9.5-.155,6.146,6.146,0,0,0-.166-9.013,6.982,6.982,0,0,0-9.494.155Z" transform="translate(-200.545 -56.047)" fill="#f5f5f5"/>
      <path id="Path_328" data-name="Path 328" d="M30.255,215.163a15.847,15.847,0,0,1,3.77-1.538l.773-3.518L41.081,210l.9,3.488a16.093,16.093,0,0,1,3.8,1.419l3.142-1.967,4.505,4.126-1.992,3.07a14.153,14.153,0,0,1,1.627,3.577l3.7.727.113,5.962-3.676.853a14.226,14.226,0,0,1-1.5,3.577l2.073,2.981-4.348,4.275-3.236-1.86a15.79,15.79,0,0,1-3.713,1.544l-.773,3.518-6.283.107-.9-3.488a15.942,15.942,0,0,1-3.77-1.419l-3.142,1.967-4.5-4.126,1.96-3.07a13.937,13.937,0,0,1-1.627-3.577l-3.707-.727-.107-5.962,3.676-.853a13.98,13.98,0,0,1,1.489-3.577l-2.073-2.981,4.348-4.275,3.236,1.86Zm3.336,7.918a6.146,6.146,0,0,0,.184,9,6.975,6.975,0,0,0,9.49-.16,6.146,6.146,0,0,0-.155-9.005,6.968,6.968,0,0,0-9.519.161Z" transform="translate(-19.63 -96.822)" fill="#f5f5f5"/>
    </g>
    <g id="freepik--Floor--inject-4" transform="translate(26.579 283.491)">
      <path id="Path_329" data-name="Path 329" d="M463.359,461.985c0,.083-96.867.155-216.322.155s-216.347-.072-216.347-.155,96.842-.155,216.347-.155S463.359,461.9,463.359,461.985Z" transform="translate(-30.69 -461.83)" fill="#263238"/>
    </g>
    <g id="freepik--Coins--inject-4" transform="translate(58.026 232.319)">
      <rect id="Rectangle_366" data-name="Rectangle 366" width="45.861" height="8.776" transform="translate(47.915 8.943) rotate(180)" fill="#2bace3"/>
      <path id="Path_330" data-name="Path 330" d="M152.191,376.52a45.1,45.1,0,0,0,0,8.508,23.108,23.108,0,0,0,.2-4.257A22.376,22.376,0,0,0,152.191,376.52Z" transform="translate(-107.223 -376.21)" fill="#263238"/>
      <path id="Path_331" data-name="Path 331" d="M145.425,376.52a46.55,46.55,0,0,0,0,8.508,23.11,23.11,0,0,0,.2-4.257A22.376,22.376,0,0,0,145.425,376.52Z" transform="translate(-104.71 -376.21)" fill="#263238"/>
      <path id="Path_332" data-name="Path 332" d="M138.741,376.52a45.1,45.1,0,0,0,0,8.508,22.813,22.813,0,0,0,.195-4.257A25.617,25.617,0,0,0,138.741,376.52Z" transform="translate(-102.223 -376.21)" fill="#263238"/>
      <path id="Path_333" data-name="Path 333" d="M132.085,376.52a46.55,46.55,0,0,0,0,8.508,23.111,23.111,0,0,0,.2-4.257A22.376,22.376,0,0,0,132.085,376.52Z" transform="translate(-99.752 -376.21)" fill="#263238"/>
      <path id="Path_334" data-name="Path 334" d="M125.431,376.52a45.1,45.1,0,0,0,0,8.508,23.111,23.111,0,0,0,.2-4.257A22.376,22.376,0,0,0,125.431,376.52Z" transform="translate(-97.276 -376.21)" fill="#263238"/>
      <path id="Path_335" data-name="Path 335" d="M118.781,376.52a45.1,45.1,0,0,0,0,8.508,22.812,22.812,0,0,0,.195-4.257A23.38,23.38,0,0,0,118.781,376.52Z" transform="translate(-94.805 -376.21)" fill="#263238"/>
      <path id="Path_336" data-name="Path 336" d="M112.131,376.52a45.1,45.1,0,0,0,0,8.508,22.812,22.812,0,0,0,.195-4.257A23.38,23.38,0,0,0,112.131,376.52Z" transform="translate(-92.333 -376.21)" fill="#263238"/>
      <path id="Path_337" data-name="Path 337" d="M105.475,376.52a46.552,46.552,0,0,0,0,8.508,23.109,23.109,0,0,0,.2-4.257A22.375,22.375,0,0,0,105.475,376.52Z" transform="translate(-89.861 -376.21)" fill="#263238"/>
      <path id="Path_338" data-name="Path 338" d="M98.821,376.52a45.1,45.1,0,0,0,0,8.508,23.11,23.11,0,0,0,.2-4.257A22.376,22.376,0,0,0,98.821,376.52Z" transform="translate(-87.386 -376.21)" fill="#263238"/>
      <path id="Path_339" data-name="Path 339" d="M92.171,376.52a45.1,45.1,0,0,0,0,8.508,22.467,22.467,0,0,0,.2-4.257A23.016,23.016,0,0,0,92.171,376.52Z" transform="translate(-84.914 -376.21)" fill="#263238"/>
      <path id="Path_340" data-name="Path 340" d="M85.521,376.52a45.1,45.1,0,0,0,0,8.508,22.812,22.812,0,0,0,.195-4.257A23.381,23.381,0,0,0,85.521,376.52Z" transform="translate(-82.442 -376.21)" fill="#263238"/>
      <g id="Group_1598" data-name="Group 1598" transform="translate(2.79 0.173)" opacity="0.3">
        <path id="Path_341" data-name="Path 341" d="M129.57,376.29a176.135,176.135,0,0,1-44.39,0Z" transform="translate(-85.18 -376.29)"/>
      </g>
      <path id="Path_342" data-name="Path 342" d="M84,376.191c0,.1,10.248.191,22.883.191s22.9-.089,22.9-.191-10.248-.191-22.9-.191S84,376.083,84,376.191Z" transform="translate(-81.952 -376)" fill="#263238"/>
      <rect id="Rectangle_367" data-name="Rectangle 367" width="45.861" height="8.776" transform="translate(46.885 17.564) rotate(180)" fill="#2bace3"/>
      <path id="Path_343" data-name="Path 343" d="M150.555,391a46.55,46.55,0,0,0,0,8.508,23.069,23.069,0,0,0,.2-4.251A22.518,22.518,0,0,0,150.555,391Z" transform="translate(-106.617 -382.057)" fill="#263238"/>
      <path id="Path_344" data-name="Path 344" d="M143.785,391a46.55,46.55,0,0,0,0,8.508,23.069,23.069,0,0,0,.2-4.251A22.518,22.518,0,0,0,143.785,391Z" transform="translate(-104.1 -382.057)" fill="#263238"/>
      <path id="Path_345" data-name="Path 345" d="M137.1,391a45.1,45.1,0,0,0,0,8.508,22.772,22.772,0,0,0,.195-4.251A23.531,23.531,0,0,0,137.1,391Z" transform="translate(-101.614 -382.057)" fill="#263238"/>
      <path id="Path_346" data-name="Path 346" d="M130.445,391a46.55,46.55,0,0,0,0,8.508,23.069,23.069,0,0,0,.2-4.251A22.518,22.518,0,0,0,130.445,391Z" transform="translate(-99.142 -382.057)" fill="#263238"/>
      <path id="Path_347" data-name="Path 347" d="M123.791,391a45.1,45.1,0,0,0,0,8.508,23.069,23.069,0,0,0,.2-4.251A22.519,22.519,0,0,0,123.791,391Z" transform="translate(-96.667 -382.057)" fill="#263238"/>
      <path id="Path_348" data-name="Path 348" d="M117.141,391a45.1,45.1,0,0,0,0,8.508,22.427,22.427,0,0,0,.2-4.251A23.164,23.164,0,0,0,117.141,391Z" transform="translate(-94.195 -382.057)" fill="#263238"/>
      <path id="Path_349" data-name="Path 349" d="M110.491,391a45.1,45.1,0,0,0,0,8.508,22.771,22.771,0,0,0,.195-4.251A23.53,23.53,0,0,0,110.491,391Z" transform="translate(-91.723 -382.057)" fill="#263238"/>
      <path id="Path_350" data-name="Path 350" d="M103.885,391a46.552,46.552,0,0,0,0,8.508,23.07,23.07,0,0,0,.2-4.251A26.167,26.167,0,0,0,103.885,391Z" transform="translate(-89.27 -382.057)" fill="#263238"/>
      <path id="Path_351" data-name="Path 351" d="M97.181,391a45.1,45.1,0,0,0,0,8.508,23.07,23.07,0,0,0,.2-4.251A22.519,22.519,0,0,0,97.181,391Z" transform="translate(-86.776 -382.057)" fill="#263238"/>
      <path id="Path_352" data-name="Path 352" d="M90.531,391a45.1,45.1,0,0,0,0,8.508,22.427,22.427,0,0,0,.2-4.251A23.164,23.164,0,0,0,90.531,391Z" transform="translate(-84.304 -382.057)" fill="#263238"/>
      <path id="Path_353" data-name="Path 353" d="M83.881,391a45.1,45.1,0,0,0,0,8.508,22.773,22.773,0,0,0,.195-4.251A23.531,23.531,0,0,0,83.881,391Z" transform="translate(-81.833 -382.057)" fill="#263238"/>
      <g id="Group_1599" data-name="Group 1599" transform="translate(1.759 8.8)" opacity="0.3">
        <path id="Path_354" data-name="Path 354" d="M127.93,390.76a176.133,176.133,0,0,1-44.39,0Z" transform="translate(-83.54 -390.76)"/>
      </g>
      <path id="Path_355" data-name="Path 355" d="M82.36,390.665c0,.107,10.248.191,22.889.191s22.889-.083,22.889-.191-10.248-.185-22.889-.185S82.36,390.563,82.36,390.665Z" transform="translate(-81.342 -381.847)" fill="#263238"/>
      <rect id="Rectangle_368" data-name="Rectangle 368" width="45.861" height="8.776" transform="translate(51.239 26.06) rotate(180)" fill="#2bace3"/>
      <path id="Path_356" data-name="Path 356" d="M157.485,405.23a46.616,46.616,0,0,0,0,8.514,23.165,23.165,0,0,0,.2-4.257A22.521,22.521,0,0,0,157.485,405.23Z" transform="translate(-109.193 -387.803)" fill="#263238"/>
      <path id="Path_357" data-name="Path 357" d="M150.715,405.23a46.616,46.616,0,0,0,0,8.514,45.164,45.164,0,0,0,0-8.514Z" transform="translate(-106.676 -387.803)" fill="#263238"/>
      <path id="Path_358" data-name="Path 358" d="M144.031,405.23a45.164,45.164,0,0,0,0,8.514,22.864,22.864,0,0,0,.195-4.257A23.528,23.528,0,0,0,144.031,405.23Z" transform="translate(-104.19 -387.803)" fill="#263238"/>
      <path id="Path_359" data-name="Path 359" d="M137.375,405.23a46.616,46.616,0,0,0,0,8.514,23.164,23.164,0,0,0,.2-4.257A22.518,22.518,0,0,0,137.375,405.23Z" transform="translate(-101.718 -387.803)" fill="#263238"/>
      <path id="Path_360" data-name="Path 360" d="M130.721,405.23a45.161,45.161,0,0,0,0,8.514,23.165,23.165,0,0,0,.2-4.257A23.849,23.849,0,0,0,130.721,405.23Z" transform="translate(-99.243 -387.803)" fill="#263238"/>
      <path id="Path_361" data-name="Path 361" d="M124.071,405.23a45.164,45.164,0,0,0,0,8.514,22.519,22.519,0,0,0,.2-4.257A23.165,23.165,0,0,0,124.071,405.23Z" transform="translate(-96.771 -387.803)" fill="#263238"/>
      <path id="Path_362" data-name="Path 362" d="M117.421,405.23a45.166,45.166,0,0,0,0,8.514,22.864,22.864,0,0,0,.195-4.257A23.529,23.529,0,0,0,117.421,405.23Z" transform="translate(-94.299 -387.803)" fill="#263238"/>
      <path id="Path_363" data-name="Path 363" d="M110.765,405.23a46.616,46.616,0,0,0,0,8.514,23.163,23.163,0,0,0,.2-4.257A22.517,22.517,0,0,0,110.765,405.23Z" transform="translate(-91.827 -387.803)" fill="#263238"/>
      <path id="Path_364" data-name="Path 364" d="M104.111,405.23a45.166,45.166,0,0,0,0,8.514,23.164,23.164,0,0,0,.2-4.257A22.518,22.518,0,0,0,104.111,405.23Z" transform="translate(-89.352 -387.803)" fill="#263238"/>
      <path id="Path_365" data-name="Path 365" d="M97.461,405.23a45.166,45.166,0,0,0,0,8.514,22.518,22.518,0,0,0,.2-4.257A23.164,23.164,0,0,0,97.461,405.23Z" transform="translate(-86.88 -387.803)" fill="#263238"/>
      <path id="Path_366" data-name="Path 366" d="M90.811,405.23a45.166,45.166,0,0,0,0,8.514,22.865,22.865,0,0,0,.195-4.257A23.531,23.531,0,0,0,90.811,405.23Z" transform="translate(-84.409 -387.803)" fill="#263238"/>
      <g id="Group_1600" data-name="Group 1600" transform="translate(6.114 17.29)" opacity="0.3">
        <path id="Path_367" data-name="Path 367" d="M134.86,405a175.855,175.855,0,0,1-44.39,0Z" transform="translate(-90.47 -405)"/>
      </g>
      <path id="Path_368" data-name="Path 368" d="M89.29,404.875c0,.107,10.248.191,22.889.191s22.889-.083,22.889-.191-10.248-.185-22.889-.185S89.29,404.791,89.29,404.875Z" transform="translate(-83.918 -387.585)" fill="#263238"/>
      <rect id="Rectangle_369" data-name="Rectangle 369" width="45.861" height="8.436" transform="translate(45.867 34.431) rotate(180)" fill="#2bace3"/>
      <path id="Path_369" data-name="Path 369" d="M148.935,419.83a43.1,43.1,0,0,0,0,8.186,21.373,21.373,0,0,0,.2-4.09A20.865,20.865,0,0,0,148.935,419.83Z" transform="translate(-106.015 -393.698)" fill="#263238"/>
      <path id="Path_370" data-name="Path 370" d="M142.165,419.83a43.1,43.1,0,0,0,0,8.186,21.373,21.373,0,0,0,.2-4.09A20.865,20.865,0,0,0,142.165,419.83Z" transform="translate(-103.498 -393.698)" fill="#263238"/>
      <path id="Path_371" data-name="Path 371" d="M135.481,419.83a41.757,41.757,0,0,0,0,8.186,21.1,21.1,0,0,0,.195-4.09A21.8,21.8,0,0,0,135.481,419.83Z" transform="translate(-101.012 -393.698)" fill="#263238"/>
      <path id="Path_372" data-name="Path 372" d="M128.825,419.83a43.1,43.1,0,0,0,0,8.186,21.373,21.373,0,0,0,.2-4.09A20.866,20.866,0,0,0,128.825,419.83Z" transform="translate(-98.54 -393.698)" fill="#263238"/>
      <path id="Path_373" data-name="Path 373" d="M122.171,419.83a41.761,41.761,0,0,0,0,8.186,21.372,21.372,0,0,0,.2-4.09A20.865,20.865,0,0,0,122.171,419.83Z" transform="translate(-96.065 -393.698)" fill="#263238"/>
      <path id="Path_374" data-name="Path 374" d="M115.521,419.83a41.761,41.761,0,0,0,0,8.186,20.778,20.778,0,0,0,.2-4.09A21.462,21.462,0,0,0,115.521,419.83Z" transform="translate(-93.593 -393.698)" fill="#263238"/>
      <path id="Path_375" data-name="Path 375" d="M108.881,419.83a41.761,41.761,0,0,0,0,8.186,21.1,21.1,0,0,0,.195-4.09A22.455,22.455,0,0,0,108.881,419.83Z" transform="translate(-91.125 -393.698)" fill="#263238"/>
      <path id="Path_376" data-name="Path 376" d="M102.215,419.83a43.1,43.1,0,0,0,0,8.186,21.374,21.374,0,0,0,.2-4.09A20.866,20.866,0,0,0,102.215,419.83Z" transform="translate(-88.649 -393.698)" fill="#263238"/>
      <path id="Path_377" data-name="Path 377" d="M95.561,419.83a41.761,41.761,0,0,0,0,8.186,21.373,21.373,0,0,0,.2-4.09A20.866,20.866,0,0,0,95.561,419.83Z" transform="translate(-86.174 -393.698)" fill="#263238"/>
      <path id="Path_378" data-name="Path 378" d="M88.881,419.83a41.761,41.761,0,0,0,0,8.186,20.777,20.777,0,0,0,.2-4.09A19.766,19.766,0,0,0,88.881,419.83Z" transform="translate(-83.691 -393.698)" fill="#263238"/>
      <path id="Path_379" data-name="Path 379" d="M82.261,419.83a41.761,41.761,0,0,0,0,8.186,21.1,21.1,0,0,0,.195-4.09A21.8,21.8,0,0,0,82.261,419.83Z" transform="translate(-81.231 -393.698)" fill="#263238"/>
      <g id="Group_1601" data-name="Group 1601" transform="translate(0.741 26.001)" opacity="0.3">
        <path id="Path_380" data-name="Path 380" d="M126.31,419.61a138.089,138.089,0,0,1-44.39,0Z" transform="translate(-81.92 -419.61)"/>
      </g>
      <path id="Path_381" data-name="Path 381" d="M80.74,419.515c0,.107,10.248.191,22.889.191s22.889-.083,22.889-.191-10.248-.185-22.889-.185S80.74,419.413,80.74,419.515Z" transform="translate(-80.74 -393.496)" fill="#263238"/>
      <rect id="Rectangle_370" data-name="Rectangle 370" width="45.861" height="8.442" transform="translate(48.82 42.879) rotate(180)" fill="#2bace3"/>
      <path id="Path_382" data-name="Path 382" d="M153.625,434a43.038,43.038,0,0,0,0,8.18,21.372,21.372,0,0,0,.2-4.09A20.776,20.776,0,0,0,153.625,434Z" transform="translate(-107.758 -399.42)" fill="#263238"/>
      <path id="Path_383" data-name="Path 383" d="M146.881,434a41.7,41.7,0,0,0,0,8.18,21.1,21.1,0,0,0,.195-4.09A23.054,23.054,0,0,0,146.881,434Z" transform="translate(-105.249 -399.42)" fill="#263238"/>
      <path id="Path_384" data-name="Path 384" d="M140.171,434a41.7,41.7,0,0,0,0,8.18,20.777,20.777,0,0,0,.2-4.09A21.371,21.371,0,0,0,140.171,434Z" transform="translate(-102.755 -399.42)" fill="#263238"/>
      <path id="Path_385" data-name="Path 385" d="M133.521,434a41.7,41.7,0,0,0,0,8.18,21.1,21.1,0,0,0,.195-4.09A21.71,21.71,0,0,0,133.521,434Z" transform="translate(-100.283 -399.42)" fill="#263238"/>
      <path id="Path_386" data-name="Path 386" d="M126.885,434a43.04,43.04,0,0,0,0,8.18,21.372,21.372,0,0,0,.2-4.09A22,22,0,0,0,126.885,434Z" transform="translate(-97.819 -399.42)" fill="#263238"/>
      <path id="Path_387" data-name="Path 387" d="M120.211,434a41.7,41.7,0,0,0,0,8.18,21.373,21.373,0,0,0,.2-4.09A20.778,20.778,0,0,0,120.211,434Z" transform="translate(-95.336 -399.42)" fill="#263238"/>
      <path id="Path_388" data-name="Path 388" d="M113.561,434a41.7,41.7,0,0,0,0,8.18,20.779,20.779,0,0,0,.2-4.09A21.373,21.373,0,0,0,113.561,434Z" transform="translate(-92.864 -399.42)" fill="#263238"/>
      <path id="Path_389" data-name="Path 389" d="M106.881,434a41.7,41.7,0,0,0,0,8.18,21.1,21.1,0,0,0,.195-4.09A19.968,19.968,0,0,0,106.881,434Z" transform="translate(-90.382 -399.42)" fill="#263238"/>
      <path id="Path_390" data-name="Path 390" d="M100.255,434a43.04,43.04,0,0,0,0,8.18,21.372,21.372,0,0,0,.2-4.09A20.777,20.777,0,0,0,100.255,434Z" transform="translate(-87.921 -399.42)" fill="#263238"/>
      <path id="Path_391" data-name="Path 391" d="M93.6,434a41.7,41.7,0,0,0,0,8.18,21.373,21.373,0,0,0,.2-4.09A20.778,20.778,0,0,0,93.6,434Z" transform="translate(-85.446 -399.42)" fill="#263238"/>
      <path id="Path_392" data-name="Path 392" d="M86.951,434a41.7,41.7,0,0,0,0,8.18,20.777,20.777,0,0,0,.2-4.09A21.372,21.372,0,0,0,86.951,434Z" transform="translate(-82.974 -399.42)" fill="#263238"/>
      <g id="Group_1602" data-name="Group 1602" transform="translate(3.694 34.449)" opacity="0.3">
        <path id="Path_393" data-name="Path 393" d="M131,433.78a122.312,122.312,0,0,1-44.384,0Z" transform="translate(-86.62 -433.78)"/>
      </g>
      <path id="Path_394" data-name="Path 394" d="M85.43,433.681c0,.1,10.248.185,22.889.185s22.889-.083,22.889-.185-10.248-.191-22.889-.191S85.43,433.573,85.43,433.681Z" transform="translate(-82.483 -399.214)" fill="#263238"/>
      <rect id="Rectangle_371" data-name="Rectangle 371" width="45.861" height="8.442" transform="translate(46.2 51.202) rotate(180)" fill="#2bace3"/>
      <path id="Path_395" data-name="Path 395" d="M149.455,448a43.041,43.041,0,0,0,0,8.18,21.372,21.372,0,0,0,.2-4.09A20.777,20.777,0,0,0,149.455,448Z" transform="translate(-106.208 -405.073)" fill="#263238"/>
      <path id="Path_396" data-name="Path 396" d="M142.691,448a41.7,41.7,0,0,0,0,8.18,21.1,21.1,0,0,0,.195-4.09A20.517,20.517,0,0,0,142.691,448Z" transform="translate(-103.692 -405.073)" fill="#263238"/>
      <path id="Path_397" data-name="Path 397" d="M136,448a41.7,41.7,0,0,0,0,8.18,20.78,20.78,0,0,0,.2-4.09A21.373,21.373,0,0,0,136,448Z" transform="translate(-101.205 -405.073)" fill="#263238"/>
      <path id="Path_398" data-name="Path 398" d="M129.351,448a41.7,41.7,0,0,0,0,8.18,21.1,21.1,0,0,0,.195-4.09A21.711,21.711,0,0,0,129.351,448Z" transform="translate(-98.733 -405.073)" fill="#263238"/>
      <path id="Path_399" data-name="Path 399" d="M122.695,448a43.038,43.038,0,0,0,0,8.18,21.373,21.373,0,0,0,.2-4.09A20.217,20.217,0,0,0,122.695,448Z" transform="translate(-96.262 -405.073)" fill="#263238"/>
      <path id="Path_400" data-name="Path 400" d="M116.041,448a41.7,41.7,0,0,0,0,8.18,21.372,21.372,0,0,0,.2-4.09A20.777,20.777,0,0,0,116.041,448Z" transform="translate(-93.786 -405.073)" fill="#263238"/>
      <path id="Path_401" data-name="Path 401" d="M109.391,448a41.7,41.7,0,0,0,0,8.18,20.777,20.777,0,0,0,.2-4.09A21.372,21.372,0,0,0,109.391,448Z" transform="translate(-91.314 -405.073)" fill="#263238"/>
      <path id="Path_402" data-name="Path 402" d="M102.741,448a41.7,41.7,0,0,0,0,8.18,21.1,21.1,0,0,0,.195-4.09A23.789,23.789,0,0,0,102.741,448Z" transform="translate(-88.843 -405.073)" fill="#263238"/>
      <path id="Path_403" data-name="Path 403" d="M96.085,448a43.038,43.038,0,0,0,0,8.18,21.373,21.373,0,0,0,.2-4.09A20.779,20.779,0,0,0,96.085,448Z" transform="translate(-86.371 -405.073)" fill="#263238"/>
      <path id="Path_404" data-name="Path 404" d="M89.431,448a41.7,41.7,0,0,0,0,8.18,21.374,21.374,0,0,0,.2-4.09A20.778,20.778,0,0,0,89.431,448Z" transform="translate(-83.896 -405.073)" fill="#263238"/>
      <path id="Path_405" data-name="Path 405" d="M82.781,448a41.7,41.7,0,0,0,0,8.18,20.777,20.777,0,0,0,.2-4.09A21.372,21.372,0,0,0,82.781,448Z" transform="translate(-81.424 -405.073)" fill="#263238"/>
      <g id="Group_1603" data-name="Group 1603" transform="translate(1.074 42.772)" opacity="0.3">
        <path id="Path_406" data-name="Path 406" d="M126.834,447.74a138.221,138.221,0,0,1-44.384,0Z" transform="translate(-82.45 -447.74)"/>
      </g>
      <path id="Path_407" data-name="Path 407" d="M81.26,447.641c0,.1,10.248.185,22.889.185s22.889-.083,22.889-.185-10.248-.191-22.889-.191S81.26,447.533,81.26,447.641Z" transform="translate(-80.933 -404.851)" fill="#263238"/>
      <path id="Path_408" data-name="Path 408" d="M153.976,427.348a.362.362,0,0,1,0-.143v-2.069c0-1.449,0-3.524-.044-6.111v-.1h2.614l-.113.107v-8.448l.138.131H153.48v-8.627H159l-.151.143v-8.943l.145.131h-4.562V393.3c0-3.053,0-5.813.031-8.186v-.1h1.225l-.1.1v-8.6a.408.408,0,0,1,0-.149s0,.054,0,.149v.447c0,.411,0,.99.044,1.729.031,1.52.069,3.7.119,6.421v.1h-1.225l.107-.1v8.186l-.132-.125H159v9.217h-5.441l.145-.137v8.347l-.138-.131h3.085v8.675h-2.62l.1-.089c0,2.588-.038,4.662-.05,6.111v2.069A.662.662,0,0,1,153.976,427.348Z" transform="translate(-107.776 -376.145)" fill="#263238"/>
    </g>
    <g id="freepik--Screen--inject-4" transform="translate(43.093 87.217)">
      <path id="Path_409" data-name="Path 409" d="M62,132.9h166.22a6.037,6.037,0,0,1,6.189,5.873v99.239a7.2,7.2,0,0,1-7.383,7.005H63.425a6.043,6.043,0,0,1-6.2-5.879V137.415A4.652,4.652,0,0,1,62,132.89Z" transform="translate(-57.068 -132.732)" fill="#fff"/>
      <rect id="Rectangle_372" data-name="Rectangle 372" width="29.147" height="11.095" transform="translate(33.042 40.277)" fill="#2bace3"/>
      <rect id="Rectangle_373" data-name="Rectangle 373" width="29.147" height="11.095" transform="translate(120.49 40.277)" fill="#2bace3"/>
      <rect id="Rectangle_374" data-name="Rectangle 374" width="29.147" height="11.095" transform="translate(120.49 62.313)" fill="#2bace3"/>
      <rect id="Rectangle_375" data-name="Rectangle 375" width="29.147" height="11.095" transform="translate(120.49 73.336)" fill="#2bace3"/>
      <rect id="Rectangle_376" data-name="Rectangle 376" width="29.147" height="11.095" transform="translate(62.195 62.515)" fill="#2bace3"/>
      <rect id="Rectangle_377" data-name="Rectangle 377" width="29.147" height="11.095" transform="translate(91.293 73.742)" fill="#2bace3"/>
      <rect id="Rectangle_378" data-name="Rectangle 378" width="29.147" height="11.543" transform="translate(62.195 95.754)" fill="#ebebeb"/>
      <rect id="Rectangle_379" data-name="Rectangle 379" width="29.147" height="11.095" transform="translate(120.49 95.909)" fill="#2bace3"/>
      <rect id="Rectangle_380" data-name="Rectangle 380" width="157.386" height="10.845" transform="translate(14.576 29.432)" fill="#e0e0e0"/>
      <rect id="Rectangle_381" data-name="Rectangle 381" width="27.596" height="78.097" transform="translate(5.452 29.432)" fill="#e0e0e0"/>
      <path id="Path_410" data-name="Path 410" d="M93.4,260.214H65V181.36H93.4Zm-27.6-.757H92.6V182.111H65.8Z" transform="translate(-59.956 -152.304)" fill="#e0e0e0"/>
      <path id="Path_411" data-name="Path 411" d="M62,132.9h166.22a6.037,6.037,0,0,1,6.189,5.873v6.844H57.22v-8.2A4.653,4.653,0,0,1,62,132.9Z" transform="translate(-57.064 -132.736)" fill="#e0e0e0"/>
      <rect id="Rectangle_382" data-name="Rectangle 382" width="27.281" height="7.28" transform="translate(5.767 17.519)" fill="#ebebeb"/>
      <rect id="Rectangle_383" data-name="Rectangle 383" width="26.307" height="7.28" transform="translate(36.24 17.519)" fill="#ebebeb"/>
      <rect id="Rectangle_384" data-name="Rectangle 384" width="26.307" height="7.28" transform="translate(65.092 17.519)" fill="#ebebeb"/>
      <rect id="Rectangle_385" data-name="Rectangle 385" width="26.307" height="7.28" transform="translate(93.944 17.519)" fill="#ebebeb"/>
      <rect id="Rectangle_386" data-name="Rectangle 386" width="26.307" height="7.28" transform="translate(122.796 17.519)" fill="#ebebeb"/>
      <rect id="Rectangle_387" data-name="Rectangle 387" width="21.627" height="7.28" transform="translate(151.648 17.519)" fill="#ebebeb"/>
      <path id="Path_412" data-name="Path 412" d="M65.605,259.748H78l34.488-.048,119.625-.089-.195.185V181.937h0l.207.2-166.5-.048.151-.149c0,24-.063,43.452-.082,56.908,0,6.731-.031,11.966-.038,15.5v.06c0-3.547,0-8.77-.044-15.5,0-13.48-.044-32.958-.082-57v-.143h.157l166.5-.054h.138v78.216h-.195l-119.757-.089-34.444-.054H66.4Z" transform="translate(-60.153 -152.445)" fill="#263238"/>
      <path id="Path_413" data-name="Path 413" d="M232.659,200.047c0,.107-37.278.2-83.252.2s-83.258-.089-83.258-.2,37.265-.2,83.258-.2S232.659,199.939,232.659,200.047Z" transform="translate(-60.383 -159.77)" fill="#263238"/>
      <path id="Path_414" data-name="Path 414" d="M232.659,218.657c0,.107-37.278.2-83.252.2s-83.258-.072-83.258-.2,37.265-.2,83.258-.2S232.659,218.549,232.659,218.657Z" transform="translate(-60.383 -167.285)" fill="#263238"/>
      <path id="Path_415" data-name="Path 415" d="M232.659,237.267c0,.107-37.278.2-83.252.2s-83.258-.089-83.258-.2,37.265-.2,83.258-.2S232.659,237.159,232.659,237.267Z" transform="translate(-60.383 -174.799)" fill="#263238"/>
      <path id="Path_416" data-name="Path 416" d="M232.659,255.867c0,.107-37.278.2-83.252.2s-83.258-.083-83.258-.2,37.265-.2,83.258-.2S232.659,255.765,232.659,255.867Z" transform="translate(-60.383 -182.31)" fill="#263238"/>
      <path id="Path_417" data-name="Path 417" d="M232.659,274.487c0,.107-37.278.2-83.252.2s-83.258-.089-83.258-.2,37.265-.2,83.258-.2S232.659,274.379,232.659,274.487Z" transform="translate(-60.383 -189.828)" fill="#263238"/>
      <path id="Path_418" data-name="Path 418" d="M232.659,293.1c0,.107-37.278.2-83.252.2s-83.258-.089-83.258-.2,37.265-.2,83.258-.2S232.659,292.989,232.659,293.1Z" transform="translate(-60.383 -197.343)" fill="#263238"/>
      <path id="Path_419" data-name="Path 419" d="M109.437,260.4c-.113,0-.207-17.391-.207-38.831s.094-38.837.207-38.837.207,17.385.207,38.837S109.557,260.4,109.437,260.4Z" transform="translate(-76.396 -152.857)" fill="#263238"/>
      <path id="Path_420" data-name="Path 420" d="M155.877,260.155c-.113,0-.207-17.338-.207-38.718s.094-38.718.207-38.718.207,17.332.207,38.718S155.965,260.155,155.877,260.155Z" transform="translate(-93.657 -152.853)" fill="#263238"/>
      <path id="Path_421" data-name="Path 421" d="M202.227,260.4c-.113,0-.207-17.391-.207-38.831s.094-38.837.207-38.837.207,17.385.207,38.837S202.34,260.4,202.227,260.4Z" transform="translate(-110.884 -152.857)" fill="#263238"/>
      <path id="Path_422" data-name="Path 422" d="M248.617,260.4c-.113,0-.207-17.391-.207-38.831s.094-38.837.207-38.837.207,17.385.207,38.837S248.737,260.4,248.617,260.4Z" transform="translate(-128.127 -152.857)" fill="#263238"/>
      <path id="Path_423" data-name="Path 423" d="M295.017,260.4c-.113,0-.207-17.391-.207-38.831s.094-38.837.207-38.837.207,17.385.207,38.837S295.13,260.4,295.017,260.4Z" transform="translate(-145.373 -152.857)" fill="#263238"/>
      <path id="Path_424" data-name="Path 424" d="M71.721,142.451a1.691,1.691,0,1,1-1.709-1.651,1.762,1.762,0,0,1,1.218.487,1.585,1.585,0,0,1,.491,1.164Z" transform="translate(-61.198 -135.926)" fill="#fff"/>
      <path id="Path_425" data-name="Path 425" d="M80.861,142.451a1.692,1.692,0,1,1-1.69-1.651A1.654,1.654,0,0,1,80.861,142.451Z" transform="translate(-64.595 -135.926)" fill="#fff"/>
      <path id="Path_426" data-name="Path 426" d="M90,142.451a1.692,1.692,0,1,1-1.69-1.651A1.654,1.654,0,0,1,90,142.451Z" transform="translate(-67.992 -135.926)" fill="#fff"/>
      <path id="Path_427" data-name="Path 427" d="M226.936,244.936l.377-.03a7.361,7.361,0,0,0,6.553-4.7,8.538,8.538,0,0,0,.245-.829,8.3,8.3,0,0,0,.132-.894c.044-.6,0-1.264,0-1.932V227.3c0-13.933-.031-34.085-.05-58.989V138.376a5.85,5.85,0,0,0-5.177-5.366,28.332,28.332,0,0,0-2.859-.066H62.11a5.082,5.082,0,0,0-1.778.274,4.51,4.51,0,0,0-2.589,2.26,4.119,4.119,0,0,0-.415,1.652V238.479a5.852,5.852,0,0,0,5.315,6.248,15.109,15.109,0,0,0,1.564.036h77.773l62.159.054h16.9l-16.9.03-62.159.048H64.209q-.8.019-1.6-.042a6.113,6.113,0,0,1-5.63-6.523V137.1a4.675,4.675,0,0,1,3.217-4.173,5.5,5.5,0,0,1,1.885-.292H226.132q1.449-.036,2.9.072a6.412,6.412,0,0,1,2.689,1,5.9,5.9,0,0,1,2.708,4.6c.038,3.541,0,7,0,10.4v19.544c0,24.9-.044,45.055-.05,58.989V236.5c0,.674,0,1.312-.031,1.938a8.183,8.183,0,0,1-.138.9,7,7,0,0,1-1.948,3.446,7.3,7.3,0,0,1-4.932,2.087Z" transform="translate(-56.972 -132.625)" fill="#263238"/>
    </g>
    <g id="freepik--Tab--inject-4" transform="translate(185.924 51.494)">
      <path id="Path_428" data-name="Path 428" d="M289.212,72.93H425a5.845,5.845,0,0,1,4.025,1.585,5.259,5.259,0,0,1,1.661,3.823V256.395a5.137,5.137,0,0,1-5.259,4.978H289.263a4.646,4.646,0,0,1-4.763-4.519V77.4a4.622,4.622,0,0,1,4.712-4.466Z" transform="translate(-284.373 -72.798)" fill="#fff"/>
      <path id="Path_429" data-name="Path 429" d="M289.212,72.93H425a5.845,5.845,0,0,1,4.025,1.585,5.259,5.259,0,0,1,1.661,3.823V90.119H284.5V77.425a4.62,4.62,0,0,1,4.712-4.5Z" transform="translate(-284.373 -72.798)" fill="#e0e0e0"/>
      <ellipse id="Ellipse_27" data-name="Ellipse 27" cx="2.4" cy="2.164" rx="2.4" ry="2.164" transform="translate(7.604 6.243)" fill="#fff"/>
      <ellipse id="Ellipse_28" data-name="Ellipse 28" cx="2.4" cy="2.164" rx="2.4" ry="2.164" transform="translate(15.697 6.243)" fill="#fff"/>
      <path id="Path_430" data-name="Path 430" d="M326.972,85.344a2.267,2.267,0,0,1-1.4,2.184,2.5,2.5,0,0,1-2.655-.422,2.2,2.2,0,0,1-.572-2.5,2.4,2.4,0,0,1,2.231-1.43,2.293,2.293,0,0,1,2.394,2.164Z" transform="translate(-298.376 -76.937)" fill="#fff"/>
      <rect id="Rectangle_388" data-name="Rectangle 388" width="5.887" height="40.852" transform="translate(21.992 48.001)" fill="#2bace3"/>
      <rect id="Rectangle_389" data-name="Rectangle 389" width="5.887" height="26.978" transform="translate(33.359 61.875)" fill="#2bace3"/>
      <rect id="Rectangle_390" data-name="Rectangle 390" width="5.887" height="35.981" transform="translate(44.718 53.075)" fill="#2bace3"/>
      <rect id="Rectangle_391" data-name="Rectangle 391" width="5.887" height="39.272" transform="translate(56.078 49.575)" fill="#2bace3"/>
      <rect id="Rectangle_392" data-name="Rectangle 392" width="5.887" height="26.144" transform="translate(67.438 62.704)" fill="#2bace3"/>
      <rect id="Rectangle_393" data-name="Rectangle 393" width="5.887" height="21.016" transform="translate(78.804 67.831)" fill="#2bace3"/>
      <rect id="Rectangle_394" data-name="Rectangle 394" width="5.887" height="36.655" transform="translate(90.164 52.193)" fill="#2bace3"/>
      <rect id="Rectangle_395" data-name="Rectangle 395" width="5.887" height="30.049" transform="translate(101.524 58.799)" fill="#2bace3"/>
      <rect id="Rectangle_396" data-name="Rectangle 396" width="5.887" height="35.331" transform="translate(112.884 53.522)" fill="#2bace3"/>
      <rect id="Rectangle_397" data-name="Rectangle 397" width="5.887" height="24.069" transform="translate(124.25 64.779)" fill="#2bace3"/>
      <g id="Group_1604" data-name="Group 1604" transform="translate(33.359 61.875)" opacity="0.3">
        <rect id="Rectangle_398" data-name="Rectangle 398" width="5.887" height="26.978" fill="#fff"/>
      </g>
      <g id="Group_1605" data-name="Group 1605" transform="translate(56.078 49.575)" opacity="0.3">
        <rect id="Rectangle_399" data-name="Rectangle 399" width="5.887" height="39.272" fill="#fff"/>
      </g>
      <g id="Group_1606" data-name="Group 1606" transform="translate(78.804 67.831)" opacity="0.3">
        <rect id="Rectangle_400" data-name="Rectangle 400" width="5.887" height="21.016" fill="#fff"/>
      </g>
      <g id="Group_1607" data-name="Group 1607" transform="translate(101.524 58.799)" opacity="0.3">
        <rect id="Rectangle_401" data-name="Rectangle 401" width="5.887" height="30.049" fill="#fff"/>
      </g>
      <g id="Group_1608" data-name="Group 1608" transform="translate(124.25 64.779)" opacity="0.3">
        <rect id="Rectangle_402" data-name="Rectangle 402" width="5.887" height="24.069" fill="#fff"/>
      </g>
      <path id="Path_431" data-name="Path 431" d="M309.529,155.86v2.85c0,1.866,0,4.579.038,8.031,0,6.928.031,16.8.057,28.618l-.138-.137h39.037l57.038.048,17.279.048,4.7.03h0l-4.7.03-17.279.054-57.038.042H309.34v-.137c0-11.8.044-21.672.057-28.618,0-3.452.031-6.165.044-8.031v-2.665a1.121,1.121,0,0,1,.088-.161Z" transform="translate(-293.606 -106.285)" fill="#263238"/>
      <rect id="Rectangle_403" data-name="Rectangle 403" width="34.934" height="3.434" rx="1.717" transform="translate(16.231 34.163)" fill="#e0e0e0"/>
      <rect id="Rectangle_404" data-name="Rectangle 404" width="114.912" height="3.434" rx="1.717" transform="translate(12.951 103.282)" fill="#e0e0e0"/>
      <rect id="Rectangle_405" data-name="Rectangle 405" width="114.912" height="3.434" rx="1.717" transform="translate(12.951 122.378)" fill="#e0e0e0"/>
      <rect id="Rectangle_406" data-name="Rectangle 406" width="62.379" height="3.434" rx="1.717" transform="translate(12.951 112.785)" fill="#e0e0e0"/>
      <rect id="Rectangle_407" data-name="Rectangle 407" width="44.95" height="3.434" rx="1.717" transform="translate(82.166 112.785)" fill="#e0e0e0"/>
      <rect id="Rectangle_408" data-name="Rectangle 408" width="44.95" height="3.434" rx="1.717" transform="translate(13.705 131.965)" fill="#e0e0e0"/>
      <path id="Path_432" data-name="Path 432" d="M425.356,261.284a6.167,6.167,0,0,0,1.715-.292,5.131,5.131,0,0,0,3.336-3.446,5.381,5.381,0,0,0,.17-1.681V238.747c0-16.348-.031-40-.05-69.22V79.441c0-.6,0-1.192-.038-1.789a5.221,5.221,0,0,0-1.539-3.082,5.676,5.676,0,0,0-3.23-1.532,16.272,16.272,0,0,0-1.885-.054H289.464a4.545,4.545,0,0,0-4.725,3.375,8.415,8.415,0,0,0-.119,2.039q0,4.173,0,8.287V257.039a4.248,4.248,0,0,0,1.257,2.749,4.751,4.751,0,0,0,2.8,1.335c.521.048,1.074.03,1.621.036h35.393l72.947.048,19.836.03H398.64l-72.947.054H290.262c-.547,0-1.087,0-1.652-.036a4.751,4.751,0,0,1-4.3-4.317c-.031-2.122,0-4.245,0-6.4V77.36a5.064,5.064,0,0,1,.132-1.067,4.89,4.89,0,0,1,5.027-3.577H423.841a17.215,17.215,0,0,1,1.916.054,5.681,5.681,0,0,1,5.026,4.871c.057.6,0,1.192.038,1.789v90.153c0,29.214-.044,52.872-.057,69.22v17.117a5.529,5.529,0,0,1-.182,1.7A4.907,4.907,0,0,1,429.05,260a5.393,5.393,0,0,1-1.854,1.049,5.447,5.447,0,0,1-1.288.25Z" transform="translate(-284.298 -72.709)" fill="#263238"/>
      <path id="Path_433" data-name="Path 433" d="M341.791,335.249c.1,7.961-6.609,14.5-15,14.6s-15.285-6.252-15.41-14.212,6.569-14.512,14.957-14.641C334.748,320.9,341.657,327.271,341.791,335.249Zm-22.475.346a7.161,7.161,0,1,0-.006,0Z" transform="translate(-294.365 -172.966)" fill="#e0e0e0"/>
      <path id="Path_434" data-name="Path 434" d="M350.64,335.249c.144,7.976-6.537,14.56-14.941,14.726l-.126-7.566a6.938,6.938,0,1,0-.232-13.856L335.19,321C343.6,320.9,350.509,327.27,350.64,335.249Z" transform="translate(-303.214 -172.966)" fill="#455a64"/>
      <path id="Path_435" data-name="Path 435" d="M327.618,360.329a17.892,17.892,0,0,1-12.531-4.666A16.085,16.085,0,0,1,309.83,343.9l9.28-.143c.075,4.472,3.663,7.286,8.35,7.214Z" transform="translate(-293.788 -182.157)" fill="#2bace3"/>
      <path id="Path_436" data-name="Path 436" d="M376.639,337.746c-.1-7.959,6.619-14.488,15.006-14.592s15.279,6.258,15.4,14.216-6.57,14.508-14.957,14.637c-8.411.1-15.319-6.281-15.45-14.261Zm22.475-.346a7.278,7.278,0,1,0-7.169,7.047,7.485,7.485,0,0,0,5.124-2.114A6.735,6.735,0,0,0,399.114,337.4Z" transform="translate(-318.62 -173.836)" fill="#455a64"/>
      <path id="Path_437" data-name="Path 437" d="M376.639,337.656c-.14-7.981,6.55-14.566,14.96-14.726l.126,7.566a6.935,6.935,0,1,0,.232,13.862l.132,7.56C383.674,352.024,376.759,345.641,376.639,337.656Z" transform="translate(-318.619 -173.746)" fill="#2bace3"/>
      <path id="Path_438" data-name="Path 438" d="M398.28,321a17.891,17.891,0,0,1,12.531,4.666,16.086,16.086,0,0,1,5.257,11.759l-9.28.137c-.075-4.466-3.663-7.286-8.35-7.208Z" transform="translate(-326.663 -172.964)" fill="#e0e0e0"/>
      <path id="Path_439" data-name="Path 439" d="M459.839,321.289c8.388-.091,15.269,6.281,15.378,14.239s-6.595,14.5-14.982,14.615-15.289-6.235-15.425-14.193C444.7,327.968,451.427,321.41,459.839,321.289Zm.364,21.326a6.908,6.908,0,1,0-7.42-6.785A7.073,7.073,0,0,0,460.2,342.616Z" transform="translate(-343.957 -173.083)" fill="#455a64"/>
      <path id="Path_440" data-name="Path 440" d="M459.839,321.289c8.412-.136,15.354,6.214,15.519,14.2l-7.973.119a7.312,7.312,0,0,0-14.6.227l-7.973.119C444.708,327.968,451.428,321.413,459.839,321.289Z" transform="translate(-343.957 -173.083)" fill="#2bace3"/>
      <path id="Path_441" data-name="Path 441" d="M485.055,342.93a16.038,16.038,0,0,1-4.915,11.889,17.841,17.841,0,0,1-12.388,4.99L467.6,351a7.414,7.414,0,0,0,7.6-7.924Z" transform="translate(-352.429 -181.822)" fill="#e0e0e0"/>
    </g>
    <g id="freepik--Chart--inject-4" transform="translate(119.907 31.864)">
      <rect id="Rectangle_409" data-name="Rectangle 409" width="48.713" height="43.446" rx="4.34" transform="translate(0.133 0.075)" fill="#fafafa"/>
      <path id="Path_442" data-name="Path 442" d="M179.361,42.447a1.545,1.545,0,0,1,0-.453,2.5,2.5,0,0,1,.565-1.192,2.784,2.784,0,0,1,1.992-.966h3.1l19.748-.048h20.263a3.827,3.827,0,0,1,1,.089,2.882,2.882,0,0,1,1.665,1.1,2.708,2.708,0,0,1,.421.912,4.007,4.007,0,0,1,.082.978V80.777a2.7,2.7,0,0,1-1.03,2.1,2.779,2.779,0,0,1-1.1.549,4.521,4.521,0,0,1-1.219.1H181.83a3,3,0,0,1-1.759-.775,2.689,2.689,0,0,1-.829-1.634c-.031-4.68,0-9,0-12.956,0-7.906.038-14.309.05-18.739v0c0,4.43.031,10.833.05,18.739,0,3.953,0,8.281.038,12.926a2.541,2.541,0,0,0,2.344,2.176H224.75a4.371,4.371,0,0,0,1.131-.089,2.438,2.438,0,0,0,1.885-2.349V42.918a2.651,2.651,0,0,0-.446-1.735,2.617,2.617,0,0,0-1.5-1,3.676,3.676,0,0,0-.93-.078H204.8l-19.748-.2h-3.1a2.757,2.757,0,0,0-1.948.912,2.537,2.537,0,0,0-.584,1.192C179.361,42.3,179.374,42.447,179.361,42.447Z" transform="translate(-179.228 -39.784)" fill="#263238"/>
      <path id="Path_443" data-name="Path 443" d="M222.935,101.957c0,.078-5.567.137-12.434.137s-12.441-.06-12.441-.137,5.567-.137,12.441-.137S222.935,101.886,222.935,101.957Z" transform="translate(-186.227 -64.834)" fill="#263238"/>
      <path id="Path_444" data-name="Path 444" d="M220.663,105.6c0,.072-3.091.131-6.911.131s-6.911-.06-6.911-.131,3.085-.137,6.911-.137S220.663,105.52,220.663,105.6Z" transform="translate(-189.491 -66.304)" fill="#263238"/>
      <path id="Path_445" data-name="Path 445" d="M219.375,73.77l12.365.137c-.2,6.332-5.689,11.357-12.365,11.328H219.3Z" transform="translate(-194.122 -53.507)" fill="#455a64"/>
      <path id="Path_446" data-name="Path 446" d="M209.268,63.2l-.188,11.495c-6.642-.225-11.856-5.479-11.7-11.783s5.636-11.313,12.281-11.234,11.987,5.216,11.981,11.522Z" transform="translate(-185.975 -44.585)" fill="#2bace3"/>
    </g>
    <g id="freepik--speech-bubble--inject-4" transform="translate(102.14 81.182)">
      <path id="Path_447" data-name="Path 447" d="M182.856,145.794l-4.694.435a15.758,15.758,0,0,1-20.223,3.285,14.011,14.011,0,0,1-5.26-18.818,15.582,15.582,0,0,1,19.28-6.658,14.225,14.225,0,0,1,8.716,17.624h0Z" transform="translate(-150.95 -122.681)" fill="#fff"/>
      <path id="Path_448" data-name="Path 448" d="M182.979,145.455l-.157-.28-.427-.787c-.377-.709-.924-1.723-1.627-3.047h.119a.072.072,0,0,1-.094,0,.076.076,0,0,1-.031-.078,13.782,13.782,0,0,0,.4-7,14.407,14.407,0,0,0-5.152-8.234,15.578,15.578,0,0,0-12.468-3.048,14.942,14.942,0,0,0-10.358,7.257l-.427.781-.346.811a15.036,15.036,0,0,0-.565,1.646,13.781,13.781,0,0,0,5.108,14.536,15.651,15.651,0,0,0,11.125,3.1,15.308,15.308,0,0,0,10.156-5.308h.05l3.468-.28.911-.066h.32l-.289.036-.886.1-3.512.364h.044a14.954,14.954,0,0,1-5.887,4.346,15.693,15.693,0,0,1-19.83-6.892,14.1,14.1,0,0,1-1.546-6.493,13.815,13.815,0,0,1,.452-3.452,14.368,14.368,0,0,1,.572-1.681l.352-.829.434-.8a15.245,15.245,0,0,1,10.564-7.388,15.892,15.892,0,0,1,12.708,3.107,14.544,14.544,0,0,1,5.19,8.4,13.746,13.746,0,0,1-.478,7.077l-.132-.054h0a.078.078,0,0,1,.1,0v.03l1.571,3.118c.17.334.3.6.39.787A2.748,2.748,0,0,1,182.979,145.455Z" transform="translate(-150.998 -122.504)" fill="#263238"/>
      <rect id="Rectangle_410" data-name="Rectangle 410" width="2.318" height="6.201" transform="translate(20.709 14.128)" fill="#e0e0e0"/>
      <path id="Path_449" data-name="Path 449" d="M182.54,145.725H186.5l-2.023-1.985Z" transform="translate(-162.692 -131.079)" fill="#e0e0e0"/>
      <rect id="Rectangle_411" data-name="Rectangle 411" width="3.104" height="17.189" transform="translate(14.193 5.614)" fill="#e0e0e0"/>
      <path id="Path_450" data-name="Path 450" d="M171.71,131.287h5.3L174.3,128.64Z" transform="translate(-158.666 -124.981)" fill="#e0e0e0"/>
      <path id="Path_451" data-name="Path 451" d="M173.87,148.118v1.622H172.35v-1.574a7.431,7.431,0,0,1-3.77-1.192l.861-1.753a6.34,6.34,0,0,0,2.94,1.061l.031-2.385c-1.684-.411-3.563-.972-3.531-3.035,0-1.532,1.206-2.826,3.619-3.059v-1.6h1.521v1.574a7.111,7.111,0,0,1,3.072.924l-.785,1.789a6.408,6.408,0,0,0-2.312-.781l-.038,2.456c1.684.393,3.531.954,3.506,2.981C177.458,146.592,176.283,147.874,173.87,148.118Zm-1.433-6.4V139.67c-.8.161-1.131.6-1.137,1.055s.5.787,1.162,1Zm2.57,3.512c0-.507-.434-.787-1.087-1.008v1.991c.76-.149,1.1-.519,1.112-.984Z" transform="translate(-157.503 -128.034)" fill="#2bace3"/>
      <rect id="Rectangle_412" data-name="Rectangle 412" width="2.677" height="7.154" transform="translate(7.514 10.294)" fill="#e0e0e0"/>
      <path id="Path_452" data-name="Path 452" d="M161.33,139.225H165.9l-2.337-2.3Z" transform="translate(-154.808 -128.329)" fill="#e0e0e0"/>
    </g>
    <g id="freepik--Character--inject-4" transform="translate(105.925 89.397)">
      <path id="Path_453" data-name="Path 453" d="M253.685,433.678l-.421,10.666s11.31,3.989,11.4,5.962l-21.815-.036-.057-16.64Z" transform="translate(-188.871 -256.349)" fill="#455a64"/>
      <path id="Path_454" data-name="Path 454" d="M248.339,450.062a.839.839,0,0,0-.628.966.857.857,0,0,0,1,.6.884.884,0,0,0,.628-1.026.906.906,0,0,0-1.112-.507" transform="translate(-190.694 -262.979)" fill="#e0e0e0"/>
      <path id="Path_455" data-name="Path 455" d="M242.88,460.405l.063-1.675,20.9.662s.968.405.854,1.049Z" transform="translate(-188.904 -266.484)" fill="#263238"/>
      <path id="Path_456" data-name="Path 456" d="M258.82,451.35c0,.1-.534.143-1.062.471s-.8.745-.9.71.063-.6.7-1.008S258.858,451.254,258.82,451.35Z" transform="translate(-194.088 -263.462)" fill="#fff"/>
      <path id="Path_457" data-name="Path 457" d="M262.8,452.9c0,.1-.44.268-.8.7s-.465.876-.572.876-.17-.6.289-1.1S262.794,452.809,262.8,452.9Z" transform="translate(-195.769 -264.116)" fill="#fff"/>
      <path id="Path_458" data-name="Path 458" d="M265.64,456.118c-.1,0-.245-.489,0-1.037s.773-.775.817-.692-.264.382-.484.841S265.747,456.106,265.64,456.118Z" transform="translate(-197.314 -264.724)" fill="#fff"/>
      <path id="Path_459" data-name="Path 459" d="M258.379,447.09c-.044.089-.534-.048-1.137,0s-1.068.215-1.125.131.4-.447,1.106-.483S258.429,447.006,258.379,447.09Z" transform="translate(-193.823 -261.64)" fill="#fff"/>
      <path id="Path_460" data-name="Path 460" d="M212.534,434.82l-.628,12.9,2.62,10.332a1.267,1.267,0,0,1-.192,1.04,1.4,1.4,0,0,1-.933.576h0a1.43,1.43,0,0,1-1.213-.37c-2.036-1.932-9.274-9.17-9.305-9.855-.044-1.1-.383-13.8-.383-13.8Z" transform="translate(-173.896 -256.829)" fill="#455a64"/>
      <path id="Path_461" data-name="Path 461" d="M213.638,468.866,203.07,457.61v.549a2,2,0,0,0,.471,1.3c.842.984,3.23,3.643,8.853,9.039a1.444,1.444,0,0,0,1.257.37Z" transform="translate(-174.107 -266.032)" fill="#263238"/>
      <g id="Group_1609" data-name="Group 1609" transform="translate(30.616 187.344)" opacity="0.6">
        <path id="Path_462" data-name="Path 462" d="M206.938,450.641a.778.778,0,0,1,.207,1.049.845.845,0,0,1-1.1.2.812.812,0,0,1-.207-1.115.874.874,0,0,1,1.162-.089" transform="translate(-205.701 -450.508)" fill="#fff"/>
      </g>
      <path id="Path_463" data-name="Path 463" d="M215.143,465.951a4.1,4.1,0,0,1,1.219-.978,4.614,4.614,0,0,1,1.571-.256c0-.03-.157-.131-.478-.179a2.264,2.264,0,0,0-2.155.948C215.137,465.748,215.112,465.939,215.143,465.951Z" transform="translate(-178.591 -268.822)" fill="#fff"/>
      <path id="Path_464" data-name="Path 464" d="M216.625,469.238a12.633,12.633,0,0,1,1.219-.531,11.007,11.007,0,0,1,1.332-.131,1.637,1.637,0,0,0-1.414-.143C216.958,468.642,216.556,469.2,216.625,469.238Z" transform="translate(-179.143 -270.362)" fill="#fff"/>
      <path id="Path_465" data-name="Path 465" d="M212.36,462.151a14.637,14.637,0,0,1,1.822-.936,14.259,14.259,0,0,1,2.029-.405,3.225,3.225,0,0,0-2.13.137A3.135,3.135,0,0,0,212.36,462.151Z" transform="translate(-177.56 -267.275)" fill="#fff"/>
      <path id="Path_466" data-name="Path 466" d="M212.11,456.193c0,.078.792-.2,1.766-.215s1.753.227,1.784.143a2.854,2.854,0,0,0-1.791-.429A2.792,2.792,0,0,0,212.11,456.193Z" transform="translate(-177.468 -265.252)" fill="#fff"/>
      <path id="Path_467" data-name="Path 467" d="M212.229,449.8a7.354,7.354,0,0,1,1.835-.268,7.081,7.081,0,0,1,1.8.465,1.357,1.357,0,0,0-.434-.37,3.1,3.1,0,0,0-1.345-.382,3.046,3.046,0,0,0-1.382.238C212.374,449.628,212.21,449.777,212.229,449.8Z" transform="translate(-177.511 -262.652)" fill="#fff"/>
      <path id="Path_468" data-name="Path 468" d="M214.032,446.788a1.082,1.082,0,0,0,.031-.489,3.228,3.228,0,0,0-.383-1.288,1.5,1.5,0,0,0-.66-.733.588.588,0,0,0-.628.107.862.862,0,0,0-.232.6,1.917,1.917,0,0,0,1.69,1.789,2.318,2.318,0,0,0,2.268-1.091.711.711,0,0,0,.05-.6.553.553,0,0,0-.565-.292,2.05,2.05,0,0,0-.9.423,4.011,4.011,0,0,0-.955.984c-.176.268-.232.435-.214.441a6.12,6.12,0,0,1,1.294-1.264,1.83,1.83,0,0,1,.8-.346.286.286,0,0,1,.308.155.49.49,0,0,1-.057.405,2.085,2.085,0,0,1-1.979.924,1.672,1.672,0,0,1-1.458-1.479.623.623,0,0,1,.145-.411.32.32,0,0,1,.346-.066,1.408,1.408,0,0,1,.578.6A4.984,4.984,0,0,1,214.032,446.788Z" transform="translate(-177.486 -260.629)" fill="#fff"/>
      <path id="Path_469" data-name="Path 469" d="M245.041,283.2a43.493,43.493,0,0,1,1.659,13.427c-.107,2.874-6.748,82.5-6.748,82.5l-13.741.554.534-74.586-1.112.28s-6.082,32.04-6.465,37.209c-.346,4.639-5.171,38.455-5.171,38.455l-12.516-.328,1.985-43.583,2.765-42.784,1.231-12.491Z" transform="translate(-173.517 -195.061)" fill="#263238"/>
      <path id="Path_470" data-name="Path 470" d="M237.71,300.936a2.244,2.244,0,0,0,.584.286,6.819,6.819,0,0,0,1.728.495,3.686,3.686,0,0,0,1.257-.042,2.693,2.693,0,0,0,1.294-.656,2.931,2.931,0,0,0,.741-1.365c.138-.513.207-1.043.3-1.58.339-2.17.547-4.144.66-5.575.057-.715.088-1.294.1-1.693a2.568,2.568,0,0,0,0-.6,2.613,2.613,0,0,0-.1.6c-.05.453-.119,1.02-.195,1.681-.157,1.425-.4,3.386-.741,5.551a4.962,4.962,0,0,1-.949,2.808,2.968,2.968,0,0,1-2.344.686,8.116,8.116,0,0,1-1.709-.405A3.509,3.509,0,0,0,237.71,300.936Z" transform="translate(-186.983 -198.437)" fill="#455a64"/>
      <path id="Path_471" data-name="Path 471" d="M242.637,290.956a.523.523,0,0,0-.283-.066,1.3,1.3,0,0,0-.76.262,1.266,1.266,0,0,0-.534,1.031,1.311,1.311,0,0,0,.93,1.085,1.413,1.413,0,0,0,1.426-.351,1.252,1.252,0,0,0,.214-1.133,1.191,1.191,0,0,0-.446-.638c-.163-.107-.27-.119-.276-.107a1.506,1.506,0,0,1,.521.793,1.145,1.145,0,0,1-.22.924,1.062,1.062,0,0,1-1.131.25.976.976,0,0,1-.748-.835,1.124,1.124,0,0,1,.4-.87,1.625,1.625,0,0,1,.911-.346Z" transform="translate(-188.228 -198.711)" fill="#455a64"/>
      <path id="Path_472" data-name="Path 472" d="M209.29,298.3a1.566,1.566,0,0,0,.471.048,9.226,9.226,0,0,0,1.288-.036,12.807,12.807,0,0,0,7.577-3.4,8.912,8.912,0,0,0,.855-.918,1.5,1.5,0,0,0,.258-.376c-.044-.03-.459.465-1.257,1.157a14.229,14.229,0,0,1-7.464,3.339C209.962,298.258,209.29,298.246,209.29,298.3Z" transform="translate(-176.419 -199.813)" fill="#455a64"/>
      <path id="Path_473" data-name="Path 473" d="M292.56,205.756l7.615-14.386,5.787,2.79-4.951,16.086Z" transform="translate(-207.37 -158.526)" fill="#ffbf9d"/>
      <path id="Path_474" data-name="Path 474" d="M311.4,183.284c.861-1.341,1.885-2.814,1.885-2.814l.829-1.347a1.522,1.522,0,0,1,.188.256,1.139,1.139,0,0,0,.4.447,1.01,1.01,0,0,0,1.081-.25,2.146,2.146,0,0,0,.734-2.1,2.255,2.255,0,0,0-1.544-1.653,1.754,1.754,0,0,0-.434-.495c-1.206-.918-3.349-.286-3.349-.286l.22-.513s1.257-1.192,4.109-.268a1.927,1.927,0,0,0,1.307,0,.915.915,0,0,0,.572-.531c.226-.656-.214-.972-1.967-1.58s-3.669-.638-4.725,0a12.184,12.184,0,0,0-1.414.978s1.715-4.716,1.81-5.02c.276-.876.1-1.723-.5-1.95-.383-.149-.98-.066-1.338.948-.308.87-4.662,9.45-4.662,9.45l-1.7,3.9-.848,3.428,5.278,2.277,1.326-.787a5.085,5.085,0,0,0,2.739-2.093Z" transform="translate(-210.901 -148.323)" fill="#ffbf9d"/>
      <path id="Path_475" data-name="Path 475" d="M304.89,186.945a1.431,1.431,0,0,0,1.577-.25c.434-.352.735-.829,1.144-1.192,1.225-1.133,3.255-1.228,4.4-2.421.163-.161.314-.417.176-.6s-.4-.149-.628-.107l-5.535.954" transform="translate(-211.953 -154.882)" fill="#ffbf9d"/>
      <path id="Path_476" data-name="Path 476" d="M306.021,183.2a2.766,2.766,0,0,1,.591-.167c.383-.083.942-.2,1.634-.34l2.432-.471.7-.137a1.174,1.174,0,0,1,.848.036.429.429,0,0,1,.17.477.964.964,0,0,1-.22.388,3.992,3.992,0,0,1-.628.519,22.786,22.786,0,0,1-2.765,1.234,4.257,4.257,0,0,0-1.062.674,11.081,11.081,0,0,0-.76.811,2.054,2.054,0,0,1-1.483.769c-.427,0-.628-.2-.584-.2a1.733,1.733,0,0,0,.578.083,1.967,1.967,0,0,0,1.313-.793,11.065,11.065,0,0,1,.748-.847,4.457,4.457,0,0,1,1.118-.745,26.565,26.565,0,0,0,2.714-1.234,3.335,3.335,0,0,0,.572-.471c.157-.167.22-.364.107-.423a2.154,2.154,0,0,0-.628,0l-.71.125-2.438.405c-.7.113-1.257.2-1.652.25A2.087,2.087,0,0,1,306.021,183.2Z" transform="translate(-211.953 -154.752)" fill="#ff9a6c"/>
      <path id="Path_477" data-name="Path 477" d="M316.467,180a2.122,2.122,0,0,1,.628-.811,1.9,1.9,0,0,1,1.081-.328,4.953,4.953,0,0,1,1.407.238,7.976,7.976,0,0,0,1.451.316,2.492,2.492,0,0,0,1.257-.167.9.9,0,0,0,.528-.6.675.675,0,0,0,0-.286,2.294,2.294,0,0,0-.075.268.855.855,0,0,1-.509.507,2.562,2.562,0,0,1-1.144.113,8.247,8.247,0,0,1-1.407-.328,4.667,4.667,0,0,0-1.477-.227,1.948,1.948,0,0,0-1.162.4,1.672,1.672,0,0,0-.5.638C316.461,179.9,316.454,180,316.467,180Z" transform="translate(-216.254 -153.277)" fill="#ff9a6c"/>
      <path id="Path_478" data-name="Path 478" d="M315.279,168.9a6.09,6.09,0,0,0-.346.936c-.22.65-.484,1.419-.779,2.272l-.811,2.26a6.2,6.2,0,0,0-.314.948,4.083,4.083,0,0,0,.452-.9c.245-.6.559-1.359.873-2.248s.559-1.7.716-2.289A4.252,4.252,0,0,0,315.279,168.9Z" transform="translate(-214.978 -149.453)" fill="#ff9a6c"/>
      <path id="Path_479" data-name="Path 479" d="M317.66,183.266h.327a1.025,1.025,0,0,1,.779.2.471.471,0,0,1,.113.477,2.85,2.85,0,0,1-.258.6,1.038,1.038,0,0,0-.145.775.963.963,0,0,0,.628.6,1.219,1.219,0,0,0,.9-.078,1.428,1.428,0,0,0,.6-.543,4.1,4.1,0,0,0,.408-1.192,2.378,2.378,0,0,0,0-.859.666.666,0,0,0-.119-.292,2.742,2.742,0,0,0,.038.3,2.678,2.678,0,0,1-.088.823,4.38,4.38,0,0,1-.427,1.151,1.155,1.155,0,0,1-1.257.525.766.766,0,0,1-.5-.477.93.93,0,0,1,.119-.65,2.74,2.74,0,0,0,.264-.644.577.577,0,0,0-.189-.6,1.067,1.067,0,0,0-.892-.185.834.834,0,0,0-.3.066Z" transform="translate(-216.699 -155.126)" fill="#ff9a6c"/>
      <path id="Path_480" data-name="Path 480" d="M321.289,185.5a.4.4,0,0,0-.069.274.851.851,0,0,0,.408.668,1.316,1.316,0,0,0,1.206,0,1.949,1.949,0,0,0,.924-1.091,2.163,2.163,0,0,0-1.313-2.749.657.657,0,0,0-.289-.06,3.68,3.68,0,0,1,.873.56,2.056,2.056,0,0,1,.565.906,2.025,2.025,0,0,1-.031,1.276,1.807,1.807,0,0,1-.823,1,1.139,1.139,0,0,1-1.037,0,.806.806,0,0,1-.4-.554C321.27,185.6,321.308,185.5,321.289,185.5Z" transform="translate(-218.022 -154.96)" fill="#ff9a6c"/>
      <path id="Path_481" data-name="Path 481" d="M313,189.155a1.126,1.126,0,0,0-.478-.143,2.071,2.071,0,0,0-1.257.274l.151.1a5.04,5.04,0,0,0,.113-.662,3.98,3.98,0,0,0-.327-2.289,10.242,10.242,0,0,1,.119,2.272,4.811,4.811,0,0,1-.1.644l-.044.221.195-.125a2.2,2.2,0,0,1,1.137-.31C312.82,189.155,313,189.184,313,189.155Z" transform="translate(-214.29 -156.531)" fill="#ff9a6c"/>
      <path id="Path_482" data-name="Path 482" d="M318.759,177.569c-.057,0,0,.405.39.715a1,1,0,0,0,.8.292c0-.06-.339-.161-.66-.435S318.815,177.545,318.759,177.569Z" transform="translate(-217.101 -152.953)" fill="#ff9a6c"/>
      <path id="Path_483" data-name="Path 483" d="M294.339,198.178l-7.7-3.762-6.6,10.064L268.2,195.322a18.924,18.924,0,0,0-6.943-3.142l-.672,2,2.061,16.515s13.3,7.989,16.763,8.317C286.636,219.695,294.339,198.178,294.339,198.178Z" transform="translate(-195.483 -158.853)" fill="#455a64"/>
      <path id="Path_484" data-name="Path 484" d="M245.53,226.763l-1.489-23.252-3.563-12.169-11.2-1.252-13.333.769-11.259,5.962,1.854,18.667,2.739,19.562-1.634,15.5c2.306,2.033,9.676,4.615,20.734,3.977a40.59,40.59,0,0,0,18.391-5.467Z" transform="translate(-174.71 -158.009)" fill="#455a64"/>
      <path id="Path_485" data-name="Path 485" d="M189.7,263.378c0-.477-5.3-25.041-5.209-26.179.735-9.039,5.366-23.526,6.773-28.069,2.13-6.856,6.434-8.079,6.434-8.079a27.315,27.315,0,0,1,3.387,7.751,22.341,22.341,0,0,1,0,10.672L196.748,236.2l2.727,26.484Z" transform="translate(-167.201 -162.435)" fill="#455a64"/>
      <path id="Path_486" data-name="Path 486" d="M264.86,207.2a5.289,5.289,0,0,1,.333.93c.195.6.44,1.485.7,2.582s.534,2.385.748,3.893.371,3.112.484,4.829c.207,3.428.3,6.558.427,8.782.063,1.079.119,1.973.157,2.653a5.609,5.609,0,0,1,0,.984,6.857,6.857,0,0,1-.145-.972c-.082-.6-.163-1.532-.264-2.653-.195-2.242-.314-5.366-.521-8.776-.113-1.711-.264-3.339-.459-4.805s-.44-2.79-.672-3.893-.44-1.985-.628-2.594A6.605,6.605,0,0,1,264.86,207.2Z" transform="translate(-197.074 -164.918)" fill="#263238"/>
      <path id="Path_487" data-name="Path 487" d="M292.091,220.185a3.677,3.677,0,0,1-.534-1.1,11.493,11.493,0,0,1-.628-2.868,11.959,11.959,0,0,1,.082-2.927,3.293,3.293,0,0,1,.314-1.192,28.292,28.292,0,0,0-.069,4.078,27.4,27.4,0,0,0,.836,4.007Z" transform="translate(-206.743 -166.896)" fill="#263238"/>
      <path id="Path_488" data-name="Path 488" d="M208.388,232.7c.088,0-.773,3.577-1.929,8s-2.155,7.941-2.243,7.924.779-3.577,1.929-8S208.3,232.682,208.388,232.7Z" transform="translate(-174.531 -175.215)" fill="#263238"/>
      <path id="Path_489" data-name="Path 489" d="M207.98,214.738c-.088.042-.767-1.437-2-3.017s-2.513-2.629-2.457-2.7a9.3,9.3,0,0,1,2.721,2.516,8.73,8.73,0,0,1,1.74,3.2Z" transform="translate(-174.274 -165.653)" fill="#263238"/>
      <path id="Path_490" data-name="Path 490" d="M236.79,301.337c10.9-1.939,21.88,2.988,27.216,12.213a23.394,23.394,0,0,1-3.756,28.345,26.651,26.651,0,0,1-29.555,5.44h0c-10.109-4.463-16.022-14.611-14.632-25.108S225.831,303.286,236.79,301.337Zm9.148,46.242c11.573-2.073,19.833-11.833,19.467-23s-9.248-20.425-20.935-21.811-22.7,5.507-25.95,16.248,2.219,22.13,12.9,26.843A25.1,25.1,0,0,0,245.938,347.579Z" transform="translate(-178.862 -202.761)" fill="#455a64"/>
      <path id="Path_491" data-name="Path 491" d="M240.689,349.842c-14.008-.027-25.67-10.208-26.865-23.451s8.476-25.157,22.275-27.441,27.15,5.817,30.752,18.662-3.738,26.172-16.908,30.7a28.016,28.016,0,0,1-9.255,1.532Zm.05-47.1a23.1,23.1,0,0,0-18.629,9.188,20.632,20.632,0,0,0-2.734,19.752c3.8,9.9,14.6,15.74,25.51,13.784h0A22.647,22.647,0,0,0,261.31,333.4a20.621,20.621,0,0,0-1.446-20.667,23.047,23.047,0,0,0-19.125-9.984Z" transform="translate(-178.068 -201.81)" fill="#e0e0e0"/>
      <path id="Path_492" data-name="Path 492" d="M157.217,300.437l.226-.531c.49-1.139,1.558-1.789,2.381-1.479l37.5,14.476c.188.072.251.334.138.6l-1.6,3.72c-.107.25-.346.4-.534.328l-37.491-14.476C156.99,302.75,156.733,301.57,157.217,300.437Z" transform="translate(-156.974 -201.724)" fill="#e0e0e0"/>
      <path id="Path_493" data-name="Path 493" d="M257.706,327.9c.063.066-4.825,4.12-10.9,9.056s-11.058,8.884-11.115,8.824,4.819-4.108,10.876-9.056S257.649,327.834,257.706,327.9Z" transform="translate(-186.232 -213.655)" fill="#fff"/>
      <path id="Path_494" data-name="Path 494" d="M269.72,327.9c.057.066-4.053,3.506-9.186,7.691s-9.337,7.524-9.425,7.464,4.053-3.512,9.186-7.7S269.663,327.834,269.72,327.9Z" transform="translate(-191.962 -213.655)" fill="#fff"/>
      <path id="Path_495" data-name="Path 495" d="M266.574,326.046a2.756,2.756,0,0,0-.038-.376c-.038-.244-.044-.6-.075-1.1a4.592,4.592,0,0,0-.05-.8c-.05-.292-.1-.6-.151-.966s-.126-.727-.189-1.127-.214-.811-.32-1.258a21.393,21.393,0,0,0-2.7-6.147,23.51,23.51,0,0,0-6.189-6.5l-1.049-.739c-.371-.227-.754-.435-1.137-.662a11.179,11.179,0,0,0-1.187-.65l-1.257-.6-.628-.286-.672-.233-1.363-.471c-.465-.143-.949-.238-1.426-.364a13.05,13.05,0,0,0-1.47-.31,23.269,23.269,0,0,0-3.06-.34c-.521,0-1.043-.066-1.577-.054l-1.6.077a4.553,4.553,0,0,0-.8.048l-.811.119c-.54.083-1.087.143-1.627.25a26.171,26.171,0,0,0-3.223.9,24.82,24.82,0,0,0-3.142,1.318c-.509.262-1,.566-1.5.853-.251.149-.515.28-.748.447l-.716.507a21.817,21.817,0,0,0-5.114,4.9l-.553.709-.49.751-.484.763a5.437,5.437,0,0,0-.452.781l-.823,1.622-.628,1.7a21.594,21.594,0,0,0,0,14.482c.22.566.44,1.133.628,1.7a13.2,13.2,0,0,0,.823,1.622l.207.4.245.382.459.727.49.757.553.71a21.508,21.508,0,0,0,5.114,4.871l.71.507c.239.173.5.3.748.447.509.286,1,.6,1.508.859a27.962,27.962,0,0,0,6.384,2.212c.54.107,1.087.167,1.627.25l.811.119c.264.036.54,0,.8.048l1.6.083c.534,0,1.056-.042,1.577-.06a24.569,24.569,0,0,0,3.066-.334,14.785,14.785,0,0,0,1.464-.316c.478-.125.961-.221,1.426-.364l1.363-.471.672-.233.628-.286,1.257-.6c.415-.179.785-.435,1.181-.65s.767-.435,1.137-.662l1.062-.692a23.5,23.5,0,0,0,6.164-6.522,21.4,21.4,0,0,0,2.7-6.129,12.617,12.617,0,0,0,.32-1.258c.05-.405.126-.775.188-1.127s.119-.668.151-.96.038-.566.05-.811c.031-.471.057-.835.075-1.1s.038-.37.038-.37v.37c0,.244,0,.626-.038,1.1l-.038.811a8.242,8.242,0,0,1-.138.972c-.05.376-.113.727-.176,1.127a11.11,11.11,0,0,1-.308,1.27,21.2,21.2,0,0,1-2.658,6.183,23.461,23.461,0,0,1-6.183,6.612l-1.037.781c-.371.233-.76.447-1.15.674a11.869,11.869,0,0,1-1.188.656l-1.257.6-.628.292-.679.238-1.376.477c-.465.149-.955.244-1.439.37a12.081,12.081,0,0,1-1.483.322,23.621,23.621,0,0,1-3.091.352c-.528,0-1.062.066-1.6.06l-1.621-.077a4.692,4.692,0,0,1-.817-.048l-.817-.113c-.547-.089-1.1-.149-1.646-.256a26.9,26.9,0,0,1-3.273-.9,26.229,26.229,0,0,1-3.192-1.33c-.521-.262-1.018-.6-1.533-.859-.245-.155-.515-.286-.754-.453l-.723-.513a21.766,21.766,0,0,1-5.184-4.937l-.565-.715-.5-.763-.49-.769-.251-.388-.207-.405c-.276-.543-.553-1.091-.836-1.64a17.929,17.929,0,0,1-.666-1.723,23.825,23.825,0,0,1-1.257-7.339,23.582,23.582,0,0,1,1.257-7.333c.22-.6.44-1.151.666-1.723l.829-1.64a5.875,5.875,0,0,1,.459-.793l.49-.769.5-.769.565-.715a21.9,21.9,0,0,1,5.184-4.931l.723-.507c.239-.173.509-.3.76-.453.509-.292,1.005-.6,1.527-.865a26.227,26.227,0,0,1,3.192-1.33,27.124,27.124,0,0,1,3.267-.9c.553-.107,1.106-.167,1.652-.25l.817-.119c.27-.036.547-.03.817-.048l1.621-.078c.534,0,1.068.042,1.6.066a22.754,22.754,0,0,1,3.091.346,12.337,12.337,0,0,1,1.483.322c.484.125.974.221,1.439.37l1.376.477.679.238.628.292,1.257.6c.421.185.792.441,1.188.656s.779.441,1.15.674l1.056.751a23.46,23.46,0,0,1,6.183,6.612,21.2,21.2,0,0,1,2.658,6.183,11.117,11.117,0,0,1,.308,1.27c.063.405.119.781.176,1.133s.113.674.138.966,0,.6.038.811c0,.477.031.841.038,1.1S266.574,326.046,266.574,326.046Z" transform="translate(-179.568 -203.545)" fill="#263238"/>
      <path id="Path_496" data-name="Path 496" d="M281.15,346.649a6.28,6.28,0,0,1,.628-.787,22.006,22.006,0,0,0,1.552-2.206,19.433,19.433,0,0,0,1.885-16.819,22.254,22.254,0,0,0-1.081-2.439,7.945,7.945,0,0,1-.427-.888,1.6,1.6,0,0,1,.157.209c.094.143.232.346.383.626a17.76,17.76,0,0,1,1.137,2.444,18.8,18.8,0,0,1-1.885,17,17.546,17.546,0,0,1-1.652,2.164c-.207.244-.39.417-.509.543A.944.944,0,0,1,281.15,346.649Z" transform="translate(-203.129 -211.883)" fill="#263238"/>
      <path id="Path_497" data-name="Path 497" d="M278.5,365.84c.044.072-.145.256-.427.405s-.54.221-.584.143.145-.256.427-.405S278.435,365.769,278.5,365.84Z" transform="translate(-201.765 -228.964)" fill="#263238"/>
      <path id="Path_498" data-name="Path 498" d="M227.067,339.841a2.073,2.073,0,0,1-.151-.274c-.088-.185-.226-.459-.364-.823a19.177,19.177,0,0,1-.98-3.136,21.808,21.808,0,0,1,5.718-20.14,21.226,21.226,0,0,1,2.513-2.242c.314-.244.578-.411.748-.531s.27-.179.276-.167-.333.286-.942.793a23.824,23.824,0,0,0-7.741,11.632,22.445,22.445,0,0,0-.364,10.606,23.381,23.381,0,0,0,.88,3.142A10.325,10.325,0,0,1,227.067,339.841Z" transform="translate(-182.264 -207.448)" fill="#fff"/>
      <path id="Path_499" data-name="Path 499" d="M249.447,309.936a3.625,3.625,0,0,1-1.433.268,3.584,3.584,0,0,1-1.464-.036,3.5,3.5,0,0,1,1.433-.268,3.584,3.584,0,0,1,1.464.036Z" transform="translate(-190.268 -206.364)" fill="#fff"/>
      <path id="Path_500" data-name="Path 500" d="M201.495,304.54l.176,1.324,2.708,3.07,1.935,4.716-2.922-1.085s-1.257,5.676-1.74,5.831-1.885-.316-1.753-1.407a1.949,1.949,0,0,1-1.583.495c-.873-.173-1.087-.71-.986-1.747,0,0-1.024.793-1.634.3a1.741,1.741,0,0,1-.559-1.347s-1.332.107-1.514-.549a10.559,10.559,0,0,1-.075-3.243l.8-3.625-.49-2.1Z" transform="translate(-170.534 -204.223)" fill="#ffbf9d"/>
      <path id="Path_501" data-name="Path 501" d="M204.378,319.93a9.955,9.955,0,0,0-.628,3.273,5.228,5.228,0,0,0,.465-1.616A5,5,0,0,0,204.378,319.93Z" transform="translate(-174.36 -210.437)" fill="#ff9a6c"/>
      <path id="Path_502" data-name="Path 502" d="M200.1,318.83a6.424,6.424,0,0,0-.553,2.617A6.423,6.423,0,0,0,200.1,318.83Z" transform="translate(-172.799 -209.993)" fill="#ff9a6c"/>
      <path id="Path_503" data-name="Path 503" d="M196.57,317.81a3.346,3.346,0,0,0-.245,1.115,4.85,4.85,0,0,0-.195,1.115,1.742,1.742,0,0,0,.471-1.073A2.041,2.041,0,0,0,196.57,317.81Z" transform="translate(-171.528 -209.581)" fill="#ff9a6c"/>
      <path id="Path_504" data-name="Path 504" d="M209.151,315.25a14.533,14.533,0,0,0-.811,3.19,4.446,4.446,0,0,0,.584-1.556,4.259,4.259,0,0,0,.226-1.634Z" transform="translate(-176.066 -208.548)" fill="#ff9a6c"/>
      <path id="Path_505" data-name="Path 505" d="M219.672,160.314a39.258,39.258,0,0,1-2.136-6.761,13.6,13.6,0,0,1,.32-6.994c.119-.334,1.156-2.617,1.527-2.6.27,0-.339,2.134-.195,2.349a11.606,11.606,0,0,1,1.7,7.017,30.494,30.494,0,0,1-1.219,6.988" transform="translate(-179.368 -139.382)" fill="#263238"/>
      <path id="Path_506" data-name="Path 506" d="M240.983,147.222a10.783,10.783,0,0,0-10.813-9.8H229.5c-6.227.244-9.01,5.533-8.583,11.429l1.049,20.748,2.117,1.944a7.047,7.047,0,0,0,6.407,1.62,6.653,6.653,0,0,0,4.808-4.332h0c-.044-1.663.069-1.544.082-1.544s5.994-.787,6.176-6.457C241.637,158.037,241.329,152.355,240.983,147.222Z" transform="translate(-180.724 -136.741)" fill="#ffbf9d"/>
      <path id="Path_507" data-name="Path 507" d="M239.425,185.923a15,15,0,0,1-7.735-2.313s1.816,4.173,7.791,3.744Z" transform="translate(-184.745 -155.392)" fill="#ff9a6c"/>
      <path id="Path_508" data-name="Path 508" d="M248.993,162.354a.882.882,0,0,1-1.439.605.753.753,0,0,1-.264-.546.833.833,0,0,1,.836-.8.851.851,0,0,1,.6.2A.765.765,0,0,1,248.993,162.354Z" transform="translate(-190.543 -146.508)" fill="#263238"/>
      <path id="Path_509" data-name="Path 509" d="M236.329,162.245a.888.888,0,0,1-1.443.608.753.753,0,0,1-.266-.548.791.791,0,0,1,.257-.574.879.879,0,0,1,.61-.231.836.836,0,0,1,.585.206A.753.753,0,0,1,236.329,162.245Z" transform="translate(-185.834 -146.464)" fill="#263238"/>
      <path id="Path_510" data-name="Path 510" d="M248.474,158.506c-.107.107-.741-.358-1.665-.37s-1.6.411-1.7.3.063-.233.364-.429a2.416,2.416,0,0,1,1.357-.376,2.349,2.349,0,0,1,1.326.429C248.436,158.267,248.53,158.446,248.474,158.506Z" transform="translate(-189.723 -144.901)" fill="#263238"/>
      <path id="Path_511" data-name="Path 511" d="M234.864,158.556c-.107.107-.748-.358-1.665-.37s-1.6.411-1.7.3.063-.238.358-.435a2.449,2.449,0,0,1,1.363-.376,2.309,2.309,0,0,1,1.319.429C234.826,158.318,234.946,158.514,234.864,158.556Z" transform="translate(-184.664 -144.922)" fill="#263238"/>
      <path id="Path_512" data-name="Path 512" d="M241.4,165.7a5.893,5.893,0,0,1,1.5-.233c.232,0,.452-.06.5-.209a1.062,1.062,0,0,0-.145-.662c-.207-.543-.427-1.115-.66-1.705a27.884,27.884,0,0,1-1.477-4.46,28.037,28.037,0,0,1,1.847,4.334c.226.6.434,1.192.628,1.717a1.2,1.2,0,0,1,.107.87.582.582,0,0,1-.39.322,1.718,1.718,0,0,1-.4.048A6.5,6.5,0,0,1,241.4,165.7Z" transform="translate(-188.243 -145.225)" fill="#263238"/>
      <path id="Path_513" data-name="Path 513" d="M234.261,153.928c-.113.227-1.012.036-2.1.066s-1.979.233-2.1,0c-.057-.107.113-.316.484-.513a3.585,3.585,0,0,1,1.6-.382,3.64,3.64,0,0,1,1.608.322C234.129,153.636,234.311,153.814,234.261,153.928Z" transform="translate(-184.137 -143.072)" fill="#263238"/>
      <path id="Path_514" data-name="Path 514" d="M248.937,153.248c-.138.233-.9.179-1.772.352s-1.564.459-1.778.292c-.1-.083,0-.3.251-.554a3.168,3.168,0,0,1,2.859-.5C248.849,152.962,248.994,153.141,248.937,153.248Z" transform="translate(-189.822 -142.905)" fill="#263238"/>
      <path id="Path_515" data-name="Path 515" d="M219.211,163.422c-.1-.048-4.084-1.222-4.021,2.653s4.147,3.023,4.153,2.915S219.211,163.422,219.211,163.422Z" transform="translate(-178.612 -147.158)" fill="#ffbf9d"/>
      <path id="Path_516" data-name="Path 516" d="M218.576,168.407a1.306,1.306,0,0,1-.188.1.752.752,0,0,1-.534,0,1.655,1.655,0,0,1-.836-1.491,2.124,2.124,0,0,1,.182-.972.807.807,0,0,1,.528-.525.372.372,0,0,1,.421.179c.057.107,0,.185.057.191s.088-.066.05-.221a.445.445,0,0,0-.163-.244.576.576,0,0,0-.4-.089.973.973,0,0,0-.735.6,2.281,2.281,0,0,0-.232,1.085,1.734,1.734,0,0,0,1.068,1.657.787.787,0,0,0,.628-.107C218.57,168.5,218.589,168.413,218.576,168.407Z" transform="translate(-179.184 -148.011)" fill="#ff9a6c"/>
      <path id="Path_517" data-name="Path 517" d="M236.917,140.49c.628-.364-1.382-2.349-3.022-3.011-2.513-1.008-6.283-1.574-8.5-.912a9.942,9.942,0,0,0-6.283,4.513,14.592,14.592,0,0,0-1.615,7.828,4.436,4.436,0,0,0,.628,2.355c.591.847,1.7,1.365,1.684,2.546A1.573,1.573,0,0,0,220.26,155c.767.739,1.665,0,2.067-.709a10.672,10.672,0,0,0,.949-5.1,10.675,10.675,0,0,0-.346-3.685c-.214-.638-.553-1.246-.729-1.9a2.228,2.228,0,0,1,.239-1.944,2.52,2.52,0,0,1,.327-.322,4.432,4.432,0,0,1,4.21-.859c2.318.721,6.283,1.789,7.282,1.025a6.2,6.2,0,0,0,1.791-1.789Z" transform="translate(-179.454 -136.282)" fill="#263238"/>
      <path id="Path_518" data-name="Path 518" d="M240.374,173.48c0,.066-.207.191-.628.238a3.09,3.09,0,0,1-2.777-1.252c-.22-.334-.258-.6-.195-.6A6.3,6.3,0,0,0,238.407,173C239.413,173.438,240.343,173.337,240.374,173.48Z" transform="translate(-186.625 -150.652)" fill="#263238"/>
      <path id="Path_519" data-name="Path 519" d="M219.8,190.76l1.652-3.22,9.689,4.376,3.9-3.84,1.012,2.23-4.907,5.288H229.03l-4.423-.739Z" transform="translate(-180.326 -156.979)" fill="#455a64"/>
      <path id="Path_520" data-name="Path 520" d="M231.085,194.175a3.878,3.878,0,0,1-.371,1.1,12.314,12.314,0,0,1-1.558,2.582l-.082.1-.119-.06c-.735-.411-1.533-.847-2.369-1.306-1.678-.942-3.192-1.789-4.279-2.444a13.409,13.409,0,0,1-1.728-1.085,11.789,11.789,0,0,1,1.841.894c1.118.6,2.651,1.425,4.335,2.385l2.356,1.324-.195.036a19.788,19.788,0,0,0,2.168-3.524Z" transform="translate(-180.616 -159.208)" fill="#263238"/>
      <path id="Path_521" data-name="Path 521" d="M242.591,189.81a3.427,3.427,0,0,1,.069,1.449,7.484,7.484,0,0,1-1.162,3.327,7.586,7.586,0,0,1-1.106,1.359l-.113.1-.107-.1a10.394,10.394,0,0,1-1.552-1.818,2.56,2.56,0,0,1-.44-.811,26.292,26.292,0,0,0,2.205,2.415h-.22a8.1,8.1,0,0,0,1.056-1.318,8.444,8.444,0,0,0,1.244-3.184C242.572,190.364,242.534,189.816,242.591,189.81Z" transform="translate(-187.157 -157.896)" fill="#263238"/>
      <path id="Path_522" data-name="Path 522" d="M244.1,255.651a.509.509,0,0,1,0-.155v-.459c0-.423,0-1.008-.038-1.753,0-1.52-.082-3.726-.17-6.451-.188-5.443-.578-12.962-1.521-21.225-.478-4.132-1.049-8.055-1.646-11.608s-1.257-6.743-1.835-9.408c-.276-1.336-.572-2.534-.817-3.577s-.471-1.962-.628-2.707-.32-1.294-.421-1.705c-.044-.179-.075-.328-.107-.447a.486.486,0,0,1,0-.155.519.519,0,0,1,.057.149,1.937,1.937,0,0,0,.132.435c.113.411.276.978.484,1.7s.452,1.634.71,2.689.578,2.254.867,3.577c.628,2.659,1.257,5.849,1.885,9.4s1.188,7.488,1.665,11.626c.949,8.269,1.307,15.8,1.433,21.249.057,2.725.075,4.931.063,6.457V255.5a.537.537,0,0,1-.113.155Z" transform="translate(-186.685 -160.395)" fill="#263238"/>
    </g>
  </g>
</svg>
