<svg xmlns="http://www.w3.org/2000/svg" width="443.09" height="225" viewBox="0 0 443.09 225">
  <g id="Experts-pana" transform="translate(-56.228 -71.679)">
    <g id="freepik--background-complete--inject-2" transform="translate(56.228 72.402)">
      <path id="Path_183" data-name="Path 183" d="M227.248,81.8a4.657,4.657,0,0,0,3.1-4.3,4.255,4.255,0,0,0-2.321-4.03,5.385,5.385,0,0,0-5.07-.02,4.264,4.264,0,0,0-2.36,4.012,4.627,4.627,0,0,0,3.1,4.337c-7.5,1.015-7.163,8.3-7.163,8.3l17.745.076S234.686,82.807,227.248,81.8Z" transform="translate(-103.518 -72.825)" fill="#e0e0e0"/>
      <path id="Path_184" data-name="Path 184" d="M636.837,139.012l-8.227-7.923,2.665-2.212,5.682,5.465,11.936-10.5,2.552,2.32Z" transform="translate(-225.077 -91.683)" fill="#f5f5f5"/>
      <path id="Path_185" data-name="Path 185" d="M463.809,212.413c0-5.415-6.345-8.825-12.845-6.127a7.082,7.082,0,0,0-3.412,2.925c-1.629,2.824-.909,6.051.571,8.73l5.048,11.428a2.282,2.282,0,0,0,4.054,0l4.935-11.491C463.893,214.361,463.809,212.413,463.809,212.413Zm-6.077,4.69c-4.357,2.263-8.777-1.923-6.387-6.058a3.454,3.454,0,0,1,1.41-1.311c4.364-2.269,8.777,1.891,6.387,6.058a3.455,3.455,0,0,1-1.41,1.311Z" transform="translate(-171.392 -121.812)" fill="#ebebeb"/>
      <path id="Path_186" data-name="Path 186" d="M572.008,291.411c-13.586-11.094-14.361-28.68-11.407-44.042.493-2.565.585-5.32,2.319-7.406s5.21-3.24,7.656-1.834c2.03,1.166,2.637,3.511,3.567,5.5a15.882,15.882,0,0,0,5.964,6.612c1.727,1.078,3.948,1.891,5.922,1.21,2.707-.914,3.469-3.946,3.842-6.511l2.115-14.34a21.709,21.709,0,0,1,2.038-7.5,8.875,8.875,0,0,1,6.486-4.677c2.869-.34,6.063,1.481,6.267,4.059a21.723,21.723,0,0,1-.409,3.2,2.612,2.612,0,0,0,1.41,2.755,3.9,3.9,0,0,0,3.37-.782c3.391-2.219,5.936-5.3,8.347-8.384s4.766-6.247,7.917-8.736a16.968,16.968,0,0,1,11.442-3.959c4.188.3,8.277,3.114,8.777,6.845s-2.446,7.11-5.492,9.72a65.375,65.375,0,0,1-15.235,9.688,5.012,5.012,0,0,0-2.58,1.891c-.9,1.633.705,3.555,2.5,4.349,2.073.9,4.449.99,6.676,1.507s4.547,1.7,5.111,3.688c.79,2.767-2.115,5.207-4.829,6.7a60.065,60.065,0,0,1-17.71,6.354c-2.242.429-4.583.756-6.507,1.891s-3.314,3.284-2.552,5.219,3.349,2.837,5.64,2.748,4.463-.92,6.7-1.368c4.195-.838,9.313.038,11.4,3.4a7.228,7.228,0,0,1-.12,7.287,19.652,19.652,0,0,1-5.365,5.793,59.026,59.026,0,0,1-26.085,11.857c-9.673,1.7-18.387,1.406-27.129-2.692" transform="translate(-204.6 -122.257)" fill="#ebebeb"/>
      <path id="Path_187" data-name="Path 187" d="M578.9,299.34c1.572-6.032,1.177-7.9,4.935-15.355a224.9,224.9,0,0,1,14.1-23.449l4.054-5.976c1.339-1.96,2.658-3.9,4.089-5.73a119.439,119.439,0,0,1,8.89-10.085c3.01-3.089,5.985-5.919,8.8-8.554s5.492-5.043,8.037-7.135a102.965,102.965,0,0,1,12.831-9.115c1.607-.964,2.876-1.683,3.744-2.156l.994-.536c.226-.12.345-.17.345-.17s-.106.076-.317.2l-.973.567c-.853.5-2.115,1.261-3.694,2.219a108.278,108.278,0,0,0-12.725,9.19c-2.524,2.112-5.182,4.526-7.981,7.161s-5.76,5.478-8.749,8.566a118.277,118.277,0,0,0-8.848,10.085c-1.41,1.822-2.735,3.751-4.068,5.711l-4.054,5.976a228.433,228.433,0,0,0-14.1,23.392c-3.793,7.438-3.412,9.266-5.02,15.273" transform="translate(-210.413 -123.933)" fill="#e0e0e0"/>
      <path id="Path_188" data-name="Path 188" d="M617.6,254.1a5.541,5.541,0,0,1-.092-1.128c-.042-.725-.056-1.778-.063-3.076,0-2.6.106-6.2.247-10.155s.183-7.564.106-10.142c0-1.3-.071-2.351-.113-3.076a4.961,4.961,0,0,1,0-1.128,5.683,5.683,0,0,1,.176,1.116c.1.725.183,1.778.254,3.076.155,2.6.155,6.2,0,10.167s-.275,7.476-.374,10.142c0,1.261-.056,2.282-.078,3.076a5.162,5.162,0,0,1-.063,1.128Z" transform="translate(-221.782 -129.222)" fill="#e0e0e0"/>
      <path id="Path_189" data-name="Path 189" d="M655.985,268.059a1.529,1.529,0,0,1-.395,0l-1.121-.05c-.966-.05-2.369-.126-4.1-.164-3.469-.1-8.27-.088-13.557.132s-10.074.63-13.515,1.009c-1.727.176-3.116.359-4.082.479l-1.107.132c-.254,0-.388.038-.395,0a1.611,1.611,0,0,1,.381-.095l1.093-.208c.959-.164,2.341-.385,4.068-.6,3.44-.454,8.227-.9,13.536-1.128s10.11-.189,13.585,0c1.741.076,3.144.189,4.11.29l1.114.12A1.55,1.55,0,0,1,655.985,268.059Z" transform="translate(-221.862 -144.755)" fill="#e0e0e0"/>
      <path id="Path_190" data-name="Path 190" d="M581.5,299.823a2.5,2.5,0,0,1-.19-.435c-.113-.334-.261-.756-.444-1.261-.388-1.109-.9-2.717-1.5-4.715-1.213-4-2.707-9.562-4.23-15.727s-3-11.731-4.131-15.758c-.564-1.967-1.029-3.574-1.368-4.746-.148-.523-.268-.952-.367-1.261a2.125,2.125,0,0,1-.1-.46,1.843,1.843,0,0,1,.183.435l.444,1.261c.388,1.1.9,2.717,1.5,4.715,1.22,4,2.707,9.562,4.23,15.727s3,11.724,4.131,15.758c.571,1.967,1.029,3.58,1.368,4.746.155.529.275.958.367,1.292A1.841,1.841,0,0,1,581.5,299.823Z" transform="translate(-207.543 -140.338)" fill="#e0e0e0"/>
      <path id="Path_191" data-name="Path 191" d="M638.415,313.115a2.57,2.57,0,0,1-.515.107l-1.509.24-5.548.832c-4.681.725-11.139,1.8-18.267,3s-13.593,2.225-18.295,2.881c-2.348.328-4.23.58-5.57.731l-1.523.17a3.026,3.026,0,0,1-.529,0,2.8,2.8,0,0,1,.522-.113l1.5-.24,5.548-.851c4.681-.725,11.139-1.8,18.267-2.994s13.593-2.231,18.33-2.887c2.348-.328,4.23-.58,5.57-.731l1.523-.164A1.975,1.975,0,0,1,638.415,313.115Z" transform="translate(-212.702 -161.641)" fill="#e0e0e0"/>
      <path id="Path_192" data-name="Path 192" d="M57.675,217.893s4.23-4.274,13.769,5.156A157.2,157.2,0,0,1,85.3,238.222s2.355,1.891,3.659-.032,2.425-6.77,5.64-6.732c3.349.038,5.316,2.887,6.112,7.564s2.954,14.945,3.151,15.866,1.17,2.086,2.291.9,6.676-11.05,11.752-8.415,4.886,16.055,4.893,17.523.486,1.979,1.318,2.143,2.348-3.316,4.054-6.058,4.23-5.673,7.015-3.927,6.3,10.917.973,28.51l-3.067,8.005-9.3,1.778c-20.156,2.71-29.956-1.469-31.57-4.141s1.925-4.576,5.175-5.774,7.276-2.149,7.191-2.906-.592-1.261-2.228-1.418-16.546-1.519-18.887-6.329,9.25-8.61,10.695-9.455.261-1.859-.705-2.137S81.328,259.8,76.2,258.557s-8.072-3.316-7.755-6.3c.331-2.874,5.837-3.309,8.136-4.248s.458-3.246.458-3.246A156.165,156.165,0,0,1,61.764,230.7c-9.384-9.6-4-12.884-4-12.884" transform="translate(-56.228 -126.094)" fill="#ebebeb"/>
      <path id="Path_193" data-name="Path 193" d="M70.46,231.84a1.637,1.637,0,0,1,.183.164l.522.5c.458.466,1.114,1.116,1.953,1.954l7.163,7.211,23.738,23.682c9.292,9.241,17.667,17.649,23.667,23.764l7.05,7.28,1.911,1.992.486.523a1.665,1.665,0,0,1,.155.183s-.063-.05-.183-.164l-.515-.5-1.96-1.954-7.142-7.173c-6.049-6.089-14.446-14.46-23.745-23.7s-17.625-17.65-23.653-23.764l-7.05-7.274c-.818-.857-1.459-1.525-1.9-2l-.493-.523A1.682,1.682,0,0,1,70.46,231.84Z" transform="translate(-60.426 -131.607)" fill="#e0e0e0"/>
      <path id="Path_194" data-name="Path 194" d="M108.83,250.81a14.771,14.771,0,0,1,.127,2.276c.049,1.494.12,3.385.19,5.484s.141,4.085.134,5.49a15.758,15.758,0,0,1-.049,1.67,1.748,1.748,0,0,1-.085.63,19.081,19.081,0,0,1-.127-2.269c-.063-1.494-.148-3.391-.24-5.484s-.106-4.091-.085-5.5a13.686,13.686,0,0,1,.056-1.664A2.34,2.34,0,0,1,108.83,250.81Z" transform="translate(-71.703 -138.619)" fill="#e0e0e0"/>
      <path id="Path_195" data-name="Path 195" d="M99.829,275.8c0,.088-4.484.107-10.011.038s-10.018-.2-10.018-.3,4.491-.107,10.018-.038S99.836,275.706,99.829,275.8Z" transform="translate(-63.181 -147.731)" fill="#e0e0e0"/>
      <path id="Path_196" data-name="Path 196" d="M125.456,300.76a2.547,2.547,0,0,1-.642.246c-.423.145-1.036.328-1.8.542-1.53.435-3.666.983-6.056,1.475s-4.583.851-6.169,1.065c-.8.107-1.41.176-1.889.221a2.566,2.566,0,0,1-.705.031,23.721,23.721,0,0,1,2.545-.485c1.572-.271,3.744-.63,6.127-1.154s4.519-1,6.07-1.374a23.121,23.121,0,0,1,2.524-.567Z" transform="translate(-71.556 -157.084)" fill="#e0e0e0"/>
      <path id="Path_197" data-name="Path 197" d="M136.587,278.12a12.854,12.854,0,0,1-.486,2.105c-.338,1.261-.839,3.063-1.41,5.043s-1.107,3.725-1.516,5a12.8,12.8,0,0,1-.7,2.049,12.143,12.143,0,0,1,.479-2.105c.345-1.261.846-3.063,1.41-5.043s1.114-3.725,1.523-5A12.806,12.806,0,0,1,136.587,278.12Z" transform="translate(-78.719 -148.715)" fill="#e0e0e0"/>
      <path id="Path_198" data-name="Path 198" d="M160.38,297.23a3,3,0,0,1-.148.731c-.148.529-.324,1.185-.536,1.954-.465,1.651-1.135,3.921-1.9,6.423s-1.473,4.759-2.009,6.392c-.254.763-.472,1.406-.642,1.929a3.091,3.091,0,0,1-.289.693,3.059,3.059,0,0,1,.148-.731c.148-.529.324-1.179.536-1.954.465-1.645,1.135-3.914,1.9-6.417s1.473-4.765,2-6.392c.261-.763.472-1.406.649-1.929A3.026,3.026,0,0,1,160.38,297.23Z" transform="translate(-85.324 -155.779)" fill="#e0e0e0"/>
      <path id="Path_199" data-name="Path 199" d="M145.629,325.24a4.812,4.812,0,0,1-.832.265c-.543.151-1.34.353-2.327.586-1.967.473-4.7,1.072-7.755,1.626s-5.823.964-7.847,1.217c-1.008.126-1.826.214-2.39.265a4.093,4.093,0,0,1-.888.05,4.536,4.536,0,0,1,.867-.176l2.376-.372c2-.309,4.766-.75,7.811-1.3s5.774-1.116,7.755-1.525l2.348-.492A4.428,4.428,0,0,1,145.629,325.24Z" transform="translate(-76.099 -166.133)" fill="#e0e0e0"/>
    </g>
    <g id="freepik--Icons--inject-2" transform="translate(60.857 83.881)">
      <path id="Path_200" data-name="Path 200" d="M93.177,229.526a2.28,2.28,0,0,0,.994-.315,1.659,1.659,0,0,0,.7-.927,2.46,2.46,0,0,0,.063-.738q0-.4,0-.851c0-2.433.063-5.925.106-10.23q0-1.62.042-3.385v-1.8a4.652,4.652,0,0,0,0-.9,1.474,1.474,0,0,0-.444-.756,1.627,1.627,0,0,0-.846-.41,8.344,8.344,0,0,0-1.065,0H65.068a1.617,1.617,0,0,0-1.643,1.387l-.042,2.408c0,1.607-.056,3.152-.085,4.74-.049,3.108-.1,6.1-.148,8.957v1.065a1.418,1.418,0,0,0,.254.92,1.549,1.549,0,0,0,.79.593,3.091,3.091,0,0,0,1.072.1h12.3l11.435.05,3.109.032H93.2a1.522,1.522,0,0,1-.275,0H89l-11.435.057H65.245a3.515,3.515,0,0,1-1.184-.107,1.932,1.932,0,0,1-.959-.712,1.7,1.7,0,0,1-.3-1.084c0-.353,0-.706,0-1.065.042-2.855.085-5.85.127-8.957,0-1.551.049-3.152.078-4.74,0-.807,0-1.614.042-2.433a2,2,0,0,1,2.009-1.538H92.726a9.724,9.724,0,0,1,1.121.038,1.926,1.926,0,0,1,1.008.492,1.761,1.761,0,0,1,.522.889,4.855,4.855,0,0,1,0,.952v1.8c0,1.179-.042,2.313-.063,3.391-.1,4.305-.169,7.791-.226,10.224v.857a2.639,2.639,0,0,1-.085.756,1.789,1.789,0,0,1-.775.958,1.889,1.889,0,0,1-.761.252A.9.9,0,0,1,93.177,229.526Z" transform="translate(-62.794 -134.601)" fill="#455a64"/>
      <path id="Path_201" data-name="Path 201" d="M85.979,221.4l3.849,2.086-3.934,2.068-3.934,2.061.085-4.154.085-4.154Z" transform="translate(-68.448 -138.455)" fill="#455a64"/>
      <path id="Path_202" data-name="Path 202" d="M587.354,119.8a6.358,6.358,0,0,0,4.23-5.881,6.68,6.68,0,0,0-13.346-.057,6.344,6.344,0,0,0,4.23,5.938c-10.265,1.387-9.8,11.346-9.8,11.346l24.273.1S597.534,121.2,587.354,119.8Z" transform="translate(-213.203 -97.134)" fill="#2bace3"/>
      <path id="Path_311" data-name="Path 311" d="M0,0,39.506.394l.265,23.858L.265,23.858Z" transform="translate(190.917 3.564) rotate(-5.42)" fill="#fff"/>
      <path id="Path_203" data-name="Path 203" d="M375.418,115.038a2.32,2.32,0,0,0-.063-.441l-.148-1.261c-.127-1.116-.31-2.723-.543-4.784-.458-4.122-1.114-10.035-1.9-17.233l.155.12-39.353,3.429.162-.176h0v.378l.042.391.085.794.169,1.57.324,3.108q.324,3.082.642,6.064c.416,3.971.818,7.791,1.2,11.4l-.183-.132,28.341-2.332,8.115-.63,2.164-.17.564-.038h.056l-.543.05-2.115.2-8.065.725-28.433,2.484h-.169V118.4c-.388-3.618-.8-7.432-1.227-11.4q-.317-2.975-.642-6.064c-.113-1.027-.226-2.068-.331-3.108l-.169-1.57-.106-.763-.042-.391v-.385h0l.169-.183,39.368-3.309h.148v.132c.705,7.236,1.34,13.18,1.763,17.334.2,2.042.36,3.643.465,4.753.049.529.085.946.113,1.261S375.418,115.038,375.418,115.038Z" transform="translate(-142.621 -91.108)" fill="#455a64"/>
      <path id="Path_204" data-name="Path 204" d="M372.973,91.4a1.963,1.963,0,0,1-.31.378l-.931.964c-.839.857-2.016,2.055-3.469,3.524l-11.647,11.649-.106.1-.127-.076-1.05-.6-15.411-8.825L335.3,95.768l-1.255-.75a3.042,3.042,0,0,1-.423-.277,2.79,2.79,0,0,1,.465.221l1.29.7,4.709,2.622,15.468,8.755,1.05.63h-.24L368.081,96.09l3.56-3.454.973-.927a3.635,3.635,0,0,1,.36-.309Z" transform="translate(-142.686 -91.171)" fill="#455a64"/>
      <path id="Path_205" data-name="Path 205" d="M256.427,130.756a15.359,15.359,0,0,0-.4-2.282A8.406,8.406,0,0,0,254.848,126a9.675,9.675,0,0,0-2.651-2.629,11.348,11.348,0,0,0-9.807-1.3,10.408,10.408,0,0,0-4.794,3.221,8.419,8.419,0,0,0,0,10.917,10.356,10.356,0,0,0,4.794,3.227,11.015,11.015,0,0,0,12.457-3.933,8.407,8.407,0,0,0,1.177-2.471,15.542,15.542,0,0,0,.4-2.276.491.491,0,0,1,0,.151v.448a4.232,4.232,0,0,1-.063.725,6.164,6.164,0,0,1-.2.983,8.5,8.5,0,0,1-1.135,2.521,11.2,11.2,0,0,1-12.754,4.122,10.329,10.329,0,0,1-2.707-1.261,9.533,9.533,0,0,1-2.263-2.023,8.7,8.7,0,0,1,0-11.3,9.533,9.533,0,0,1,2.263-2.023,10.33,10.33,0,0,1,2.707-1.261,11.6,11.6,0,0,1,10.075,1.406,9.78,9.78,0,0,1,2.672,2.717,8.363,8.363,0,0,1,1.142,2.521,6.165,6.165,0,0,1,.2.983,4.232,4.232,0,0,1,.063.725v.448A.565.565,0,0,1,256.427,130.756Z" transform="translate(-113.659 -102.213)" fill="#263238"/>
      <path id="Path_206" data-name="Path 206" d="M278.465,155.436c-.056.076-3.779-2.068-8.3-4.784s-8.157-4.986-8.1-5.043,3.772,2.068,8.3,4.791S278.522,155.361,278.465,155.436Z" transform="translate(-121.576 -111.21)" fill="#263238"/>
      <path id="Path_207" data-name="Path 207" d="M326.084,179.8l-8.234-7.923,2.665-2.212,5.689,5.465,11.936-10.5,2.552,2.32Z" transform="translate(-138.034 -118.242)" fill="#2bace3"/>
    </g>
    <g id="freepik--speech-bubbles--inject-2" transform="translate(81.935 71.679)">
      <path id="Path_208" data-name="Path 208" d="M636.055,176.6h.888l.705.082a9.616,9.616,0,0,1,4.124,1.614,8.109,8.109,0,0,1,3.462,5.515,17.888,17.888,0,0,1,.07,1.96v14.34a8.666,8.666,0,0,1-.31,2.792,8.871,8.871,0,0,1-6.958,5.988,18.152,18.152,0,0,1-3.525.2H603.04l.127-.044-7.1,6.348-.317.284v-6.719l.183.164a18.17,18.17,0,0,1-2.334-.076,10.2,10.2,0,0,1-2.263-.523,8.6,8.6,0,0,1-5.64-6.076,9.617,9.617,0,0,1-.183-2V187.122a26.078,26.078,0,0,1,.127-3.637,7.876,7.876,0,0,1,1.452-3.322,9.493,9.493,0,0,1,6.31-3.58,32.108,32.108,0,0,1,3.631-.1h13.141l18.979.057h0l-18.979.057H597.033a30.9,30.9,0,0,0-3.581.107,8.5,8.5,0,0,0-7.48,6.669,25.175,25.175,0,0,0-.113,3.593v11.359a21.062,21.062,0,0,0,.176,3.9,7.942,7.942,0,0,0,1.875,3.511,9.249,9.249,0,0,0,5.739,2.83,18.229,18.229,0,0,0,2.284.069h.183v6.625l-.31-.12,7.106-6.348.049-.044h31.549a17.646,17.646,0,0,0,3.49-.189,9.489,9.489,0,0,0,3.1-1.179,8.133,8.133,0,0,0,3.659-4.6,8.5,8.5,0,0,0,.317-2.647v-14.34c0-.674,0-1.324-.049-1.941a7.97,7.97,0,0,0-3.363-5.44,9.526,9.526,0,0,0-4.054-1.645l-.67-.1h-.486Z" transform="translate(-238.067 -110.416)" fill="#263238"/>
      <path id="Path_209" data-name="Path 209" d="M615.785,202.854s-.042-.158-.134-.429a1.834,1.834,0,0,0-.747-.92,2.094,2.094,0,0,0-1.777-.208,1.6,1.6,0,0,0,0,3.114,2.094,2.094,0,0,0,1.777-.208,1.834,1.834,0,0,0,.747-.92c.092-.265.1-.429.134-.429a.788.788,0,0,1,0,.46,1.714,1.714,0,0,1-.705,1.072,2.316,2.316,0,0,1-2.052.315,1.894,1.894,0,0,1,0-3.687,2.317,2.317,0,0,1,2.052.309,1.719,1.719,0,0,1,.705,1.078A.77.77,0,0,1,615.785,202.854Z" transform="translate(-245.757 -119.447)" fill="#263238"/>
      <path id="Path_210" data-name="Path 210" d="M629.035,202.754a3.308,3.308,0,0,1-.127-.422,1.859,1.859,0,0,0-.747-.927,2.1,2.1,0,0,0-1.784-.208,1.614,1.614,0,0,0,0,3.12,2.125,2.125,0,0,0,1.784-.214,1.873,1.873,0,0,0,.747-.92,3.7,3.7,0,0,1,.127-.429.872.872,0,0,1,0,.46,1.769,1.769,0,0,1-.705,1.072,2.316,2.316,0,0,1-2.052.315,1.894,1.894,0,0,1,0-3.687,2.317,2.317,0,0,1,2.052.309,1.78,1.78,0,0,1,.705,1.078C629.1,202.59,629.056,202.754,629.035,202.754Z" transform="translate(-249.666 -119.41)" fill="#263238"/>
      <path id="Path_211" data-name="Path 211" d="M642.295,202.754a3.993,3.993,0,0,1-.134-.422,1.823,1.823,0,0,0-.705-.927,2.1,2.1,0,0,0-1.784-.208,1.614,1.614,0,0,0,0,3.12,2.125,2.125,0,0,0,1.784-.214,1.838,1.838,0,0,0,.705-.92c.1-.265.106-.429.134-.429s.063.164,0,.46a1.77,1.77,0,0,1-.705,1.072,2.316,2.316,0,0,1-2.051.315,1.894,1.894,0,0,1,0-3.688,2.317,2.317,0,0,1,2.051.309,1.78,1.78,0,0,1,.705,1.078C642.358,202.59,642.316,202.754,642.295,202.754Z" transform="translate(-253.577 -119.41)" fill="#263238"/>
      <path id="Path_212" data-name="Path 212" d="M148.26,131.094c0-5.408-6.345-8.825-12.838-6.127a7.089,7.089,0,0,0-3.412,2.925c-1.636,2.824-.909,6.051.564,8.73l5.048,11.434a2.282,2.282,0,0,0,4.054,0l4.935-11.5C148.338,133.048,148.26,131.094,148.26,131.094Zm-6.091,4.715c-4.357,2.263-8.77-1.923-6.387-6.058a3.388,3.388,0,0,1,1.41-1.311c4.357-2.269,8.777,1.923,6.387,6.051A3.4,3.4,0,0,1,142.169,135.809Z" transform="translate(-104.016 -91.029)" fill="#2bace3"/>
      <path id="Path_213" data-name="Path 213" d="M159.349,137.222h0a.445.445,0,0,0,.092.208,3.977,3.977,0,0,1,.233.63l.874,2.383c.768,2.1,1.889,5.181,3.328,9.134l.042.126h-.141l-14.213-2.326h-.092v-.088h0l.19.082a38.394,38.394,0,0,1-21.5,6.316,43.706,43.706,0,0,1-5.238-.391,41.9,41.9,0,0,1-5.309-1.065l-2.63-.857a10.124,10.124,0,0,1-1.3-.5l-1.283-.548a36.678,36.678,0,0,1-9.489-6.152,31.439,31.439,0,0,1-6.973-9.077A28.914,28.914,0,0,1,98.7,104.149c6.877-9.183,18.6-14.509,30.948-14.065,18.241.584,33,13.462,34.1,29.752a27.011,27.011,0,0,1-.966,9.695,28.654,28.654,0,0,1-2.341,5.8c-.345.63-.62,1.116-.818,1.418l-.3.479.268-.479c.19-.334.458-.813.79-1.45a29.427,29.427,0,0,0,2.27-5.8,27.1,27.1,0,0,0,.9-9.651c-.684-9.641-6.276-18.47-15.172-23.953a38.942,38.942,0,0,0-39.657-.258C94.35,104.245,89.088,120.9,96.293,134.952a31.246,31.246,0,0,0,6.895,8.995,36.4,36.4,0,0,0,9.391,6.1l1.276.548a9.2,9.2,0,0,0,1.283.5l2.594.851A41.272,41.272,0,0,0,123,153.012a44.246,44.246,0,0,0,5.189.4,38.1,38.1,0,0,0,21.326-6.266l.19-.126v.214h0l-.092-.107,14.192,2.383-.1.1-3.243-9.159-.839-2.4c-.092-.265-.155-.473-.2-.63s-.07-.214-.07-.214Z" transform="translate(-92.692 -78.473)" fill="#263238"/>
      <path id="Path_214" data-name="Path 214" d="M494.724,112.089a4.164,4.164,0,0,1-.141-1.116,8.583,8.583,0,0,0-.176-1.349,11.841,11.841,0,0,0-.395-1.8,15.865,15.865,0,0,0-2.115-4.652,18.12,18.12,0,0,0-4.836-4.98,20.243,20.243,0,0,0-8.044-3.353A21.553,21.553,0,0,0,468.9,95.4a18.892,18.892,0,0,0-4.935,2.244,16.977,16.977,0,0,0-4.145,3.555,15.649,15.649,0,0,0-.55,20.259,19.559,19.559,0,0,0,1.861,2.036,21.073,21.073,0,0,0,2.115,1.708,18.741,18.741,0,0,0,4.787,2.452,21.522,21.522,0,0,0,10.068,1,20.493,20.493,0,0,0,8.22-3.007,18.4,18.4,0,0,0,5.1-4.759,16.243,16.243,0,0,0,2.348-4.557,12.148,12.148,0,0,0,.494-1.784,8,8,0,0,0,.24-1.336,4.321,4.321,0,0,1,.2-1.116,4.461,4.461,0,0,1,0,1.128,7.629,7.629,0,0,1-.141,1.368,11.655,11.655,0,0,1-.4,1.841,15.834,15.834,0,0,1-2.242,4.74,20.239,20.239,0,0,1-13.691,8.276,22.529,22.529,0,0,1-10.575-.964,19.927,19.927,0,0,1-5.055-2.521,22.529,22.529,0,0,1-2.256-1.79,21.776,21.776,0,0,1-1.932-2.137A16.445,16.445,0,0,1,459,100.655a20.462,20.462,0,0,1,2.044-2.049,20.847,20.847,0,0,1,2.341-1.721,19.734,19.734,0,0,1,5.189-2.332,22.405,22.405,0,0,1,10.617-.5,19.9,19.9,0,0,1,13.226,8.825,15.52,15.52,0,0,1,1.988,4.86,10.837,10.837,0,0,1,.3,1.891,7.5,7.5,0,0,1,.07,1.368,4.513,4.513,0,0,1-.056,1.1Z" transform="translate(-199.497 -79.796)" fill="#455a64"/>
      <path id="Path_215" data-name="Path 215" d="M492.908,105.056c.042.057-.317.334-1,.788l-1.269.813c-.247.151-.515.328-.8.492l-.973.454a24.342,24.342,0,0,1-11.583,2.61l-1.755-.069-1.678-.24c-.275-.038-.55-.069-.818-.12l-.79-.189c-.515-.126-1.029-.233-1.516-.372a27.055,27.055,0,0,1-4.935-2.03c-2.637-1.425-3.927-2.723-3.828-2.8s1.544.977,4.23,2.212a31.871,31.871,0,0,0,4.843,1.765c.465.126.959.221,1.459.334l.754.164.783.107,1.607.214,1.671.057a26.352,26.352,0,0,0,11.217-2.25l.987-.385c.3-.139.571-.284.832-.416l1.34-.63C492.421,105.175,492.858,105.005,492.908,105.056Z" transform="translate(-201.622 -83.768)" fill="#455a64"/>
      <path id="Path_216" data-name="Path 216" d="M461.139,136.406c-.042-.05.317-.328,1-.788l1.269-.813c.247-.151.515-.328.8-.492l.973-.454a24.344,24.344,0,0,1,11.583-2.6l1.755.069,1.678.233c.275.044.55.076.818.126l.79.183c.515.132,1.029.24,1.516.378a26.626,26.626,0,0,1,4.935,2.023c2.637,1.431,3.927,2.729,3.828,2.811s-1.544-.977-4.23-2.212a31.173,31.173,0,0,0-4.843-1.771c-.472-.12-.966-.214-1.459-.328l-.754-.17-.783-.107-1.607-.208-1.671-.063a26.35,26.35,0,0,0-11.224,2.257l-.952.4c-.3.139-.571.29-.832.416l-1.34.668A3.8,3.8,0,0,1,461.139,136.406Z" transform="translate(-201.381 -93.7)" fill="#455a64"/>
      <path id="Path_217" data-name="Path 217" d="M494.934,122.927c0,.271-8.834.3-19.74.057s-19.691-.63-19.684-.914,8.827-.29,19.74-.05S494.941,122.662,494.934,122.927Z" transform="translate(-199.721 -90.225)" fill="#455a64"/>
      <path id="Path_218" data-name="Path 218" d="M482.1,129.5c-.3,0-.324-7.892-.063-17.618s.7-17.605,1.022-17.6.324,7.9.063,17.649S482.395,129.5,482.1,129.5Z" transform="translate(-207.493 -80.034)" fill="#455a64"/>
      <path id="Path_219" data-name="Path 219" d="M478.1,129.469c-.07.1-2.242-1.217-4.752-4.192a23.163,23.163,0,0,1-3.525-5.717,19.154,19.154,0,0,1-1.523-7.892,18.408,18.408,0,0,1,1.988-7.816,23.827,23.827,0,0,1,3.849-5.541c2.651-2.868,4.836-4.135,4.935-4.034s-1.875,1.551-4.315,4.456a25.615,25.615,0,0,0-3.525,5.471,18.451,18.451,0,0,0-1.826,7.476,19.421,19.421,0,0,0,1.41,7.564,24.526,24.526,0,0,0,3.208,5.629A57.828,57.828,0,0,0,478.1,129.469Z" transform="translate(-203.492 -80.031)" fill="#455a64"/>
      <path id="Path_220" data-name="Path 220" d="M483.772,94.287c.078-.1,2.249,1.217,4.752,4.192a23.163,23.163,0,0,1,3.525,5.717,19.41,19.41,0,0,1,1.523,7.9,18.485,18.485,0,0,1-1.988,7.81,24.258,24.258,0,0,1-3.849,5.541c-2.651,2.868-4.843,4.141-4.935,4.034s1.875-1.551,4.308-4.456a25.62,25.62,0,0,0,3.525-5.471,18.561,18.561,0,0,0,1.819-7.476,19.42,19.42,0,0,0-1.41-7.564,24.663,24.663,0,0,0-3.215-5.629A59.028,59.028,0,0,0,483.772,94.287Z" transform="translate(-207.77 -80.034)" fill="#455a64"/>
      <path id="Path_221" data-name="Path 221" d="M448.993,129.784h0l-.24.057-.705.151-2.735.574-10.476,2.143-.141.032.042-.126,3.849-12.443v-.088h.134l-.113.164a28.854,28.854,0,0,1-5.182-19.692,32.02,32.02,0,0,1,.9-4.627,31.249,31.249,0,0,1,1.657-4.633c.395-.75.79-1.507,1.191-2.263a8.006,8.006,0,0,1,.705-1.109c.24-.366.479-.731.7-1.1a34.232,34.232,0,0,1,7.692-7.9,36.321,36.321,0,0,1,10.73-5.4,38.913,38.913,0,0,1,34.237,5.211c9.62,6.946,14.509,17.865,12.906,28.828-2.266,16.2-17.925,28.2-36.174,27.735a37.29,37.29,0,0,1-10.716-1.721,36.8,36.8,0,0,1-6.246-2.6,13.718,13.718,0,0,1-1.509-.857L449,129.8l.508.284c.353.2.867.479,1.544.832a38.178,38.178,0,0,0,6.26,2.521,37.469,37.469,0,0,0,10.674,1.658c12.591.248,24.377-5.516,30.934-15.129a28.714,28.714,0,0,0,.883-31.516c-8.288-13.576-26.37-19.769-42.681-14.618a36.2,36.2,0,0,0-10.646,5.339,33.869,33.869,0,0,0-7.614,7.835c-.24.359-.479.725-.705,1.084a8.989,8.989,0,0,0-.67,1.1l-1.2,2.231a30.251,30.251,0,0,0-1.65,4.6,31.647,31.647,0,0,0-.909,4.583,28.741,28.741,0,0,0,5.083,19.553l.127.183h-.24l.127-.076c-1.516,4.8-2.82,8.995-3.92,12.43l-.1-.1L445.3,130.5l2.742-.529.705-.132a2.343,2.343,0,0,1,.247-.038h0Z" transform="translate(-193.162 -71.679)" fill="#263238"/>
    </g>
    <g id="freepik--character-3--inject-2" transform="translate(332.194 140.886)">
      <path id="Path_222" data-name="Path 222" d="M492.617,187.45c-3.448.719-5.64,3.839-6.394,6.934s-.374,6.3-.7,9.455-1.565,6.5-4.533,8.194l2.954.769a7.389,7.389,0,0,1-3.469,3.971A7.1,7.1,0,0,0,484.5,218a2.573,2.573,0,0,0-1.255,3.984c.959,1.355,2.785,2,4.526,2.4a13.22,13.22,0,0,0,6.275.17,9.65,9.65,0,0,0,6.084-5.49,21.51,21.51,0,0,0,1.41-7.86,63.49,63.49,0,0,0-2.115-19.881,6.808,6.808,0,0,0-2.587-4.141c-1.488-.92-4.026-.548-4.477,1.015" transform="translate(-457.343 -183.399)" fill="#2bace3"/>
      <path id="Path_223" data-name="Path 223" d="M560.865,312.889c-.818-2.786-5.584-18.482-9.87-28.731-4.731-11.378-14.488-13.729-14.488-13.729-21.961-6.7-41.694-6.738-62.745-.208a19.7,19.7,0,0,0-1.96.63h-.063A25.786,25.786,0,0,0,454.493,291.1l-6.592,35.81a7.31,7.31,0,0,0-.155.857l-.064.34h0a8.309,8.309,0,0,0,5.372,8.087c9.165,3.782,17.935,2.881,25.465.1l-5.471,7.123h65.135l-4.272-9.4,1.41-5.673L545.411,339.2a9.546,9.546,0,0,0,4.646,2.7c11.633,1.21,13.515-14.277,11.33-23.291h0" transform="translate(-447.666 -212.484)" fill="#455a64"/>
      <path id="Path_224" data-name="Path 224" d="M534.938,266.185s-10.512,47.275-14.213,46.91S499.66,267.08,499.66,267.08,521.854,261.785,534.938,266.185Z" transform="translate(-463.004 -212.142)" fill="#ffbe9d"/>
      <path id="Path_225" data-name="Path 225" d="M503.02,242.1c-.056-5.44-.226-11.17-.226-11.17s-7.847-1.116-9.539-10.256c-1.607-8.711-.134-28.863-.134-28.863h0c11.366-4.152,24.422-1.55,32.74,6.524h0l-.359,44.2c-.042,5.131-5.013,9.184-11.153,9.1h0C508.138,251.558,503.069,247.31,503.02,242.1Z" transform="translate(-460.893 -184.574)" fill="#ffbe9d"/>
      <path id="Path_226" data-name="Path 226" d="M497.07,216.523a1.241,1.241,0,0,0,1.269,1.179,1.351,1.351,0,0,0,.925-.279,1.08,1.08,0,0,0,.422-.787,1.241,1.241,0,0,0-1.269-1.179,1.352,1.352,0,0,0-.925.279,1.08,1.08,0,0,0-.422.787Z" transform="translate(-462.24 -194.035)" fill="#263238"/>
      <path id="Path_227" data-name="Path 227" d="M494.61,215.1c.162.151,1.149-.511,2.559-.517s2.453.63,2.609.466-.1-.34-.55-.63a3.923,3.923,0,0,0-2.115-.561,3.8,3.8,0,0,0-2.037.63C494.674,214.755,494.526,215.032,494.61,215.1Z" transform="translate(-461.508 -193.445)" fill="#263238"/>
      <path id="Path_228" data-name="Path 228" d="M517.32,217.494a1.241,1.241,0,0,0,1.269,1.179,1.349,1.349,0,0,0,.911-.286,1.079,1.079,0,0,0,.414-.78,1.241,1.241,0,0,0-1.269-1.179,1.349,1.349,0,0,0-.911.286,1.079,1.079,0,0,0-.415.78Z" transform="translate(-468.214 -194.394)" fill="#263238"/>
      <path id="Path_229" data-name="Path 229" d="M515.5,215.7c.169.151,1.156-.511,2.566-.517s2.453.63,2.6.466-.092-.34-.543-.63a3.923,3.923,0,0,0-2.115-.561,3.709,3.709,0,0,0-2.037.63C515.572,215.355,515.424,215.632,515.5,215.7Z" transform="translate(-467.671 -193.666)" fill="#263238"/>
      <path id="Path_230" data-name="Path 230" d="M506.84,225.15a10.483,10.483,0,0,0-2.3-.353c-.36,0-.705-.095-.761-.315a1.487,1.487,0,0,1,.233-.958l1.05-2.458c1.452-3.5,2.51-6.379,2.348-6.436s-1.466,2.748-2.926,6.253c-.345.864-.7,1.683-1,2.471a1.679,1.679,0,0,0-.176,1.261.864.864,0,0,0,.592.466,2.937,2.937,0,0,0,.613.076,10.243,10.243,0,0,0,2.327-.006Z" transform="translate(-464.065 -193.729)" fill="#263238"/>
      <path id="Path_231" data-name="Path 231" d="M507.1,253.041a28.416,28.416,0,0,0,13.677-3.341s-3.285,6.3-13.529,5.5Z" transform="translate(-465.199 -206.694)" fill="#eb996e"/>
      <path id="Path_232" data-name="Path 232" d="M509.152,235.63a2.73,2.73,0,0,1,2.277-.857,2.427,2.427,0,0,1,1.607.763,1.206,1.206,0,0,1,.12,1.507,1.836,1.836,0,0,1-1.847.422,5.454,5.454,0,0,1-1.8-.952,1.456,1.456,0,0,1-.409-.372.375.375,0,0,1,0-.466" transform="translate(-465.764 -201.172)" fill="#eb996e"/>
      <path id="Path_233" data-name="Path 233" d="M512.367,232.67c-.233,0-.226,1.362-1.53,2.339s-2.94.838-2.947,1.027c0,.088.367.265,1.057.277a4.1,4.1,0,0,0,2.46-.782,2.844,2.844,0,0,0,1.177-1.96C512.642,233,512.473,232.664,512.367,232.67Z" transform="translate(-465.432 -200.398)" fill="#263238"/>
      <path id="Path_234" data-name="Path 234" d="M519.856,187.869c-3.645,4.828-13.459,9.9-20.53,11.144.811-.99,5.125-3.461,5.929-4.444-3.173,2.194-7.755,5.137-11.985,5.4a2.866,2.866,0,0,1-1.473-.183,1.711,1.711,0,0,1-.775-1.425,34.323,34.323,0,0,1,.134-8.289,8.926,8.926,0,0,1,3.574-5.969c2.7-1.935,6.6-2.458,10.286-2.6a26.062,26.062,0,0,1,9.123.952c2.848.952,5.3,2.887,5.76,5.244" transform="translate(-460.4 -181.473)" fill="#2bace3"/>
      <path id="Path_235" data-name="Path 235" d="M542.675,211.271a45.671,45.671,0,0,0,.9-6.127c.211-4.728,1.791-21.772-16.377-20.083l1.029,4.583s-3.391,10.615,4.413,17.776c0,0-2.221,14.952,3.208,19.78,0,0,5.823-10.829,6.824-15.929" transform="translate(-471.128 -182.756)" fill="#2bace3"/>
      <path id="Path_236" data-name="Path 236" d="M534.448,219.266a6.836,6.836,0,0,1,3.292.17,4.137,4.137,0,0,1,2.425,1.948,3.571,3.571,0,0,1,.049,2.918,6.744,6.744,0,0,1-1.847,2.471,5.231,5.231,0,0,1-1.981,1.191,2.711,2.711,0,0,1-2.277-.3" transform="translate(-473.167 -195.397)" fill="#ffbe9d"/>
      <path id="Path_237" data-name="Path 237" d="M535.492,225.993c-.12.038.359.63,1.354.385a2.106,2.106,0,0,0,1.234-.971,4,4,0,0,0,.529-1.626,2.318,2.318,0,0,0-.472-1.721,1.93,1.93,0,0,0-1.41-.75c-1.029,0-1.346.63-1.227.63a2.056,2.056,0,0,1,1.149-.12,1.622,1.622,0,0,1,1.156,1.891,2.62,2.62,0,0,1-1.142,2.162C536.064,226.107,535.563,225.911,535.492,225.993Z" transform="translate(-473.569 -196.199)" fill="#eb996e"/>
      <path id="Path_238" data-name="Path 238" d="M483.673,332.864c-.1,0-.183-3.713-.183-8.3s.085-8.289.183-8.289.183,3.713.183,8.289S483.772,332.864,483.673,332.864Z" transform="translate(-458.234 -231.306)" fill="#263238"/>
      <path id="Path_239" data-name="Path 239" d="M517.11,315.667s-9.165.095-9.722,1.891c-.959,3,.754,19.471.754,19.471l8.425,2.521s4.061-.838,2.186-7.829a47.993,47.993,0,0,0-5.57-12.569s11.2.277,10.885-1.96S517.11,315.667,517.11,315.667Z" transform="translate(-465.198 -231.039)" fill="#ffbe9d"/>
      <path id="Path_240" data-name="Path 240" d="M516.14,323.269c.5-.088,11.689-.914,10.991.687s-10.991,2-10.991,2Z" transform="translate(-467.866 -233.782)" fill="#ffbe9d"/>
      <path id="Path_241" data-name="Path 241" d="M550.764,285.02l-1.382,31.24-5.1,12-31.359.58-1.269-38.7Z" transform="translate(-466.541 -219.75)" fill="#263238"/>
      <path id="Path_242" data-name="Path 242" d="M490.769,333.2a1.874,1.874,0,0,1-.381.177l-1.128.454-4.181,1.595-13.832,5.162-7.607,2.8a47.577,47.577,0,0,0-6.091,2.521,11.642,11.642,0,0,0-3.412,2.6,12.348,12.348,0,0,0-.916,1.261,1.294,1.294,0,0,1,.169-.359,5.385,5.385,0,0,1,.635-.952,11,11,0,0,1,3.384-2.717,44.618,44.618,0,0,1,6.105-2.591l7.621-2.824,13.875-5.074,4.23-1.5,1.156-.391a1.783,1.783,0,0,1,.374-.164Z" transform="translate(-449.305 -237.56)" fill="#263238"/>
      <path id="Path_243" data-name="Path 243" d="M512.429,352.62a5.45,5.45,0,0,1-.705.75c-.458.473-1.142,1.135-2.023,1.923-1.755,1.588-4.293,3.681-7.212,5.862s-5.64,4.059-7.67,5.37c-1.008.63-1.833,1.172-2.411,1.525a6.281,6.281,0,0,1-.916.511,5.762,5.762,0,0,1,.832-.63l2.341-1.607c1.974-1.355,4.674-3.253,7.593-5.434s5.471-4.23,7.262-5.774c.9-.763,1.614-1.406,2.115-1.841A6.068,6.068,0,0,1,512.429,352.62Z" transform="translate(-460.594 -244.739)" fill="#263238"/>
      <path id="Path_244" data-name="Path 244" d="M579.7,371.882c-.078.063-4.674-4.652-10.272-10.527s-10.074-10.678-10-10.716,4.674,4.639,10.272,10.5S579.776,371.826,579.7,371.882Z" transform="translate(-480.635 -244.007)" fill="#263238"/>
      <path id="Path_245" data-name="Path 245" d="M590.826,341.136a7.123,7.123,0,0,1-1.015-.322c-.649-.227-1.579-.58-2.714-1.034-2.27-.914-5.358-2.276-8.643-3.977s-6.155-3.41-8.171-4.715c-1.008-.63-1.812-1.2-2.355-1.588a5.745,5.745,0,0,1-.818-.63,6.094,6.094,0,0,1,.9.523c.628.385,1.445.889,2.418,1.5,2.052,1.261,4.935,2.925,8.206,4.62s6.345,3.089,8.573,4.047l2.658,1.128A6.34,6.34,0,0,1,590.826,341.136Z" transform="translate(-482.901 -235.96)" fill="#263238"/>
      <path id="Path_246" data-name="Path 246" d="M576.847,328.693c-.1,0-.649-3.322-1.227-7.444s-.966-7.482-.867-7.488.656,3.322,1.234,7.444A74.846,74.846,0,0,1,576.847,328.693Z" transform="translate(-485.152 -230.374)" fill="#263238"/>
      <path id="Path_247" data-name="Path 247" d="M538.116,228.649a2.33,2.33,0,0,1-.289.4l-.9,1.072-3.25,3.782v-.2l5.295,3.719.472.34h-.254l4.583-5.131v.189l-3.447-2.521-.945-.712a1.831,1.831,0,0,1-.317-.277,3.081,3.081,0,0,1,.374.214l.994.63,3.525,2.421.12.082-.1.107c-1.3,1.5-2.855,3.265-4.526,5.169l-.113.132-.148-.1-.451-.265c-1.911-1.362-3.708-2.647-5.266-3.751l-.127-.095.1-.107,3.356-3.694.959-1.027C537.975,228.757,538.1,228.637,538.116,228.649Z" transform="translate(-472.942 -198.912)" fill="#263238"/>
      <path id="Path_248" data-name="Path 248" d="M549.1,336.017a139.666,139.666,0,0,1-15.143-1.45c-5.929-.845-5.866-1.33-5.64-1.935.564-1.626,10.49,1.135,8.707-.574s-12.535-2.112-11.865-3.782c.874-2.187,11.21.876,12.1,1.078s1.213-.952.395-1.1c-1.17-.208-13.459-2.635-12.627-4.791.465-1.2,2.778-.2,2.778-.2s11.33,3.038,11.689,2-6.225-3.032-8.5-3.555-2.9-1.7-1.847-2.4c.7-.479,7.755.99,9.948,1.563s8.333,2.225,6.007-.788l-.1-.145c-2.383-2.912-3.137-5.862-2.707-6.852a1.491,1.491,0,0,1,2.51,0,1.237,1.237,0,0,1,.233.485,2.164,2.164,0,0,0,.085.258,17.567,17.567,0,0,0,2.059,3.208,10.381,10.381,0,0,0,2.566,2.376c1.156.75,4.082,3.511,4.935,4" transform="translate(-470.477 -229.876)" fill="#ffbe9d"/>
    </g>
    <g id="freepik--character-2--inject-2" transform="translate(116.726 141.54)">
      <path id="Path_249" data-name="Path 249" d="M251.65,253.968h0c-6.594-.108-11.935-4.822-12.14-10.716-.169-4.91-.3-9.644-.3-9.644s-10.089-.838-10.829-9.764-.423-29.531-.423-29.531h0a38.34,38.34,0,0,1,35.166,2l1.551.939-.43,45.763a10.534,10.534,0,0,1-3.746,7.825A13.2,13.2,0,0,1,251.65,253.968Z" transform="translate(-167.366 -185.639)" fill="#b78876"/>
      <path id="Path_250" data-name="Path 250" d="M242.082,228.092a7.189,7.189,0,0,0-2.256-.3c-.367,0-.649-.069-.705-.24a1.628,1.628,0,0,1,.2-.939l.931-2.54c1.255-3.643,2.115-6.644,1.9-6.7s-1.41,2.849-2.651,6.493c-.3.889-.578,1.74-.853,2.578a1.842,1.842,0,0,0-.106,1.349.943.943,0,0,0,.656.479,2.762,2.762,0,0,0,.62.038A7.942,7.942,0,0,0,242.082,228.092Z" transform="translate(-170.482 -195.396)" fill="#263238"/>
      <path id="Path_251" data-name="Path 251" d="M247.3,236.14a35.926,35.926,0,0,1-6.627,2.124,4.1,4.1,0,0,0,4.583,1.109C248.171,238.226,247.3,236.14,247.3,236.14Z" transform="translate(-171.135 -202.335)" fill="#fff"/>
      <path id="Path_252" data-name="Path 252" d="M243.92,256.028a25.071,25.071,0,0,0,12.8-4.028s-2.637,6.6-12.69,6.341Z" transform="translate(-172.094 -208.197)" fill="#a36957"/>
      <path id="Path_253" data-name="Path 253" d="M279.249,217.624a1.422,1.422,0,0,1,1.41-1.355c1.868-.044,4.935.63,5.2,5.213.409,6.574-6.662,4.936-6.684,4.746S279.228,220.177,279.249,217.624Z" transform="translate(-182.494 -194.988)" fill="#b78876"/>
      <path id="Path_254" data-name="Path 254" d="M281.517,224.926a1.985,1.985,0,0,0,.353.151,1.433,1.433,0,0,0,.959,0,2.734,2.734,0,0,0,1.3-2.616,3.4,3.4,0,0,0-.458-1.62,1.423,1.423,0,0,0-1.015-.832.675.675,0,0,0-.74.353c-.085.189,0,.315-.07.328s-.162-.1-.12-.378a.72.72,0,0,1,.261-.422,1.036,1.036,0,0,1,.705-.2,1.793,1.793,0,0,1,1.41.952,3.583,3.583,0,0,1,.571,1.765,2.923,2.923,0,0,1-1.692,2.931,1.5,1.5,0,0,1-1.177-.12C281.538,225.065,281.489,224.926,281.517,224.926Z" transform="translate(-183.183 -196.252)" fill="#a36957"/>
      <path id="Path_255" data-name="Path 255" d="M232.43,219.564a1.313,1.313,0,0,0,1.41,1.135,1.372,1.372,0,0,0,.932-.342,1.092,1.092,0,0,0,.373-.837,1.305,1.305,0,0,0-1.41-1.141,1.379,1.379,0,0,0-.932.346A1.1,1.1,0,0,0,232.43,219.564Z" transform="translate(-168.704 -195.769)" fill="#263238"/>
      <path id="Path_256" data-name="Path 256" d="M229.145,217.477c.183.145,1.156-.63,2.609-.687s2.58.492,2.721.328-.12-.353-.606-.63a4.106,4.106,0,0,0-2.2-.454,3.764,3.764,0,0,0-2.059.737C229.187,217.118,229.032,217.408,229.145,217.477Z" transform="translate(-167.725 -194.898)" fill="#263238"/>
      <path id="Path_257" data-name="Path 257" d="M253,219.208a1.307,1.307,0,0,0,1.41,1.135,1.38,1.38,0,0,0,.934-.342,1.1,1.1,0,0,0,.377-.837,1.313,1.313,0,0,0-1.41-1.135,1.387,1.387,0,0,0-.932.344,1.106,1.106,0,0,0-.379.835Z" transform="translate(-174.772 -195.639)" fill="#263238"/>
      <path id="Path_258" data-name="Path 258" d="M250.119,217.477c.183.145,1.156-.63,2.609-.687s2.573.492,2.721.328-.12-.353-.613-.63a4.067,4.067,0,0,0-2.193-.454,3.765,3.765,0,0,0-2.059.738C250.161,217.118,250.027,217.408,250.119,217.477Z" transform="translate(-173.914 -194.898)" fill="#263238"/>
      <path id="Path_259" data-name="Path 259" d="M263.51,189.959a7.2,7.2,0,0,0,1.664,8.383,33.177,33.177,0,0,1,3.074,2.616c1.762,2.1,1.473,4.986,1.755,7.6a4.83,4.83,0,0,0,1.41,3.322c.966.8,2.855.882,3.525-.158a3.01,3.01,0,0,0,.367-1.053q.924-4.368,1.833-8.73a16.849,16.849,0,0,0,.5-6.619,9.351,9.351,0,0,0-4.688-6.292,11.5,11.5,0,0,0-8.362-1.121" transform="translate(-177.669 -184.38)" fill="#263238"/>
      <path id="Path_260" data-name="Path 260" d="M251.123,186.241a32.011,32.011,0,0,1-7.692-2.521,12.494,12.494,0,0,0-7.642-.775c-1.706.429-3.321,1.349-5.076,1.33s-3.314-.939-4.977-1.412a9.827,9.827,0,0,0-6.9.63c-1.643.807-3.116,2.25-3.257,4.015s1.622,3.587,3.391,3.082a3.286,3.286,0,0,0-1.678,4.627,4.941,4.941,0,0,0,4.928,2.1A9.2,9.2,0,0,0,227.2,194.6c.042,1.967,2.249,3.347,4.294,3.29a10.94,10.94,0,0,0,5.577-2.282,15.517,15.517,0,0,1,5.393-2.755c1.41-.277,2.82-.126,4.23-.277a4.631,4.631,0,0,0,3.61-1.891c.684-1.191,3.391-2.591,1.974-2.629" transform="translate(-163.731 -182.509)" fill="#263238"/>
      <path id="Path_261" data-name="Path 261" d="M237.5,199.98q.366.2.754.359a3.993,3.993,0,0,0,2.263,0,6.409,6.409,0,0,0,1.452-.574c.493-.265.994-.63,1.53-.952a12.974,12.974,0,0,1,1.77-1.009,5.579,5.579,0,0,1,2.214-.5c1.572,0,2.989.353,4.272.252a4,4,0,0,0,2.876-1.4,3.575,3.575,0,0,0,.86-1.891c.056-.492,0-.769.035-.769s.035.063.063.2a2.488,2.488,0,0,1,.042.58,3.405,3.405,0,0,1-.79,2.017,4.031,4.031,0,0,1-1.22,1.034,4.456,4.456,0,0,1-1.833.529c-1.368.12-2.82-.252-4.294-.227a7.417,7.417,0,0,0-3.8,1.425c-.543.34-1.05.674-1.572.939a6.248,6.248,0,0,1-1.544.561,3.972,3.972,0,0,1-2.383-.095,2.25,2.25,0,0,1-.55-.328Q237.493,199.993,237.5,199.98Z" transform="translate(-170.2 -186.572)" fill="#263238"/>
      <path id="Path_262" data-name="Path 262" d="M264.4,183.49a12.032,12.032,0,0,0,.2,2.093,11.875,11.875,0,0,0,.924,1.935,3.371,3.371,0,0,1-1.128-4.028Z" transform="translate(-178.056 -182.872)" fill="#263238"/>
      <path id="Path_263" data-name="Path 263" d="M268.8,183.27c.078.069-.832.838-1.509,2.049s-.867,2.307-.973,2.288a3.749,3.749,0,0,1,.642-2.439A4.383,4.383,0,0,1,268.8,183.27Z" transform="translate(-178.696 -182.791)" fill="#263238"/>
      <path id="Path_264" data-name="Path 264" d="M328.722,331.55l15.348,35.305H320.579L309.63,341.717Z" transform="translate(-191.478 -237.604)" fill="#b78876"/>
      <path id="Path_265" data-name="Path 265" d="M196.093,258.028s-20.241,18.626-28.983,18.626c-2.862,0-5.1-31.025-5.14-39.97h0a11.415,11.415,0,0,1,1.967-3.208,15.875,15.875,0,0,1,2.545-2.521,17.808,17.808,0,0,1,3.969-2.288c1.368-.429,1.48-2.1.233-2.433s-5.041.769-8.46,3.65-2.383-3.568-2.059-5.919.938-9.682.2-10.325c-1.072-.946-2.432-.069-2.7,2.288s-1.558,9.4-2.968,9.222.465-12.153.465-12.153.853-2.521-.705-2.773c-2.876-.46-3.772,12.374-3.821,13.6,0,.851-1.551.706-1.459-.208S151.3,211.7,148.4,211.2c-2.235-.378-.846,10.558-2.686,12.657s-.106-8.415-2.263-8.7c-.8-.1-1.41-.082-1.41,6.058,0,3.3,1.41,8.289.86,14.643h0c.931,18.759-.1,71.436,23.265,65.2a121.082,121.082,0,0,0,43.21-21.9Z" transform="translate(-142.04 -192.75)" fill="#b78876"/>
      <path id="Path_266" data-name="Path 266" d="M299.088,312.55a3.359,3.359,0,0,1,.226.744c.127.479.289,1.179.472,2.049.36,1.74.79,4.154,1.121,6.833s.5,5.118.571,6.883c0,.882.049,1.6.042,2.093a2.742,2.742,0,0,1-.042.769,3.614,3.614,0,0,1-.1-.763c-.042-.561-.1-1.261-.162-2.086-.134-1.759-.345-4.185-.7-6.858s-.705-5.087-1.015-6.833c-.141-.819-.254-1.507-.353-2.061A2.965,2.965,0,0,1,299.088,312.55Z" transform="translate(-188.367 -230.58)" fill="#263238"/>
      <path id="Path_267" data-name="Path 267" d="M204.543,344.563l64.663.29-2.178-12.2a84.182,84.182,0,0,0-.092-17.4l3.278,7.936,26.727-11.976s-9.715-23.159-17.851-31.006c-10.272-9.915-28.764-8.926-28.764-8.926l-12.493,7.564-11.5-7.243a60.97,60.97,0,0,0-17.766,4.62l-.592.151v.113c-6.782,3.152-16.462,10.886-25.676,18.381l10.639,9.26,11.781,9.814a10.731,10.731,0,0,1,2.016-.076C206.933,314.944,204.543,344.563,204.543,344.563Z" transform="translate(-153.916 -215.312)" fill="#455a64"/>
      <path id="Path_268" data-name="Path 268" d="M299.417,306.68l8.791,28.025-3.525,1.576-3.271-7.936S298.219,311.729,299.417,306.68Z" transform="translate(-188.386 -228.41)" opacity="0.2"/>
      <path id="Path_269" data-name="Path 269" d="M243.74,269.308v-3.026s10.1-.7,12.14,9.966c0,0,3.292-9.966,13.092-10.968l1.41,4.658s-4.646,12.979-5.316,13.092-9.165,2.326-9.165,2.326l-4.935-1-5.464-5.566Z" transform="translate(-172.041 -213.106)" fill="#455a64"/>
      <path id="Path_270" data-name="Path 270" d="M276.613,272.11a3.665,3.665,0,0,1-.564.523c-.367.334-.9.8-1.537,1.412a33.1,33.1,0,0,0-4.378,5.144c-.31.454-.592.9-.86,1.336l-.162.265-.155-.265c-1.121-1.891-2.115-3.53-2.876-4.809a2.232,2.232,0,0,0-.642-.63,1.52,1.52,0,0,0-.7-.221,1.872,1.872,0,0,0-.613.095.809.809,0,0,1,.62-.208,1.537,1.537,0,0,1,.776.2,2.368,2.368,0,0,1,.747.681c.8,1.191,1.812,2.862,2.989,4.772h-.282c.268-.441.55-.9.867-1.355a28.19,28.19,0,0,1,4.505-5.137c.663-.592,1.227-1.04,1.629-1.343a2.836,2.836,0,0,1,.642-.454Z" transform="translate(-178.053 -215.631)" fill="#263238"/>
      <path id="Path_271" data-name="Path 271" d="M242.81,273a2.539,2.539,0,0,1,.479.454c.3.309.7.756,1.206,1.317,1.008,1.116,2.376,2.673,3.87,4.412l.24.277h-.31a9.836,9.836,0,0,0,.832-2.811,3.324,3.324,0,0,1,1.41-2.105,2.284,2.284,0,0,1,1.819-.208,1.542,1.542,0,0,1,.43.246c.078.082.106.126.1.132a3.067,3.067,0,0,0-.571-.258,2.181,2.181,0,0,0-1.636.277,3.1,3.1,0,0,0-1.206,1.986,10.094,10.094,0,0,1-.839,2.9l-.134.221-.169-.2-.24-.277c-1.495-1.733-2.82-3.316-3.786-4.469-.472-.574-.853-1.046-1.114-1.374a2.422,2.422,0,0,1-.381-.517Z" transform="translate(-171.767 -215.96)" fill="#263238"/>
      <path id="Path_272" data-name="Path 272" d="M253,348.842a.564.564,0,0,1,0-.176v-.5c0-.466.063-1.109.113-1.929.12-1.7.3-4.11.5-7.079.465-6,1.1-14.246,1.8-23.354l1.9-23.323c.261-2.969.472-5.377.62-7.072.078-.819.141-1.462.19-1.923a3.786,3.786,0,0,1,.056-.5.563.563,0,0,1,0-.164.4.4,0,0,1,0,.17v.5c0,.466-.071,1.109-.12,1.929-.12,1.7-.289,4.11-.5,7.079-.458,6-1.093,14.246-1.791,23.354s-1.41,17.353-1.9,23.323c-.261,2.969-.465,5.377-.613,7.072q-.127,1.229-.19,1.929a3.8,3.8,0,0,1-.056.5.475.475,0,0,1,0,.17Z" transform="translate(-174.77 -219.59)" fill="#263238"/>
      <path id="Path_273" data-name="Path 273" d="M219.157,298.6a5.083,5.083,0,0,1-.063,1c-.056.7-.141,1.614-.24,2.723-.19,2.294-.388,5.478-.606,8.995s-.458,6.694-.705,8.995c-.127,1.147-.254,2.08-.36,2.717a4.994,4.994,0,0,1-.2.99,5.082,5.082,0,0,1,.063-1c.063-.7.141-1.62.24-2.723.2-2.3.388-5.484.613-8.995s.451-6.7.705-9c.127-1.147.254-2.074.36-2.717a5.369,5.369,0,0,1,.2-.983Z" transform="translate(-164.145 -225.424)" fill="#263238"/>
      <path id="Path_274" data-name="Path 274" d="M258.74,280.26s-3.469,4.053-2.961,4.658l2.961,3.536h2.115s1.974-4.954,1.466-5.585A30.592,30.592,0,0,0,258.74,280.26Z" transform="translate(-175.577 -218.644)" fill="#2bace3"/>
      <path id="Path_275" data-name="Path 275" d="M265.9,278.53,262.07,281.2l1.466,2.515,3.934-2.6Z" transform="translate(-177.448 -218.005)" fill="#2bace3"/>
      <path id="Path_276" data-name="Path 276" d="M251.55,279.454l3.49,2.6,1.932-2.6-4.406-2.994Z" transform="translate(-174.345 -217.239)" fill="#2bace3"/>
      <path id="Path_277" data-name="Path 277" d="M257.713,292.954,252.39,335.6l5.238,14.826,6.987-14.693-4.6-43.285Z" transform="translate(-174.593 -223.15)" fill="#2bace3"/>
      <path id="Path_278" data-name="Path 278" d="M308.378,280.168a4.735,4.735,0,0,0-.705-.422,3.317,3.317,0,0,0-2.193-.113,6.844,6.844,0,0,0-2.728,1.721,14.916,14.916,0,0,0-2.5,2.982,13.965,13.965,0,0,0-2.115,6.461c-.113,1.746.134,2.824.056,2.83a3.7,3.7,0,0,1-.183-.75,11.037,11.037,0,0,1-.127-2.086,13.217,13.217,0,0,1,2.052-6.619,14.369,14.369,0,0,1,2.573-3.032,6.876,6.876,0,0,1,2.9-1.727,3.33,3.33,0,0,1,2.334.221,2.01,2.01,0,0,1,.5.366C308.35,280.1,308.385,280.162,308.378,280.168Z" transform="translate(-188.012 -218.287)" fill="#263238"/>
    </g>
    <g id="freepik--character-1--inject-2" transform="translate(229.702 148.07)">
      <path id="Path_279" data-name="Path 279" d="M378.267,197a22.168,22.168,0,0,0-9.518,11.05c-1.861,4.431-2.566,9.184-3.116,13.867a241.874,241.874,0,0,0-1.459,37.486c17.082,1.929,34.3,3.87,51.465,2.824-2.982-17.542-4.872-35.066-2.482-52.684" transform="translate(-320.491 -194.396)" fill="#263238"/>
      <path id="Path_280" data-name="Path 280" d="M399.651,372.606l-12.457-22.491,4.752-16.452c.557,3.486,1.05,6.511,1.05,6.511l26.684-1.261a1.767,1.767,0,0,0,1.219-.551,1.4,1.4,0,0,0,.367-1.176l-5.168-32.9a26.673,26.673,0,0,0-17.837-20.94h-.078c-.649-.227-1.325-.429-2.023-.63-21.792-6.757-42.2-6.713-64.91.214,0,0-10.089,2.427-14.981,14.2s-9.87,29.065-9.87,29.065l22.631,7.167.148-3.423,5.006,17.12-10.977,24.936,38.317.845Z" transform="translate(-303.502 -224.223)" fill="#2bace3"/>
      <path id="Path_281" data-name="Path 281" d="M305.208,354.28,302.663,365c-2.186,9.234,5.464,18.715,15.954,19.78l55.773,5.118a24.036,24.036,0,0,0,16.518-4.354,19.29,19.29,0,0,0,8.051-13.611h0l-70.317-5.988.437-6.039Z" transform="translate(-302.289 -252.536)" fill="#2bace3"/>
      <path id="Path_282" data-name="Path 282" d="M405.215,365.241l4.329-.719s10.265-10.041,12.19-10.18c1.586-.12,10.321-.044,13.4,0a1,1,0,0,1,1.043.945h0a1,1,0,0,1-1.022.945l-10.314.359-.049.744,10.328.12c1.057.076,1.727,1.563-1.636,1.834l-8.643.271v.479l8.763,1.1c.444.057,1.607.258,1.614.662,0,0,.536.977-1.967,1.261-.853.095-8.46-.132-8.46-.132l.289.63,7.882,1.519a1.01,1.01,0,0,1,.867,1.116h0a1.094,1.094,0,0,1-1.213.857l-8.411-.693-8.263,5.894H404.87Z" transform="translate(-332.55 -252.536)" fill="#ffbe9d"/>
      <path id="Path_283" data-name="Path 283" d="M366.48,277.328S377.344,327,381.172,326.64s21.785-47.609,21.785-47.609S380.009,272.784,366.48,277.328Z" transform="translate(-321.225 -223.478)" fill="#fafafa"/>
      <path id="Path_284" data-name="Path 284" d="M434.593,345.608c-.1,0-.183-3.429-.183-7.652s.085-7.646.183-7.646.183,3.423.183,7.646S434.7,345.608,434.593,345.608Z" transform="translate(-341.264 -243.676)" fill="#263238"/>
      <path id="Path_285" data-name="Path 285" d="M340.07,346.329a13.69,13.69,0,0,1,.226-2.2c.19-1.362.472-3.227.811-5.289s.656-3.933.909-5.276a13.552,13.552,0,0,1,.486-2.175,13.729,13.729,0,0,1-.226,2.206c-.19,1.355-.472,3.227-.811,5.289s-.656,3.921-.909,5.27a13.554,13.554,0,0,1-.486,2.175Z" transform="translate(-313.434 -244.075)" fill="#263238"/>
      <path id="Path_286" data-name="Path 286" d="M384.584,402.049a1.8,1.8,0,0,1,0-.46v-1.317c0-1.147,0-2.805.049-4.854.085-4.1.331-9.751.649-15.992s.6-11.894.754-15.992c.063-2.017.12-3.662.162-4.847a11.677,11.677,0,0,1,.042-1.317,1.962,1.962,0,0,1,.042-.46,2.337,2.337,0,0,1,0,.46v1.324c0,1.141,0,2.8-.042,4.847-.085,4.1-.338,9.751-.649,16s-.606,11.895-.754,15.985c-.07,2.023-.127,3.669-.162,4.847a9.912,9.912,0,0,1-.049,1.317A3.365,3.365,0,0,1,384.584,402.049Z" transform="translate(-326.561 -253.472)" fill="#263238"/>
      <path id="Path_287" data-name="Path 287" d="M408.812,280.87s.035.214.12.63a8.243,8.243,0,0,0,.557,1.715,17.687,17.687,0,0,0,1.41,2.521,34.673,34.673,0,0,1,2,3.328,7.277,7.277,0,0,1,.846,4.513,5.517,5.517,0,0,1-1.135,2.376,16.564,16.564,0,0,1-1.988,2.055,33.539,33.539,0,0,0-4.23,4.337,9.64,9.64,0,0,0-2.179,5.711,6.425,6.425,0,0,0,.747,2.988,25.392,25.392,0,0,1,1.368,2.83,3.757,3.757,0,0,1,.219,1.525,2.929,2.929,0,0,1-.529,1.45,8.453,8.453,0,0,1-2.348,1.967l-8.834,5.824-5.971,3.9-1.636,1.053-.43.265-.155.082a1.234,1.234,0,0,1,.134-.113l.409-.29,1.593-1.1,5.873-3.99,8.784-5.875a8.053,8.053,0,0,0,2.249-1.891,2.614,2.614,0,0,0,.479-1.3,3.564,3.564,0,0,0-.211-1.418,24.466,24.466,0,0,0-1.361-2.786,6.666,6.666,0,0,1-.776-3.114,9.888,9.888,0,0,1,2.249-5.887,32.856,32.856,0,0,1,4.286-4.375c1.445-1.261,2.778-2.654,3.06-4.267a7.009,7.009,0,0,0-.783-4.368,33.888,33.888,0,0,0-1.939-3.335,17.683,17.683,0,0,1-1.361-2.578,7.285,7.285,0,0,1-.493-1.752,3.962,3.962,0,0,1-.049-.466A.445.445,0,0,1,408.812,280.87Z" transform="translate(-327.172 -225.4)" fill="#263238"/>
      <path id="Path_288" data-name="Path 288" d="M378.232,327.149h-.169l-.5-.082a17.349,17.349,0,0,1-1.882-.46,19.458,19.458,0,0,1-6.2-3.152,16.368,16.368,0,0,1-5.689-7.942,15.177,15.177,0,0,1-.7-5.585,16.4,16.4,0,0,1,.444-2.95,6.157,6.157,0,0,0,.092-2.95,2.428,2.428,0,0,0-.853-1.191,4.776,4.776,0,0,0-1.452-.63c-.522-.158-1.065-.284-1.593-.479a4.524,4.524,0,0,1-1.41-.832,4.792,4.792,0,0,1-1.452-2.6,9.229,9.229,0,0,1-.169-2.767,34.284,34.284,0,0,1,2.312-9.272,36.8,36.8,0,0,1,2.961-5.831c.416-.63.754-1.16,1-1.488l.275-.378a.519.519,0,0,1,.106-.126.26.26,0,0,1-.07.139l-.247.4c-.226.34-.543.857-.945,1.519a40.021,40.021,0,0,0-2.82,5.843,35.8,35.8,0,0,0-2.221,9.216,9.372,9.372,0,0,0,.183,2.685,4.569,4.569,0,0,0,1.354,2.439,4.318,4.318,0,0,0,1.318.756c.493.183,1.029.309,1.572.473a4.989,4.989,0,0,1,1.565.706,2.737,2.737,0,0,1,.973,1.355,6.366,6.366,0,0,1-.085,3.095,17.033,17.033,0,0,0-.444,2.912,15.14,15.14,0,0,0,.7,5.484,16.226,16.226,0,0,0,5.534,7.848,20.017,20.017,0,0,0,6.077,3.234c.79.252,1.41.416,1.854.517l.486.113Q378.186,327.153,378.232,327.149Z" transform="translate(-318.327 -224.498)" fill="#263238"/>
      <path id="Path_289" data-name="Path 289" d="M409.331,370.989,362.61,369.64l.07,13.867,30.936,6.076,21.764,3.108c13.522,0,24.344-11.1,22.25-23.045h-.056Z" transform="translate(-320.083 -258.215)" fill="#2bace3"/>
      <path id="Path_290" data-name="Path 290" d="M422.2,370.736a3.833,3.833,0,0,1-.606.038l-1.734.044-6.387.1c-5.393.076-12.845.158-21.08.082s-15.686-.334-21.073-.63c-2.693-.164-4.865-.315-6.345-.454l-1.727-.158a4.015,4.015,0,0,1-.606-.076,4.02,4.02,0,0,1,.606,0l1.734.095c1.509.095,3.687.214,6.345.347,5.386.265,12.831.5,21.066.567s15.672,0,21.066,0h8.129A4.576,4.576,0,0,1,422.2,370.736Z" transform="translate(-320.092 -258.226)" fill="#263238"/>
      <path id="Path_291" data-name="Path 291" d="M349.109,365.241l-4.329-.719s-10.265-10.041-12.2-10.18c-1.579-.12-10.314-.044-13.36,0a1,1,0,0,0-1.043.945h0a1,1,0,0,0,1.015.945l10.321.359.049.744-10.335.12c-1.05.076-1.727,1.563,1.643,1.834l8.643.271v.479l-8.763,1.1c-.444.057-1.607.258-1.621.662,0,0-.529.977,1.967,1.261.86.095,8.46-.132,8.46-.132l-.3.63-7.875,1.519a1.024,1.024,0,0,0-.874,1.116h0a1.1,1.1,0,0,0,1.213.857l8.418-.693,8.263,5.894h11.04Z" transform="translate(-306.977 -252.536)" fill="#ffbe9d"/>
      <path id="Path_292" data-name="Path 292" d="M414.875,400.623a2.577,2.577,0,0,1-.529,0l-1.509-.145c-1.318-.132-3.208-.347-5.548-.63-4.681-.58-11.125-1.494-18.2-2.729s-13.4-2.572-18.006-3.618c-2.284-.517-4.131-.958-5.4-1.261l-1.459-.378a3.92,3.92,0,0,1-.508-.151,2.805,2.805,0,0,1,.522.088l1.48.315,5.429,1.185c4.59.983,10.949,2.276,18.013,3.517s13.5,2.187,18.161,2.824l5.527.737,1.5.208A5.065,5.065,0,0,1,414.875,400.623Z" transform="translate(-320.411 -266.373)" fill="#263238"/>
      <path id="Path_293" data-name="Path 293" d="M362.894,383.731a9.61,9.61,0,0,1-.409-1.973c-.183-1.261-.381-2.937-.494-4.822s-.106-3.606-.063-4.847a9.761,9.761,0,0,1,.176-2,12.122,12.122,0,0,1,.085,2c0,1.261.063,2.937.169,4.822s.268,3.58.388,4.809A13.554,13.554,0,0,1,362.894,383.731Z" transform="translate(-319.874 -258.381)" fill="#263238"/>
      <path id="Path_294" data-name="Path 294" d="M369.959,384.384a1.989,1.989,0,0,1-.2-.53c-.106-.34-.247-.845-.388-1.469a32.212,32.212,0,0,1-.705-9.947c.056-.63.127-1.154.19-1.507a1.675,1.675,0,0,1,.127-.542,15.708,15.708,0,0,1-.056,2.061,44.48,44.48,0,0,0,.056,4.961,46.55,46.55,0,0,0,.613,4.929A15.024,15.024,0,0,1,369.959,384.384Z" transform="translate(-321.834 -258.492)" fill="#263238"/>
      <path id="Path_295" data-name="Path 295" d="M364.223,373.48c.042.038-.226.208-.219.63a.729.729,0,0,0,.282.567.775.775,0,0,0,.783,0,.617.617,0,0,0,.374-.63.765.765,0,0,0-.4-.5,1.8,1.8,0,0,0-.705-.132c0-.05.289-.271.818-.069a.988.988,0,0,1,.62.63.932.932,0,0,1-.532.945,1.177,1.177,0,0,1-1.181-.069.885.885,0,0,1-.324-.8C363.821,373.562,364.223,373.436,364.223,373.48Z" transform="translate(-320.413 -259.552)" fill="#263238"/>
      <path id="Path_296" data-name="Path 296" d="M357.5,395.773a2.182,2.182,0,0,1-.479,0h-1.375a41.5,41.5,0,0,0-5.013.422q-3.687.559-7.3,1.45c-2.728.63-5.7,1.418-8.9,2.042a42.5,42.5,0,0,1-9.165.889,25.613,25.613,0,0,1-7.381-1.261,17.448,17.448,0,0,1-4.413-2.225,10.816,10.816,0,0,1-1.022-.826,1.993,1.993,0,0,1-.324-.315s.486.4,1.41,1.04a18.167,18.167,0,0,0,4.413,2.105,25.686,25.686,0,0,0,7.346,1.191,43.178,43.178,0,0,0,9.059-.908c3.173-.63,6.155-1.387,8.89-2.017q3.629-.869,7.346-1.387a37.1,37.1,0,0,1,5.048-.315,8.984,8.984,0,0,1,1.375.057A2.842,2.842,0,0,1,357.5,395.773Z" transform="translate(-305.192 -267.833)" fill="#263238"/>
      <path id="Path_297" data-name="Path 297" d="M395.949,256.008c1.107-5.534,2.39-11.346,2.39-11.346s8.22.069,11.71-8.982c3.328-8.636,5.732-29.412,5.732-29.412h0a33.368,33.368,0,0,0-34.644,1.582h0l-8.192,45.12c-.952,5.238,3.328,10.142,9.609,11.006h0C388.892,264.852,394.891,261.315,395.949,256.008Z" transform="translate(-323.093 -196.308)" fill="#ffbe9d"/>
      <path id="Path_298" data-name="Path 298" d="M423.959,232.585a1.453,1.453,0,0,1-2.416.579,1.069,1.069,0,0,1-.278-.869,1.449,1.449,0,0,1,2.416-.575,1.075,1.075,0,0,1,.277.865Z" transform="translate(-337.383 -207.069)" fill="#263238"/>
      <path id="Path_299" data-name="Path 299" d="M426.335,230.763c-.2.132-1.079-.7-2.517-.92s-2.616.252-2.742.069c-.063-.076.162-.334.705-.561a4.18,4.18,0,0,1,2.235-.252,3.769,3.769,0,0,1,1.967.933C426.335,230.4,426.427,230.706,426.335,230.763Z" transform="translate(-337.327 -206.242)" fill="#263238"/>
      <path id="Path_300" data-name="Path 300" d="M403.021,229.251a1.348,1.348,0,0,1-1.523,1,1.2,1.2,0,0,1-1.17-1.261,1.355,1.355,0,0,1,1.53-1.009,1.209,1.209,0,0,1,1.163,1.267Z" transform="translate(-331.208 -205.846)" fill="#263238"/>
      <path id="Path_301" data-name="Path 301" d="M404.925,227.761c-.2.126-1.079-.7-2.517-.927s-2.616.258-2.742.076c-.063-.082.155-.34.705-.567a4.126,4.126,0,0,1,2.235-.246,3.72,3.72,0,0,1,1.967.927C404.925,227.4,405.017,227.7,404.925,227.761Z" transform="translate(-331.011 -205.131)" fill="#263238"/>
      <path id="Path_302" data-name="Path 302" d="M411.86,238.846a11.307,11.307,0,0,1,2.411,0c.374,0,.7,0,.839-.2a1.532,1.532,0,0,0-.049-1.009c-.19-.851-.388-1.74-.592-2.673-.811-3.782-1.325-6.9-1.149-6.934s.959,3.026,1.77,6.82c.19.939.374,1.828.543,2.679a1.756,1.756,0,0,1-.063,1.317.944.944,0,0,1-.7.385,2.622,2.622,0,0,1-.642,0A10.308,10.308,0,0,1,411.86,238.846Z" transform="translate(-334.612 -205.867)" fill="#263238"/>
      <path id="Path_303" data-name="Path 303" d="M403.436,266.338a28.5,28.5,0,0,1-13.3-5.528s2.115,6.934,12.69,7.7Z" transform="translate(-328.204 -217.984)" fill="#eb996e"/>
      <path id="Path_304" data-name="Path 304" d="M408.273,249.256A2.684,2.684,0,0,0,406.116,248a2.568,2.568,0,0,0-1.784.529,1.256,1.256,0,0,0-.416,1.513,1.856,1.856,0,0,0,1.8.725,6.006,6.006,0,0,0,2.03-.693,1.635,1.635,0,0,0,.486-.315.4.4,0,0,0,.092-.479" transform="translate(-332.237 -213.244)" fill="#eb996e"/>
      <path id="Path_305" data-name="Path 305" d="M405.436,245.549c.233,0-.042,1.418,1.1,2.622s2.82,1.3,2.82,1.507c0,.088-.423.208-1.128.113a4.06,4.06,0,0,1-2.355-1.172,2.9,2.9,0,0,1-.874-2.156C405.084,245.833,405.331,245.524,405.436,245.549Z" transform="translate(-332.587 -212.342)" fill="#263238"/>
      <path id="Path_306" data-name="Path 306" d="M394.61,197.755c2.785,5.49,11.809,12.172,18.774,14.542-.634-1.135-4.547-4.324-5.182-5.452,2.82,2.729,6.874,6.436,11.167,7.362a2.967,2.967,0,0,0,1.537.044,1.878,1.878,0,0,0,1.065-1.33,35.842,35.842,0,0,0,1.466-8.478,8.83,8.83,0,0,0-2.467-6.638c-2.376-2.389-6.253-3.53-9.983-4.242a27.1,27.1,0,0,0-9.489-.441c-3.088.529-5.964,2.118-6.888,4.456" transform="translate(-329.523 -192.869)" fill="#263238"/>
      <path id="Path_307" data-name="Path 307" d="M371.043,218.721a47.011,47.011,0,0,1,.268-6.385c.7-4.847,2.39-22.478,20.586-17.939l-1.932,4.52s1.41,11.346-7.945,17.435c0,0,.042,11.346-6.43,15.412,0,0-4.512-7.678-4.547-13.035" transform="translate(-322.566 -193.16)" fill="#263238"/>
      <path id="Path_308" data-name="Path 308" d="M384.279,228.19a7.046,7.046,0,0,0-3.391-.334,4.488,4.488,0,0,0-2.82,1.607,3.75,3.75,0,0,0-.613,2.969,6.607,6.607,0,0,0,1.41,2.805,5.086,5.086,0,0,0,1.77,1.507,2.789,2.789,0,0,0,2.383.044" transform="translate(-324.437 -205.775)" fill="#ffbe9d"/>
      <path id="Path_309" data-name="Path 309" d="M383.455,234.942c.12.057-.479.586-1.452.176a2.041,2.041,0,0,1-1.065-1.179,3.924,3.924,0,0,1-.226-1.74,2.514,2.514,0,0,1,.811-1.683,2.109,2.109,0,0,1,1.622-.542c1.05.145,1.248.845,1.121.845a2.3,2.3,0,0,0-1.149-.3,1.755,1.755,0,0,0-1.544,1.74,2.618,2.618,0,0,0,.74,2.383C382.877,234.974,383.405,234.848,383.455,234.942Z" transform="translate(-325.418 -206.583)" fill="#eb996e"/>
      <path id="Path_310" data-name="Path 310" d="M377.233,242.06c-2.82,15.071-.529,30.477,0,45.756a7.755,7.755,0,0,1-.705,4.3c-1.121,1.973-3.744,2.937-6.218,3.07a58.215,58.215,0,0,1-7.4-.561c-.268-1.462-.529-2.931-.8-4.412q-1.237,2.534-2.468,5.043,1.629-16.074,3.567-32.147" transform="translate(-319.21 -211.053)" fill="#263238"/>
    </g>
  </g>
</svg>
